# Contract axes: X starboard Y up Z aft; metres
v -0.150000 2.600000 0.000000
v -0.150000 2.000000 0.000000
v -0.140000 1.000000 0.000000
v -0.100000 0.300000 0.000000
v 0.000000 0.000000 0.000000
v 0.100000 0.300000 0.000000
v 0.140000 1.000000 0.000000
v 0.150000 2.000000 0.000000
v 0.150000 2.600000 0.000000
v 0.140000 2.600000 0.000000
v 0.140000 2.000000 0.000000
v 0.130000 1.120000 0.000000
v 0.096000 0.500000 0.000000
v 0.000000 0.200000 0.000000
v -0.096000 0.500000 0.000000
v -0.130000 1.120000 0.000000
v -0.140000 2.000000 0.000000
v -0.140000 2.600000 0.000000
v -1.050000 2.600000 1.000000
v -1.050000 2.000000 1.000000
v -0.980000 1.000000 1.000000
v -0.700000 0.300000 1.000000
v 0.000000 0.000000 1.000000
v 0.700000 0.300000 1.000000
v 0.980000 1.000000 1.000000
v 1.050000 2.000000 1.000000
v 1.050000 2.600000 1.000000
v 0.980000 2.600000 1.000000
v 0.980000 2.000000 1.000000
v 0.910000 1.120000 1.000000
v 0.672000 0.500000 1.000000
v 0.000000 0.200000 1.000000
v -0.672000 0.500000 1.000000
v -0.910000 1.120000 1.000000
v -0.980000 2.000000 1.000000
v -0.980000 2.600000 1.000000
v -2.100000 2.600000 2.000000
v -2.100000 2.000000 2.000000
v -1.960000 1.000000 2.000000
v -1.400000 0.300000 2.000000
v 0.000000 0.000000 2.000000
v 1.400000 0.300000 2.000000
v 1.960000 1.000000 2.000000
v 2.100000 2.000000 2.000000
v 2.100000 2.600000 2.000000
v 1.960000 2.600000 2.000000
v 1.960000 2.000000 2.000000
v 1.820000 1.120000 2.000000
v 1.344000 0.500000 2.000000
v 0.000000 0.200000 2.000000
v -1.344000 0.500000 2.000000
v -1.820000 1.120000 2.000000
v -1.960000 2.000000 2.000000
v -1.960000 2.600000 2.000000
v -3.000000 2.600000 4.000000
v -3.000000 2.000000 4.000000
v -2.800000 1.000000 4.000000
v -2.000000 0.300000 4.000000
v 0.000000 0.000000 4.000000
v 2.000000 0.300000 4.000000
v 2.800000 1.000000 4.000000
v 3.000000 2.000000 4.000000
v 3.000000 2.600000 4.000000
v 2.800000 2.600000 4.000000
v 2.800000 2.000000 4.000000
v 2.600000 1.120000 4.000000
v 1.920000 0.500000 4.000000
v 0.000000 0.200000 4.000000
v -1.920000 0.500000 4.000000
v -2.600000 1.120000 4.000000
v -2.800000 2.000000 4.000000
v -2.800000 2.600000 4.000000
v -0.140000 2.600000 0.000000
v -0.140000 2.000000 0.000000
v -0.130000 1.120000 0.000000
v -0.096000 0.500000 0.000000
v 0.000000 0.200000 0.000000
v 0.096000 0.500000 0.000000
v 0.130000 1.120000 0.000000
v 0.140000 2.000000 0.000000
v 0.140000 2.600000 0.000000
v -0.140000 2.600000 0.080000
v -0.140000 2.000000 0.080000
v -0.130000 1.120000 0.080000
v -0.096000 0.500000 0.080000
v 0.000000 0.200000 0.080000
v 0.096000 0.500000 0.080000
v 0.130000 1.120000 0.080000
v 0.140000 2.000000 0.080000
v 0.140000 2.600000 0.080000
v -0.207200 2.000000 0.080000
v 0.207200 2.000000 0.080000
v 0.980000 2.000000 1.000000
v -0.980000 2.000000 1.000000
v -0.204173 1.820000 0.080000
v 0.204173 1.820000 0.080000
v 0.965682 1.820000 1.000000
v -0.965682 1.820000 1.000000
v -0.980000 2.000000 1.000000
v 0.980000 2.000000 1.000000
v 1.960000 2.000000 2.000000
v -1.960000 2.000000 2.000000
v -0.965682 1.820000 1.000000
v 0.965682 1.820000 1.000000
v 1.931364 1.820000 2.000000
v -1.931364 1.820000 2.000000
v -1.960000 2.000000 2.000000
v 1.960000 2.000000 2.000000
v 2.800000 2.000000 4.000000
v -2.800000 2.000000 4.000000
v -1.931364 1.820000 2.000000
v 1.931364 1.820000 2.000000
v 2.759091 1.820000 4.000000
v -2.759091 1.820000 4.000000
v -3.000000 2.600000 4.000000
v -3.000000 2.000000 4.000000
v -2.800000 1.000000 4.000000
v -2.000000 0.300000 4.000000
v 0.000000 0.000000 4.000000
v 2.000000 0.300000 4.000000
v 2.800000 1.000000 4.000000
v 3.000000 2.000000 4.000000
v 3.000000 2.600000 4.000000
v 2.800000 2.600000 4.000000
v 2.800000 2.000000 4.000000
v 2.600000 1.120000 4.000000
v 1.920000 0.500000 4.000000
v 0.000000 0.200000 4.000000
v -1.920000 0.500000 4.000000
v -2.600000 1.120000 4.000000
v -2.800000 2.000000 4.000000
v -2.800000 2.600000 4.000000
v -3.000000 2.600000 6.000000
v -3.000000 2.000000 6.000000
v -2.800000 1.000000 6.000000
v -2.000000 0.300000 6.000000
v 0.000000 0.000000 6.000000
v 2.000000 0.300000 6.000000
v 2.800000 1.000000 6.000000
v 3.000000 2.000000 6.000000
v 3.000000 2.600000 6.000000
v 2.800000 2.600000 6.000000
v 2.800000 2.000000 6.000000
v 2.600000 1.120000 6.000000
v 1.920000 0.500000 6.000000
v 0.000000 0.200000 6.000000
v -1.920000 0.500000 6.000000
v -2.600000 1.120000 6.000000
v -2.800000 2.000000 6.000000
v -2.800000 2.600000 6.000000
v -2.800000 2.000000 4.000000
v 2.800000 2.000000 4.000000
v 2.800000 2.000000 6.000000
v -2.800000 2.000000 6.000000
v -2.759091 1.820000 4.000000
v 2.759091 1.820000 4.000000
v 2.759091 1.820000 6.000000
v -2.759091 1.820000 6.000000
v -3.000000 2.600000 6.000000
v -3.000000 2.000000 6.000000
v -2.800000 1.000000 6.000000
v -2.000000 0.300000 6.000000
v 0.000000 0.000000 6.000000
v 2.000000 0.300000 6.000000
v 2.800000 1.000000 6.000000
v 3.000000 2.000000 6.000000
v 3.000000 2.600000 6.000000
v 2.800000 2.600000 6.000000
v 2.800000 2.000000 6.000000
v 2.600000 1.120000 6.000000
v 1.920000 0.500000 6.000000
v 0.000000 0.200000 6.000000
v -1.920000 0.500000 6.000000
v -2.600000 1.120000 6.000000
v -2.800000 2.000000 6.000000
v -2.800000 2.600000 6.000000
v -3.000000 2.600000 8.000000
v -3.000000 2.000000 8.000000
v -2.800000 1.000000 8.000000
v -2.000000 0.300000 8.000000
v 0.000000 0.000000 8.000000
v 2.000000 0.300000 8.000000
v 2.800000 1.000000 8.000000
v 3.000000 2.000000 8.000000
v 3.000000 2.600000 8.000000
v 2.800000 2.600000 8.000000
v 2.800000 2.000000 8.000000
v 2.600000 1.120000 8.000000
v 1.920000 0.500000 8.000000
v 0.000000 0.200000 8.000000
v -1.920000 0.500000 8.000000
v -2.600000 1.120000 8.000000
v -2.800000 2.000000 8.000000
v -2.800000 2.600000 8.000000
v -2.800000 2.000000 6.000000
v 2.800000 2.000000 6.000000
v 2.800000 2.000000 8.000000
v -2.800000 2.000000 8.000000
v -2.759091 1.820000 6.000000
v 2.759091 1.820000 6.000000
v 2.759091 1.820000 8.000000
v -2.759091 1.820000 8.000000
v -3.000000 2.600000 8.000000
v -3.000000 2.000000 8.000000
v -2.800000 1.000000 8.000000
v -2.000000 0.300000 8.000000
v 0.000000 0.000000 8.000000
v 2.000000 0.300000 8.000000
v 2.800000 1.000000 8.000000
v 3.000000 2.000000 8.000000
v 3.000000 2.600000 8.000000
v 2.800000 2.600000 8.000000
v 2.800000 2.000000 8.000000
v 2.600000 1.120000 8.000000
v 1.920000 0.500000 8.000000
v 0.000000 0.200000 8.000000
v -1.920000 0.500000 8.000000
v -2.600000 1.120000 8.000000
v -2.800000 2.000000 8.000000
v -2.800000 2.600000 8.000000
v -3.000000 2.600000 10.000000
v -3.000000 2.000000 10.000000
v -2.800000 1.000000 10.000000
v -2.000000 0.300000 10.000000
v 0.000000 0.000000 10.000000
v 2.000000 0.300000 10.000000
v 2.800000 1.000000 10.000000
v 3.000000 2.000000 10.000000
v 3.000000 2.600000 10.000000
v 2.800000 2.600000 10.000000
v 2.800000 2.000000 10.000000
v 2.600000 1.120000 10.000000
v 1.920000 0.500000 10.000000
v 0.000000 0.200000 10.000000
v -1.920000 0.500000 10.000000
v -2.600000 1.120000 10.000000
v -2.800000 2.000000 10.000000
v -2.800000 2.600000 10.000000
v -2.800000 2.000000 8.000000
v 2.800000 2.000000 8.000000
v 2.800000 2.000000 10.000000
v -2.800000 2.000000 10.000000
v -2.759091 1.820000 8.000000
v 2.759091 1.820000 8.000000
v 2.759091 1.820000 10.000000
v -2.759091 1.820000 10.000000
v -3.000000 2.600000 10.000000
v -3.000000 2.000000 10.000000
v -2.800000 1.000000 10.000000
v -2.000000 0.300000 10.000000
v 0.000000 0.000000 10.000000
v 2.000000 0.300000 10.000000
v 2.800000 1.000000 10.000000
v 3.000000 2.000000 10.000000
v 3.000000 2.600000 10.000000
v 2.800000 2.600000 10.000000
v 2.800000 2.000000 10.000000
v 2.600000 1.120000 10.000000
v 1.920000 0.500000 10.000000
v 0.000000 0.200000 10.000000
v -1.920000 0.500000 10.000000
v -2.600000 1.120000 10.000000
v -2.800000 2.000000 10.000000
v -2.800000 2.600000 10.000000
v -3.000000 2.600000 12.000000
v -3.000000 2.000000 12.000000
v -2.800000 1.000000 12.000000
v -2.000000 0.300000 12.000000
v 0.000000 0.000000 12.000000
v 2.000000 0.300000 12.000000
v 2.800000 1.000000 12.000000
v 3.000000 2.000000 12.000000
v 3.000000 2.600000 12.000000
v 2.800000 2.600000 12.000000
v 2.800000 2.000000 12.000000
v 2.600000 1.120000 12.000000
v 1.920000 0.500000 12.000000
v 0.000000 0.200000 12.000000
v -1.920000 0.500000 12.000000
v -2.600000 1.120000 12.000000
v -2.800000 2.000000 12.000000
v -2.800000 2.600000 12.000000
v -2.800000 2.000000 10.000000
v 2.800000 2.000000 10.000000
v 2.800000 2.000000 12.000000
v -2.800000 2.000000 12.000000
v -2.759091 1.820000 10.000000
v 2.759091 1.820000 10.000000
v 2.759091 1.820000 12.000000
v -2.759091 1.820000 12.000000
v -3.000000 2.600000 12.000000
v -3.000000 2.000000 12.000000
v -2.800000 1.000000 12.000000
v -2.000000 0.300000 12.000000
v 0.000000 0.000000 12.000000
v 2.000000 0.300000 12.000000
v 2.800000 1.000000 12.000000
v 3.000000 2.000000 12.000000
v 3.000000 2.600000 12.000000
v 2.800000 2.600000 12.000000
v 2.800000 2.000000 12.000000
v 2.600000 1.120000 12.000000
v 1.920000 0.500000 12.000000
v 0.000000 0.200000 12.000000
v -1.920000 0.500000 12.000000
v -2.600000 1.120000 12.000000
v -2.800000 2.000000 12.000000
v -2.800000 2.600000 12.000000
v -3.000000 2.600000 14.000000
v -3.000000 2.000000 14.000000
v -2.800000 1.000000 14.000000
v -2.000000 0.300000 14.000000
v 0.000000 0.000000 14.000000
v 2.000000 0.300000 14.000000
v 2.800000 1.000000 14.000000
v 3.000000 2.000000 14.000000
v 3.000000 2.600000 14.000000
v 2.800000 2.600000 14.000000
v 2.800000 2.000000 14.000000
v 2.600000 1.120000 14.000000
v 1.920000 0.500000 14.000000
v 0.000000 0.200000 14.000000
v -1.920000 0.500000 14.000000
v -2.600000 1.120000 14.000000
v -2.800000 2.000000 14.000000
v -2.800000 2.600000 14.000000
v -2.800000 2.000000 12.000000
v 2.800000 2.000000 12.000000
v 2.800000 2.000000 14.000000
v -2.800000 2.000000 14.000000
v -2.759091 1.820000 12.000000
v 2.759091 1.820000 12.000000
v 2.759091 1.820000 14.000000
v -2.759091 1.820000 14.000000
v -3.000000 2.600000 14.000000
v -3.000000 2.000000 14.000000
v -2.800000 1.000000 14.000000
v -2.000000 0.300000 14.000000
v 0.000000 0.000000 14.000000
v 2.000000 0.300000 14.000000
v 2.800000 1.000000 14.000000
v 3.000000 2.000000 14.000000
v 3.000000 2.600000 14.000000
v 2.800000 2.600000 14.000000
v 2.800000 2.000000 14.000000
v 2.600000 1.120000 14.000000
v 1.920000 0.500000 14.000000
v 0.000000 0.200000 14.000000
v -1.920000 0.500000 14.000000
v -2.600000 1.120000 14.000000
v -2.800000 2.000000 14.000000
v -2.800000 2.600000 14.000000
v -2.880000 2.600000 15.000000
v -2.880000 2.000000 15.000000
v -2.688000 1.000000 15.000000
v -1.920000 0.300000 15.000000
v 0.000000 0.000000 15.000000
v 1.920000 0.300000 15.000000
v 2.688000 1.000000 15.000000
v 2.880000 2.000000 15.000000
v 2.880000 2.600000 15.000000
v 2.688000 2.600000 15.000000
v 2.688000 2.000000 15.000000
v 2.496000 1.120000 15.000000
v 1.843200 0.500000 15.000000
v 0.000000 0.200000 15.000000
v -1.843200 0.500000 15.000000
v -2.496000 1.120000 15.000000
v -2.688000 2.000000 15.000000
v -2.688000 2.600000 15.000000
v -2.400000 2.600000 16.000000
v -2.400000 2.000000 16.000000
v -2.240000 1.000000 16.000000
v -1.600000 0.300000 16.000000
v 0.000000 0.000000 16.000000
v 1.600000 0.300000 16.000000
v 2.240000 1.000000 16.000000
v 2.400000 2.000000 16.000000
v 2.400000 2.600000 16.000000
v 2.240000 2.600000 16.000000
v 2.240000 2.000000 16.000000
v 2.080000 1.120000 16.000000
v 1.536000 0.500000 16.000000
v 0.000000 0.200000 16.000000
v -1.536000 0.500000 16.000000
v -2.080000 1.120000 16.000000
v -2.240000 2.000000 16.000000
v -2.240000 2.600000 16.000000
v -2.240000 2.600000 16.000000
v -2.240000 2.000000 16.000000
v -2.080000 1.120000 16.000000
v -1.536000 0.500000 16.000000
v 0.000000 0.200000 16.000000
v 1.536000 0.500000 16.000000
v 2.080000 1.120000 16.000000
v 2.240000 2.000000 16.000000
v 2.240000 2.600000 16.000000
v -2.240000 2.600000 15.920000
v -2.240000 2.000000 15.920000
v -2.080000 1.120000 15.920000
v -1.536000 0.500000 15.920000
v 0.000000 0.200000 15.920000
v 1.536000 0.500000 15.920000
v 2.080000 1.120000 15.920000
v 2.240000 2.000000 15.920000
v 2.240000 2.600000 15.920000
v -2.800000 2.000000 14.000000
v 2.800000 2.000000 14.000000
v 2.688000 2.000000 15.000000
v -2.688000 2.000000 15.000000
v -2.759091 1.820000 14.000000
v 2.759091 1.820000 14.000000
v 2.648727 1.820000 15.000000
v -2.648727 1.820000 15.000000
v -2.688000 2.000000 15.000000
v 2.688000 2.000000 15.000000
v 2.275840 2.000000 15.920000
v -2.275840 2.000000 15.920000
v -2.648727 1.820000 15.000000
v 2.648727 1.820000 15.000000
v 2.242589 1.820000 15.920000
v -2.242589 1.820000 15.920000
f 1 2 20 19
f 2 3 21 20
f 3 4 22 21
f 4 5 23 22
f 5 6 24 23
f 6 7 25 24
f 7 8 26 25
f 8 9 27 26
f 9 10 28 27
f 10 11 29 28
f 11 12 30 29
f 12 13 31 30
f 13 14 32 31
f 14 15 33 32
f 15 16 34 33
f 16 17 35 34
f 17 18 36 35
f 18 1 19 36
f 19 20 38 37
f 20 21 39 38
f 21 22 40 39
f 22 23 41 40
f 23 24 42 41
f 24 25 43 42
f 25 26 44 43
f 26 27 45 44
f 27 28 46 45
f 28 29 47 46
f 29 30 48 47
f 30 31 49 48
f 31 32 50 49
f 32 33 51 50
f 33 34 52 51
f 34 35 53 52
f 35 36 54 53
f 36 19 37 54
f 37 38 56 55
f 38 39 57 56
f 39 40 58 57
f 40 41 59 58
f 41 42 60 59
f 42 43 61 60
f 43 44 62 61
f 44 45 63 62
f 45 46 64 63
f 46 47 65 64
f 47 48 66 65
f 48 49 67 66
f 49 50 68 67
f 50 51 69 68
f 51 52 70 69
f 52 53 71 70
f 53 54 72 71
f 54 37 55 72
f 1 18 2
f 2 18 17
f 2 17 3
f 3 17 16
f 3 16 4
f 4 16 15
f 4 15 5
f 5 15 14
f 5 14 6
f 6 14 13
f 6 13 7
f 7 13 12
f 7 12 8
f 8 12 11
f 8 11 9
f 9 11 10
f 56 72 55
f 71 72 56
f 57 71 56
f 70 71 57
f 58 70 57
f 69 70 58
f 59 69 58
f 68 69 59
f 60 68 59
f 67 68 60
f 61 67 60
f 66 67 61
f 62 66 61
f 65 66 62
f 63 65 62
f 64 65 63
f 73 74 75 76 77 78 79 80 81
f 90 89 88 87 86 85 84 83 82
f 73 74 83 82
f 74 75 84 83
f 75 76 85 84
f 76 77 86 85
f 77 78 87 86
f 78 79 88 87
f 79 80 89 88
f 80 81 90 89
f 81 73 82 90
f 91 94 93 92
f 95 96 97 98
f 91 92 96 95
f 92 93 97 96
f 93 94 98 97
f 94 91 95 98
f 99 102 101 100
f 103 104 105 106
f 99 100 104 103
f 100 101 105 104
f 101 102 106 105
f 102 99 103 106
f 107 110 109 108
f 111 112 113 114
f 107 108 112 111
f 108 109 113 112
f 109 110 114 113
f 110 107 111 114
f 115 116 134 133
f 116 117 135 134
f 117 118 136 135
f 118 119 137 136
f 119 120 138 137
f 120 121 139 138
f 121 122 140 139
f 122 123 141 140
f 123 124 142 141
f 124 125 143 142
f 125 126 144 143
f 126 127 145 144
f 127 128 146 145
f 128 129 147 146
f 129 130 148 147
f 130 131 149 148
f 131 132 150 149
f 132 115 133 150
f 115 132 116
f 116 132 131
f 116 131 117
f 117 131 130
f 117 130 118
f 118 130 129
f 118 129 119
f 119 129 128
f 119 128 120
f 120 128 127
f 120 127 121
f 121 127 126
f 121 126 122
f 122 126 125
f 122 125 123
f 123 125 124
f 134 150 133
f 149 150 134
f 135 149 134
f 148 149 135
f 136 148 135
f 147 148 136
f 137 147 136
f 146 147 137
f 138 146 137
f 145 146 138
f 139 145 138
f 144 145 139
f 140 144 139
f 143 144 140
f 141 143 140
f 142 143 141
f 151 154 153 152
f 155 156 157 158
f 151 152 156 155
f 152 153 157 156
f 153 154 158 157
f 154 151 155 158
f 159 160 178 177
f 160 161 179 178
f 161 162 180 179
f 162 163 181 180
f 163 164 182 181
f 164 165 183 182
f 165 166 184 183
f 166 167 185 184
f 167 168 186 185
f 168 169 187 186
f 169 170 188 187
f 170 171 189 188
f 171 172 190 189
f 172 173 191 190
f 173 174 192 191
f 174 175 193 192
f 175 176 194 193
f 176 159 177 194
f 159 176 160
f 160 176 175
f 160 175 161
f 161 175 174
f 161 174 162
f 162 174 173
f 162 173 163
f 163 173 172
f 163 172 164
f 164 172 171
f 164 171 165
f 165 171 170
f 165 170 166
f 166 170 169
f 166 169 167
f 167 169 168
f 178 194 177
f 193 194 178
f 179 193 178
f 192 193 179
f 180 192 179
f 191 192 180
f 181 191 180
f 190 191 181
f 182 190 181
f 189 190 182
f 183 189 182
f 188 189 183
f 184 188 183
f 187 188 184
f 185 187 184
f 186 187 185
f 195 198 197 196
f 199 200 201 202
f 195 196 200 199
f 196 197 201 200
f 197 198 202 201
f 198 195 199 202
f 203 204 222 221
f 204 205 223 222
f 205 206 224 223
f 206 207 225 224
f 207 208 226 225
f 208 209 227 226
f 209 210 228 227
f 210 211 229 228
f 211 212 230 229
f 212 213 231 230
f 213 214 232 231
f 214 215 233 232
f 215 216 234 233
f 216 217 235 234
f 217 218 236 235
f 218 219 237 236
f 219 220 238 237
f 220 203 221 238
f 203 220 204
f 204 220 219
f 204 219 205
f 205 219 218
f 205 218 206
f 206 218 217
f 206 217 207
f 207 217 216
f 207 216 208
f 208 216 215
f 208 215 209
f 209 215 214
f 209 214 210
f 210 214 213
f 210 213 211
f 211 213 212
f 222 238 221
f 237 238 222
f 223 237 222
f 236 237 223
f 224 236 223
f 235 236 224
f 225 235 224
f 234 235 225
f 226 234 225
f 233 234 226
f 227 233 226
f 232 233 227
f 228 232 227
f 231 232 228
f 229 231 228
f 230 231 229
f 239 242 241 240
f 243 244 245 246
f 239 240 244 243
f 240 241 245 244
f 241 242 246 245
f 242 239 243 246
f 247 248 266 265
f 248 249 267 266
f 249 250 268 267
f 250 251 269 268
f 251 252 270 269
f 252 253 271 270
f 253 254 272 271
f 254 255 273 272
f 255 256 274 273
f 256 257 275 274
f 257 258 276 275
f 258 259 277 276
f 259 260 278 277
f 260 261 279 278
f 261 262 280 279
f 262 263 281 280
f 263 264 282 281
f 264 247 265 282
f 247 264 248
f 248 264 263
f 248 263 249
f 249 263 262
f 249 262 250
f 250 262 261
f 250 261 251
f 251 261 260
f 251 260 252
f 252 260 259
f 252 259 253
f 253 259 258
f 253 258 254
f 254 258 257
f 254 257 255
f 255 257 256
f 266 282 265
f 281 282 266
f 267 281 266
f 280 281 267
f 268 280 267
f 279 280 268
f 269 279 268
f 278 279 269
f 270 278 269
f 277 278 270
f 271 277 270
f 276 277 271
f 272 276 271
f 275 276 272
f 273 275 272
f 274 275 273
f 283 286 285 284
f 287 288 289 290
f 283 284 288 287
f 284 285 289 288
f 285 286 290 289
f 286 283 287 290
f 291 292 310 309
f 292 293 311 310
f 293 294 312 311
f 294 295 313 312
f 295 296 314 313
f 296 297 315 314
f 297 298 316 315
f 298 299 317 316
f 299 300 318 317
f 300 301 319 318
f 301 302 320 319
f 302 303 321 320
f 303 304 322 321
f 304 305 323 322
f 305 306 324 323
f 306 307 325 324
f 307 308 326 325
f 308 291 309 326
f 291 308 292
f 292 308 307
f 292 307 293
f 293 307 306
f 293 306 294
f 294 306 305
f 294 305 295
f 295 305 304
f 295 304 296
f 296 304 303
f 296 303 297
f 297 303 302
f 297 302 298
f 298 302 301
f 298 301 299
f 299 301 300
f 310 326 309
f 325 326 310
f 311 325 310
f 324 325 311
f 312 324 311
f 323 324 312
f 313 323 312
f 322 323 313
f 314 322 313
f 321 322 314
f 315 321 314
f 320 321 315
f 316 320 315
f 319 320 316
f 317 319 316
f 318 319 317
f 327 330 329 328
f 331 332 333 334
f 327 328 332 331
f 328 329 333 332
f 329 330 334 333
f 330 327 331 334
f 335 336 354 353
f 336 337 355 354
f 337 338 356 355
f 338 339 357 356
f 339 340 358 357
f 340 341 359 358
f 341 342 360 359
f 342 343 361 360
f 343 344 362 361
f 344 345 363 362
f 345 346 364 363
f 346 347 365 364
f 347 348 366 365
f 348 349 367 366
f 349 350 368 367
f 350 351 369 368
f 351 352 370 369
f 352 335 353 370
f 353 354 372 371
f 354 355 373 372
f 355 356 374 373
f 356 357 375 374
f 357 358 376 375
f 358 359 377 376
f 359 360 378 377
f 360 361 379 378
f 361 362 380 379
f 362 363 381 380
f 363 364 382 381
f 364 365 383 382
f 365 366 384 383
f 366 367 385 384
f 367 368 386 385
f 368 369 387 386
f 369 370 388 387
f 370 353 371 388
f 335 352 336
f 336 352 351
f 336 351 337
f 337 351 350
f 337 350 338
f 338 350 349
f 338 349 339
f 339 349 348
f 339 348 340
f 340 348 347
f 340 347 341
f 341 347 346
f 341 346 342
f 342 346 345
f 342 345 343
f 343 345 344
f 372 388 371
f 387 388 372
f 373 387 372
f 386 387 373
f 374 386 373
f 385 386 374
f 375 385 374
f 384 385 375
f 376 384 375
f 383 384 376
f 377 383 376
f 382 383 377
f 378 382 377
f 381 382 378
f 379 381 378
f 380 381 379
f 389 390 391 392 393 394 395 396 397
f 406 405 404 403 402 401 400 399 398
f 389 390 399 398
f 390 391 400 399
f 391 392 401 400
f 392 393 402 401
f 393 394 403 402
f 394 395 404 403
f 395 396 405 404
f 396 397 406 405
f 397 389 398 406
f 407 410 409 408
f 411 412 413 414
f 407 408 412 411
f 408 409 413 412
f 409 410 414 413
f 410 407 411 414
f 415 418 417 416
f 419 420 421 422
f 415 416 420 419
f 416 417 421 420
f 417 418 422 421
f 418 415 419 422
