# Contract axes: X starboard Y up Z aft; metres
v -0.150000 2.600000 0.000000
v -0.150000 2.000000 0.000000
v -0.140000 1.000000 0.000000
v -0.100000 0.300000 0.000000
v 0.000000 0.000000 0.000000
v 0.100000 0.300000 0.000000
v 0.140000 1.000000 0.000000
v 0.150000 2.000000 0.000000
v 0.150000 2.600000 0.000000
v 0.140000 2.600000 0.000000
v 0.140000 2.000000 0.000000
v 0.130000 1.120000 0.000000
v 0.096000 0.500000 0.000000
v 0.000000 0.200000 0.000000
v -0.096000 0.500000 0.000000
v -0.130000 1.120000 0.000000
v -0.140000 2.000000 0.000000
v -0.140000 2.600000 0.000000
v -1.050000 2.600000 1.000000
v -1.050000 2.000000 1.000000
v -0.980000 1.000000 1.000000
v -0.700000 0.300000 1.000000
v 0.000000 0.000000 1.000000
v 0.700000 0.300000 1.000000
v 0.980000 1.000000 1.000000
v 1.050000 2.000000 1.000000
v 1.050000 2.600000 1.000000
v 0.980000 2.600000 1.000000
v 0.980000 2.000000 1.000000
v 0.910000 1.120000 1.000000
v 0.672000 0.500000 1.000000
v 0.000000 0.200000 1.000000
v -0.672000 0.500000 1.000000
v -0.910000 1.120000 1.000000
v -0.980000 2.000000 1.000000
v -0.980000 2.600000 1.000000
v -2.100000 2.600000 2.000000
v -2.100000 2.000000 2.000000
v -1.960000 1.000000 2.000000
v -1.400000 0.300000 2.000000
v 0.000000 0.000000 2.000000
v 1.400000 0.300000 2.000000
v 1.960000 1.000000 2.000000
v 2.100000 2.000000 2.000000
v 2.100000 2.600000 2.000000
v 1.960000 2.600000 2.000000
v 1.960000 2.000000 2.000000
v 1.820000 1.120000 2.000000
v 1.344000 0.500000 2.000000
v 0.000000 0.200000 2.000000
v -1.344000 0.500000 2.000000
v -1.820000 1.120000 2.000000
v -1.960000 2.000000 2.000000
v -1.960000 2.600000 2.000000
v -3.000000 2.600000 4.000000
v -3.000000 2.000000 4.000000
v -2.800000 1.000000 4.000000
v -2.000000 0.300000 4.000000
v 0.000000 0.000000 4.000000
v 2.000000 0.300000 4.000000
v 2.800000 1.000000 4.000000
v 3.000000 2.000000 4.000000
v 3.000000 2.600000 4.000000
v 2.800000 2.600000 4.000000
v 2.800000 2.000000 4.000000
v 2.600000 1.120000 4.000000
v 1.920000 0.500000 4.000000
v 0.000000 0.200000 4.000000
v -1.920000 0.500000 4.000000
v -2.600000 1.120000 4.000000
v -2.800000 2.000000 4.000000
v -2.800000 2.600000 4.000000
v -0.140000 2.600000 0.000000
v -0.140000 2.000000 0.000000
v -0.130000 1.120000 0.000000
v -0.096000 0.500000 0.000000
v 0.000000 0.200000 0.000000
v 0.096000 0.500000 0.000000
v 0.130000 1.120000 0.000000
v 0.140000 2.000000 0.000000
v 0.140000 2.600000 0.000000
v -0.140000 2.600000 0.080000
v -0.140000 2.000000 0.080000
v -0.130000 1.120000 0.080000
v -0.096000 0.500000 0.080000
v 0.000000 0.200000 0.080000
v 0.096000 0.500000 0.080000
v 0.130000 1.120000 0.080000
v 0.140000 2.000000 0.080000
v 0.140000 2.600000 0.080000
v -0.207200 2.000000 0.080000
v 0.207200 2.000000 0.080000
v 0.980000 2.000000 1.000000
v -0.980000 2.000000 1.000000
v -0.204173 1.820000 0.080000
v 0.204173 1.820000 0.080000
v 0.965682 1.820000 1.000000
v -0.965682 1.820000 1.000000
v -0.980000 2.000000 1.000000
v 0.980000 2.000000 1.000000
v 1.960000 2.000000 2.000000
v -1.960000 2.000000 2.000000
v -0.965682 1.820000 1.000000
v 0.965682 1.820000 1.000000
v 1.931364 1.820000 2.000000
v -1.931364 1.820000 2.000000
v -1.960000 2.000000 2.000000
v 1.960000 2.000000 2.000000
v 2.800000 2.000000 4.000000
v -2.800000 2.000000 4.000000
v -1.931364 1.820000 2.000000
v 1.931364 1.820000 2.000000
v 2.759091 1.820000 4.000000
v -2.759091 1.820000 4.000000
v -3.000000 2.600000 4.000000
v -3.000000 2.000000 4.000000
v -2.800000 1.000000 4.000000
v -2.000000 0.300000 4.000000
v 0.000000 0.000000 4.000000
v 2.000000 0.300000 4.000000
v 2.800000 1.000000 4.000000
v 3.000000 2.000000 4.000000
v 3.000000 2.600000 4.000000
v 2.800000 2.600000 4.000000
v 2.800000 2.000000 4.000000
v 2.600000 1.120000 4.000000
v 1.920000 0.500000 4.000000
v 0.000000 0.200000 4.000000
v -1.920000 0.500000 4.000000
v -2.600000 1.120000 4.000000
v -2.800000 2.000000 4.000000
v -2.800000 2.600000 4.000000
v -3.000000 2.600000 6.000000
v -3.000000 2.000000 6.000000
v -2.800000 1.000000 6.000000
v -2.000000 0.300000 6.000000
v 0.000000 0.000000 6.000000
v 2.000000 0.300000 6.000000
v 2.800000 1.000000 6.000000
v 3.000000 2.000000 6.000000
v 3.000000 2.600000 6.000000
v 2.800000 2.600000 6.000000
v 2.800000 2.000000 6.000000
v 2.600000 1.120000 6.000000
v 1.920000 0.500000 6.000000
v 0.000000 0.200000 6.000000
v -1.920000 0.500000 6.000000
v -2.600000 1.120000 6.000000
v -2.800000 2.000000 6.000000
v -2.800000 2.600000 6.000000
v -2.800000 2.000000 4.000000
v 2.800000 2.000000 4.000000
v 2.800000 2.000000 6.000000
v -2.800000 2.000000 6.000000
v -2.759091 1.820000 4.000000
v 2.759091 1.820000 4.000000
v 2.759091 1.820000 6.000000
v -2.759091 1.820000 6.000000
v -3.000000 2.600000 6.000000
v -3.000000 2.000000 6.000000
v -2.800000 1.000000 6.000000
v -2.000000 0.300000 6.000000
v 0.000000 0.000000 6.000000
v 2.000000 0.300000 6.000000
v 2.800000 1.000000 6.000000
v 3.000000 2.000000 6.000000
v 3.000000 2.600000 6.000000
v 2.800000 2.600000 6.000000
v 2.800000 2.000000 6.000000
v 2.600000 1.120000 6.000000
v 1.920000 0.500000 6.000000
v 0.000000 0.200000 6.000000
v -1.920000 0.500000 6.000000
v -2.600000 1.120000 6.000000
v -2.800000 2.000000 6.000000
v -2.800000 2.600000 6.000000
v -2.880000 2.600000 7.000000
v -2.880000 2.000000 7.000000
v -2.688000 1.000000 7.000000
v -1.920000 0.300000 7.000000
v 0.000000 0.000000 7.000000
v 1.920000 0.300000 7.000000
v 2.688000 1.000000 7.000000
v 2.880000 2.000000 7.000000
v 2.880000 2.600000 7.000000
v 2.688000 2.600000 7.000000
v 2.688000 2.000000 7.000000
v 2.496000 1.120000 7.000000
v 1.843200 0.500000 7.000000
v 0.000000 0.200000 7.000000
v -1.843200 0.500000 7.000000
v -2.496000 1.120000 7.000000
v -2.688000 2.000000 7.000000
v -2.688000 2.600000 7.000000
v -2.400000 2.600000 8.000000
v -2.400000 2.000000 8.000000
v -2.240000 1.000000 8.000000
v -1.600000 0.300000 8.000000
v 0.000000 0.000000 8.000000
v 1.600000 0.300000 8.000000
v 2.240000 1.000000 8.000000
v 2.400000 2.000000 8.000000
v 2.400000 2.600000 8.000000
v 2.240000 2.600000 8.000000
v 2.240000 2.000000 8.000000
v 2.080000 1.120000 8.000000
v 1.536000 0.500000 8.000000
v 0.000000 0.200000 8.000000
v -1.536000 0.500000 8.000000
v -2.080000 1.120000 8.000000
v -2.240000 2.000000 8.000000
v -2.240000 2.600000 8.000000
v -2.240000 2.600000 8.000000
v -2.240000 2.000000 8.000000
v -2.080000 1.120000 8.000000
v -1.536000 0.500000 8.000000
v 0.000000 0.200000 8.000000
v 1.536000 0.500000 8.000000
v 2.080000 1.120000 8.000000
v 2.240000 2.000000 8.000000
v 2.240000 2.600000 8.000000
v -2.240000 2.600000 7.920000
v -2.240000 2.000000 7.920000
v -2.080000 1.120000 7.920000
v -1.536000 0.500000 7.920000
v 0.000000 0.200000 7.920000
v 1.536000 0.500000 7.920000
v 2.080000 1.120000 7.920000
v 2.240000 2.000000 7.920000
v 2.240000 2.600000 7.920000
v -2.800000 2.000000 6.000000
v 2.800000 2.000000 6.000000
v 2.688000 2.000000 7.000000
v -2.688000 2.000000 7.000000
v -2.759091 1.820000 6.000000
v 2.759091 1.820000 6.000000
v 2.648727 1.820000 7.000000
v -2.648727 1.820000 7.000000
v -2.688000 2.000000 7.000000
v 2.688000 2.000000 7.000000
v 2.275840 2.000000 7.920000
v -2.275840 2.000000 7.920000
v -2.648727 1.820000 7.000000
v 2.648727 1.820000 7.000000
v 2.242589 1.820000 7.920000
v -2.242589 1.820000 7.920000
f 1 2 20 19
f 2 3 21 20
f 3 4 22 21
f 4 5 23 22
f 5 6 24 23
f 6 7 25 24
f 7 8 26 25
f 8 9 27 26
f 9 10 28 27
f 10 11 29 28
f 11 12 30 29
f 12 13 31 30
f 13 14 32 31
f 14 15 33 32
f 15 16 34 33
f 16 17 35 34
f 17 18 36 35
f 18 1 19 36
f 19 20 38 37
f 20 21 39 38
f 21 22 40 39
f 22 23 41 40
f 23 24 42 41
f 24 25 43 42
f 25 26 44 43
f 26 27 45 44
f 27 28 46 45
f 28 29 47 46
f 29 30 48 47
f 30 31 49 48
f 31 32 50 49
f 32 33 51 50
f 33 34 52 51
f 34 35 53 52
f 35 36 54 53
f 36 19 37 54
f 37 38 56 55
f 38 39 57 56
f 39 40 58 57
f 40 41 59 58
f 41 42 60 59
f 42 43 61 60
f 43 44 62 61
f 44 45 63 62
f 45 46 64 63
f 46 47 65 64
f 47 48 66 65
f 48 49 67 66
f 49 50 68 67
f 50 51 69 68
f 51 52 70 69
f 52 53 71 70
f 53 54 72 71
f 54 37 55 72
f 1 18 2
f 2 18 17
f 2 17 3
f 3 17 16
f 3 16 4
f 4 16 15
f 4 15 5
f 5 15 14
f 5 14 6
f 6 14 13
f 6 13 7
f 7 13 12
f 7 12 8
f 8 12 11
f 8 11 9
f 9 11 10
f 56 72 55
f 71 72 56
f 57 71 56
f 70 71 57
f 58 70 57
f 69 70 58
f 59 69 58
f 68 69 59
f 60 68 59
f 67 68 60
f 61 67 60
f 66 67 61
f 62 66 61
f 65 66 62
f 63 65 62
f 64 65 63
f 73 74 75 76 77 78 79 80 81
f 90 89 88 87 86 85 84 83 82
f 73 74 83 82
f 74 75 84 83
f 75 76 85 84
f 76 77 86 85
f 77 78 87 86
f 78 79 88 87
f 79 80 89 88
f 80 81 90 89
f 81 73 82 90
f 91 94 93 92
f 95 96 97 98
f 91 92 96 95
f 92 93 97 96
f 93 94 98 97
f 94 91 95 98
f 99 102 101 100
f 103 104 105 106
f 99 100 104 103
f 100 101 105 104
f 101 102 106 105
f 102 99 103 106
f 107 110 109 108
f 111 112 113 114
f 107 108 112 111
f 108 109 113 112
f 109 110 114 113
f 110 107 111 114
f 115 116 134 133
f 116 117 135 134
f 117 118 136 135
f 118 119 137 136
f 119 120 138 137
f 120 121 139 138
f 121 122 140 139
f 122 123 141 140
f 123 124 142 141
f 124 125 143 142
f 125 126 144 143
f 126 127 145 144
f 127 128 146 145
f 128 129 147 146
f 129 130 148 147
f 130 131 149 148
f 131 132 150 149
f 132 115 133 150
f 115 132 116
f 116 132 131
f 116 131 117
f 117 131 130
f 117 130 118
f 118 130 129
f 118 129 119
f 119 129 128
f 119 128 120
f 120 128 127
f 120 127 121
f 121 127 126
f 121 126 122
f 122 126 125
f 122 125 123
f 123 125 124
f 134 150 133
f 149 150 134
f 135 149 134
f 148 149 135
f 136 148 135
f 147 148 136
f 137 147 136
f 146 147 137
f 138 146 137
f 145 146 138
f 139 145 138
f 144 145 139
f 140 144 139
f 143 144 140
f 141 143 140
f 142 143 141
f 151 154 153 152
f 155 156 157 158
f 151 152 156 155
f 152 153 157 156
f 153 154 158 157
f 154 151 155 158
f 159 160 178 177
f 160 161 179 178
f 161 162 180 179
f 162 163 181 180
f 163 164 182 181
f 164 165 183 182
f 165 166 184 183
f 166 167 185 184
f 167 168 186 185
f 168 169 187 186
f 169 170 188 187
f 170 171 189 188
f 171 172 190 189
f 172 173 191 190
f 173 174 192 191
f 174 175 193 192
f 175 176 194 193
f 176 159 177 194
f 177 178 196 195
f 178 179 197 196
f 179 180 198 197
f 180 181 199 198
f 181 182 200 199
f 182 183 201 200
f 183 184 202 201
f 184 185 203 202
f 185 186 204 203
f 186 187 205 204
f 187 188 206 205
f 188 189 207 206
f 189 190 208 207
f 190 191 209 208
f 191 192 210 209
f 192 193 211 210
f 193 194 212 211
f 194 177 195 212
f 159 176 160
f 160 176 175
f 160 175 161
f 161 175 174
f 161 174 162
f 162 174 173
f 162 173 163
f 163 173 172
f 163 172 164
f 164 172 171
f 164 171 165
f 165 171 170
f 165 170 166
f 166 170 169
f 166 169 167
f 167 169 168
f 196 212 195
f 211 212 196
f 197 211 196
f 210 211 197
f 198 210 197
f 209 210 198
f 199 209 198
f 208 209 199
f 200 208 199
f 207 208 200
f 201 207 200
f 206 207 201
f 202 206 201
f 205 206 202
f 203 205 202
f 204 205 203
f 213 214 215 216 217 218 219 220 221
f 230 229 228 227 226 225 224 223 222
f 213 214 223 222
f 214 215 224 223
f 215 216 225 224
f 216 217 226 225
f 217 218 227 226
f 218 219 228 227
f 219 220 229 228
f 220 221 230 229
f 221 213 222 230
f 231 234 233 232
f 235 236 237 238
f 231 232 236 235
f 232 233 237 236
f 233 234 238 237
f 234 231 235 238
f 239 242 241 240
f 243 244 245 246
f 239 240 244 243
f 240 241 245 244
f 241 242 246 245
f 242 239 243 246
