<svg xmlns="http://www.w3.org/2000/svg" width="1200" height="490" viewBox="0 0 1200 490"><rect width="1200" height="490" fill="#f5f1e8"/><g font-family="sans-serif" font-size="16" fill="#28343c"><text x="30" y="28">D04_STERN_DECK — exact starter geometry, metres; hidden edges also shown</text></g><g fill="none" stroke="#33596b" stroke-width="1"><text x="30" y="65" fill="#28343c" stroke="none" font-family="sans-serif">TOP: X / Z</text><path d="M36.80,359.29 L39.18,359.29"/><path d="M39.18,359.29 L360.82,359.29"/><path d="M36.80,359.29 L363.20,359.29"/><path d="M36.80,359.29 L39.18,359.29"/><path d="M360.82,359.29 L336.16,303.43"/><path d="M32.48,420.00 L367.52,420.00"/><path d="M367.52,420.00 L360.82,359.29"/><path d="M39.18,359.29 L63.84,303.43"/><path d="M336.16,303.43 L63.84,303.43"/><path d="M36.80,359.29 L61.82,303.43"/><path d="M30.00,420.00 L370.00,420.00"/><path d="M363.20,359.29 L338.18,303.43"/><path d="M370.00,420.00 L363.20,359.29"/><path d="M30.00,420.00 L32.48,420.00"/><path d="M338.18,303.43 L61.82,303.43"/><path d="M363.20,359.29 L360.82,359.29"/><path d="M370.00,420.00 L367.52,420.00"/><path d="M338.18,303.43 L336.16,303.43"/><path d="M360.82,359.29 L39.18,359.29"/><path d="M32.48,420.00 L39.18,359.29"/><path d="M30.00,420.00 L36.80,359.29"/><path d="M363.20,359.29 L36.80,359.29"/><path d="M363.20,359.29 L360.82,359.29"/><path d="M61.82,303.43 L63.84,303.43"/><text x="430" y="65" fill="#28343c" stroke="none" font-family="sans-serif">SIDE: Z / Y</text><path d="M607.08,388.12 L607.08,420.00"/><path d="M607.08,420.00 L607.08,420.00"/><path d="M607.08,388.12 L607.08,388.12"/><path d="M607.08,388.12 L607.08,420.00"/><path d="M607.08,420.00 L770.00,420.00"/><path d="M430.00,420.00 L430.00,420.00"/><path d="M430.00,420.00 L607.08,420.00"/><path d="M607.08,420.00 L770.00,420.00"/><path d="M770.00,420.00 L770.00,420.00"/><path d="M607.08,388.12 L770.00,388.12"/><path d="M430.00,388.12 L430.00,388.12"/><path d="M607.08,388.12 L770.00,388.12"/><path d="M430.00,388.12 L607.08,388.12"/><path d="M430.00,388.12 L430.00,420.00"/><path d="M770.00,388.12 L770.00,388.12"/><path d="M607.08,388.12 L607.08,420.00"/><path d="M430.00,388.12 L430.00,420.00"/><path d="M770.00,388.12 L770.00,420.00"/><path d="M607.08,420.00 L607.08,420.00"/><path d="M430.00,420.00 L607.08,420.00"/><path d="M430.00,388.12 L607.08,388.12"/><path d="M607.08,388.12 L607.08,388.12"/><path d="M607.08,388.12 L607.08,420.00"/><path d="M770.00,388.12 L770.00,420.00"/><text x="830" y="65" fill="#28343c" stroke="none" font-family="sans-serif">END: X / Y</text><path d="M836.80,409.07 L839.18,420.00"/><path d="M839.18,420.00 L1160.82,420.00"/><path d="M836.80,409.07 L1163.20,409.07"/><path d="M836.80,409.07 L839.18,420.00"/><path d="M1160.82,420.00 L1136.16,420.00"/><path d="M832.48,420.00 L1167.52,420.00"/><path d="M1167.52,420.00 L1160.82,420.00"/><path d="M839.18,420.00 L863.84,420.00"/><path d="M1136.16,420.00 L863.84,420.00"/><path d="M836.80,409.07 L861.82,409.07"/><path d="M830.00,409.07 L1170.00,409.07"/><path d="M1163.20,409.07 L1138.18,409.07"/><path d="M1170.00,409.07 L1163.20,409.07"/><path d="M830.00,409.07 L832.48,420.00"/><path d="M1138.18,409.07 L861.82,409.07"/><path d="M1163.20,409.07 L1160.82,420.00"/><path d="M1170.00,409.07 L1167.52,420.00"/><path d="M1138.18,409.07 L1136.16,420.00"/><path d="M1160.82,420.00 L839.18,420.00"/><path d="M832.48,420.00 L839.18,420.00"/><path d="M830.00,409.07 L836.80,409.07"/><path d="M1163.20,409.07 L836.80,409.07"/><path d="M1163.20,409.07 L1160.82,420.00"/><path d="M861.82,409.07 L863.84,420.00"/></g><text x="30" y="465" font-family="sans-serif" font-size="14">Use contract.json for dimensions. PNG concept art does not define mating geometry.</text></svg>