# Metres; X starboard Y up Z aft; canonical ship family
mtllib ship.mtl
v 0.600000000 0.000000000 0.000000000
v 1.860000000 0.300000000 0.000000000
v 2.700000000 1.000000000 0.000000000
v 3.000000000 2.420000000 0.000000000
v 3.000000000 2.600000000 0.000000000
v 2.800000000 2.600000000 0.000000000
v 2.800000000 2.420000000 0.000000000
v 2.520000000 1.120000000 0.000000000
v 1.680000000 0.500000000 0.000000000
v 0.560000000 0.200000000 0.000000000
v 0.588471168 0.000000000 0.078036129
v 1.824260621 0.300000000 0.241911999
v 2.648120257 1.000000000 0.351162580
v 2.942355841 2.420000000 0.390180644
v 2.942355841 2.600000000 0.390180644
v 2.746198785 2.600000000 0.351162580
v 2.746198785 2.420000000 0.351162580
v 2.471578907 1.120000000 0.316046322
v 1.647719271 0.500000000 0.210697548
v 0.549239757 0.200000000 0.070232516
v 0.588471168 0.000000000 0.078036129
v 1.824260621 0.300000000 0.241911999
v 2.648120257 1.000000000 0.351162580
v 2.942355841 2.420000000 0.390180644
v 2.942355841 2.600000000 0.390180644
v 2.746198785 2.600000000 0.351162580
v 2.746198785 2.420000000 0.351162580
v 2.471578907 1.120000000 0.316046322
v 1.647719271 0.500000000 0.210697548
v 0.549239757 0.200000000 0.070232516
v 0.554327720 0.000000000 0.153073373
v 1.718415931 0.300000000 0.474527456
v 2.494474738 1.000000000 0.688830178
v 2.771638598 2.420000000 0.765366865
v 2.771638598 2.600000000 0.765366865
v 2.586862691 2.600000000 0.688830178
v 2.586862691 2.420000000 0.688830178
v 2.328176422 1.120000000 0.619947160
v 1.552117615 0.500000000 0.413298107
v 0.517372538 0.200000000 0.137766036
v 0.554327720 0.000000000 0.153073373
v 1.718415931 0.300000000 0.474527456
v 2.494474738 1.000000000 0.688830178
v 2.771638598 2.420000000 0.765366865
v 2.771638598 2.600000000 0.765366865
v 2.586862691 2.600000000 0.688830178
v 2.586862691 2.420000000 0.688830178
v 2.328176422 1.120000000 0.619947160
v 1.552117615 0.500000000 0.413298107
v 0.517372538 0.200000000 0.137766036
v 0.498881767 0.000000000 0.222228093
v 1.546533479 0.300000000 0.688907089
v 2.244967953 1.000000000 1.000026419
v 2.494408837 2.420000000 1.111140466
v 2.494408837 2.600000000 1.111140466
v 2.328114914 2.600000000 1.000026419
v 2.328114914 2.420000000 1.000026419
v 2.095303423 1.120000000 0.900023777
v 1.396868948 0.500000000 0.600015851
v 0.465622983 0.200000000 0.200005284
v 0.498881767 0.000000000 0.222228093
v 1.546533479 0.300000000 0.688907089
v 2.244967953 1.000000000 1.000026419
v 2.494408837 2.420000000 1.111140466
v 2.494408837 2.600000000 1.111140466
v 2.328114914 2.600000000 1.000026419
v 2.328114914 2.420000000 1.000026419
v 2.095303423 1.120000000 0.900023777
v 1.396868948 0.500000000 0.600015851
v 0.465622983 0.200000000 0.200005284
v 0.424264069 0.000000000 0.282842712
v 1.315218613 0.300000000 0.876812408
v 1.909188310 1.000000000 1.272792206
v 2.121320344 2.420000000 1.414213562
v 2.121320344 2.600000000 1.414213562
v 1.979898987 2.600000000 1.272792206
v 1.979898987 2.420000000 1.272792206
v 1.781909088 1.120000000 1.145512985
v 1.187939392 0.500000000 0.763675324
v 0.395979797 0.200000000 0.254558441
v 0.424264069 0.000000000 0.282842712
v 1.315218613 0.300000000 0.876812408
v 1.909188310 1.000000000 1.272792206
v 2.121320344 2.420000000 1.414213562
v 2.121320344 2.600000000 1.414213562
v 1.979898987 2.600000000 1.272792206
v 1.979898987 2.420000000 1.272792206
v 1.781909088 1.120000000 1.145512985
v 1.187939392 0.500000000 0.763675324
v 0.395979797 0.200000000 0.254558441
v 0.333342140 0.000000000 0.332587845
v 1.033360633 0.300000000 1.031022319
v 1.500039629 1.000000000 1.496645302
v 1.666710699 2.420000000 1.662939225
v 1.666710699 2.600000000 1.662939225
v 1.555596652 2.600000000 1.496645302
v 1.555596652 2.420000000 1.496645302
v 1.400036987 1.120000000 1.346980772
v 0.933357991 0.500000000 0.897987181
v 0.311119330 0.200000000 0.299329060
v 0.333342140 0.000000000 0.332587845
v 1.033360633 0.300000000 1.031022319
v 1.500039629 1.000000000 1.496645302
v 1.666710699 2.420000000 1.662939225
v 1.666710699 2.600000000 1.662939225
v 1.555596652 2.600000000 1.496645302
v 1.555596652 2.420000000 1.496645302
v 1.400036987 1.120000000 1.346980772
v 0.933357991 0.500000000 0.897987181
v 0.311119330 0.200000000 0.299329060
v 0.229610059 0.000000000 0.369551813
v 0.711791184 0.300000000 1.145610620
v 1.033245267 1.000000000 1.662983159
v 1.148050297 2.420000000 1.847759065
v 1.148050297 2.600000000 1.847759065
v 1.071513611 2.600000000 1.662983159
v 1.071513611 2.420000000 1.662983159
v 0.964362250 1.120000000 1.496684843
v 0.642908167 0.500000000 0.997789895
v 0.214302722 0.200000000 0.332596632
v 0.229610059 0.000000000 0.369551813
v 0.711791184 0.300000000 1.145610620
v 1.033245267 1.000000000 1.662983159
v 1.148050297 2.420000000 1.847759065
v 1.148050297 2.600000000 1.847759065
v 1.071513611 2.600000000 1.662983159
v 1.071513611 2.420000000 1.662983159
v 0.964362250 1.120000000 1.496684843
v 0.642908167 0.500000000 0.997789895
v 0.214302722 0.200000000 0.332596632
v 0.117054193 0.000000000 0.392314112
v 0.362867999 0.300000000 1.216173748
v 0.526743869 1.000000000 1.765413505
v 0.585270966 2.420000000 1.961570561
v 0.585270966 2.600000000 1.961570561
v 0.546252902 2.600000000 1.765413505
v 0.546252902 2.420000000 1.765413505
v 0.491627612 1.120000000 1.588872154
v 0.327751741 0.500000000 1.059248103
v 0.109250580 0.200000000 0.353082701
v 0.117054193 0.000000000 0.392314112
v 0.362867999 0.300000000 1.216173748
v 0.526743869 1.000000000 1.765413505
v 0.585270966 2.420000000 1.961570561
v 0.585270966 2.600000000 1.961570561
v 0.546252902 2.600000000 1.765413505
v 0.546252902 2.420000000 1.765413505
v 0.491627612 1.120000000 1.588872154
v 0.327751741 0.500000000 1.059248103
v 0.109250580 0.200000000 0.353082701
v 0.000000000 0.000000000 0.400000000
v 0.000000000 0.300000000 1.240000000
v 0.000000000 1.000000000 1.800000000
v 0.000000000 2.420000000 2.000000000
v 0.000000000 2.600000000 2.000000000
v 0.000000000 2.600000000 1.800000000
v 0.000000000 2.420000000 1.800000000
v 0.000000000 1.120000000 1.620000000
v 0.000000000 0.500000000 1.080000000
v 0.000000000 0.200000000 0.360000000
v 0.000000000 0.000000000 0.400000000
v 0.000000000 0.300000000 1.240000000
v 0.000000000 1.000000000 1.800000000
v 0.000000000 2.420000000 2.000000000
v 0.000000000 2.600000000 2.000000000
v 0.000000000 2.600000000 1.800000000
v 0.000000000 2.420000000 1.800000000
v 0.000000000 1.120000000 1.620000000
v 0.000000000 0.500000000 1.080000000
v 0.000000000 0.200000000 0.360000000
v -0.117054193 0.000000000 0.392314112
v -0.362867999 0.300000000 1.216173748
v -0.526743869 1.000000000 1.765413505
v -0.585270966 2.420000000 1.961570561
v -0.585270966 2.600000000 1.961570561
v -0.546252902 2.600000000 1.765413505
v -0.546252902 2.420000000 1.765413505
v -0.491627612 1.120000000 1.588872154
v -0.327751741 0.500000000 1.059248103
v -0.109250580 0.200000000 0.353082701
v -0.117054193 0.000000000 0.392314112
v -0.362867999 0.300000000 1.216173748
v -0.526743869 1.000000000 1.765413505
v -0.585270966 2.420000000 1.961570561
v -0.585270966 2.600000000 1.961570561
v -0.546252902 2.600000000 1.765413505
v -0.546252902 2.420000000 1.765413505
v -0.491627612 1.120000000 1.588872154
v -0.327751741 0.500000000 1.059248103
v -0.109250580 0.200000000 0.353082701
v -0.229610059 0.000000000 0.369551813
v -0.711791184 0.300000000 1.145610620
v -1.033245267 1.000000000 1.662983159
v -1.148050297 2.420000000 1.847759065
v -1.148050297 2.600000000 1.847759065
v -1.071513611 2.600000000 1.662983159
v -1.071513611 2.420000000 1.662983159
v -0.964362250 1.120000000 1.496684843
v -0.642908167 0.500000000 0.997789895
v -0.214302722 0.200000000 0.332596632
v -0.229610059 0.000000000 0.369551813
v -0.711791184 0.300000000 1.145610620
v -1.033245267 1.000000000 1.662983159
v -1.148050297 2.420000000 1.847759065
v -1.148050297 2.600000000 1.847759065
v -1.071513611 2.600000000 1.662983159
v -1.071513611 2.420000000 1.662983159
v -0.964362250 1.120000000 1.496684843
v -0.642908167 0.500000000 0.997789895
v -0.214302722 0.200000000 0.332596632
v -0.333342140 0.000000000 0.332587845
v -1.033360633 0.300000000 1.031022319
v -1.500039629 1.000000000 1.496645302
v -1.666710699 2.420000000 1.662939225
v -1.666710699 2.600000000 1.662939225
v -1.555596652 2.600000000 1.496645302
v -1.555596652 2.420000000 1.496645302
v -1.400036987 1.120000000 1.346980772
v -0.933357991 0.500000000 0.897987181
v -0.311119330 0.200000000 0.299329060
v -0.333342140 0.000000000 0.332587845
v -1.033360633 0.300000000 1.031022319
v -1.500039629 1.000000000 1.496645302
v -1.666710699 2.420000000 1.662939225
v -1.666710699 2.600000000 1.662939225
v -1.555596652 2.600000000 1.496645302
v -1.555596652 2.420000000 1.496645302
v -1.400036987 1.120000000 1.346980772
v -0.933357991 0.500000000 0.897987181
v -0.311119330 0.200000000 0.299329060
v -0.424264069 0.000000000 0.282842712
v -1.315218613 0.300000000 0.876812408
v -1.909188310 1.000000000 1.272792206
v -2.121320344 2.420000000 1.414213562
v -2.121320344 2.600000000 1.414213562
v -1.979898987 2.600000000 1.272792206
v -1.979898987 2.420000000 1.272792206
v -1.781909088 1.120000000 1.145512985
v -1.187939392 0.500000000 0.763675324
v -0.395979797 0.200000000 0.254558441
v -0.424264069 0.000000000 0.282842712
v -1.315218613 0.300000000 0.876812408
v -1.909188310 1.000000000 1.272792206
v -2.121320344 2.420000000 1.414213562
v -2.121320344 2.600000000 1.414213562
v -1.979898987 2.600000000 1.272792206
v -1.979898987 2.420000000 1.272792206
v -1.781909088 1.120000000 1.145512985
v -1.187939392 0.500000000 0.763675324
v -0.395979797 0.200000000 0.254558441
v -0.498881767 0.000000000 0.222228093
v -1.546533479 0.300000000 0.688907089
v -2.244967953 1.000000000 1.000026419
v -2.494408837 2.420000000 1.111140466
v -2.494408837 2.600000000 1.111140466
v -2.328114914 2.600000000 1.000026419
v -2.328114914 2.420000000 1.000026419
v -2.095303423 1.120000000 0.900023777
v -1.396868948 0.500000000 0.600015851
v -0.465622983 0.200000000 0.200005284
v -0.498881767 0.000000000 0.222228093
v -1.546533479 0.300000000 0.688907089
v -2.244967953 1.000000000 1.000026419
v -2.494408837 2.420000000 1.111140466
v -2.494408837 2.600000000 1.111140466
v -2.328114914 2.600000000 1.000026419
v -2.328114914 2.420000000 1.000026419
v -2.095303423 1.120000000 0.900023777
v -1.396868948 0.500000000 0.600015851
v -0.465622983 0.200000000 0.200005284
v -0.554327720 0.000000000 0.153073373
v -1.718415931 0.300000000 0.474527456
v -2.494474738 1.000000000 0.688830178
v -2.771638598 2.420000000 0.765366865
v -2.771638598 2.600000000 0.765366865
v -2.586862691 2.600000000 0.688830178
v -2.586862691 2.420000000 0.688830178
v -2.328176422 1.120000000 0.619947160
v -1.552117615 0.500000000 0.413298107
v -0.517372538 0.200000000 0.137766036
v -0.554327720 0.000000000 0.153073373
v -1.718415931 0.300000000 0.474527456
v -2.494474738 1.000000000 0.688830178
v -2.771638598 2.420000000 0.765366865
v -2.771638598 2.600000000 0.765366865
v -2.586862691 2.600000000 0.688830178
v -2.586862691 2.420000000 0.688830178
v -2.328176422 1.120000000 0.619947160
v -1.552117615 0.500000000 0.413298107
v -0.517372538 0.200000000 0.137766036
v -0.588471168 0.000000000 0.078036129
v -1.824260621 0.300000000 0.241911999
v -2.648120257 1.000000000 0.351162580
v -2.942355841 2.420000000 0.390180644
v -2.942355841 2.600000000 0.390180644
v -2.746198785 2.600000000 0.351162580
v -2.746198785 2.420000000 0.351162580
v -2.471578907 1.120000000 0.316046322
v -1.647719271 0.500000000 0.210697548
v -0.549239757 0.200000000 0.070232516
v -0.588471168 0.000000000 0.078036129
v -1.824260621 0.300000000 0.241911999
v -2.648120257 1.000000000 0.351162580
v -2.942355841 2.420000000 0.390180644
v -2.942355841 2.600000000 0.390180644
v -2.746198785 2.600000000 0.351162580
v -2.746198785 2.420000000 0.351162580
v -2.471578907 1.120000000 0.316046322
v -1.647719271 0.500000000 0.210697548
v -0.549239757 0.200000000 0.070232516
v -0.600000000 0.000000000 0.000000000
v -1.860000000 0.300000000 0.000000000
v -2.700000000 1.000000000 0.000000000
v -3.000000000 2.420000000 0.000000000
v -3.000000000 2.600000000 0.000000000
v -2.800000000 2.600000000 0.000000000
v -2.800000000 2.420000000 0.000000000
v -2.520000000 1.120000000 0.000000000
v -1.680000000 0.500000000 0.000000000
v -0.560000000 0.200000000 0.000000000
v 0.600000000 0.000000000 0.000000000
v 0.588471168 0.000000000 0.078036129
v 0.554327720 0.000000000 0.153073373
v 0.498881767 0.000000000 0.222228093
v 0.424264069 0.000000000 0.282842712
v 0.333342140 0.000000000 0.332587845
v 0.229610059 0.000000000 0.369551813
v 0.117054193 0.000000000 0.392314112
v 0.000000000 0.000000000 0.400000000
v -0.117054193 0.000000000 0.392314112
v -0.229610059 0.000000000 0.369551813
v -0.333342140 0.000000000 0.332587845
v -0.424264069 0.000000000 0.282842712
v -0.498881767 0.000000000 0.222228093
v -0.554327720 0.000000000 0.153073373
v -0.588471168 0.000000000 0.078036129
v -0.600000000 0.000000000 0.000000000
v 0.560000000 0.200000000 0.000000000
v 0.549239757 0.200000000 0.070232516
v 0.517372538 0.200000000 0.137766036
v 0.465622983 0.200000000 0.200005284
v 0.395979797 0.200000000 0.254558441
v 0.311119330 0.200000000 0.299329060
v 0.214302722 0.200000000 0.332596632
v 0.109250580 0.200000000 0.353082701
v 0.000000000 0.200000000 0.360000000
v -0.109250580 0.200000000 0.353082701
v -0.214302722 0.200000000 0.332596632
v -0.311119330 0.200000000 0.299329060
v -0.395979797 0.200000000 0.254558441
v -0.465622983 0.200000000 0.200005284
v -0.517372538 0.200000000 0.137766036
v -0.549239757 0.200000000 0.070232516
v -0.560000000 0.200000000 0.000000000
usemtl wood
f 9 2 1
f 10 9 1
f 19 20 11
f 12 19 11
f 8 3 2
f 9 8 2
f 18 19 12
f 13 18 12
f 7 4 3
f 8 7 3
f 17 18 13
f 14 17 13
f 6 5 4
f 7 6 4
f 16 17 14
f 15 16 14
f 1 2 12
f 1 12 11
f 2 3 13
f 2 13 12
f 3 4 14
f 3 14 13
f 4 5 15
f 4 15 14
f 5 6 16
f 5 16 15
f 6 7 17
f 6 17 16
f 7 8 18
f 7 18 17
f 8 9 19
f 8 19 18
f 9 10 20
f 9 20 19
f 10 1 11
f 10 11 20
f 29 22 21
f 30 29 21
f 39 40 31
f 32 39 31
f 28 23 22
f 29 28 22
f 38 39 32
f 33 38 32
f 27 24 23
f 28 27 23
f 37 38 33
f 34 37 33
f 26 25 24
f 27 26 24
f 36 37 34
f 35 36 34
f 21 22 32
f 21 32 31
f 22 23 33
f 22 33 32
f 23 24 34
f 23 34 33
f 24 25 35
f 24 35 34
f 25 26 36
f 25 36 35
f 26 27 37
f 26 37 36
f 27 28 38
f 27 38 37
f 28 29 39
f 28 39 38
f 29 30 40
f 29 40 39
f 30 21 31
f 30 31 40
f 49 42 41
f 50 49 41
f 59 60 51
f 52 59 51
f 48 43 42
f 49 48 42
f 58 59 52
f 53 58 52
f 47 44 43
f 48 47 43
f 57 58 53
f 54 57 53
f 46 45 44
f 47 46 44
f 56 57 54
f 55 56 54
f 41 42 52
f 41 52 51
f 42 43 53
f 42 53 52
f 43 44 54
f 43 54 53
f 44 45 55
f 44 55 54
f 45 46 56
f 45 56 55
f 46 47 57
f 46 57 56
f 47 48 58
f 47 58 57
f 48 49 59
f 48 59 58
f 49 50 60
f 49 60 59
f 50 41 51
f 50 51 60
f 69 62 61
f 70 69 61
f 79 80 71
f 72 79 71
f 68 63 62
f 69 68 62
f 78 79 72
f 73 78 72
f 67 64 63
f 68 67 63
f 77 78 73
f 74 77 73
f 66 65 64
f 67 66 64
f 76 77 74
f 75 76 74
f 61 62 72
f 61 72 71
f 62 63 73
f 62 73 72
f 63 64 74
f 63 74 73
f 64 65 75
f 64 75 74
f 65 66 76
f 65 76 75
f 66 67 77
f 66 77 76
f 67 68 78
f 67 78 77
f 68 69 79
f 68 79 78
f 69 70 80
f 69 80 79
f 70 61 71
f 70 71 80
f 89 82 81
f 90 89 81
f 99 100 91
f 92 99 91
f 88 83 82
f 89 88 82
f 98 99 92
f 93 98 92
f 87 84 83
f 88 87 83
f 97 98 93
f 94 97 93
f 86 85 84
f 87 86 84
f 96 97 94
f 95 96 94
f 81 82 92
f 81 92 91
f 82 83 93
f 82 93 92
f 83 84 94
f 83 94 93
f 84 85 95
f 84 95 94
f 85 86 96
f 85 96 95
f 86 87 97
f 86 97 96
f 87 88 98
f 87 98 97
f 88 89 99
f 88 99 98
f 89 90 100
f 89 100 99
f 90 81 91
f 90 91 100
f 109 102 101
f 110 109 101
f 119 120 111
f 112 119 111
f 108 103 102
f 109 108 102
f 118 119 112
f 113 118 112
f 107 104 103
f 108 107 103
f 117 118 113
f 114 117 113
f 106 105 104
f 107 106 104
f 116 117 114
f 115 116 114
f 101 102 112
f 101 112 111
f 102 103 113
f 102 113 112
f 103 104 114
f 103 114 113
f 104 105 115
f 104 115 114
f 105 106 116
f 105 116 115
f 106 107 117
f 106 117 116
f 107 108 118
f 107 118 117
f 108 109 119
f 108 119 118
f 109 110 120
f 109 120 119
f 110 101 111
f 110 111 120
f 129 122 121
f 130 129 121
f 139 140 131
f 132 139 131
f 128 123 122
f 129 128 122
f 138 139 132
f 133 138 132
f 127 124 123
f 128 127 123
f 137 138 133
f 134 137 133
f 126 125 124
f 127 126 124
f 136 137 134
f 135 136 134
f 121 122 132
f 121 132 131
f 122 123 133
f 122 133 132
f 123 124 134
f 123 134 133
f 124 125 135
f 124 135 134
f 125 126 136
f 125 136 135
f 126 127 137
f 126 137 136
f 127 128 138
f 127 138 137
f 128 129 139
f 128 139 138
f 129 130 140
f 129 140 139
f 130 121 131
f 130 131 140
f 149 142 141
f 150 149 141
f 159 160 151
f 152 159 151
f 148 143 142
f 149 148 142
f 158 159 152
f 153 158 152
f 147 144 143
f 148 147 143
f 157 158 153
f 154 157 153
f 146 145 144
f 147 146 144
f 156 157 154
f 155 156 154
f 141 142 152
f 141 152 151
f 142 143 153
f 142 153 152
f 143 144 154
f 143 154 153
f 144 145 155
f 144 155 154
f 145 146 156
f 145 156 155
f 146 147 157
f 146 157 156
f 147 148 158
f 147 158 157
f 148 149 159
f 148 159 158
f 149 150 160
f 149 160 159
f 150 141 151
f 150 151 160
f 169 162 161
f 170 169 161
f 179 180 171
f 172 179 171
f 168 163 162
f 169 168 162
f 178 179 172
f 173 178 172
f 167 164 163
f 168 167 163
f 177 178 173
f 174 177 173
f 166 165 164
f 167 166 164
f 176 177 174
f 175 176 174
f 161 162 172
f 161 172 171
f 162 163 173
f 162 173 172
f 163 164 174
f 163 174 173
f 164 165 175
f 164 175 174
f 165 166 176
f 165 176 175
f 166 167 177
f 166 177 176
f 167 168 178
f 167 178 177
f 168 169 179
f 168 179 178
f 169 170 180
f 169 180 179
f 170 161 171
f 170 171 180
f 189 182 181
f 190 189 181
f 199 200 191
f 192 199 191
f 188 183 182
f 189 188 182
f 198 199 192
f 193 198 192
f 187 184 183
f 188 187 183
f 197 198 193
f 194 197 193
f 186 185 184
f 187 186 184
f 196 197 194
f 195 196 194
f 181 182 192
f 181 192 191
f 182 183 193
f 182 193 192
f 183 184 194
f 183 194 193
f 184 185 195
f 184 195 194
f 185 186 196
f 185 196 195
f 186 187 197
f 186 197 196
f 187 188 198
f 187 198 197
f 188 189 199
f 188 199 198
f 189 190 200
f 189 200 199
f 190 181 191
f 190 191 200
f 209 202 201
f 210 209 201
f 219 220 211
f 212 219 211
f 208 203 202
f 209 208 202
f 218 219 212
f 213 218 212
f 207 204 203
f 208 207 203
f 217 218 213
f 214 217 213
f 206 205 204
f 207 206 204
f 216 217 214
f 215 216 214
f 201 202 212
f 201 212 211
f 202 203 213
f 202 213 212
f 203 204 214
f 203 214 213
f 204 205 215
f 204 215 214
f 205 206 216
f 205 216 215
f 206 207 217
f 206 217 216
f 207 208 218
f 207 218 217
f 208 209 219
f 208 219 218
f 209 210 220
f 209 220 219
f 210 201 211
f 210 211 220
f 229 222 221
f 230 229 221
f 239 240 231
f 232 239 231
f 228 223 222
f 229 228 222
f 238 239 232
f 233 238 232
f 227 224 223
f 228 227 223
f 237 238 233
f 234 237 233
f 226 225 224
f 227 226 224
f 236 237 234
f 235 236 234
f 221 222 232
f 221 232 231
f 222 223 233
f 222 233 232
f 223 224 234
f 223 234 233
f 224 225 235
f 224 235 234
f 225 226 236
f 225 236 235
f 226 227 237
f 226 237 236
f 227 228 238
f 227 238 237
f 228 229 239
f 228 239 238
f 229 230 240
f 229 240 239
f 230 221 231
f 230 231 240
f 249 242 241
f 250 249 241
f 259 260 251
f 252 259 251
f 248 243 242
f 249 248 242
f 258 259 252
f 253 258 252
f 247 244 243
f 248 247 243
f 257 258 253
f 254 257 253
f 246 245 244
f 247 246 244
f 256 257 254
f 255 256 254
f 241 242 252
f 241 252 251
f 242 243 253
f 242 253 252
f 243 244 254
f 243 254 253
f 244 245 255
f 244 255 254
f 245 246 256
f 245 256 255
f 246 247 257
f 246 257 256
f 247 248 258
f 247 258 257
f 248 249 259
f 248 259 258
f 249 250 260
f 249 260 259
f 250 241 251
f 250 251 260
f 269 262 261
f 270 269 261
f 279 280 271
f 272 279 271
f 268 263 262
f 269 268 262
f 278 279 272
f 273 278 272
f 267 264 263
f 268 267 263
f 277 278 273
f 274 277 273
f 266 265 264
f 267 266 264
f 276 277 274
f 275 276 274
f 261 262 272
f 261 272 271
f 262 263 273
f 262 273 272
f 263 264 274
f 263 274 273
f 264 265 275
f 264 275 274
f 265 266 276
f 265 276 275
f 266 267 277
f 266 277 276
f 267 268 278
f 267 278 277
f 268 269 279
f 268 279 278
f 269 270 280
f 269 280 279
f 270 261 271
f 270 271 280
f 289 282 281
f 290 289 281
f 299 300 291
f 292 299 291
f 288 283 282
f 289 288 282
f 298 299 292
f 293 298 292
f 287 284 283
f 288 287 283
f 297 298 293
f 294 297 293
f 286 285 284
f 287 286 284
f 296 297 294
f 295 296 294
f 281 282 292
f 281 292 291
f 282 283 293
f 282 293 292
f 283 284 294
f 283 294 293
f 284 285 295
f 284 295 294
f 285 286 296
f 285 296 295
f 286 287 297
f 286 297 296
f 287 288 298
f 287 298 297
f 288 289 299
f 288 299 298
f 289 290 300
f 289 300 299
f 290 281 291
f 290 291 300
f 309 302 301
f 310 309 301
f 319 320 311
f 312 319 311
f 308 303 302
f 309 308 302
f 318 319 312
f 313 318 312
f 307 304 303
f 308 307 303
f 317 318 313
f 314 317 313
f 306 305 304
f 307 306 304
f 316 317 314
f 315 316 314
f 301 302 312
f 301 312 311
f 302 303 313
f 302 313 312
f 303 304 314
f 303 314 313
f 304 305 315
f 304 315 314
f 305 306 316
f 305 316 315
f 306 307 317
f 306 317 316
f 307 308 318
f 307 318 317
f 308 309 319
f 308 319 318
f 309 310 320
f 309 320 319
f 310 301 311
f 310 311 320
f 335 336 337
f 334 335 337
f 333 334 337
f 332 333 337
f 331 332 337
f 330 331 337
f 329 330 337
f 328 329 337
f 327 328 337
f 326 327 337
f 325 326 337
f 324 325 337
f 323 324 337
f 322 323 337
f 321 322 337
f 340 339 338
f 341 340 338
f 342 341 338
f 343 342 338
f 344 343 338
f 345 344 338
f 346 345 338
f 347 346 338
f 348 347 338
f 349 348 338
f 350 349 338
f 351 350 338
f 352 351 338
f 353 352 338
f 354 353 338
f 339 322 321
f 338 339 321
f 340 323 322
f 339 340 322
f 341 324 323
f 340 341 323
f 342 325 324
f 341 342 324
f 343 326 325
f 342 343 325
f 344 327 326
f 343 344 326
f 345 328 327
f 344 345 327
f 346 329 328
f 345 346 328
f 347 330 329
f 346 347 329
f 348 331 330
f 347 348 330
f 349 332 331
f 348 349 331
f 350 333 332
f 349 350 332
f 351 334 333
f 350 351 333
f 352 335 334
f 351 352 334
f 353 336 335
f 352 353 335
f 354 337 336
f 353 354 336
f 338 321 337
f 354 338 337
