# Metres; X starboard Y up Z aft; canonical ship family
mtllib ship.mtl
v -0.600000000 0.000000000 4.000000000
v -1.860000000 0.300000000 4.000000000
v -2.700000000 1.000000000 4.000000000
v -3.000000000 2.420000000 4.000000000
v -3.000000000 2.600000000 4.000000000
v -2.800000000 2.600000000 4.000000000
v -2.800000000 2.420000000 4.000000000
v -2.520000000 1.120000000 4.000000000
v -1.680000000 0.500000000 4.000000000
v -0.560000000 0.200000000 4.000000000
v -0.440000000 0.000000000 3.600000000
v -1.364000000 0.300000000 2.760000000
v -1.980000000 1.000000000 2.200000000
v -2.200000000 2.420000000 2.000000000
v -2.200000000 2.600000000 2.000000000
v -2.029550821 2.600000000 2.112393534
v -2.029550821 2.420000000 2.112393534
v -1.826595739 1.120000000 2.301154181
v -1.217730493 0.500000000 2.867436120
v -0.405910164 0.200000000 3.622478707
v -0.440000000 0.000000000 3.600000000
v -1.364000000 0.300000000 2.760000000
v -1.980000000 1.000000000 2.200000000
v -2.200000000 2.420000000 2.000000000
v -2.200000000 2.600000000 2.000000000
v -2.029550821 2.600000000 2.112393534
v -2.029550821 2.420000000 2.112393534
v -1.826595739 1.120000000 2.301154181
v -1.217730493 0.500000000 2.867436120
v -0.405910164 0.200000000 3.622478707
v -0.240000000 0.000000000 3.400000000
v -0.744000000 0.300000000 2.140000000
v -1.080000000 1.000000000 1.300000000
v -1.200000000 2.420000000 1.000000000
v -1.200000000 2.600000000 1.000000000
v -1.064993660 2.600000000 1.147836373
v -1.064993660 2.420000000 1.147836373
v -0.958494294 1.120000000 1.433052736
v -0.638996196 0.500000000 2.288701824
v -0.212998732 0.200000000 3.429567275
v -0.240000000 0.000000000 3.400000000
v -0.744000000 0.300000000 2.140000000
v -1.080000000 1.000000000 1.300000000
v -1.200000000 2.420000000 1.000000000
v -1.200000000 2.600000000 1.000000000
v -1.064993660 2.600000000 1.147836373
v -1.064993660 2.420000000 1.147836373
v -0.958494294 1.120000000 1.433052736
v -0.638996196 0.500000000 2.288701824
v -0.212998732 0.200000000 3.429567275
v 0.000000000 0.000000000 3.200000000
v 0.000000000 0.300000000 1.520000000
v 0.000000000 1.000000000 0.400000000
v 0.000000000 2.420000000 0.000000000
v 0.000000000 2.600000000 0.000000000
v 0.000000000 2.600000000 0.260341656
v 0.000000000 2.420000000 0.260341656
v 0.000000000 1.120000000 0.634307490
v 0.000000000 0.500000000 1.756204994
v 0.000000000 0.200000000 3.252068331
v 0.000000000 0.000000000 3.200000000
v 0.000000000 0.300000000 1.520000000
v 0.000000000 1.000000000 0.400000000
v 0.000000000 2.420000000 0.000000000
v 0.000000000 2.600000000 0.000000000
v 0.000000000 2.600000000 0.260341656
v 0.000000000 2.420000000 0.260341656
v 0.000000000 1.120000000 0.634307490
v 0.000000000 0.500000000 1.756204994
v 0.000000000 0.200000000 3.252068331
v 0.240000000 0.000000000 3.400000000
v 0.744000000 0.300000000 2.140000000
v 1.080000000 1.000000000 1.300000000
v 1.200000000 2.420000000 1.000000000
v 1.200000000 2.600000000 1.000000000
v 1.064993660 2.600000000 1.147836373
v 1.064993660 2.420000000 1.147836373
v 0.958494294 1.120000000 1.433052736
v 0.638996196 0.500000000 2.288701824
v 0.212998732 0.200000000 3.429567275
v 0.240000000 0.000000000 3.400000000
v 0.744000000 0.300000000 2.140000000
v 1.080000000 1.000000000 1.300000000
v 1.200000000 2.420000000 1.000000000
v 1.200000000 2.600000000 1.000000000
v 1.064993660 2.600000000 1.147836373
v 1.064993660 2.420000000 1.147836373
v 0.958494294 1.120000000 1.433052736
v 0.638996196 0.500000000 2.288701824
v 0.212998732 0.200000000 3.429567275
v 0.440000000 0.000000000 3.600000000
v 1.364000000 0.300000000 2.760000000
v 1.980000000 1.000000000 2.200000000
v 2.200000000 2.420000000 2.000000000
v 2.200000000 2.600000000 2.000000000
v 2.029550821 2.600000000 2.112393534
v 2.029550821 2.420000000 2.112393534
v 1.826595739 1.120000000 2.301154181
v 1.217730493 0.500000000 2.867436120
v 0.405910164 0.200000000 3.622478707
v 0.440000000 0.000000000 3.600000000
v 1.364000000 0.300000000 2.760000000
v 1.980000000 1.000000000 2.200000000
v 2.200000000 2.420000000 2.000000000
v 2.200000000 2.600000000 2.000000000
v 2.029550821 2.600000000 2.112393534
v 2.029550821 2.420000000 2.112393534
v 1.826595739 1.120000000 2.301154181
v 1.217730493 0.500000000 2.867436120
v 0.405910164 0.200000000 3.622478707
v 0.600000000 0.000000000 4.000000000
v 1.860000000 0.300000000 4.000000000
v 2.700000000 1.000000000 4.000000000
v 3.000000000 2.420000000 4.000000000
v 3.000000000 2.600000000 4.000000000
v 2.800000000 2.600000000 4.000000000
v 2.800000000 2.420000000 4.000000000
v 2.520000000 1.120000000 4.000000000
v 1.680000000 0.500000000 4.000000000
v 0.560000000 0.200000000 4.000000000
v -0.600000000 0.000000000 4.000000000
v -0.440000000 0.000000000 3.600000000
v -0.240000000 0.000000000 3.400000000
v 0.000000000 0.000000000 3.200000000
v 0.240000000 0.000000000 3.400000000
v 0.440000000 0.000000000 3.600000000
v 0.600000000 0.000000000 4.000000000
v -0.560000000 0.200000000 4.000000000
v -0.405910164 0.200000000 3.622478707
v -0.212998732 0.200000000 3.429567275
v 0.000000000 0.200000000 3.252068331
v 0.212998732 0.200000000 3.429567275
v 0.405910164 0.200000000 3.622478707
v 0.560000000 0.200000000 4.000000000
usemtl wood
f 9 2 1
f 10 9 1
f 19 20 11
f 12 19 11
f 8 3 2
f 9 8 2
f 18 19 12
f 13 18 12
f 7 4 3
f 8 7 3
f 17 18 13
f 14 17 13
f 6 5 4
f 7 6 4
f 16 17 14
f 15 16 14
f 1 2 12
f 1 12 11
f 2 3 13
f 2 13 12
f 3 4 14
f 3 14 13
f 4 5 15
f 4 15 14
f 5 6 16
f 5 16 15
f 6 7 17
f 6 17 16
f 7 8 18
f 7 18 17
f 8 9 19
f 8 19 18
f 9 10 20
f 9 20 19
f 10 1 11
f 10 11 20
f 29 22 21
f 30 29 21
f 39 40 31
f 32 39 31
f 28 23 22
f 29 28 22
f 38 39 32
f 33 38 32
f 27 24 23
f 28 27 23
f 37 38 33
f 34 37 33
f 26 25 24
f 27 26 24
f 36 37 34
f 35 36 34
f 21 22 32
f 21 32 31
f 22 23 33
f 22 33 32
f 23 24 34
f 23 34 33
f 24 25 35
f 24 35 34
f 25 26 36
f 25 36 35
f 26 27 37
f 26 37 36
f 27 28 38
f 27 38 37
f 28 29 39
f 28 39 38
f 29 30 40
f 29 40 39
f 30 21 31
f 30 31 40
f 49 42 41
f 50 49 41
f 59 60 51
f 52 59 51
f 48 43 42
f 49 48 42
f 58 59 52
f 53 58 52
f 47 44 43
f 48 47 43
f 57 58 53
f 54 57 53
f 46 45 44
f 47 46 44
f 56 57 54
f 55 56 54
f 41 42 52
f 41 52 51
f 42 43 53
f 42 53 52
f 43 44 54
f 43 54 53
f 44 45 55
f 44 55 54
f 45 46 56
f 45 56 55
f 46 47 57
f 46 57 56
f 47 48 58
f 47 58 57
f 48 49 59
f 48 59 58
f 49 50 60
f 49 60 59
f 50 41 51
f 50 51 60
f 69 62 61
f 70 69 61
f 79 80 71
f 72 79 71
f 68 63 62
f 69 68 62
f 78 79 72
f 73 78 72
f 67 64 63
f 68 67 63
f 77 78 73
f 74 77 73
f 66 65 64
f 67 66 64
f 76 77 74
f 75 76 74
f 61 62 72
f 61 72 71
f 62 63 73
f 62 73 72
f 63 64 74
f 63 74 73
f 64 65 75
f 64 75 74
f 65 66 76
f 65 76 75
f 66 67 77
f 66 77 76
f 67 68 78
f 67 78 77
f 68 69 79
f 68 79 78
f 69 70 80
f 69 80 79
f 70 61 71
f 70 71 80
f 89 82 81
f 90 89 81
f 99 100 91
f 92 99 91
f 88 83 82
f 89 88 82
f 98 99 92
f 93 98 92
f 87 84 83
f 88 87 83
f 97 98 93
f 94 97 93
f 86 85 84
f 87 86 84
f 96 97 94
f 95 96 94
f 81 82 92
f 81 92 91
f 82 83 93
f 82 93 92
f 83 84 94
f 83 94 93
f 84 85 95
f 84 95 94
f 85 86 96
f 85 96 95
f 86 87 97
f 86 97 96
f 87 88 98
f 87 98 97
f 88 89 99
f 88 99 98
f 89 90 100
f 89 100 99
f 90 81 91
f 90 91 100
f 109 102 101
f 110 109 101
f 119 120 111
f 112 119 111
f 108 103 102
f 109 108 102
f 118 119 112
f 113 118 112
f 107 104 103
f 108 107 103
f 117 118 113
f 114 117 113
f 106 105 104
f 107 106 104
f 116 117 114
f 115 116 114
f 101 102 112
f 101 112 111
f 102 103 113
f 102 113 112
f 103 104 114
f 103 114 113
f 104 105 115
f 104 115 114
f 105 106 116
f 105 116 115
f 106 107 117
f 106 117 116
f 107 108 118
f 107 118 117
f 108 109 119
f 108 119 118
f 109 110 120
f 109 120 119
f 110 101 111
f 110 111 120
f 125 126 127
f 124 125 127
f 123 124 127
f 122 123 127
f 121 122 127
f 130 129 128
f 131 130 128
f 132 131 128
f 133 132 128
f 134 133 128
f 129 122 121
f 128 129 121
f 130 123 122
f 129 130 122
f 131 124 123
f 130 131 123
f 132 125 124
f 131 132 124
f 133 126 125
f 132 133 125
f 134 127 126
f 133 134 126
f 128 121 127
f 134 128 127
