# Metres; X starboard Y up Z aft; canonical ship family
mtllib ship.mtl
v -0.600000000 0.000000000 2.000000000
v -1.860000000 0.300000000 2.000000000
v -2.700000000 1.000000000 2.000000000
v -3.000000000 2.420000000 2.000000000
v -3.000000000 2.600000000 2.000000000
v -2.800000000 2.600000000 2.000000000
v -2.800000000 2.420000000 2.000000000
v -2.520000000 1.120000000 2.000000000
v -1.680000000 0.500000000 2.000000000
v -0.560000000 0.200000000 2.000000000
v -0.600000000 0.000000000 0.000000000
v -1.860000000 0.300000000 0.000000000
v -2.700000000 1.000000000 0.000000000
v -3.000000000 2.420000000 0.000000000
v -3.000000000 2.600000000 0.000000000
v -2.800000000 2.600000000 0.000000000
v -2.800000000 2.420000000 0.000000000
v -2.520000000 1.120000000 0.000000000
v -1.680000000 0.500000000 0.000000000
v -0.560000000 0.200000000 0.000000000
v 0.600000000 0.000000000 0.000000000
v 1.860000000 0.300000000 0.000000000
v 2.700000000 1.000000000 0.000000000
v 3.000000000 2.420000000 0.000000000
v 3.000000000 2.600000000 0.000000000
v 2.800000000 2.600000000 0.000000000
v 2.800000000 2.420000000 0.000000000
v 2.520000000 1.120000000 0.000000000
v 1.680000000 0.500000000 0.000000000
v 0.560000000 0.200000000 0.000000000
v 0.600000000 0.000000000 2.000000000
v 1.860000000 0.300000000 2.000000000
v 2.700000000 1.000000000 2.000000000
v 3.000000000 2.420000000 2.000000000
v 3.000000000 2.600000000 2.000000000
v 2.800000000 2.600000000 2.000000000
v 2.800000000 2.420000000 2.000000000
v 2.520000000 1.120000000 2.000000000
v 1.680000000 0.500000000 2.000000000
v 0.560000000 0.200000000 2.000000000
v -0.600000000 0.000000000 0.000000000
v 0.600000000 0.000000000 0.000000000
v 0.600000000 0.000000000 2.000000000
v -0.600000000 0.000000000 2.000000000
v -0.560000000 0.200000000 0.000000000
v 0.560000000 0.200000000 0.000000000
v 0.560000000 0.200000000 2.000000000
v -0.560000000 0.200000000 2.000000000
usemtl wood
f 9 2 1
f 10 9 1
f 19 20 11
f 12 19 11
f 8 3 2
f 9 8 2
f 18 19 12
f 13 18 12
f 7 4 3
f 8 7 3
f 17 18 13
f 14 17 13
f 6 5 4
f 7 6 4
f 16 17 14
f 15 16 14
f 1 2 12
f 1 12 11
f 2 3 13
f 2 13 12
f 3 4 14
f 3 14 13
f 4 5 15
f 4 15 14
f 5 6 16
f 5 16 15
f 6 7 17
f 6 17 16
f 7 8 18
f 7 18 17
f 8 9 19
f 8 19 18
f 9 10 20
f 9 20 19
f 10 1 11
f 10 11 20
f 29 22 21
f 30 29 21
f 39 40 31
f 32 39 31
f 28 23 22
f 29 28 22
f 38 39 32
f 33 38 32
f 27 24 23
f 28 27 23
f 37 38 33
f 34 37 33
f 26 25 24
f 27 26 24
f 36 37 34
f 35 36 34
f 21 22 32
f 21 32 31
f 22 23 33
f 22 33 32
f 23 24 34
f 23 34 33
f 24 25 35
f 24 35 34
f 25 26 36
f 25 36 35
f 26 27 37
f 26 37 36
f 27 28 38
f 27 38 37
f 28 29 39
f 28 39 38
f 29 30 40
f 29 40 39
f 30 21 31
f 30 31 40
f 42 43 44
f 41 42 44
f 47 46 45
f 48 47 45
f 46 42 41
f 45 46 41
f 47 43 42
f 46 47 42
f 48 44 43
f 47 48 43
f 45 41 44
f 48 45 44
