# Metres; X starboard Y up Z aft; canonical ship family
mtllib ship.mtl
v 2.800000000 -0.180000000 0.000000000
v 2.746198785 -0.180000000 0.351162580
v 2.586862691 -0.180000000 0.688830178
v 2.328114914 -0.180000000 1.000026419
v 1.979898987 -0.180000000 1.272792206
v 1.555596652 -0.180000000 1.496645302
v 1.071513611 -0.180000000 1.662983159
v 0.546252902 -0.180000000 1.765413505
v 0.000000000 -0.180000000 1.800000000
v -0.546252902 -0.180000000 1.765413505
v -1.071513611 -0.180000000 1.662983159
v -1.555596652 -0.180000000 1.496645302
v -1.979898987 -0.180000000 1.272792206
v -2.328114914 -0.180000000 1.000026419
v -2.586862691 -0.180000000 0.688830178
v -2.746198785 -0.180000000 0.351162580
v -2.800000000 -0.180000000 0.000000000
v 2.800000000 0.000000000 0.000000000
v 2.746198785 0.000000000 0.351162580
v 2.586862691 0.000000000 0.688830178
v 2.328114914 0.000000000 1.000026419
v 1.979898987 0.000000000 1.272792206
v 1.555596652 0.000000000 1.496645302
v 1.071513611 0.000000000 1.662983159
v 0.546252902 0.000000000 1.765413505
v 0.000000000 0.000000000 1.800000000
v -0.546252902 0.000000000 1.765413505
v -1.071513611 0.000000000 1.662983159
v -1.555596652 0.000000000 1.496645302
v -1.979898987 0.000000000 1.272792206
v -2.328114914 0.000000000 1.000026419
v -2.586862691 0.000000000 0.688830178
v -2.746198785 0.000000000 0.351162580
v -2.800000000 0.000000000 0.000000000
usemtl deck
f 15 16 17
f 14 15 17
f 13 14 17
f 12 13 17
f 11 12 17
f 10 11 17
f 9 10 17
f 8 9 17
f 7 8 17
f 6 7 17
f 5 6 17
f 4 5 17
f 3 4 17
f 2 3 17
f 1 2 17
f 20 19 18
f 21 20 18
f 22 21 18
f 23 22 18
f 24 23 18
f 25 24 18
f 26 25 18
f 27 26 18
f 28 27 18
f 29 28 18
f 30 29 18
f 31 30 18
f 32 31 18
f 33 32 18
f 34 33 18
f 19 2 1
f 18 19 1
f 20 3 2
f 19 20 2
f 21 4 3
f 20 21 3
f 22 5 4
f 21 22 4
f 23 6 5
f 22 23 5
f 24 7 6
f 23 24 6
f 25 8 7
f 24 25 7
f 26 9 8
f 25 26 8
f 27 10 9
f 26 27 9
f 28 11 10
f 27 28 10
f 29 12 11
f 28 29 11
f 30 13 12
f 29 30 12
f 31 14 13
f 30 31 13
f 32 15 14
f 31 32 14
f 33 16 15
f 32 33 15
f 34 17 16
f 33 34 16
f 18 1 17
f 34 18 17
