# Metres; X starboard Y up Z aft; canonical ship family
mtllib ship.mtl
v -2.800000000 -0.180000000 4.000000000
v -2.029550821 -0.180000000 2.112393534
v -1.064993660 -0.180000000 1.147836373
v 0.000000000 -0.180000000 0.260341656
v 1.064993660 -0.180000000 1.147836373
v 2.029550821 -0.180000000 2.112393534
v 2.800000000 -0.180000000 4.000000000
v -2.800000000 0.000000000 4.000000000
v -2.029550821 0.000000000 2.112393534
v -1.064993660 0.000000000 1.147836373
v 0.000000000 0.000000000 0.260341656
v 1.064993660 0.000000000 1.147836373
v 2.029550821 0.000000000 2.112393534
v 2.800000000 0.000000000 4.000000000
usemtl deck
f 5 6 7
f 4 5 7
f 3 4 7
f 2 3 7
f 1 2 7
f 10 9 8
f 11 10 8
f 12 11 8
f 13 12 8
f 14 13 8
f 9 2 1
f 8 9 1
f 10 3 2
f 9 10 2
f 11 4 3
f 10 11 3
f 12 5 4
f 11 12 4
f 13 6 5
f 12 13 5
f 14 7 6
f 13 14 6
f 8 1 7
f 14 8 7
