# Metres; X starboard Y up Z aft; canonical ship family
mtllib ship.mtl
v 3.000000000 0.000000000 0.000000000
v 2.942355841 0.000000000 0.390180644
v 2.746198785 0.000000000 0.351162580
v 2.800000000 0.000000000 0.000000000
v 3.000000000 0.800000000 0.000000000
v 2.942355841 0.800000000 0.390180644
v 2.746198785 0.800000000 0.351162580
v 2.800000000 0.800000000 0.000000000
v 3.000000000 0.800000000 0.000000000
v 2.942355841 0.800000000 0.390180644
v 2.746198785 0.800000000 0.351162580
v 2.800000000 0.800000000 0.000000000
v 3.000000000 1.600000000 0.000000000
v 2.942355841 1.600000000 0.390180644
v 2.746198785 1.600000000 0.351162580
v 2.800000000 1.600000000 0.000000000
v 3.000000000 1.600000000 0.000000000
v 2.942355841 1.600000000 0.390180644
v 2.746198785 1.600000000 0.351162580
v 2.800000000 1.600000000 0.000000000
v 3.000000000 2.600000000 0.000000000
v 2.942355841 2.600000000 0.390180644
v 2.746198785 2.600000000 0.351162580
v 2.800000000 2.600000000 0.000000000
v 2.942355841 0.000000000 0.390180644
v 2.771638598 0.000000000 0.765366865
v 2.586862691 0.000000000 0.688830178
v 2.746198785 0.000000000 0.351162580
v 2.942355841 0.800000000 0.390180644
v 2.771638598 0.800000000 0.765366865
v 2.586862691 0.800000000 0.688830178
v 2.746198785 0.800000000 0.351162580
v 2.942355841 0.800000000 0.390180644
v 2.771638598 0.800000000 0.765366865
v 2.586862691 0.800000000 0.688830178
v 2.746198785 0.800000000 0.351162580
v 2.942355841 1.600000000 0.390180644
v 2.771638598 1.600000000 0.765366865
v 2.586862691 1.600000000 0.688830178
v 2.746198785 1.600000000 0.351162580
v 2.942355841 1.600000000 0.390180644
v 2.771638598 1.600000000 0.765366865
v 2.586862691 1.600000000 0.688830178
v 2.746198785 1.600000000 0.351162580
v 2.942355841 2.600000000 0.390180644
v 2.771638598 2.600000000 0.765366865
v 2.586862691 2.600000000 0.688830178
v 2.746198785 2.600000000 0.351162580
v 2.771638598 0.000000000 0.765366865
v 2.494408837 0.000000000 1.111140466
v 2.328114914 0.000000000 1.000026419
v 2.586862691 0.000000000 0.688830178
v 2.771638598 0.800000000 0.765366865
v 2.494408837 0.800000000 1.111140466
v 2.328114914 0.800000000 1.000026419
v 2.586862691 0.800000000 0.688830178
v 2.771638598 0.800000000 0.765366865
v 2.494408837 0.800000000 1.111140466
v 2.328114914 0.800000000 1.000026419
v 2.586862691 0.800000000 0.688830178
v 2.771638598 1.600000000 0.765366865
v 2.494408837 1.600000000 1.111140466
v 2.328114914 1.600000000 1.000026419
v 2.586862691 1.600000000 0.688830178
v 2.771638598 1.600000000 0.765366865
v 2.494408837 1.600000000 1.111140466
v 2.328114914 1.600000000 1.000026419
v 2.586862691 1.600000000 0.688830178
v 2.771638598 2.600000000 0.765366865
v 2.494408837 2.600000000 1.111140466
v 2.328114914 2.600000000 1.000026419
v 2.586862691 2.600000000 0.688830178
v 2.494408837 0.000000000 1.111140466
v 2.121320344 0.000000000 1.414213562
v 1.979898987 0.000000000 1.272792206
v 2.328114914 0.000000000 1.000026419
v 2.494408837 0.800000000 1.111140466
v 2.121320344 0.800000000 1.414213562
v 1.979898987 0.800000000 1.272792206
v 2.328114914 0.800000000 1.000026419
v 2.494408837 0.800000000 1.111140466
v 2.121320344 0.800000000 1.414213562
v 1.979898987 0.800000000 1.272792206
v 2.328114914 0.800000000 1.000026419
v 2.494408837 1.600000000 1.111140466
v 2.121320344 1.600000000 1.414213562
v 1.979898987 1.600000000 1.272792206
v 2.328114914 1.600000000 1.000026419
v 2.494408837 1.600000000 1.111140466
v 2.121320344 1.600000000 1.414213562
v 1.979898987 1.600000000 1.272792206
v 2.328114914 1.600000000 1.000026419
v 2.494408837 2.600000000 1.111140466
v 2.121320344 2.600000000 1.414213562
v 1.979898987 2.600000000 1.272792206
v 2.328114914 2.600000000 1.000026419
v 2.121320344 0.000000000 1.414213562
v 1.666710699 0.000000000 1.662939225
v 1.555596652 0.000000000 1.496645302
v 1.979898987 0.000000000 1.272792206
v 2.121320344 0.800000000 1.414213562
v 1.666710699 0.800000000 1.662939225
v 1.555596652 0.800000000 1.496645302
v 1.979898987 0.800000000 1.272792206
v 2.121320344 0.800000000 1.414213562
v 1.666710699 0.800000000 1.662939225
v 1.555596652 0.800000000 1.496645302
v 1.979898987 0.800000000 1.272792206
v 2.121320344 1.600000000 1.414213562
v 1.666710699 1.600000000 1.662939225
v 1.555596652 1.600000000 1.496645302
v 1.979898987 1.600000000 1.272792206
v 2.121320344 1.600000000 1.414213562
v 1.666710699 1.600000000 1.662939225
v 1.555596652 1.600000000 1.496645302
v 1.979898987 1.600000000 1.272792206
v 2.121320344 2.600000000 1.414213562
v 1.666710699 2.600000000 1.662939225
v 1.555596652 2.600000000 1.496645302
v 1.979898987 2.600000000 1.272792206
v 1.666710699 0.000000000 1.662939225
v 1.148050297 0.000000000 1.847759065
v 1.071513611 0.000000000 1.662983159
v 1.555596652 0.000000000 1.496645302
v 1.666710699 0.800000000 1.662939225
v 1.148050297 0.800000000 1.847759065
v 1.071513611 0.800000000 1.662983159
v 1.555596652 0.800000000 1.496645302
v 1.666710699 0.800000000 1.662939225
v 1.148050297 0.800000000 1.847759065
v 1.071513611 0.800000000 1.662983159
v 1.555596652 0.800000000 1.496645302
v 1.666710699 1.600000000 1.662939225
v 1.148050297 1.600000000 1.847759065
v 1.071513611 1.600000000 1.662983159
v 1.555596652 1.600000000 1.496645302
v 1.666710699 1.600000000 1.662939225
v 1.148050297 1.600000000 1.847759065
v 1.071513611 1.600000000 1.662983159
v 1.555596652 1.600000000 1.496645302
v 1.666710699 2.600000000 1.662939225
v 1.148050297 2.600000000 1.847759065
v 1.071513611 2.600000000 1.662983159
v 1.555596652 2.600000000 1.496645302
v 1.148050297 0.000000000 1.847759065
v 0.585270966 0.000000000 1.961570561
v 0.546252902 0.000000000 1.765413505
v 1.071513611 0.000000000 1.662983159
v 1.148050297 0.800000000 1.847759065
v 0.585270966 0.800000000 1.961570561
v 0.546252902 0.800000000 1.765413505
v 1.071513611 0.800000000 1.662983159
v 1.148050297 0.800000000 1.847759065
v 0.585270966 0.800000000 1.961570561
v 0.546252902 0.800000000 1.765413505
v 1.071513611 0.800000000 1.662983159
v 1.148050297 1.600000000 1.847759065
v 0.585270966 1.600000000 1.961570561
v 0.546252902 1.600000000 1.765413505
v 1.071513611 1.600000000 1.662983159
v 1.148050297 1.600000000 1.847759065
v 0.585270966 1.600000000 1.961570561
v 0.546252902 1.600000000 1.765413505
v 1.071513611 1.600000000 1.662983159
v 1.148050297 2.600000000 1.847759065
v 0.585270966 2.600000000 1.961570561
v 0.546252902 2.600000000 1.765413505
v 1.071513611 2.600000000 1.662983159
v 0.585270966 0.000000000 1.961570561
v 0.000000000 0.000000000 2.000000000
v 0.000000000 0.000000000 1.800000000
v 0.546252902 0.000000000 1.765413505
v 0.585270966 0.800000000 1.961570561
v 0.000000000 0.800000000 2.000000000
v 0.000000000 0.800000000 1.800000000
v 0.546252902 0.800000000 1.765413505
v 0.585270966 0.800000000 1.961570561
v 0.000000000 0.800000000 2.000000000
v 0.000000000 0.800000000 1.800000000
v 0.546252902 0.800000000 1.765413505
v 0.585270966 1.600000000 1.961570561
v 0.000000000 1.600000000 2.000000000
v 0.000000000 1.600000000 1.800000000
v 0.546252902 1.600000000 1.765413505
v 0.585270966 1.600000000 1.961570561
v 0.000000000 1.600000000 2.000000000
v 0.000000000 1.600000000 1.800000000
v 0.546252902 1.600000000 1.765413505
v 0.585270966 2.600000000 1.961570561
v 0.000000000 2.600000000 2.000000000
v 0.000000000 2.600000000 1.800000000
v 0.546252902 2.600000000 1.765413505
v 0.000000000 0.000000000 2.000000000
v -0.585270966 0.000000000 1.961570561
v -0.546252902 0.000000000 1.765413505
v 0.000000000 0.000000000 1.800000000
v 0.000000000 0.800000000 2.000000000
v -0.585270966 0.800000000 1.961570561
v -0.546252902 0.800000000 1.765413505
v 0.000000000 0.800000000 1.800000000
v 0.000000000 0.800000000 2.000000000
v -0.585270966 0.800000000 1.961570561
v -0.546252902 0.800000000 1.765413505
v 0.000000000 0.800000000 1.800000000
v 0.000000000 1.600000000 2.000000000
v -0.585270966 1.600000000 1.961570561
v -0.546252902 1.600000000 1.765413505
v 0.000000000 1.600000000 1.800000000
v 0.000000000 1.600000000 2.000000000
v -0.585270966 1.600000000 1.961570561
v -0.546252902 1.600000000 1.765413505
v 0.000000000 1.600000000 1.800000000
v 0.000000000 2.600000000 2.000000000
v -0.585270966 2.600000000 1.961570561
v -0.546252902 2.600000000 1.765413505
v 0.000000000 2.600000000 1.800000000
v -0.585270966 0.000000000 1.961570561
v -1.148050297 0.000000000 1.847759065
v -1.071513611 0.000000000 1.662983159
v -0.546252902 0.000000000 1.765413505
v -0.585270966 0.800000000 1.961570561
v -1.148050297 0.800000000 1.847759065
v -1.071513611 0.800000000 1.662983159
v -0.546252902 0.800000000 1.765413505
v -0.585270966 0.800000000 1.961570561
v -1.148050297 0.800000000 1.847759065
v -1.071513611 0.800000000 1.662983159
v -0.546252902 0.800000000 1.765413505
v -0.585270966 1.600000000 1.961570561
v -1.148050297 1.600000000 1.847759065
v -1.071513611 1.600000000 1.662983159
v -0.546252902 1.600000000 1.765413505
v -0.585270966 1.600000000 1.961570561
v -1.148050297 1.600000000 1.847759065
v -1.071513611 1.600000000 1.662983159
v -0.546252902 1.600000000 1.765413505
v -0.585270966 2.600000000 1.961570561
v -1.148050297 2.600000000 1.847759065
v -1.071513611 2.600000000 1.662983159
v -0.546252902 2.600000000 1.765413505
v -1.148050297 0.000000000 1.847759065
v -1.666710699 0.000000000 1.662939225
v -1.555596652 0.000000000 1.496645302
v -1.071513611 0.000000000 1.662983159
v -1.148050297 0.800000000 1.847759065
v -1.666710699 0.800000000 1.662939225
v -1.555596652 0.800000000 1.496645302
v -1.071513611 0.800000000 1.662983159
v -1.148050297 0.800000000 1.847759065
v -1.666710699 0.800000000 1.662939225
v -1.555596652 0.800000000 1.496645302
v -1.071513611 0.800000000 1.662983159
v -1.148050297 1.600000000 1.847759065
v -1.666710699 1.600000000 1.662939225
v -1.555596652 1.600000000 1.496645302
v -1.071513611 1.600000000 1.662983159
v -1.148050297 1.600000000 1.847759065
v -1.666710699 1.600000000 1.662939225
v -1.555596652 1.600000000 1.496645302
v -1.071513611 1.600000000 1.662983159
v -1.148050297 2.600000000 1.847759065
v -1.666710699 2.600000000 1.662939225
v -1.555596652 2.600000000 1.496645302
v -1.071513611 2.600000000 1.662983159
v -1.666710699 0.000000000 1.662939225
v -2.121320344 0.000000000 1.414213562
v -1.979898987 0.000000000 1.272792206
v -1.555596652 0.000000000 1.496645302
v -1.666710699 0.800000000 1.662939225
v -2.121320344 0.800000000 1.414213562
v -1.979898987 0.800000000 1.272792206
v -1.555596652 0.800000000 1.496645302
v -1.666710699 0.800000000 1.662939225
v -2.121320344 0.800000000 1.414213562
v -1.979898987 0.800000000 1.272792206
v -1.555596652 0.800000000 1.496645302
v -1.666710699 1.600000000 1.662939225
v -2.121320344 1.600000000 1.414213562
v -1.979898987 1.600000000 1.272792206
v -1.555596652 1.600000000 1.496645302
v -1.666710699 1.600000000 1.662939225
v -2.121320344 1.600000000 1.414213562
v -1.979898987 1.600000000 1.272792206
v -1.555596652 1.600000000 1.496645302
v -1.666710699 2.600000000 1.662939225
v -2.121320344 2.600000000 1.414213562
v -1.979898987 2.600000000 1.272792206
v -1.555596652 2.600000000 1.496645302
v -2.121320344 0.000000000 1.414213562
v -2.494408837 0.000000000 1.111140466
v -2.328114914 0.000000000 1.000026419
v -1.979898987 0.000000000 1.272792206
v -2.121320344 0.800000000 1.414213562
v -2.494408837 0.800000000 1.111140466
v -2.328114914 0.800000000 1.000026419
v -1.979898987 0.800000000 1.272792206
v -2.121320344 0.800000000 1.414213562
v -2.494408837 0.800000000 1.111140466
v -2.328114914 0.800000000 1.000026419
v -1.979898987 0.800000000 1.272792206
v -2.121320344 1.600000000 1.414213562
v -2.494408837 1.600000000 1.111140466
v -2.328114914 1.600000000 1.000026419
v -1.979898987 1.600000000 1.272792206
v -2.121320344 1.600000000 1.414213562
v -2.494408837 1.600000000 1.111140466
v -2.328114914 1.600000000 1.000026419
v -1.979898987 1.600000000 1.272792206
v -2.121320344 2.600000000 1.414213562
v -2.494408837 2.600000000 1.111140466
v -2.328114914 2.600000000 1.000026419
v -1.979898987 2.600000000 1.272792206
v -2.494408837 0.000000000 1.111140466
v -2.771638598 0.000000000 0.765366865
v -2.586862691 0.000000000 0.688830178
v -2.328114914 0.000000000 1.000026419
v -2.494408837 0.800000000 1.111140466
v -2.771638598 0.800000000 0.765366865
v -2.586862691 0.800000000 0.688830178
v -2.328114914 0.800000000 1.000026419
v -2.494408837 0.800000000 1.111140466
v -2.771638598 0.800000000 0.765366865
v -2.586862691 0.800000000 0.688830178
v -2.328114914 0.800000000 1.000026419
v -2.494408837 1.600000000 1.111140466
v -2.771638598 1.600000000 0.765366865
v -2.586862691 1.600000000 0.688830178
v -2.328114914 1.600000000 1.000026419
v -2.494408837 1.600000000 1.111140466
v -2.771638598 1.600000000 0.765366865
v -2.586862691 1.600000000 0.688830178
v -2.328114914 1.600000000 1.000026419
v -2.494408837 2.600000000 1.111140466
v -2.771638598 2.600000000 0.765366865
v -2.586862691 2.600000000 0.688830178
v -2.328114914 2.600000000 1.000026419
v -2.771638598 0.000000000 0.765366865
v -2.942355841 0.000000000 0.390180644
v -2.746198785 0.000000000 0.351162580
v -2.586862691 0.000000000 0.688830178
v -2.771638598 0.800000000 0.765366865
v -2.942355841 0.800000000 0.390180644
v -2.746198785 0.800000000 0.351162580
v -2.586862691 0.800000000 0.688830178
v -2.771638598 0.800000000 0.765366865
v -2.942355841 0.800000000 0.390180644
v -2.746198785 0.800000000 0.351162580
v -2.586862691 0.800000000 0.688830178
v -2.771638598 1.600000000 0.765366865
v -2.942355841 1.600000000 0.390180644
v -2.746198785 1.600000000 0.351162580
v -2.586862691 1.600000000 0.688830178
v -2.771638598 1.600000000 0.765366865
v -2.942355841 1.600000000 0.390180644
v -2.746198785 1.600000000 0.351162580
v -2.586862691 1.600000000 0.688830178
v -2.771638598 2.600000000 0.765366865
v -2.942355841 2.600000000 0.390180644
v -2.746198785 2.600000000 0.351162580
v -2.586862691 2.600000000 0.688830178
v -2.942355841 0.000000000 0.390180644
v -3.000000000 0.000000000 0.000000000
v -2.800000000 0.000000000 0.000000000
v -2.746198785 0.000000000 0.351162580
v -2.942355841 0.800000000 0.390180644
v -3.000000000 0.800000000 0.000000000
v -2.800000000 0.800000000 0.000000000
v -2.746198785 0.800000000 0.351162580
v -2.942355841 0.800000000 0.390180644
v -3.000000000 0.800000000 0.000000000
v -2.800000000 0.800000000 0.000000000
v -2.746198785 0.800000000 0.351162580
v -2.942355841 1.600000000 0.390180644
v -3.000000000 1.600000000 0.000000000
v -2.800000000 1.600000000 0.000000000
v -2.746198785 1.600000000 0.351162580
v -2.942355841 1.600000000 0.390180644
v -3.000000000 1.600000000 0.000000000
v -2.800000000 1.600000000 0.000000000
v -2.746198785 1.600000000 0.351162580
v -2.942355841 2.600000000 0.390180644
v -3.000000000 2.600000000 0.000000000
v -2.800000000 2.600000000 0.000000000
v -2.746198785 2.600000000 0.351162580
usemtl wood
f 2 3 4
f 1 2 4
f 7 6 5
f 8 7 5
f 6 2 1
f 5 6 1
f 7 3 2
f 6 7 2
f 8 4 3
f 7 8 3
f 5 1 4
f 8 5 4
f 10 11 12
f 9 10 12
f 15 14 13
f 16 15 13
f 14 10 9
f 13 14 9
f 15 11 10
f 14 15 10
f 16 12 11
f 15 16 11
f 13 9 12
f 16 13 12
f 18 19 20
f 17 18 20
f 23 22 21
f 24 23 21
f 22 18 17
f 21 22 17
f 23 19 18
f 22 23 18
f 24 20 19
f 23 24 19
f 21 17 20
f 24 21 20
f 26 27 28
f 25 26 28
f 31 30 29
f 32 31 29
f 30 26 25
f 29 30 25
f 31 27 26
f 30 31 26
f 32 28 27
f 31 32 27
f 29 25 28
f 32 29 28
f 34 35 36
f 33 34 36
f 39 38 37
f 40 39 37
f 38 34 33
f 37 38 33
f 39 35 34
f 38 39 34
f 40 36 35
f 39 40 35
f 37 33 36
f 40 37 36
f 42 43 44
f 41 42 44
f 47 46 45
f 48 47 45
f 46 42 41
f 45 46 41
f 47 43 42
f 46 47 42
f 48 44 43
f 47 48 43
f 45 41 44
f 48 45 44
f 50 51 52
f 49 50 52
f 55 54 53
f 56 55 53
f 54 50 49
f 53 54 49
f 55 51 50
f 54 55 50
f 56 52 51
f 55 56 51
f 53 49 52
f 56 53 52
f 58 59 60
f 57 58 60
f 63 62 61
f 64 63 61
f 62 58 57
f 61 62 57
f 63 59 58
f 62 63 58
f 64 60 59
f 63 64 59
f 61 57 60
f 64 61 60
f 66 67 68
f 65 66 68
f 71 70 69
f 72 71 69
f 70 66 65
f 69 70 65
f 71 67 66
f 70 71 66
f 72 68 67
f 71 72 67
f 69 65 68
f 72 69 68
f 74 75 76
f 73 74 76
f 79 78 77
f 80 79 77
f 78 74 73
f 77 78 73
f 79 75 74
f 78 79 74
f 80 76 75
f 79 80 75
f 77 73 76
f 80 77 76
f 82 83 84
f 81 82 84
f 87 86 85
f 88 87 85
f 86 82 81
f 85 86 81
f 87 83 82
f 86 87 82
f 88 84 83
f 87 88 83
f 85 81 84
f 88 85 84
f 90 91 92
f 89 90 92
f 95 94 93
f 96 95 93
f 94 90 89
f 93 94 89
f 95 91 90
f 94 95 90
f 96 92 91
f 95 96 91
f 93 89 92
f 96 93 92
f 98 99 100
f 97 98 100
f 103 102 101
f 104 103 101
f 102 98 97
f 101 102 97
f 103 99 98
f 102 103 98
f 104 100 99
f 103 104 99
f 101 97 100
f 104 101 100
f 106 107 108
f 105 106 108
f 111 110 109
f 112 111 109
f 110 106 105
f 109 110 105
f 111 107 106
f 110 111 106
f 112 108 107
f 111 112 107
f 109 105 108
f 112 109 108
f 114 115 116
f 113 114 116
f 119 118 117
f 120 119 117
f 118 114 113
f 117 118 113
f 119 115 114
f 118 119 114
f 120 116 115
f 119 120 115
f 117 113 116
f 120 117 116
f 122 123 124
f 121 122 124
f 127 126 125
f 128 127 125
f 126 122 121
f 125 126 121
f 127 123 122
f 126 127 122
f 128 124 123
f 127 128 123
f 125 121 124
f 128 125 124
f 130 131 132
f 129 130 132
f 135 134 133
f 136 135 133
f 134 130 129
f 133 134 129
f 135 131 130
f 134 135 130
f 136 132 131
f 135 136 131
f 133 129 132
f 136 133 132
f 138 139 140
f 137 138 140
f 143 142 141
f 144 143 141
f 142 138 137
f 141 142 137
f 143 139 138
f 142 143 138
f 144 140 139
f 143 144 139
f 141 137 140
f 144 141 140
f 146 147 148
f 145 146 148
f 151 150 149
f 152 151 149
f 150 146 145
f 149 150 145
f 151 147 146
f 150 151 146
f 152 148 147
f 151 152 147
f 149 145 148
f 152 149 148
f 154 155 156
f 153 154 156
f 159 158 157
f 160 159 157
f 158 154 153
f 157 158 153
f 159 155 154
f 158 159 154
f 160 156 155
f 159 160 155
f 157 153 156
f 160 157 156
f 162 163 164
f 161 162 164
f 167 166 165
f 168 167 165
f 166 162 161
f 165 166 161
f 167 163 162
f 166 167 162
f 168 164 163
f 167 168 163
f 165 161 164
f 168 165 164
f 170 171 172
f 169 170 172
f 175 174 173
f 176 175 173
f 174 170 169
f 173 174 169
f 175 171 170
f 174 175 170
f 176 172 171
f 175 176 171
f 173 169 172
f 176 173 172
f 178 179 180
f 177 178 180
f 183 182 181
f 184 183 181
f 182 178 177
f 181 182 177
f 183 179 178
f 182 183 178
f 184 180 179
f 183 184 179
f 181 177 180
f 184 181 180
f 186 187 188
f 185 186 188
f 191 190 189
f 192 191 189
f 190 186 185
f 189 190 185
f 191 187 186
f 190 191 186
f 192 188 187
f 191 192 187
f 189 185 188
f 192 189 188
f 194 195 196
f 193 194 196
f 199 198 197
f 200 199 197
f 198 194 193
f 197 198 193
f 199 195 194
f 198 199 194
f 200 196 195
f 199 200 195
f 197 193 196
f 200 197 196
f 202 203 204
f 201 202 204
f 207 206 205
f 208 207 205
f 206 202 201
f 205 206 201
f 207 203 202
f 206 207 202
f 208 204 203
f 207 208 203
f 205 201 204
f 208 205 204
f 210 211 212
f 209 210 212
f 215 214 213
f 216 215 213
f 214 210 209
f 213 214 209
f 215 211 210
f 214 215 210
f 216 212 211
f 215 216 211
f 213 209 212
f 216 213 212
f 218 219 220
f 217 218 220
f 223 222 221
f 224 223 221
f 222 218 217
f 221 222 217
f 223 219 218
f 222 223 218
f 224 220 219
f 223 224 219
f 221 217 220
f 224 221 220
f 226 227 228
f 225 226 228
f 231 230 229
f 232 231 229
f 230 226 225
f 229 230 225
f 231 227 226
f 230 231 226
f 232 228 227
f 231 232 227
f 229 225 228
f 232 229 228
f 234 235 236
f 233 234 236
f 239 238 237
f 240 239 237
f 238 234 233
f 237 238 233
f 239 235 234
f 238 239 234
f 240 236 235
f 239 240 235
f 237 233 236
f 240 237 236
f 242 243 244
f 241 242 244
f 247 246 245
f 248 247 245
f 246 242 241
f 245 246 241
f 247 243 242
f 246 247 242
f 248 244 243
f 247 248 243
f 245 241 244
f 248 245 244
f 250 251 252
f 249 250 252
f 255 254 253
f 256 255 253
f 254 250 249
f 253 254 249
f 255 251 250
f 254 255 250
f 256 252 251
f 255 256 251
f 253 249 252
f 256 253 252
f 258 259 260
f 257 258 260
f 263 262 261
f 264 263 261
f 262 258 257
f 261 262 257
f 263 259 258
f 262 263 258
f 264 260 259
f 263 264 259
f 261 257 260
f 264 261 260
f 266 267 268
f 265 266 268
f 271 270 269
f 272 271 269
f 270 266 265
f 269 270 265
f 271 267 266
f 270 271 266
f 272 268 267
f 271 272 267
f 269 265 268
f 272 269 268
f 274 275 276
f 273 274 276
f 279 278 277
f 280 279 277
f 278 274 273
f 277 278 273
f 279 275 274
f 278 279 274
f 280 276 275
f 279 280 275
f 277 273 276
f 280 277 276
f 282 283 284
f 281 282 284
f 287 286 285
f 288 287 285
f 286 282 281
f 285 286 281
f 287 283 282
f 286 287 282
f 288 284 283
f 287 288 283
f 285 281 284
f 288 285 284
f 290 291 292
f 289 290 292
f 295 294 293
f 296 295 293
f 294 290 289
f 293 294 289
f 295 291 290
f 294 295 290
f 296 292 291
f 295 296 291
f 293 289 292
f 296 293 292
f 298 299 300
f 297 298 300
f 303 302 301
f 304 303 301
f 302 298 297
f 301 302 297
f 303 299 298
f 302 303 298
f 304 300 299
f 303 304 299
f 301 297 300
f 304 301 300
f 306 307 308
f 305 306 308
f 311 310 309
f 312 311 309
f 310 306 305
f 309 310 305
f 311 307 306
f 310 311 306
f 312 308 307
f 311 312 307
f 309 305 308
f 312 309 308
f 314 315 316
f 313 314 316
f 319 318 317
f 320 319 317
f 318 314 313
f 317 318 313
f 319 315 314
f 318 319 314
f 320 316 315
f 319 320 315
f 317 313 316
f 320 317 316
f 322 323 324
f 321 322 324
f 327 326 325
f 328 327 325
f 326 322 321
f 325 326 321
f 327 323 322
f 326 327 322
f 328 324 323
f 327 328 323
f 325 321 324
f 328 325 324
f 330 331 332
f 329 330 332
f 335 334 333
f 336 335 333
f 334 330 329
f 333 334 329
f 335 331 330
f 334 335 330
f 336 332 331
f 335 336 331
f 333 329 332
f 336 333 332
f 338 339 340
f 337 338 340
f 343 342 341
f 344 343 341
f 342 338 337
f 341 342 337
f 343 339 338
f 342 343 338
f 344 340 339
f 343 344 339
f 341 337 340
f 344 341 340
f 346 347 348
f 345 346 348
f 351 350 349
f 352 351 349
f 350 346 345
f 349 350 345
f 351 347 346
f 350 351 346
f 352 348 347
f 351 352 347
f 349 345 348
f 352 349 348
f 354 355 356
f 353 354 356
f 359 358 357
f 360 359 357
f 358 354 353
f 357 358 353
f 359 355 354
f 358 359 354
f 360 356 355
f 359 360 355
f 357 353 356
f 360 357 356
f 362 363 364
f 361 362 364
f 367 366 365
f 368 367 365
f 366 362 361
f 365 366 361
f 367 363 362
f 366 367 362
f 368 364 363
f 367 368 363
f 365 361 364
f 368 365 364
f 370 371 372
f 369 370 372
f 375 374 373
f 376 375 373
f 374 370 369
f 373 374 369
f 375 371 370
f 374 375 370
f 376 372 371
f 375 376 371
f 373 369 372
f 376 373 372
f 378 379 380
f 377 378 380
f 383 382 381
f 384 383 381
f 382 378 377
f 381 382 377
f 383 379 378
f 382 383 378
f 384 380 379
f 383 384 379
f 381 377 380
f 384 381 380
