# Metres; X starboard Y up Z aft; canonical ship family
mtllib ship.mtl
v -3.000000000 0.000000000 0.000000000
v -2.800000000 0.000000000 0.000000000
v -2.800000000 0.000000000 2.000000000
v -3.000000000 0.000000000 2.000000000
v -3.000000000 0.800000000 0.000000000
v -2.800000000 0.800000000 0.000000000
v -2.800000000 0.800000000 2.000000000
v -3.000000000 0.800000000 2.000000000
v -3.000000000 1.600000000 0.000000000
v -2.800000000 1.600000000 0.000000000
v -2.800000000 1.600000000 2.000000000
v -3.000000000 1.600000000 2.000000000
v -3.000000000 2.600000000 0.000000000
v -2.800000000 2.600000000 0.000000000
v -2.800000000 2.600000000 2.000000000
v -3.000000000 2.600000000 2.000000000
v -3.000000000 0.800000000 0.000000000
v -2.800000000 0.800000000 0.000000000
v -2.800000000 0.800000000 0.500000000
v -3.000000000 0.800000000 0.500000000
v -3.000000000 1.600000000 0.000000000
v -2.800000000 1.600000000 0.000000000
v -2.800000000 1.600000000 0.500000000
v -3.000000000 1.600000000 0.500000000
v -3.000000000 0.800000000 1.500000000
v -2.800000000 0.800000000 1.500000000
v -2.800000000 0.800000000 2.000000000
v -3.000000000 0.800000000 2.000000000
v -3.000000000 1.600000000 1.500000000
v -2.800000000 1.600000000 1.500000000
v -2.800000000 1.600000000 2.000000000
v -3.000000000 1.600000000 2.000000000
v 2.800000000 0.000000000 0.000000000
v 3.000000000 0.000000000 0.000000000
v 3.000000000 0.000000000 2.000000000
v 2.800000000 0.000000000 2.000000000
v 2.800000000 0.800000000 0.000000000
v 3.000000000 0.800000000 0.000000000
v 3.000000000 0.800000000 2.000000000
v 2.800000000 0.800000000 2.000000000
v 2.800000000 1.600000000 0.000000000
v 3.000000000 1.600000000 0.000000000
v 3.000000000 1.600000000 2.000000000
v 2.800000000 1.600000000 2.000000000
v 2.800000000 2.600000000 0.000000000
v 3.000000000 2.600000000 0.000000000
v 3.000000000 2.600000000 2.000000000
v 2.800000000 2.600000000 2.000000000
v 2.800000000 0.800000000 0.000000000
v 3.000000000 0.800000000 0.000000000
v 3.000000000 0.800000000 0.500000000
v 2.800000000 0.800000000 0.500000000
v 2.800000000 1.600000000 0.000000000
v 3.000000000 1.600000000 0.000000000
v 3.000000000 1.600000000 0.500000000
v 2.800000000 1.600000000 0.500000000
v 2.800000000 0.800000000 1.500000000
v 3.000000000 0.800000000 1.500000000
v 3.000000000 0.800000000 2.000000000
v 2.800000000 0.800000000 2.000000000
v 2.800000000 1.600000000 1.500000000
v 3.000000000 1.600000000 1.500000000
v 3.000000000 1.600000000 2.000000000
v 2.800000000 1.600000000 2.000000000
usemtl wood
f 2 3 4
f 1 2 4
f 7 6 5
f 8 7 5
f 6 2 1
f 5 6 1
f 7 3 2
f 6 7 2
f 8 4 3
f 7 8 3
f 5 1 4
f 8 5 4
f 10 11 12
f 9 10 12
f 15 14 13
f 16 15 13
f 14 10 9
f 13 14 9
f 15 11 10
f 14 15 10
f 16 12 11
f 15 16 11
f 13 9 12
f 16 13 12
f 18 19 20
f 17 18 20
f 23 22 21
f 24 23 21
f 22 18 17
f 21 22 17
f 23 19 18
f 22 23 18
f 24 20 19
f 23 24 19
f 21 17 20
f 24 21 20
f 26 27 28
f 25 26 28
f 31 30 29
f 32 31 29
f 30 26 25
f 29 30 25
f 31 27 26
f 30 31 26
f 32 28 27
f 31 32 27
f 29 25 28
f 32 29 28
f 34 35 36
f 33 34 36
f 39 38 37
f 40 39 37
f 38 34 33
f 37 38 33
f 39 35 34
f 38 39 34
f 40 36 35
f 39 40 35
f 37 33 36
f 40 37 36
f 42 43 44
f 41 42 44
f 47 46 45
f 48 47 45
f 46 42 41
f 45 46 41
f 47 43 42
f 46 47 42
f 48 44 43
f 47 48 43
f 45 41 44
f 48 45 44
f 50 51 52
f 49 50 52
f 55 54 53
f 56 55 53
f 54 50 49
f 53 54 49
f 55 51 50
f 54 55 50
f 56 52 51
f 55 56 51
f 53 49 52
f 56 53 52
f 58 59 60
f 57 58 60
f 63 62 61
f 64 63 61
f 62 58 57
f 61 62 57
f 63 59 58
f 62 63 58
f 64 60 59
f 63 64 59
f 61 57 60
f 64 61 60
