# Metres; X starboard Y up Z aft; canonical ship family
mtllib ship.mtl
v -0.500000000 0.120000000 0.000000000
v 0.500000000 0.120000000 0.000000000
v 0.500000000 0.120000000 0.250000000
v -0.500000000 0.120000000 0.250000000
v -0.500000000 0.200000000 0.000000000
v 0.500000000 0.200000000 0.000000000
v 0.500000000 0.200000000 0.250000000
v -0.500000000 0.200000000 0.250000000
v -0.500000000 0.320000000 0.250000000
v 0.500000000 0.320000000 0.250000000
v 0.500000000 0.320000000 0.500000000
v -0.500000000 0.320000000 0.500000000
v -0.500000000 0.400000000 0.250000000
v 0.500000000 0.400000000 0.250000000
v 0.500000000 0.400000000 0.500000000
v -0.500000000 0.400000000 0.500000000
v -0.500000000 0.520000000 0.500000000
v 0.500000000 0.520000000 0.500000000
v 0.500000000 0.520000000 0.750000000
v -0.500000000 0.520000000 0.750000000
v -0.500000000 0.600000000 0.500000000
v 0.500000000 0.600000000 0.500000000
v 0.500000000 0.600000000 0.750000000
v -0.500000000 0.600000000 0.750000000
v -0.500000000 0.720000000 0.750000000
v 0.500000000 0.720000000 0.750000000
v 0.500000000 0.720000000 1.000000000
v -0.500000000 0.720000000 1.000000000
v -0.500000000 0.800000000 0.750000000
v 0.500000000 0.800000000 0.750000000
v 0.500000000 0.800000000 1.000000000
v -0.500000000 0.800000000 1.000000000
v -0.500000000 0.920000000 1.000000000
v 0.500000000 0.920000000 1.000000000
v 0.500000000 0.920000000 1.250000000
v -0.500000000 0.920000000 1.250000000
v -0.500000000 1.000000000 1.000000000
v 0.500000000 1.000000000 1.000000000
v 0.500000000 1.000000000 1.250000000
v -0.500000000 1.000000000 1.250000000
v -0.500000000 1.120000000 1.250000000
v 0.500000000 1.120000000 1.250000000
v 0.500000000 1.120000000 1.500000000
v -0.500000000 1.120000000 1.500000000
v -0.500000000 1.200000000 1.250000000
v 0.500000000 1.200000000 1.250000000
v 0.500000000 1.200000000 1.500000000
v -0.500000000 1.200000000 1.500000000
v -0.500000000 1.320000000 1.500000000
v 0.500000000 1.320000000 1.500000000
v 0.500000000 1.320000000 1.750000000
v -0.500000000 1.320000000 1.750000000
v -0.500000000 1.400000000 1.500000000
v 0.500000000 1.400000000 1.500000000
v 0.500000000 1.400000000 1.750000000
v -0.500000000 1.400000000 1.750000000
v -0.500000000 1.520000000 1.750000000
v 0.500000000 1.520000000 1.750000000
v 0.500000000 1.520000000 2.000000000
v -0.500000000 1.520000000 2.000000000
v -0.500000000 1.600000000 1.750000000
v 0.500000000 1.600000000 1.750000000
v 0.500000000 1.600000000 2.000000000
v -0.500000000 1.600000000 2.000000000
v -0.500000000 1.720000000 2.000000000
v 0.500000000 1.720000000 2.000000000
v 0.500000000 1.720000000 2.250000000
v -0.500000000 1.720000000 2.250000000
v -0.500000000 1.800000000 2.000000000
v 0.500000000 1.800000000 2.000000000
v 0.500000000 1.800000000 2.250000000
v -0.500000000 1.800000000 2.250000000
v -0.500000000 1.920000000 2.250000000
v 0.500000000 1.920000000 2.250000000
v 0.500000000 1.920000000 2.500000000
v -0.500000000 1.920000000 2.500000000
v -0.500000000 2.000000000 2.250000000
v 0.500000000 2.000000000 2.250000000
v 0.500000000 2.000000000 2.500000000
v -0.500000000 2.000000000 2.500000000
v -0.500000000 2.120000000 2.500000000
v 0.500000000 2.120000000 2.500000000
v 0.500000000 2.120000000 2.750000000
v -0.500000000 2.120000000 2.750000000
v -0.500000000 2.200000000 2.500000000
v 0.500000000 2.200000000 2.500000000
v 0.500000000 2.200000000 2.750000000
v -0.500000000 2.200000000 2.750000000
v -0.500000000 2.320000000 2.750000000
v 0.500000000 2.320000000 2.750000000
v 0.500000000 2.320000000 3.000000000
v -0.500000000 2.320000000 3.000000000
v -0.500000000 2.400000000 2.750000000
v 0.500000000 2.400000000 2.750000000
v 0.500000000 2.400000000 3.000000000
v -0.500000000 2.400000000 3.000000000
v -0.500000000 2.520000000 3.000000000
v 0.500000000 2.520000000 3.000000000
v 0.500000000 2.520000000 3.250000000
v -0.500000000 2.520000000 3.250000000
v -0.500000000 2.600000000 3.000000000
v 0.500000000 2.600000000 3.000000000
v 0.500000000 2.600000000 3.250000000
v -0.500000000 2.600000000 3.250000000
v -0.500000000 0.000000000 0.000000000
v -0.500000000 0.120000000 0.000000000
v -0.500000000 2.600000000 3.250000000
v -0.500000000 2.420000000 3.250000000
v -0.420000000 0.000000000 0.000000000
v -0.420000000 0.120000000 0.000000000
v -0.420000000 2.600000000 3.250000000
v -0.420000000 2.420000000 3.250000000
v 0.420000000 0.000000000 0.000000000
v 0.420000000 0.120000000 0.000000000
v 0.420000000 2.600000000 3.250000000
v 0.420000000 2.420000000 3.250000000
v 0.500000000 0.000000000 0.000000000
v 0.500000000 0.120000000 0.000000000
v 0.500000000 2.600000000 3.250000000
v 0.500000000 2.420000000 3.250000000
usemtl deck
f 2 3 4
f 1 2 4
f 7 6 5
f 8 7 5
f 6 2 1
f 5 6 1
f 7 3 2
f 6 7 2
f 8 4 3
f 7 8 3
f 5 1 4
f 8 5 4
f 10 11 12
f 9 10 12
f 15 14 13
f 16 15 13
f 14 10 9
f 13 14 9
f 15 11 10
f 14 15 10
f 16 12 11
f 15 16 11
f 13 9 12
f 16 13 12
f 18 19 20
f 17 18 20
f 23 22 21
f 24 23 21
f 22 18 17
f 21 22 17
f 23 19 18
f 22 23 18
f 24 20 19
f 23 24 19
f 21 17 20
f 24 21 20
f 26 27 28
f 25 26 28
f 31 30 29
f 32 31 29
f 30 26 25
f 29 30 25
f 31 27 26
f 30 31 26
f 32 28 27
f 31 32 27
f 29 25 28
f 32 29 28
f 34 35 36
f 33 34 36
f 39 38 37
f 40 39 37
f 38 34 33
f 37 38 33
f 39 35 34
f 38 39 34
f 40 36 35
f 39 40 35
f 37 33 36
f 40 37 36
f 42 43 44
f 41 42 44
f 47 46 45
f 48 47 45
f 46 42 41
f 45 46 41
f 47 43 42
f 46 47 42
f 48 44 43
f 47 48 43
f 45 41 44
f 48 45 44
f 50 51 52
f 49 50 52
f 55 54 53
f 56 55 53
f 54 50 49
f 53 54 49
f 55 51 50
f 54 55 50
f 56 52 51
f 55 56 51
f 53 49 52
f 56 53 52
f 58 59 60
f 57 58 60
f 63 62 61
f 64 63 61
f 62 58 57
f 61 62 57
f 63 59 58
f 62 63 58
f 64 60 59
f 63 64 59
f 61 57 60
f 64 61 60
f 66 67 68
f 65 66 68
f 71 70 69
f 72 71 69
f 70 66 65
f 69 70 65
f 71 67 66
f 70 71 66
f 72 68 67
f 71 72 67
f 69 65 68
f 72 69 68
f 74 75 76
f 73 74 76
f 79 78 77
f 80 79 77
f 78 74 73
f 77 78 73
f 79 75 74
f 78 79 74
f 80 76 75
f 79 80 75
f 77 73 76
f 80 77 76
f 82 83 84
f 81 82 84
f 87 86 85
f 88 87 85
f 86 82 81
f 85 86 81
f 87 83 82
f 86 87 82
f 88 84 83
f 87 88 83
f 85 81 84
f 88 85 84
f 90 91 92
f 89 90 92
f 95 94 93
f 96 95 93
f 94 90 89
f 93 94 89
f 95 91 90
f 94 95 90
f 96 92 91
f 95 96 91
f 93 89 92
f 96 93 92
f 98 99 100
f 97 98 100
f 103 102 101
f 104 103 101
f 102 98 97
f 101 102 97
f 103 99 98
f 102 103 98
f 104 100 99
f 103 104 99
f 101 97 100
f 104 101 100
usemtl wood
f 107 106 105
f 108 107 105
f 110 111 112
f 109 110 112
f 110 109 105
f 106 110 105
f 111 110 106
f 107 111 106
f 112 111 107
f 108 112 107
f 109 112 108
f 105 109 108
f 115 114 113
f 116 115 113
f 118 119 120
f 117 118 120
f 118 117 113
f 114 118 113
f 119 118 114
f 115 119 114
f 120 119 115
f 116 120 115
f 117 120 116
f 113 117 116
