# Metres; X starboard Y up Z aft; canonical ship family
mtllib ship.mtl
v -2.800000000 -0.180000000 0.000000000
v 0.950000000 -0.180000000 0.000000000
v 0.950000000 -0.180000000 2.000000000
v -2.800000000 -0.180000000 2.000000000
v -2.800000000 0.000000000 0.000000000
v 0.950000000 0.000000000 0.000000000
v 0.950000000 0.000000000 2.000000000
v -2.800000000 0.000000000 2.000000000
v 2.050000000 -0.180000000 0.000000000
v 2.800000000 -0.180000000 0.000000000
v 2.800000000 -0.180000000 2.000000000
v 2.050000000 -0.180000000 2.000000000
v 2.050000000 0.000000000 0.000000000
v 2.800000000 0.000000000 0.000000000
v 2.800000000 0.000000000 2.000000000
v 2.050000000 0.000000000 2.000000000
usemtl deck
f 2 3 4
f 1 2 4
f 7 6 5
f 8 7 5
f 6 2 1
f 5 6 1
f 7 3 2
f 6 7 2
f 8 4 3
f 7 8 3
f 5 1 4
f 8 5 4
f 10 11 12
f 9 10 12
f 15 14 13
f 16 15 13
f 14 10 9
f 13 14 9
f 15 11 10
f 14 15 10
f 16 12 11
f 15 16 11
f 13 9 12
f 16 13 12
