# Metres; X starboard Y up Z aft; canonical ship family
mtllib ship.mtl
v 3.000000000 0.000000000 0.000000000
v 2.942355841 0.000000000 0.390180644
v 2.746198785 0.000000000 0.351162580
v 2.800000000 0.000000000 0.000000000
v 3.000000000 0.800000000 0.000000000
v 2.942355841 0.800000000 0.390180644
v 2.746198785 0.800000000 0.351162580
v 2.800000000 0.800000000 0.000000000
v 2.942355841 0.000000000 0.390180644
v 2.771638598 0.000000000 0.765366865
v 2.586862691 0.000000000 0.688830178
v 2.746198785 0.000000000 0.351162580
v 2.942355841 0.800000000 0.390180644
v 2.771638598 0.800000000 0.765366865
v 2.586862691 0.800000000 0.688830178
v 2.746198785 0.800000000 0.351162580
v 2.771638598 0.000000000 0.765366865
v 2.494408837 0.000000000 1.111140466
v 2.328114914 0.000000000 1.000026419
v 2.586862691 0.000000000 0.688830178
v 2.771638598 0.800000000 0.765366865
v 2.494408837 0.800000000 1.111140466
v 2.328114914 0.800000000 1.000026419
v 2.586862691 0.800000000 0.688830178
v 2.494408837 0.000000000 1.111140466
v 2.121320344 0.000000000 1.414213562
v 1.979898987 0.000000000 1.272792206
v 2.328114914 0.000000000 1.000026419
v 2.494408837 0.800000000 1.111140466
v 2.121320344 0.800000000 1.414213562
v 1.979898987 0.800000000 1.272792206
v 2.328114914 0.800000000 1.000026419
v 2.121320344 0.000000000 1.414213562
v 1.666710699 0.000000000 1.662939225
v 1.555596652 0.000000000 1.496645302
v 1.979898987 0.000000000 1.272792206
v 2.121320344 0.800000000 1.414213562
v 1.666710699 0.800000000 1.662939225
v 1.555596652 0.800000000 1.496645302
v 1.979898987 0.800000000 1.272792206
v 1.666710699 0.000000000 1.662939225
v 1.148050297 0.000000000 1.847759065
v 1.071513611 0.000000000 1.662983159
v 1.555596652 0.000000000 1.496645302
v 1.666710699 0.800000000 1.662939225
v 1.148050297 0.800000000 1.847759065
v 1.071513611 0.800000000 1.662983159
v 1.555596652 0.800000000 1.496645302
v 1.148050297 0.000000000 1.847759065
v 0.585270966 0.000000000 1.961570561
v 0.546252902 0.000000000 1.765413505
v 1.071513611 0.000000000 1.662983159
v 1.148050297 0.800000000 1.847759065
v 0.585270966 0.800000000 1.961570561
v 0.546252902 0.800000000 1.765413505
v 1.071513611 0.800000000 1.662983159
v 0.585270966 0.000000000 1.961570561
v 0.000000000 0.000000000 2.000000000
v 0.000000000 0.000000000 1.800000000
v 0.546252902 0.000000000 1.765413505
v 0.585270966 0.800000000 1.961570561
v 0.000000000 0.800000000 2.000000000
v 0.000000000 0.800000000 1.800000000
v 0.546252902 0.800000000 1.765413505
v 0.000000000 0.000000000 2.000000000
v -0.585270966 0.000000000 1.961570561
v -0.546252902 0.000000000 1.765413505
v 0.000000000 0.000000000 1.800000000
v 0.000000000 0.800000000 2.000000000
v -0.585270966 0.800000000 1.961570561
v -0.546252902 0.800000000 1.765413505
v 0.000000000 0.800000000 1.800000000
v -0.585270966 0.000000000 1.961570561
v -1.148050297 0.000000000 1.847759065
v -1.071513611 0.000000000 1.662983159
v -0.546252902 0.000000000 1.765413505
v -0.585270966 0.800000000 1.961570561
v -1.148050297 0.800000000 1.847759065
v -1.071513611 0.800000000 1.662983159
v -0.546252902 0.800000000 1.765413505
v -1.148050297 0.000000000 1.847759065
v -1.666710699 0.000000000 1.662939225
v -1.555596652 0.000000000 1.496645302
v -1.071513611 0.000000000 1.662983159
v -1.148050297 0.800000000 1.847759065
v -1.666710699 0.800000000 1.662939225
v -1.555596652 0.800000000 1.496645302
v -1.071513611 0.800000000 1.662983159
v -1.666710699 0.000000000 1.662939225
v -2.121320344 0.000000000 1.414213562
v -1.979898987 0.000000000 1.272792206
v -1.555596652 0.000000000 1.496645302
v -1.666710699 0.800000000 1.662939225
v -2.121320344 0.800000000 1.414213562
v -1.979898987 0.800000000 1.272792206
v -1.555596652 0.800000000 1.496645302
v -2.121320344 0.000000000 1.414213562
v -2.494408837 0.000000000 1.111140466
v -2.328114914 0.000000000 1.000026419
v -1.979898987 0.000000000 1.272792206
v -2.121320344 0.800000000 1.414213562
v -2.494408837 0.800000000 1.111140466
v -2.328114914 0.800000000 1.000026419
v -1.979898987 0.800000000 1.272792206
v -2.494408837 0.000000000 1.111140466
v -2.771638598 0.000000000 0.765366865
v -2.586862691 0.000000000 0.688830178
v -2.328114914 0.000000000 1.000026419
v -2.494408837 0.800000000 1.111140466
v -2.771638598 0.800000000 0.765366865
v -2.586862691 0.800000000 0.688830178
v -2.328114914 0.800000000 1.000026419
v -2.771638598 0.000000000 0.765366865
v -2.942355841 0.000000000 0.390180644
v -2.746198785 0.000000000 0.351162580
v -2.586862691 0.000000000 0.688830178
v -2.771638598 0.800000000 0.765366865
v -2.942355841 0.800000000 0.390180644
v -2.746198785 0.800000000 0.351162580
v -2.586862691 0.800000000 0.688830178
v -2.942355841 0.000000000 0.390180644
v -3.000000000 0.000000000 0.000000000
v -2.800000000 0.000000000 0.000000000
v -2.746198785 0.000000000 0.351162580
v -2.942355841 0.800000000 0.390180644
v -3.000000000 0.800000000 0.000000000
v -2.800000000 0.800000000 0.000000000
v -2.746198785 0.800000000 0.351162580
usemtl wood
f 2 3 4
f 1 2 4
f 7 6 5
f 8 7 5
f 6 2 1
f 5 6 1
f 7 3 2
f 6 7 2
f 8 4 3
f 7 8 3
f 5 1 4
f 8 5 4
f 10 11 12
f 9 10 12
f 15 14 13
f 16 15 13
f 14 10 9
f 13 14 9
f 15 11 10
f 14 15 10
f 16 12 11
f 15 16 11
f 13 9 12
f 16 13 12
f 18 19 20
f 17 18 20
f 23 22 21
f 24 23 21
f 22 18 17
f 21 22 17
f 23 19 18
f 22 23 18
f 24 20 19
f 23 24 19
f 21 17 20
f 24 21 20
f 26 27 28
f 25 26 28
f 31 30 29
f 32 31 29
f 30 26 25
f 29 30 25
f 31 27 26
f 30 31 26
f 32 28 27
f 31 32 27
f 29 25 28
f 32 29 28
f 34 35 36
f 33 34 36
f 39 38 37
f 40 39 37
f 38 34 33
f 37 38 33
f 39 35 34
f 38 39 34
f 40 36 35
f 39 40 35
f 37 33 36
f 40 37 36
f 42 43 44
f 41 42 44
f 47 46 45
f 48 47 45
f 46 42 41
f 45 46 41
f 47 43 42
f 46 47 42
f 48 44 43
f 47 48 43
f 45 41 44
f 48 45 44
f 50 51 52
f 49 50 52
f 55 54 53
f 56 55 53
f 54 50 49
f 53 54 49
f 55 51 50
f 54 55 50
f 56 52 51
f 55 56 51
f 53 49 52
f 56 53 52
f 58 59 60
f 57 58 60
f 63 62 61
f 64 63 61
f 62 58 57
f 61 62 57
f 63 59 58
f 62 63 58
f 64 60 59
f 63 64 59
f 61 57 60
f 64 61 60
f 66 67 68
f 65 66 68
f 71 70 69
f 72 71 69
f 70 66 65
f 69 70 65
f 71 67 66
f 70 71 66
f 72 68 67
f 71 72 67
f 69 65 68
f 72 69 68
f 74 75 76
f 73 74 76
f 79 78 77
f 80 79 77
f 78 74 73
f 77 78 73
f 79 75 74
f 78 79 74
f 80 76 75
f 79 80 75
f 77 73 76
f 80 77 76
f 82 83 84
f 81 82 84
f 87 86 85
f 88 87 85
f 86 82 81
f 85 86 81
f 87 83 82
f 86 87 82
f 88 84 83
f 87 88 83
f 85 81 84
f 88 85 84
f 90 91 92
f 89 90 92
f 95 94 93
f 96 95 93
f 94 90 89
f 93 94 89
f 95 91 90
f 94 95 90
f 96 92 91
f 95 96 91
f 93 89 92
f 96 93 92
f 98 99 100
f 97 98 100
f 103 102 101
f 104 103 101
f 102 98 97
f 101 102 97
f 103 99 98
f 102 103 98
f 104 100 99
f 103 104 99
f 101 97 100
f 104 101 100
f 106 107 108
f 105 106 108
f 111 110 109
f 112 111 109
f 110 106 105
f 109 110 105
f 111 107 106
f 110 111 106
f 112 108 107
f 111 112 107
f 109 105 108
f 112 109 108
f 114 115 116
f 113 114 116
f 119 118 117
f 120 119 117
f 118 114 113
f 117 118 113
f 119 115 114
f 118 119 114
f 120 116 115
f 119 120 115
f 117 113 116
f 120 117 116
f 122 123 124
f 121 122 124
f 127 126 125
f 128 127 125
f 126 122 121
f 125 126 121
f 127 123 122
f 126 127 122
f 128 124 123
f 127 128 123
f 125 121 124
f 128 125 124
