# Metres; X starboard Y up Z aft; canonical ship family
mtllib ship.mtl
v -3.000000000 0.000000000 4.000000000
v -2.200000000 0.000000000 2.000000000
v -2.029550821 0.000000000 2.112393534
v -2.800000000 0.000000000 4.000000000
v -3.000000000 0.800000000 4.000000000
v -2.200000000 0.800000000 2.000000000
v -2.029550821 0.800000000 2.112393534
v -2.800000000 0.800000000 4.000000000
v -2.200000000 0.000000000 2.000000000
v -1.200000000 0.000000000 1.000000000
v -1.064993660 0.000000000 1.147836373
v -2.029550821 0.000000000 2.112393534
v -2.200000000 0.800000000 2.000000000
v -1.200000000 0.800000000 1.000000000
v -1.064993660 0.800000000 1.147836373
v -2.029550821 0.800000000 2.112393534
v -1.200000000 0.000000000 1.000000000
v 0.000000000 0.000000000 0.000000000
v 0.000000000 0.000000000 0.260341656
v -1.064993660 0.000000000 1.147836373
v -1.200000000 0.800000000 1.000000000
v 0.000000000 0.800000000 0.000000000
v 0.000000000 0.800000000 0.260341656
v -1.064993660 0.800000000 1.147836373
v 0.000000000 0.000000000 0.000000000
v 1.200000000 0.000000000 1.000000000
v 1.064993660 0.000000000 1.147836373
v 0.000000000 0.000000000 0.260341656
v 0.000000000 0.800000000 0.000000000
v 1.200000000 0.800000000 1.000000000
v 1.064993660 0.800000000 1.147836373
v 0.000000000 0.800000000 0.260341656
v 1.200000000 0.000000000 1.000000000
v 2.200000000 0.000000000 2.000000000
v 2.029550821 0.000000000 2.112393534
v 1.064993660 0.000000000 1.147836373
v 1.200000000 0.800000000 1.000000000
v 2.200000000 0.800000000 2.000000000
v 2.029550821 0.800000000 2.112393534
v 1.064993660 0.800000000 1.147836373
v 2.200000000 0.000000000 2.000000000
v 3.000000000 0.000000000 4.000000000
v 2.800000000 0.000000000 4.000000000
v 2.029550821 0.000000000 2.112393534
v 2.200000000 0.800000000 2.000000000
v 3.000000000 0.800000000 4.000000000
v 2.800000000 0.800000000 4.000000000
v 2.029550821 0.800000000 2.112393534
usemtl wood
f 2 3 4
f 1 2 4
f 7 6 5
f 8 7 5
f 6 2 1
f 5 6 1
f 7 3 2
f 6 7 2
f 8 4 3
f 7 8 3
f 5 1 4
f 8 5 4
f 10 11 12
f 9 10 12
f 15 14 13
f 16 15 13
f 14 10 9
f 13 14 9
f 15 11 10
f 14 15 10
f 16 12 11
f 15 16 11
f 13 9 12
f 16 13 12
f 18 19 20
f 17 18 20
f 23 22 21
f 24 23 21
f 22 18 17
f 21 22 17
f 23 19 18
f 22 23 18
f 24 20 19
f 23 24 19
f 21 17 20
f 24 21 20
f 26 27 28
f 25 26 28
f 31 30 29
f 32 31 29
f 30 26 25
f 29 30 25
f 31 27 26
f 30 31 26
f 32 28 27
f 31 32 27
f 29 25 28
f 32 29 28
f 34 35 36
f 33 34 36
f 39 38 37
f 40 39 37
f 38 34 33
f 37 38 33
f 39 35 34
f 38 39 34
f 40 36 35
f 39 40 35
f 37 33 36
f 40 37 36
f 42 43 44
f 41 42 44
f 47 46 45
f 48 47 45
f 46 42 41
f 45 46 41
f 47 43 42
f 46 47 42
f 48 44 43
f 47 48 43
f 45 41 44
f 48 45 44
