# Contract axes: X starboard Y up Z aft; metres
v -0.207200 2.000000 0.080000
v 0.207200 2.000000 0.080000
v 0.980000 2.000000 1.000000
v -0.980000 2.000000 1.000000
v -0.204173 1.820000 0.080000
v 0.204173 1.820000 0.080000
v 0.965682 1.820000 1.000000
v -0.965682 1.820000 1.000000
v -0.980000 2.000000 1.000000
v 0.980000 2.000000 1.000000
v 1.960000 2.000000 2.000000
v -1.960000 2.000000 2.000000
v -0.965682 1.820000 1.000000
v 0.965682 1.820000 1.000000
v 1.931364 1.820000 2.000000
v -1.931364 1.820000 2.000000
v -1.960000 2.000000 2.000000
v 1.960000 2.000000 2.000000
v 2.800000 2.000000 4.000000
v -2.800000 2.000000 4.000000
v -1.931364 1.820000 2.000000
v 1.931364 1.820000 2.000000
v 2.759091 1.820000 4.000000
v -2.759091 1.820000 4.000000
f 1 4 3 2
f 5 6 7 8
f 1 2 6 5
f 2 3 7 6
f 3 4 8 7
f 4 1 5 8
f 9 12 11 10
f 13 14 15 16
f 9 10 14 13
f 10 11 15 14
f 11 12 16 15
f 12 9 13 16
f 17 20 19 18
f 21 22 23 24
f 17 18 22 21
f 18 19 23 22
f 19 20 24 23
f 20 17 21 24
