# Contract axes: X starboard Y up Z aft; metres
v -2.800000 2.000000 0.000000
v 2.800000 2.000000 0.000000
v 2.688000 2.000000 1.000000
v -2.688000 2.000000 1.000000
v -2.759091 1.820000 0.000000
v 2.759091 1.820000 0.000000
v 2.648727 1.820000 1.000000
v -2.648727 1.820000 1.000000
v -2.688000 2.000000 1.000000
v 2.688000 2.000000 1.000000
v 2.275840 2.000000 1.920000
v -2.275840 2.000000 1.920000
v -2.648727 1.820000 1.000000
v 2.648727 1.820000 1.000000
v 2.242589 1.820000 1.920000
v -2.242589 1.820000 1.920000
f 1 4 3 2
f 5 6 7 8
f 1 2 6 5
f 2 3 7 6
f 3 4 8 7
f 4 1 5 8
f 9 12 11 10
f 13 14 15 16
f 9 10 14 13
f 10 11 15 14
f 11 12 16 15
f 12 9 13 16
