# Contract axes: X starboard Y up Z aft; metres
v -0.150000 2.600000 0.000000
v -0.150000 2.000000 0.000000
v -0.140000 1.000000 0.000000
v -0.100000 0.300000 0.000000
v 0.000000 0.000000 0.000000
v 0.100000 0.300000 0.000000
v 0.140000 1.000000 0.000000
v 0.150000 2.000000 0.000000
v 0.150000 2.600000 0.000000
v 0.140000 2.600000 0.000000
v 0.140000 2.000000 0.000000
v 0.130000 1.120000 0.000000
v 0.096000 0.500000 0.000000
v 0.000000 0.200000 0.000000
v -0.096000 0.500000 0.000000
v -0.130000 1.120000 0.000000
v -0.140000 2.000000 0.000000
v -0.140000 2.600000 0.000000
v -1.050000 2.600000 1.000000
v -1.050000 2.000000 1.000000
v -0.980000 1.000000 1.000000
v -0.700000 0.300000 1.000000
v 0.000000 0.000000 1.000000
v 0.700000 0.300000 1.000000
v 0.980000 1.000000 1.000000
v 1.050000 2.000000 1.000000
v 1.050000 2.600000 1.000000
v 0.980000 2.600000 1.000000
v 0.980000 2.000000 1.000000
v 0.910000 1.120000 1.000000
v 0.672000 0.500000 1.000000
v 0.000000 0.200000 1.000000
v -0.672000 0.500000 1.000000
v -0.910000 1.120000 1.000000
v -0.980000 2.000000 1.000000
v -0.980000 2.600000 1.000000
v -2.100000 2.600000 2.000000
v -2.100000 2.000000 2.000000
v -1.960000 1.000000 2.000000
v -1.400000 0.300000 2.000000
v 0.000000 0.000000 2.000000
v 1.400000 0.300000 2.000000
v 1.960000 1.000000 2.000000
v 2.100000 2.000000 2.000000
v 2.100000 2.600000 2.000000
v 1.960000 2.600000 2.000000
v 1.960000 2.000000 2.000000
v 1.820000 1.120000 2.000000
v 1.344000 0.500000 2.000000
v 0.000000 0.200000 2.000000
v -1.344000 0.500000 2.000000
v -1.820000 1.120000 2.000000
v -1.960000 2.000000 2.000000
v -1.960000 2.600000 2.000000
v -3.000000 2.600000 4.000000
v -3.000000 2.000000 4.000000
v -2.800000 1.000000 4.000000
v -2.000000 0.300000 4.000000
v 0.000000 0.000000 4.000000
v 2.000000 0.300000 4.000000
v 2.800000 1.000000 4.000000
v 3.000000 2.000000 4.000000
v 3.000000 2.600000 4.000000
v 2.800000 2.600000 4.000000
v 2.800000 2.000000 4.000000
v 2.600000 1.120000 4.000000
v 1.920000 0.500000 4.000000
v 0.000000 0.200000 4.000000
v -1.920000 0.500000 4.000000
v -2.600000 1.120000 4.000000
v -2.800000 2.000000 4.000000
v -2.800000 2.600000 4.000000
v -0.140000 2.600000 0.000000
v -0.140000 2.000000 0.000000
v -0.130000 1.120000 0.000000
v -0.096000 0.500000 0.000000
v 0.000000 0.200000 0.000000
v 0.096000 0.500000 0.000000
v 0.130000 1.120000 0.000000
v 0.140000 2.000000 0.000000
v 0.140000 2.600000 0.000000
v -0.140000 2.600000 0.080000
v -0.140000 2.000000 0.080000
v -0.130000 1.120000 0.080000
v -0.096000 0.500000 0.080000
v 0.000000 0.200000 0.080000
v 0.096000 0.500000 0.080000
v 0.130000 1.120000 0.080000
v 0.140000 2.000000 0.080000
v 0.140000 2.600000 0.080000
f 1 2 20 19
f 2 3 21 20
f 3 4 22 21
f 4 5 23 22
f 5 6 24 23
f 6 7 25 24
f 7 8 26 25
f 8 9 27 26
f 9 10 28 27
f 10 11 29 28
f 11 12 30 29
f 12 13 31 30
f 13 14 32 31
f 14 15 33 32
f 15 16 34 33
f 16 17 35 34
f 17 18 36 35
f 18 1 19 36
f 19 20 38 37
f 20 21 39 38
f 21 22 40 39
f 22 23 41 40
f 23 24 42 41
f 24 25 43 42
f 25 26 44 43
f 26 27 45 44
f 27 28 46 45
f 28 29 47 46
f 29 30 48 47
f 30 31 49 48
f 31 32 50 49
f 32 33 51 50
f 33 34 52 51
f 34 35 53 52
f 35 36 54 53
f 36 19 37 54
f 37 38 56 55
f 38 39 57 56
f 39 40 58 57
f 40 41 59 58
f 41 42 60 59
f 42 43 61 60
f 43 44 62 61
f 44 45 63 62
f 45 46 64 63
f 46 47 65 64
f 47 48 66 65
f 48 49 67 66
f 49 50 68 67
f 50 51 69 68
f 51 52 70 69
f 52 53 71 70
f 53 54 72 71
f 54 37 55 72
f 1 18 2
f 2 18 17
f 2 17 3
f 3 17 16
f 3 16 4
f 4 16 15
f 4 15 5
f 5 15 14
f 5 14 6
f 6 14 13
f 6 13 7
f 7 13 12
f 7 12 8
f 8 12 11
f 8 11 9
f 9 11 10
f 56 72 55
f 71 72 56
f 57 71 56
f 70 71 57
f 58 70 57
f 69 70 58
f 59 69 58
f 68 69 59
f 60 68 59
f 67 68 60
f 61 67 60
f 66 67 61
f 62 66 61
f 65 66 62
f 63 65 62
f 64 65 63
f 73 74 75 76 77 78 79 80 81
f 90 89 88 87 86 85 84 83 82
f 73 74 83 82
f 74 75 84 83
f 75 76 85 84
f 76 77 86 85
f 77 78 87 86
f 78 79 88 87
f 79 80 89 88
f 80 81 90 89
f 81 73 82 90
