# Contract axes: X starboard Y up Z aft; metres
v -3.000000 2.600000 0.000000
v -3.000000 2.000000 0.000000
v -2.800000 1.000000 0.000000
v -2.000000 0.300000 0.000000
v 0.000000 0.000000 0.000000
v 2.000000 0.300000 0.000000
v 2.800000 1.000000 0.000000
v 3.000000 2.000000 0.000000
v 3.000000 2.600000 0.000000
v 2.800000 2.600000 0.000000
v 2.800000 2.000000 0.000000
v 2.600000 1.120000 0.000000
v 1.920000 0.500000 0.000000
v 0.000000 0.200000 0.000000
v -1.920000 0.500000 0.000000
v -2.600000 1.120000 0.000000
v -2.800000 2.000000 0.000000
v -2.800000 2.600000 0.000000
v -3.000000 2.600000 2.000000
v -3.000000 2.000000 2.000000
v -2.800000 1.000000 2.000000
v -2.000000 0.300000 2.000000
v 0.000000 0.000000 2.000000
v 2.000000 0.300000 2.000000
v 2.800000 1.000000 2.000000
v 3.000000 2.000000 2.000000
v 3.000000 2.600000 2.000000
v 2.800000 2.600000 2.000000
v 2.800000 2.000000 2.000000
v 2.600000 1.120000 2.000000
v 1.920000 0.500000 2.000000
v 0.000000 0.200000 2.000000
v -1.920000 0.500000 2.000000
v -2.600000 1.120000 2.000000
v -2.800000 2.000000 2.000000
v -2.800000 2.600000 2.000000
f 1 2 20 19
f 2 3 21 20
f 3 4 22 21
f 4 5 23 22
f 5 6 24 23
f 6 7 25 24
f 7 8 26 25
f 8 9 27 26
f 9 10 28 27
f 10 11 29 28
f 11 12 30 29
f 12 13 31 30
f 13 14 32 31
f 14 15 33 32
f 15 16 34 33
f 16 17 35 34
f 17 18 36 35
f 18 1 19 36
f 1 18 2
f 2 18 17
f 2 17 3
f 3 17 16
f 3 16 4
f 4 16 15
f 4 15 5
f 5 15 14
f 5 14 6
f 6 14 13
f 6 13 7
f 7 13 12
f 7 12 8
f 8 12 11
f 8 11 9
f 9 11 10
f 20 36 19
f 35 36 20
f 21 35 20
f 34 35 21
f 22 34 21
f 33 34 22
f 23 33 22
f 32 33 23
f 24 32 23
f 31 32 24
f 25 31 24
f 30 31 25
f 26 30 25
f 29 30 26
f 27 29 26
f 28 29 27
