# Contract axes: X starboard Y up Z aft; metres
v -3.000000 2.600000 0.000000
v -3.000000 2.000000 0.000000
v -2.800000 1.000000 0.000000
v -2.000000 0.300000 0.000000
v 0.000000 0.000000 0.000000
v 2.000000 0.300000 0.000000
v 2.800000 1.000000 0.000000
v 3.000000 2.000000 0.000000
v 3.000000 2.600000 0.000000
v 2.800000 2.600000 0.000000
v 2.800000 2.000000 0.000000
v 2.600000 1.120000 0.000000
v 1.920000 0.500000 0.000000
v 0.000000 0.200000 0.000000
v -1.920000 0.500000 0.000000
v -2.600000 1.120000 0.000000
v -2.800000 2.000000 0.000000
v -2.800000 2.600000 0.000000
v -2.880000 2.600000 1.000000
v -2.880000 2.000000 1.000000
v -2.688000 1.000000 1.000000
v -1.920000 0.300000 1.000000
v 0.000000 0.000000 1.000000
v 1.920000 0.300000 1.000000
v 2.688000 1.000000 1.000000
v 2.880000 2.000000 1.000000
v 2.880000 2.600000 1.000000
v 2.688000 2.600000 1.000000
v 2.688000 2.000000 1.000000
v 2.496000 1.120000 1.000000
v 1.843200 0.500000 1.000000
v 0.000000 0.200000 1.000000
v -1.843200 0.500000 1.000000
v -2.496000 1.120000 1.000000
v -2.688000 2.000000 1.000000
v -2.688000 2.600000 1.000000
v -2.400000 2.600000 2.000000
v -2.400000 2.000000 2.000000
v -2.240000 1.000000 2.000000
v -1.600000 0.300000 2.000000
v 0.000000 0.000000 2.000000
v 1.600000 0.300000 2.000000
v 2.240000 1.000000 2.000000
v 2.400000 2.000000 2.000000
v 2.400000 2.600000 2.000000
v 2.240000 2.600000 2.000000
v 2.240000 2.000000 2.000000
v 2.080000 1.120000 2.000000
v 1.536000 0.500000 2.000000
v 0.000000 0.200000 2.000000
v -1.536000 0.500000 2.000000
v -2.080000 1.120000 2.000000
v -2.240000 2.000000 2.000000
v -2.240000 2.600000 2.000000
v -2.240000 2.600000 2.000000
v -2.240000 2.000000 2.000000
v -2.080000 1.120000 2.000000
v -1.536000 0.500000 2.000000
v 0.000000 0.200000 2.000000
v 1.536000 0.500000 2.000000
v 2.080000 1.120000 2.000000
v 2.240000 2.000000 2.000000
v 2.240000 2.600000 2.000000
v -2.240000 2.600000 1.920000
v -2.240000 2.000000 1.920000
v -2.080000 1.120000 1.920000
v -1.536000 0.500000 1.920000
v 0.000000 0.200000 1.920000
v 1.536000 0.500000 1.920000
v 2.080000 1.120000 1.920000
v 2.240000 2.000000 1.920000
v 2.240000 2.600000 1.920000
f 1 2 20 19
f 2 3 21 20
f 3 4 22 21
f 4 5 23 22
f 5 6 24 23
f 6 7 25 24
f 7 8 26 25
f 8 9 27 26
f 9 10 28 27
f 10 11 29 28
f 11 12 30 29
f 12 13 31 30
f 13 14 32 31
f 14 15 33 32
f 15 16 34 33
f 16 17 35 34
f 17 18 36 35
f 18 1 19 36
f 19 20 38 37
f 20 21 39 38
f 21 22 40 39
f 22 23 41 40
f 23 24 42 41
f 24 25 43 42
f 25 26 44 43
f 26 27 45 44
f 27 28 46 45
f 28 29 47 46
f 29 30 48 47
f 30 31 49 48
f 31 32 50 49
f 32 33 51 50
f 33 34 52 51
f 34 35 53 52
f 35 36 54 53
f 36 19 37 54
f 1 18 2
f 2 18 17
f 2 17 3
f 3 17 16
f 3 16 4
f 4 16 15
f 4 15 5
f 5 15 14
f 5 14 6
f 6 14 13
f 6 13 7
f 7 13 12
f 7 12 8
f 8 12 11
f 8 11 9
f 9 11 10
f 38 54 37
f 53 54 38
f 39 53 38
f 52 53 39
f 40 52 39
f 51 52 40
f 41 51 40
f 50 51 41
f 42 50 41
f 49 50 42
f 43 49 42
f 48 49 43
f 44 48 43
f 47 48 44
f 45 47 44
f 46 47 45
f 55 56 57 58 59 60 61 62 63
f 72 71 70 69 68 67 66 65 64
f 55 56 65 64
f 56 57 66 65
f 57 58 67 66
f 58 59 68 67
f 59 60 69 68
f 60 61 70 69
f 61 62 71 70
f 62 63 72 71
f 63 55 64 72
