# Metres; X starboard Y up Z aft; canonical ship family
mtllib ship.mtl
v -0.600000000 0.000000000 4.000000000
v -1.860000000 0.300000000 4.000000000
v -2.700000000 1.000000000 4.000000000
v -3.000000000 2.420000000 4.000000000
v -3.000000000 2.600000000 4.000000000
v -2.800000000 2.600000000 4.000000000
v -2.800000000 2.420000000 4.000000000
v -2.520000000 1.120000000 4.000000000
v -1.680000000 0.500000000 4.000000000
v -0.560000000 0.200000000 4.000000000
v -0.440000000 0.000000000 3.600000000
v -1.364000000 0.300000000 2.760000000
v -1.980000000 1.000000000 2.200000000
v -2.200000000 2.420000000 2.000000000
v -2.200000000 2.600000000 2.000000000
v -2.029550821 2.600000000 2.112393534
v -2.029550821 2.420000000 2.112393534
v -1.826595739 1.120000000 2.301154181
v -1.217730493 0.500000000 2.867436120
v -0.405910164 0.200000000 3.622478707
v -0.440000000 0.000000000 3.600000000
v -1.364000000 0.300000000 2.760000000
v -1.980000000 1.000000000 2.200000000
v -2.200000000 2.420000000 2.000000000
v -2.200000000 2.600000000 2.000000000
v -2.029550821 2.600000000 2.112393534
v -2.029550821 2.420000000 2.112393534
v -1.826595739 1.120000000 2.301154181
v -1.217730493 0.500000000 2.867436120
v -0.405910164 0.200000000 3.622478707
v -0.240000000 0.000000000 3.400000000
v -0.744000000 0.300000000 2.140000000
v -1.080000000 1.000000000 1.300000000
v -1.200000000 2.420000000 1.000000000
v -1.200000000 2.600000000 1.000000000
v -1.064993660 2.600000000 1.147836373
v -1.064993660 2.420000000 1.147836373
v -0.958494294 1.120000000 1.433052736
v -0.638996196 0.500000000 2.288701824
v -0.212998732 0.200000000 3.429567275
v -0.240000000 0.000000000 3.400000000
v -0.744000000 0.300000000 2.140000000
v -1.080000000 1.000000000 1.300000000
v -1.200000000 2.420000000 1.000000000
v -1.200000000 2.600000000 1.000000000
v -1.064993660 2.600000000 1.147836373
v -1.064993660 2.420000000 1.147836373
v -0.958494294 1.120000000 1.433052736
v -0.638996196 0.500000000 2.288701824
v -0.212998732 0.200000000 3.429567275
v 0.000000000 0.000000000 3.200000000
v 0.000000000 0.300000000 1.520000000
v 0.000000000 1.000000000 0.400000000
v 0.000000000 2.420000000 0.000000000
v 0.000000000 2.600000000 0.000000000
v 0.000000000 2.600000000 0.260341656
v 0.000000000 2.420000000 0.260341656
v 0.000000000 1.120000000 0.634307490
v 0.000000000 0.500000000 1.756204994
v 0.000000000 0.200000000 3.252068331
v 0.000000000 0.000000000 3.200000000
v 0.000000000 0.300000000 1.520000000
v 0.000000000 1.000000000 0.400000000
v 0.000000000 2.420000000 0.000000000
v 0.000000000 2.600000000 0.000000000
v 0.000000000 2.600000000 0.260341656
v 0.000000000 2.420000000 0.260341656
v 0.000000000 1.120000000 0.634307490
v 0.000000000 0.500000000 1.756204994
v 0.000000000 0.200000000 3.252068331
v 0.240000000 0.000000000 3.400000000
v 0.744000000 0.300000000 2.140000000
v 1.080000000 1.000000000 1.300000000
v 1.200000000 2.420000000 1.000000000
v 1.200000000 2.600000000 1.000000000
v 1.064993660 2.600000000 1.147836373
v 1.064993660 2.420000000 1.147836373
v 0.958494294 1.120000000 1.433052736
v 0.638996196 0.500000000 2.288701824
v 0.212998732 0.200000000 3.429567275
v 0.240000000 0.000000000 3.400000000
v 0.744000000 0.300000000 2.140000000
v 1.080000000 1.000000000 1.300000000
v 1.200000000 2.420000000 1.000000000
v 1.200000000 2.600000000 1.000000000
v 1.064993660 2.600000000 1.147836373
v 1.064993660 2.420000000 1.147836373
v 0.958494294 1.120000000 1.433052736
v 0.638996196 0.500000000 2.288701824
v 0.212998732 0.200000000 3.429567275
v 0.440000000 0.000000000 3.600000000
v 1.364000000 0.300000000 2.760000000
v 1.980000000 1.000000000 2.200000000
v 2.200000000 2.420000000 2.000000000
v 2.200000000 2.600000000 2.000000000
v 2.029550821 2.600000000 2.112393534
v 2.029550821 2.420000000 2.112393534
v 1.826595739 1.120000000 2.301154181
v 1.217730493 0.500000000 2.867436120
v 0.405910164 0.200000000 3.622478707
v 0.440000000 0.000000000 3.600000000
v 1.364000000 0.300000000 2.760000000
v 1.980000000 1.000000000 2.200000000
v 2.200000000 2.420000000 2.000000000
v 2.200000000 2.600000000 2.000000000
v 2.029550821 2.600000000 2.112393534
v 2.029550821 2.420000000 2.112393534
v 1.826595739 1.120000000 2.301154181
v 1.217730493 0.500000000 2.867436120
v 0.405910164 0.200000000 3.622478707
v 0.600000000 0.000000000 4.000000000
v 1.860000000 0.300000000 4.000000000
v 2.700000000 1.000000000 4.000000000
v 3.000000000 2.420000000 4.000000000
v 3.000000000 2.600000000 4.000000000
v 2.800000000 2.600000000 4.000000000
v 2.800000000 2.420000000 4.000000000
v 2.520000000 1.120000000 4.000000000
v 1.680000000 0.500000000 4.000000000
v 0.560000000 0.200000000 4.000000000
v -0.600000000 0.000000000 4.000000000
v -0.440000000 0.000000000 3.600000000
v -0.240000000 0.000000000 3.400000000
v 0.000000000 0.000000000 3.200000000
v 0.240000000 0.000000000 3.400000000
v 0.440000000 0.000000000 3.600000000
v 0.600000000 0.000000000 4.000000000
v -0.560000000 0.200000000 4.000000000
v -0.405910164 0.200000000 3.622478707
v -0.212998732 0.200000000 3.429567275
v 0.000000000 0.200000000 3.252068331
v 0.212998732 0.200000000 3.429567275
v 0.405910164 0.200000000 3.622478707
v 0.560000000 0.200000000 4.000000000
v -0.600000000 0.000000000 6.000000000
v -1.860000000 0.300000000 6.000000000
v -2.700000000 1.000000000 6.000000000
v -3.000000000 2.420000000 6.000000000
v -3.000000000 2.600000000 6.000000000
v -2.800000000 2.600000000 6.000000000
v -2.800000000 2.420000000 6.000000000
v -2.520000000 1.120000000 6.000000000
v -1.680000000 0.500000000 6.000000000
v -0.560000000 0.200000000 6.000000000
v -0.600000000 0.000000000 4.000000000
v -1.860000000 0.300000000 4.000000000
v -2.700000000 1.000000000 4.000000000
v -3.000000000 2.420000000 4.000000000
v -3.000000000 2.600000000 4.000000000
v -2.800000000 2.600000000 4.000000000
v -2.800000000 2.420000000 4.000000000
v -2.520000000 1.120000000 4.000000000
v -1.680000000 0.500000000 4.000000000
v -0.560000000 0.200000000 4.000000000
v 0.600000000 0.000000000 4.000000000
v 1.860000000 0.300000000 4.000000000
v 2.700000000 1.000000000 4.000000000
v 3.000000000 2.420000000 4.000000000
v 3.000000000 2.600000000 4.000000000
v 2.800000000 2.600000000 4.000000000
v 2.800000000 2.420000000 4.000000000
v 2.520000000 1.120000000 4.000000000
v 1.680000000 0.500000000 4.000000000
v 0.560000000 0.200000000 4.000000000
v 0.600000000 0.000000000 6.000000000
v 1.860000000 0.300000000 6.000000000
v 2.700000000 1.000000000 6.000000000
v 3.000000000 2.420000000 6.000000000
v 3.000000000 2.600000000 6.000000000
v 2.800000000 2.600000000 6.000000000
v 2.800000000 2.420000000 6.000000000
v 2.520000000 1.120000000 6.000000000
v 1.680000000 0.500000000 6.000000000
v 0.560000000 0.200000000 6.000000000
v -0.600000000 0.000000000 4.000000000
v 0.600000000 0.000000000 4.000000000
v 0.600000000 0.000000000 6.000000000
v -0.600000000 0.000000000 6.000000000
v -0.560000000 0.200000000 4.000000000
v 0.560000000 0.200000000 4.000000000
v 0.560000000 0.200000000 6.000000000
v -0.560000000 0.200000000 6.000000000
v -0.600000000 0.000000000 8.000000000
v -1.860000000 0.300000000 8.000000000
v -2.700000000 1.000000000 8.000000000
v -3.000000000 2.420000000 8.000000000
v -3.000000000 2.600000000 8.000000000
v -2.800000000 2.600000000 8.000000000
v -2.800000000 2.420000000 8.000000000
v -2.520000000 1.120000000 8.000000000
v -1.680000000 0.500000000 8.000000000
v -0.560000000 0.200000000 8.000000000
v -0.600000000 0.000000000 6.000000000
v -1.860000000 0.300000000 6.000000000
v -2.700000000 1.000000000 6.000000000
v -3.000000000 2.420000000 6.000000000
v -3.000000000 2.600000000 6.000000000
v -2.800000000 2.600000000 6.000000000
v -2.800000000 2.420000000 6.000000000
v -2.520000000 1.120000000 6.000000000
v -1.680000000 0.500000000 6.000000000
v -0.560000000 0.200000000 6.000000000
v 0.600000000 0.000000000 6.000000000
v 1.860000000 0.300000000 6.000000000
v 2.700000000 1.000000000 6.000000000
v 3.000000000 2.420000000 6.000000000
v 3.000000000 2.600000000 6.000000000
v 2.800000000 2.600000000 6.000000000
v 2.800000000 2.420000000 6.000000000
v 2.520000000 1.120000000 6.000000000
v 1.680000000 0.500000000 6.000000000
v 0.560000000 0.200000000 6.000000000
v 0.600000000 0.000000000 8.000000000
v 1.860000000 0.300000000 8.000000000
v 2.700000000 1.000000000 8.000000000
v 3.000000000 2.420000000 8.000000000
v 3.000000000 2.600000000 8.000000000
v 2.800000000 2.600000000 8.000000000
v 2.800000000 2.420000000 8.000000000
v 2.520000000 1.120000000 8.000000000
v 1.680000000 0.500000000 8.000000000
v 0.560000000 0.200000000 8.000000000
v -0.600000000 0.000000000 6.000000000
v 0.600000000 0.000000000 6.000000000
v 0.600000000 0.000000000 8.000000000
v -0.600000000 0.000000000 8.000000000
v -0.560000000 0.200000000 6.000000000
v 0.560000000 0.200000000 6.000000000
v 0.560000000 0.200000000 8.000000000
v -0.560000000 0.200000000 8.000000000
v 0.600000000 0.000000000 8.000000000
v 1.860000000 0.300000000 8.000000000
v 2.700000000 1.000000000 8.000000000
v 3.000000000 2.420000000 8.000000000
v 3.000000000 2.600000000 8.000000000
v 2.800000000 2.600000000 8.000000000
v 2.800000000 2.420000000 8.000000000
v 2.520000000 1.120000000 8.000000000
v 1.680000000 0.500000000 8.000000000
v 0.560000000 0.200000000 8.000000000
v 0.588471168 0.000000000 8.078036129
v 1.824260621 0.300000000 8.241911999
v 2.648120257 1.000000000 8.351162580
v 2.942355841 2.420000000 8.390180644
v 2.942355841 2.600000000 8.390180644
v 2.746198785 2.600000000 8.351162580
v 2.746198785 2.420000000 8.351162580
v 2.471578907 1.120000000 8.316046322
v 1.647719271 0.500000000 8.210697548
v 0.549239757 0.200000000 8.070232516
v 0.588471168 0.000000000 8.078036129
v 1.824260621 0.300000000 8.241911999
v 2.648120257 1.000000000 8.351162580
v 2.942355841 2.420000000 8.390180644
v 2.942355841 2.600000000 8.390180644
v 2.746198785 2.600000000 8.351162580
v 2.746198785 2.420000000 8.351162580
v 2.471578907 1.120000000 8.316046322
v 1.647719271 0.500000000 8.210697548
v 0.549239757 0.200000000 8.070232516
v 0.554327720 0.000000000 8.153073373
v 1.718415931 0.300000000 8.474527456
v 2.494474738 1.000000000 8.688830178
v 2.771638598 2.420000000 8.765366865
v 2.771638598 2.600000000 8.765366865
v 2.586862691 2.600000000 8.688830178
v 2.586862691 2.420000000 8.688830178
v 2.328176422 1.120000000 8.619947160
v 1.552117615 0.500000000 8.413298107
v 0.517372538 0.200000000 8.137766036
v 0.554327720 0.000000000 8.153073373
v 1.718415931 0.300000000 8.474527456
v 2.494474738 1.000000000 8.688830178
v 2.771638598 2.420000000 8.765366865
v 2.771638598 2.600000000 8.765366865
v 2.586862691 2.600000000 8.688830178
v 2.586862691 2.420000000 8.688830178
v 2.328176422 1.120000000 8.619947160
v 1.552117615 0.500000000 8.413298107
v 0.517372538 0.200000000 8.137766036
v 0.498881767 0.000000000 8.222228093
v 1.546533479 0.300000000 8.688907089
v 2.244967953 1.000000000 9.000026419
v 2.494408837 2.420000000 9.111140466
v 2.494408837 2.600000000 9.111140466
v 2.328114914 2.600000000 9.000026419
v 2.328114914 2.420000000 9.000026419
v 2.095303423 1.120000000 8.900023777
v 1.396868948 0.500000000 8.600015851
v 0.465622983 0.200000000 8.200005284
v 0.498881767 0.000000000 8.222228093
v 1.546533479 0.300000000 8.688907089
v 2.244967953 1.000000000 9.000026419
v 2.494408837 2.420000000 9.111140466
v 2.494408837 2.600000000 9.111140466
v 2.328114914 2.600000000 9.000026419
v 2.328114914 2.420000000 9.000026419
v 2.095303423 1.120000000 8.900023777
v 1.396868948 0.500000000 8.600015851
v 0.465622983 0.200000000 8.200005284
v 0.424264069 0.000000000 8.282842712
v 1.315218613 0.300000000 8.876812408
v 1.909188310 1.000000000 9.272792206
v 2.121320344 2.420000000 9.414213562
v 2.121320344 2.600000000 9.414213562
v 1.979898987 2.600000000 9.272792206
v 1.979898987 2.420000000 9.272792206
v 1.781909088 1.120000000 9.145512985
v 1.187939392 0.500000000 8.763675324
v 0.395979797 0.200000000 8.254558441
v 0.424264069 0.000000000 8.282842712
v 1.315218613 0.300000000 8.876812408
v 1.909188310 1.000000000 9.272792206
v 2.121320344 2.420000000 9.414213562
v 2.121320344 2.600000000 9.414213562
v 1.979898987 2.600000000 9.272792206
v 1.979898987 2.420000000 9.272792206
v 1.781909088 1.120000000 9.145512985
v 1.187939392 0.500000000 8.763675324
v 0.395979797 0.200000000 8.254558441
v 0.333342140 0.000000000 8.332587845
v 1.033360633 0.300000000 9.031022319
v 1.500039629 1.000000000 9.496645302
v 1.666710699 2.420000000 9.662939225
v 1.666710699 2.600000000 9.662939225
v 1.555596652 2.600000000 9.496645302
v 1.555596652 2.420000000 9.496645302
v 1.400036987 1.120000000 9.346980772
v 0.933357991 0.500000000 8.897987181
v 0.311119330 0.200000000 8.299329060
v 0.333342140 0.000000000 8.332587845
v 1.033360633 0.300000000 9.031022319
v 1.500039629 1.000000000 9.496645302
v 1.666710699 2.420000000 9.662939225
v 1.666710699 2.600000000 9.662939225
v 1.555596652 2.600000000 9.496645302
v 1.555596652 2.420000000 9.496645302
v 1.400036987 1.120000000 9.346980772
v 0.933357991 0.500000000 8.897987181
v 0.311119330 0.200000000 8.299329060
v 0.229610059 0.000000000 8.369551813
v 0.711791184 0.300000000 9.145610620
v 1.033245267 1.000000000 9.662983158
v 1.148050297 2.420000000 9.847759065
v 1.148050297 2.600000000 9.847759065
v 1.071513611 2.600000000 9.662983159
v 1.071513611 2.420000000 9.662983159
v 0.964362250 1.120000000 9.496684843
v 0.642908167 0.500000000 8.997789895
v 0.214302722 0.200000000 8.332596632
v 0.229610059 0.000000000 8.369551813
v 0.711791184 0.300000000 9.145610620
v 1.033245267 1.000000000 9.662983158
v 1.148050297 2.420000000 9.847759065
v 1.148050297 2.600000000 9.847759065
v 1.071513611 2.600000000 9.662983159
v 1.071513611 2.420000000 9.662983159
v 0.964362250 1.120000000 9.496684843
v 0.642908167 0.500000000 8.997789895
v 0.214302722 0.200000000 8.332596632
v 0.117054193 0.000000000 8.392314112
v 0.362867999 0.300000000 9.216173748
v 0.526743869 1.000000000 9.765413505
v 0.585270966 2.420000000 9.961570561
v 0.585270966 2.600000000 9.961570561
v 0.546252902 2.600000000 9.765413505
v 0.546252902 2.420000000 9.765413505
v 0.491627612 1.120000000 9.588872155
v 0.327751741 0.500000000 9.059248103
v 0.109250580 0.200000000 8.353082701
v 0.117054193 0.000000000 8.392314112
v 0.362867999 0.300000000 9.216173748
v 0.526743869 1.000000000 9.765413505
v 0.585270966 2.420000000 9.961570561
v 0.585270966 2.600000000 9.961570561
v 0.546252902 2.600000000 9.765413505
v 0.546252902 2.420000000 9.765413505
v 0.491627612 1.120000000 9.588872155
v 0.327751741 0.500000000 9.059248103
v 0.109250580 0.200000000 8.353082701
v 0.000000000 0.000000000 8.400000000
v 0.000000000 0.300000000 9.240000000
v 0.000000000 1.000000000 9.800000000
v 0.000000000 2.420000000 10.000000000
v 0.000000000 2.600000000 10.000000000
v 0.000000000 2.600000000 9.800000000
v 0.000000000 2.420000000 9.800000000
v 0.000000000 1.120000000 9.620000000
v 0.000000000 0.500000000 9.080000000
v 0.000000000 0.200000000 8.360000000
v 0.000000000 0.000000000 8.400000000
v 0.000000000 0.300000000 9.240000000
v 0.000000000 1.000000000 9.800000000
v 0.000000000 2.420000000 10.000000000
v 0.000000000 2.600000000 10.000000000
v 0.000000000 2.600000000 9.800000000
v 0.000000000 2.420000000 9.800000000
v 0.000000000 1.120000000 9.620000000
v 0.000000000 0.500000000 9.080000000
v 0.000000000 0.200000000 8.360000000
v -0.117054193 0.000000000 8.392314112
v -0.362867999 0.300000000 9.216173748
v -0.526743869 1.000000000 9.765413505
v -0.585270966 2.420000000 9.961570561
v -0.585270966 2.600000000 9.961570561
v -0.546252902 2.600000000 9.765413505
v -0.546252902 2.420000000 9.765413505
v -0.491627612 1.120000000 9.588872155
v -0.327751741 0.500000000 9.059248103
v -0.109250580 0.200000000 8.353082701
v -0.117054193 0.000000000 8.392314112
v -0.362867999 0.300000000 9.216173748
v -0.526743869 1.000000000 9.765413505
v -0.585270966 2.420000000 9.961570561
v -0.585270966 2.600000000 9.961570561
v -0.546252902 2.600000000 9.765413505
v -0.546252902 2.420000000 9.765413505
v -0.491627612 1.120000000 9.588872155
v -0.327751741 0.500000000 9.059248103
v -0.109250580 0.200000000 8.353082701
v -0.229610059 0.000000000 8.369551813
v -0.711791184 0.300000000 9.145610620
v -1.033245267 1.000000000 9.662983158
v -1.148050297 2.420000000 9.847759065
v -1.148050297 2.600000000 9.847759065
v -1.071513611 2.600000000 9.662983159
v -1.071513611 2.420000000 9.662983159
v -0.964362250 1.120000000 9.496684843
v -0.642908167 0.500000000 8.997789895
v -0.214302722 0.200000000 8.332596632
v -0.229610059 0.000000000 8.369551813
v -0.711791184 0.300000000 9.145610620
v -1.033245267 1.000000000 9.662983158
v -1.148050297 2.420000000 9.847759065
v -1.148050297 2.600000000 9.847759065
v -1.071513611 2.600000000 9.662983159
v -1.071513611 2.420000000 9.662983159
v -0.964362250 1.120000000 9.496684843
v -0.642908167 0.500000000 8.997789895
v -0.214302722 0.200000000 8.332596632
v -0.333342140 0.000000000 8.332587845
v -1.033360633 0.300000000 9.031022319
v -1.500039629 1.000000000 9.496645302
v -1.666710699 2.420000000 9.662939225
v -1.666710699 2.600000000 9.662939225
v -1.555596652 2.600000000 9.496645302
v -1.555596652 2.420000000 9.496645302
v -1.400036987 1.120000000 9.346980772
v -0.933357991 0.500000000 8.897987181
v -0.311119330 0.200000000 8.299329060
v -0.333342140 0.000000000 8.332587845
v -1.033360633 0.300000000 9.031022319
v -1.500039629 1.000000000 9.496645302
v -1.666710699 2.420000000 9.662939225
v -1.666710699 2.600000000 9.662939225
v -1.555596652 2.600000000 9.496645302
v -1.555596652 2.420000000 9.496645302
v -1.400036987 1.120000000 9.346980772
v -0.933357991 0.500000000 8.897987181
v -0.311119330 0.200000000 8.299329060
v -0.424264069 0.000000000 8.282842712
v -1.315218613 0.300000000 8.876812408
v -1.909188310 1.000000000 9.272792206
v -2.121320344 2.420000000 9.414213562
v -2.121320344 2.600000000 9.414213562
v -1.979898987 2.600000000 9.272792206
v -1.979898987 2.420000000 9.272792206
v -1.781909088 1.120000000 9.145512985
v -1.187939392 0.500000000 8.763675324
v -0.395979797 0.200000000 8.254558441
v -0.424264069 0.000000000 8.282842712
v -1.315218613 0.300000000 8.876812408
v -1.909188310 1.000000000 9.272792206
v -2.121320344 2.420000000 9.414213562
v -2.121320344 2.600000000 9.414213562
v -1.979898987 2.600000000 9.272792206
v -1.979898987 2.420000000 9.272792206
v -1.781909088 1.120000000 9.145512985
v -1.187939392 0.500000000 8.763675324
v -0.395979797 0.200000000 8.254558441
v -0.498881767 0.000000000 8.222228093
v -1.546533479 0.300000000 8.688907089
v -2.244967953 1.000000000 9.000026419
v -2.494408837 2.420000000 9.111140466
v -2.494408837 2.600000000 9.111140466
v -2.328114914 2.600000000 9.000026419
v -2.328114914 2.420000000 9.000026419
v -2.095303423 1.120000000 8.900023777
v -1.396868948 0.500000000 8.600015851
v -0.465622983 0.200000000 8.200005284
v -0.498881767 0.000000000 8.222228093
v -1.546533479 0.300000000 8.688907089
v -2.244967953 1.000000000 9.000026419
v -2.494408837 2.420000000 9.111140466
v -2.494408837 2.600000000 9.111140466
v -2.328114914 2.600000000 9.000026419
v -2.328114914 2.420000000 9.000026419
v -2.095303423 1.120000000 8.900023777
v -1.396868948 0.500000000 8.600015851
v -0.465622983 0.200000000 8.200005284
v -0.554327720 0.000000000 8.153073373
v -1.718415931 0.300000000 8.474527456
v -2.494474738 1.000000000 8.688830178
v -2.771638598 2.420000000 8.765366865
v -2.771638598 2.600000000 8.765366865
v -2.586862691 2.600000000 8.688830178
v -2.586862691 2.420000000 8.688830178
v -2.328176422 1.120000000 8.619947160
v -1.552117615 0.500000000 8.413298107
v -0.517372538 0.200000000 8.137766036
v -0.554327720 0.000000000 8.153073373
v -1.718415931 0.300000000 8.474527456
v -2.494474738 1.000000000 8.688830178
v -2.771638598 2.420000000 8.765366865
v -2.771638598 2.600000000 8.765366865
v -2.586862691 2.600000000 8.688830178
v -2.586862691 2.420000000 8.688830178
v -2.328176422 1.120000000 8.619947160
v -1.552117615 0.500000000 8.413298107
v -0.517372538 0.200000000 8.137766036
v -0.588471168 0.000000000 8.078036129
v -1.824260621 0.300000000 8.241911999
v -2.648120257 1.000000000 8.351162580
v -2.942355841 2.420000000 8.390180644
v -2.942355841 2.600000000 8.390180644
v -2.746198785 2.600000000 8.351162580
v -2.746198785 2.420000000 8.351162580
v -2.471578907 1.120000000 8.316046322
v -1.647719271 0.500000000 8.210697548
v -0.549239757 0.200000000 8.070232516
v -0.588471168 0.000000000 8.078036129
v -1.824260621 0.300000000 8.241911999
v -2.648120257 1.000000000 8.351162580
v -2.942355841 2.420000000 8.390180644
v -2.942355841 2.600000000 8.390180644
v -2.746198785 2.600000000 8.351162580
v -2.746198785 2.420000000 8.351162580
v -2.471578907 1.120000000 8.316046322
v -1.647719271 0.500000000 8.210697548
v -0.549239757 0.200000000 8.070232516
v -0.600000000 0.000000000 8.000000000
v -1.860000000 0.300000000 8.000000000
v -2.700000000 1.000000000 8.000000000
v -3.000000000 2.420000000 8.000000000
v -3.000000000 2.600000000 8.000000000
v -2.800000000 2.600000000 8.000000000
v -2.800000000 2.420000000 8.000000000
v -2.520000000 1.120000000 8.000000000
v -1.680000000 0.500000000 8.000000000
v -0.560000000 0.200000000 8.000000000
v 0.600000000 0.000000000 8.000000000
v 0.588471168 0.000000000 8.078036129
v 0.554327720 0.000000000 8.153073373
v 0.498881767 0.000000000 8.222228093
v 0.424264069 0.000000000 8.282842712
v 0.333342140 0.000000000 8.332587845
v 0.229610059 0.000000000 8.369551813
v 0.117054193 0.000000000 8.392314112
v 0.000000000 0.000000000 8.400000000
v -0.117054193 0.000000000 8.392314112
v -0.229610059 0.000000000 8.369551813
v -0.333342140 0.000000000 8.332587845
v -0.424264069 0.000000000 8.282842712
v -0.498881767 0.000000000 8.222228093
v -0.554327720 0.000000000 8.153073373
v -0.588471168 0.000000000 8.078036129
v -0.600000000 0.000000000 8.000000000
v 0.560000000 0.200000000 8.000000000
v 0.549239757 0.200000000 8.070232516
v 0.517372538 0.200000000 8.137766036
v 0.465622983 0.200000000 8.200005284
v 0.395979797 0.200000000 8.254558441
v 0.311119330 0.200000000 8.299329060
v 0.214302722 0.200000000 8.332596632
v 0.109250580 0.200000000 8.353082701
v 0.000000000 0.200000000 8.360000000
v -0.109250580 0.200000000 8.353082701
v -0.214302722 0.200000000 8.332596632
v -0.311119330 0.200000000 8.299329060
v -0.395979797 0.200000000 8.254558441
v -0.465622983 0.200000000 8.200005284
v -0.517372538 0.200000000 8.137766036
v -0.549239757 0.200000000 8.070232516
v -0.560000000 0.200000000 8.000000000
v -3.000000000 2.600000000 4.000000000
v -2.200000000 2.600000000 2.000000000
v -2.029550821 2.600000000 2.112393534
v -2.800000000 2.600000000 4.000000000
v -3.000000000 3.400000000 4.000000000
v -2.200000000 3.400000000 2.000000000
v -2.029550821 3.400000000 2.112393534
v -2.800000000 3.400000000 4.000000000
v -2.200000000 2.600000000 2.000000000
v -1.200000000 2.600000000 1.000000000
v -1.064993660 2.600000000 1.147836373
v -2.029550821 2.600000000 2.112393534
v -2.200000000 3.400000000 2.000000000
v -1.200000000 3.400000000 1.000000000
v -1.064993660 3.400000000 1.147836373
v -2.029550821 3.400000000 2.112393534
v -1.200000000 2.600000000 1.000000000
v 0.000000000 2.600000000 0.000000000
v 0.000000000 2.600000000 0.260341656
v -1.064993660 2.600000000 1.147836373
v -1.200000000 3.400000000 1.000000000
v 0.000000000 3.400000000 0.000000000
v 0.000000000 3.400000000 0.260341656
v -1.064993660 3.400000000 1.147836373
v 0.000000000 2.600000000 0.000000000
v 1.200000000 2.600000000 1.000000000
v 1.064993660 2.600000000 1.147836373
v 0.000000000 2.600000000 0.260341656
v 0.000000000 3.400000000 0.000000000
v 1.200000000 3.400000000 1.000000000
v 1.064993660 3.400000000 1.147836373
v 0.000000000 3.400000000 0.260341656
v 1.200000000 2.600000000 1.000000000
v 2.200000000 2.600000000 2.000000000
v 2.029550821 2.600000000 2.112393534
v 1.064993660 2.600000000 1.147836373
v 1.200000000 3.400000000 1.000000000
v 2.200000000 3.400000000 2.000000000
v 2.029550821 3.400000000 2.112393534
v 1.064993660 3.400000000 1.147836373
v 2.200000000 2.600000000 2.000000000
v 3.000000000 2.600000000 4.000000000
v 2.800000000 2.600000000 4.000000000
v 2.029550821 2.600000000 2.112393534
v 2.200000000 3.400000000 2.000000000
v 3.000000000 3.400000000 4.000000000
v 2.800000000 3.400000000 4.000000000
v 2.029550821 3.400000000 2.112393534
v -3.000000000 2.600000000 6.000000000
v -3.000000000 2.600000000 4.000000000
v -2.800000000 2.600000000 4.000000000
v -2.800000000 2.600000000 6.000000000
v -3.000000000 3.400000000 6.000000000
v -3.000000000 3.400000000 4.000000000
v -2.800000000 3.400000000 4.000000000
v -2.800000000 3.400000000 6.000000000
v 3.000000000 2.600000000 4.000000000
v 3.000000000 2.600000000 6.000000000
v 2.800000000 2.600000000 6.000000000
v 2.800000000 2.600000000 4.000000000
v 3.000000000 3.400000000 4.000000000
v 3.000000000 3.400000000 6.000000000
v 2.800000000 3.400000000 6.000000000
v 2.800000000 3.400000000 4.000000000
v -3.000000000 2.600000000 8.000000000
v -3.000000000 2.600000000 6.000000000
v -2.800000000 2.600000000 6.000000000
v -2.800000000 2.600000000 8.000000000
v -3.000000000 3.400000000 8.000000000
v -3.000000000 3.400000000 6.000000000
v -2.800000000 3.400000000 6.000000000
v -2.800000000 3.400000000 8.000000000
v 3.000000000 2.600000000 6.000000000
v 3.000000000 2.600000000 8.000000000
v 2.800000000 2.600000000 8.000000000
v 2.800000000 2.600000000 6.000000000
v 3.000000000 3.400000000 6.000000000
v 3.000000000 3.400000000 8.000000000
v 2.800000000 3.400000000 8.000000000
v 2.800000000 3.400000000 6.000000000
v 3.000000000 2.600000000 8.000000000
v 2.942355841 2.600000000 8.390180644
v 2.746198785 2.600000000 8.351162580
v 2.800000000 2.600000000 8.000000000
v 3.000000000 3.400000000 8.000000000
v 2.942355841 3.400000000 8.390180644
v 2.746198785 3.400000000 8.351162580
v 2.800000000 3.400000000 8.000000000
v 2.942355841 2.600000000 8.390180644
v 2.771638598 2.600000000 8.765366865
v 2.586862691 2.600000000 8.688830178
v 2.746198785 2.600000000 8.351162580
v 2.942355841 3.400000000 8.390180644
v 2.771638598 3.400000000 8.765366865
v 2.586862691 3.400000000 8.688830178
v 2.746198785 3.400000000 8.351162580
v 2.771638598 2.600000000 8.765366865
v 2.494408837 2.600000000 9.111140466
v 2.328114914 2.600000000 9.000026419
v 2.586862691 2.600000000 8.688830178
v 2.771638598 3.400000000 8.765366865
v 2.494408837 3.400000000 9.111140466
v 2.328114914 3.400000000 9.000026419
v 2.586862691 3.400000000 8.688830178
v 2.494408837 2.600000000 9.111140466
v 2.121320344 2.600000000 9.414213562
v 1.979898987 2.600000000 9.272792206
v 2.328114914 2.600000000 9.000026419
v 2.494408837 3.400000000 9.111140466
v 2.121320344 3.400000000 9.414213562
v 1.979898987 3.400000000 9.272792206
v 2.328114914 3.400000000 9.000026419
v 2.121320344 2.600000000 9.414213562
v 1.666710699 2.600000000 9.662939225
v 1.555596652 2.600000000 9.496645302
v 1.979898987 2.600000000 9.272792206
v 2.121320344 3.400000000 9.414213562
v 1.666710699 3.400000000 9.662939225
v 1.555596652 3.400000000 9.496645302
v 1.979898987 3.400000000 9.272792206
v 1.666710699 2.600000000 9.662939225
v 1.148050297 2.600000000 9.847759065
v 1.071513611 2.600000000 9.662983159
v 1.555596652 2.600000000 9.496645302
v 1.666710699 3.400000000 9.662939225
v 1.148050297 3.400000000 9.847759065
v 1.071513611 3.400000000 9.662983159
v 1.555596652 3.400000000 9.496645302
v 1.148050297 2.600000000 9.847759065
v 0.585270966 2.600000000 9.961570561
v 0.546252902 2.600000000 9.765413505
v 1.071513611 2.600000000 9.662983159
v 1.148050297 3.400000000 9.847759065
v 0.585270966 3.400000000 9.961570561
v 0.546252902 3.400000000 9.765413505
v 1.071513611 3.400000000 9.662983159
v 0.585270966 2.600000000 9.961570561
v 0.000000000 2.600000000 10.000000000
v 0.000000000 2.600000000 9.800000000
v 0.546252902 2.600000000 9.765413505
v 0.585270966 3.400000000 9.961570561
v 0.000000000 3.400000000 10.000000000
v 0.000000000 3.400000000 9.800000000
v 0.546252902 3.400000000 9.765413505
v 0.000000000 2.600000000 10.000000000
v -0.585270966 2.600000000 9.961570561
v -0.546252902 2.600000000 9.765413505
v 0.000000000 2.600000000 9.800000000
v 0.000000000 3.400000000 10.000000000
v -0.585270966 3.400000000 9.961570561
v -0.546252902 3.400000000 9.765413505
v 0.000000000 3.400000000 9.800000000
v -0.585270966 2.600000000 9.961570561
v -1.148050297 2.600000000 9.847759065
v -1.071513611 2.600000000 9.662983159
v -0.546252902 2.600000000 9.765413505
v -0.585270966 3.400000000 9.961570561
v -1.148050297 3.400000000 9.847759065
v -1.071513611 3.400000000 9.662983159
v -0.546252902 3.400000000 9.765413505
v -1.148050297 2.600000000 9.847759065
v -1.666710699 2.600000000 9.662939225
v -1.555596652 2.600000000 9.496645302
v -1.071513611 2.600000000 9.662983159
v -1.148050297 3.400000000 9.847759065
v -1.666710699 3.400000000 9.662939225
v -1.555596652 3.400000000 9.496645302
v -1.071513611 3.400000000 9.662983159
v -1.666710699 2.600000000 9.662939225
v -2.121320344 2.600000000 9.414213562
v -1.979898987 2.600000000 9.272792206
v -1.555596652 2.600000000 9.496645302
v -1.666710699 3.400000000 9.662939225
v -2.121320344 3.400000000 9.414213562
v -1.979898987 3.400000000 9.272792206
v -1.555596652 3.400000000 9.496645302
v -2.121320344 2.600000000 9.414213562
v -2.494408837 2.600000000 9.111140466
v -2.328114914 2.600000000 9.000026419
v -1.979898987 2.600000000 9.272792206
v -2.121320344 3.400000000 9.414213562
v -2.494408837 3.400000000 9.111140466
v -2.328114914 3.400000000 9.000026419
v -1.979898987 3.400000000 9.272792206
v -2.494408837 2.600000000 9.111140466
v -2.771638598 2.600000000 8.765366865
v -2.586862691 2.600000000 8.688830178
v -2.328114914 2.600000000 9.000026419
v -2.494408837 3.400000000 9.111140466
v -2.771638598 3.400000000 8.765366865
v -2.586862691 3.400000000 8.688830178
v -2.328114914 3.400000000 9.000026419
v -2.771638598 2.600000000 8.765366865
v -2.942355841 2.600000000 8.390180644
v -2.746198785 2.600000000 8.351162580
v -2.586862691 2.600000000 8.688830178
v -2.771638598 3.400000000 8.765366865
v -2.942355841 3.400000000 8.390180644
v -2.746198785 3.400000000 8.351162580
v -2.586862691 3.400000000 8.688830178
v -2.942355841 2.600000000 8.390180644
v -3.000000000 2.600000000 8.000000000
v -2.800000000 2.600000000 8.000000000
v -2.746198785 2.600000000 8.351162580
v -2.942355841 3.400000000 8.390180644
v -3.000000000 3.400000000 8.000000000
v -2.800000000 3.400000000 8.000000000
v -2.746198785 3.400000000 8.351162580
v -2.800000000 2.420000000 4.000000000
v -2.029550821 2.420000000 2.112393534
v -1.064993660 2.420000000 1.147836373
v 0.000000000 2.420000000 0.260341656
v 1.064993660 2.420000000 1.147836373
v 2.029550821 2.420000000 2.112393534
v 2.800000000 2.420000000 4.000000000
v -2.800000000 2.600000000 4.000000000
v -2.029550821 2.600000000 2.112393534
v -1.064993660 2.600000000 1.147836373
v 0.000000000 2.600000000 0.260341656
v 1.064993660 2.600000000 1.147836373
v 2.029550821 2.600000000 2.112393534
v 2.800000000 2.600000000 4.000000000
v -2.800000000 2.420000000 4.000000000
v 2.800000000 2.420000000 4.000000000
v 2.800000000 2.420000000 6.000000000
v -2.800000000 2.420000000 6.000000000
v -2.800000000 2.600000000 4.000000000
v 2.800000000 2.600000000 4.000000000
v 2.800000000 2.600000000 6.000000000
v -2.800000000 2.600000000 6.000000000
v -2.800000000 2.420000000 6.000000000
v 2.800000000 2.420000000 6.000000000
v 2.800000000 2.420000000 8.000000000
v -2.800000000 2.420000000 8.000000000
v -2.800000000 2.600000000 6.000000000
v 2.800000000 2.600000000 6.000000000
v 2.800000000 2.600000000 8.000000000
v -2.800000000 2.600000000 8.000000000
v 2.800000000 2.420000000 8.000000000
v 2.746198785 2.420000000 8.351162580
v 2.586862691 2.420000000 8.688830178
v 2.328114914 2.420000000 9.000026419
v 1.979898987 2.420000000 9.272792206
v 1.555596652 2.420000000 9.496645302
v 1.071513611 2.420000000 9.662983159
v 0.546252902 2.420000000 9.765413505
v 0.000000000 2.420000000 9.800000000
v -0.546252902 2.420000000 9.765413505
v -1.071513611 2.420000000 9.662983159
v -1.555596652 2.420000000 9.496645302
v -1.979898987 2.420000000 9.272792206
v -2.328114914 2.420000000 9.000026419
v -2.586862691 2.420000000 8.688830178
v -2.746198785 2.420000000 8.351162580
v -2.800000000 2.420000000 8.000000000
v 2.800000000 2.600000000 8.000000000
v 2.746198785 2.600000000 8.351162580
v 2.586862691 2.600000000 8.688830178
v 2.328114914 2.600000000 9.000026419
v 1.979898987 2.600000000 9.272792206
v 1.555596652 2.600000000 9.496645302
v 1.071513611 2.600000000 9.662983159
v 0.546252902 2.600000000 9.765413505
v 0.000000000 2.600000000 9.800000000
v -0.546252902 2.600000000 9.765413505
v -1.071513611 2.600000000 9.662983159
v -1.555596652 2.600000000 9.496645302
v -1.979898987 2.600000000 9.272792206
v -2.328114914 2.600000000 9.000026419
v -2.586862691 2.600000000 8.688830178
v -2.746198785 2.600000000 8.351162580
v -2.800000000 2.600000000 8.000000000
usemtl wood
f 9 2 1
f 10 9 1
f 19 20 11
f 12 19 11
f 8 3 2
f 9 8 2
f 18 19 12
f 13 18 12
f 7 4 3
f 8 7 3
f 17 18 13
f 14 17 13
f 6 5 4
f 7 6 4
f 16 17 14
f 15 16 14
f 1 2 12
f 1 12 11
f 2 3 13
f 2 13 12
f 3 4 14
f 3 14 13
f 4 5 15
f 4 15 14
f 5 6 16
f 5 16 15
f 6 7 17
f 6 17 16
f 7 8 18
f 7 18 17
f 8 9 19
f 8 19 18
f 9 10 20
f 9 20 19
f 10 1 11
f 10 11 20
f 29 22 21
f 30 29 21
f 39 40 31
f 32 39 31
f 28 23 22
f 29 28 22
f 38 39 32
f 33 38 32
f 27 24 23
f 28 27 23
f 37 38 33
f 34 37 33
f 26 25 24
f 27 26 24
f 36 37 34
f 35 36 34
f 21 22 32
f 21 32 31
f 22 23 33
f 22 33 32
f 23 24 34
f 23 34 33
f 24 25 35
f 24 35 34
f 25 26 36
f 25 36 35
f 26 27 37
f 26 37 36
f 27 28 38
f 27 38 37
f 28 29 39
f 28 39 38
f 29 30 40
f 29 40 39
f 30 21 31
f 30 31 40
f 49 42 41
f 50 49 41
f 59 60 51
f 52 59 51
f 48 43 42
f 49 48 42
f 58 59 52
f 53 58 52
f 47 44 43
f 48 47 43
f 57 58 53
f 54 57 53
f 46 45 44
f 47 46 44
f 56 57 54
f 55 56 54
f 41 42 52
f 41 52 51
f 42 43 53
f 42 53 52
f 43 44 54
f 43 54 53
f 44 45 55
f 44 55 54
f 45 46 56
f 45 56 55
f 46 47 57
f 46 57 56
f 47 48 58
f 47 58 57
f 48 49 59
f 48 59 58
f 49 50 60
f 49 60 59
f 50 41 51
f 50 51 60
f 69 62 61
f 70 69 61
f 79 80 71
f 72 79 71
f 68 63 62
f 69 68 62
f 78 79 72
f 73 78 72
f 67 64 63
f 68 67 63
f 77 78 73
f 74 77 73
f 66 65 64
f 67 66 64
f 76 77 74
f 75 76 74
f 61 62 72
f 61 72 71
f 62 63 73
f 62 73 72
f 63 64 74
f 63 74 73
f 64 65 75
f 64 75 74
f 65 66 76
f 65 76 75
f 66 67 77
f 66 77 76
f 67 68 78
f 67 78 77
f 68 69 79
f 68 79 78
f 69 70 80
f 69 80 79
f 70 61 71
f 70 71 80
f 89 82 81
f 90 89 81
f 99 100 91
f 92 99 91
f 88 83 82
f 89 88 82
f 98 99 92
f 93 98 92
f 87 84 83
f 88 87 83
f 97 98 93
f 94 97 93
f 86 85 84
f 87 86 84
f 96 97 94
f 95 96 94
f 81 82 92
f 81 92 91
f 82 83 93
f 82 93 92
f 83 84 94
f 83 94 93
f 84 85 95
f 84 95 94
f 85 86 96
f 85 96 95
f 86 87 97
f 86 97 96
f 87 88 98
f 87 98 97
f 88 89 99
f 88 99 98
f 89 90 100
f 89 100 99
f 90 81 91
f 90 91 100
f 109 102 101
f 110 109 101
f 119 120 111
f 112 119 111
f 108 103 102
f 109 108 102
f 118 119 112
f 113 118 112
f 107 104 103
f 108 107 103
f 117 118 113
f 114 117 113
f 106 105 104
f 107 106 104
f 116 117 114
f 115 116 114
f 101 102 112
f 101 112 111
f 102 103 113
f 102 113 112
f 103 104 114
f 103 114 113
f 104 105 115
f 104 115 114
f 105 106 116
f 105 116 115
f 106 107 117
f 106 117 116
f 107 108 118
f 107 118 117
f 108 109 119
f 108 119 118
f 109 110 120
f 109 120 119
f 110 101 111
f 110 111 120
f 125 126 127
f 124 125 127
f 123 124 127
f 122 123 127
f 121 122 127
f 130 129 128
f 131 130 128
f 132 131 128
f 133 132 128
f 134 133 128
f 129 122 121
f 128 129 121
f 130 123 122
f 129 130 122
f 131 124 123
f 130 131 123
f 132 125 124
f 131 132 124
f 133 126 125
f 132 133 125
f 134 127 126
f 133 134 126
f 128 121 127
f 134 128 127
f 143 136 135
f 144 143 135
f 153 154 145
f 146 153 145
f 142 137 136
f 143 142 136
f 152 153 146
f 147 152 146
f 141 138 137
f 142 141 137
f 151 152 147
f 148 151 147
f 140 139 138
f 141 140 138
f 150 151 148
f 149 150 148
f 135 136 146
f 135 146 145
f 136 137 147
f 136 147 146
f 137 138 148
f 137 148 147
f 138 139 149
f 138 149 148
f 139 140 150
f 139 150 149
f 140 141 151
f 140 151 150
f 141 142 152
f 141 152 151
f 142 143 153
f 142 153 152
f 143 144 154
f 143 154 153
f 144 135 145
f 144 145 154
f 163 156 155
f 164 163 155
f 173 174 165
f 166 173 165
f 162 157 156
f 163 162 156
f 172 173 166
f 167 172 166
f 161 158 157
f 162 161 157
f 171 172 167
f 168 171 167
f 160 159 158
f 161 160 158
f 170 171 168
f 169 170 168
f 155 156 166
f 155 166 165
f 156 157 167
f 156 167 166
f 157 158 168
f 157 168 167
f 158 159 169
f 158 169 168
f 159 160 170
f 159 170 169
f 160 161 171
f 160 171 170
f 161 162 172
f 161 172 171
f 162 163 173
f 162 173 172
f 163 164 174
f 163 174 173
f 164 155 165
f 164 165 174
f 176 177 178
f 175 176 178
f 181 180 179
f 182 181 179
f 180 176 175
f 179 180 175
f 181 177 176
f 180 181 176
f 182 178 177
f 181 182 177
f 179 175 178
f 182 179 178
f 191 184 183
f 192 191 183
f 201 202 193
f 194 201 193
f 190 185 184
f 191 190 184
f 200 201 194
f 195 200 194
f 189 186 185
f 190 189 185
f 199 200 195
f 196 199 195
f 188 187 186
f 189 188 186
f 198 199 196
f 197 198 196
f 183 184 194
f 183 194 193
f 184 185 195
f 184 195 194
f 185 186 196
f 185 196 195
f 186 187 197
f 186 197 196
f 187 188 198
f 187 198 197
f 188 189 199
f 188 199 198
f 189 190 200
f 189 200 199
f 190 191 201
f 190 201 200
f 191 192 202
f 191 202 201
f 192 183 193
f 192 193 202
f 211 204 203
f 212 211 203
f 221 222 213
f 214 221 213
f 210 205 204
f 211 210 204
f 220 221 214
f 215 220 214
f 209 206 205
f 210 209 205
f 219 220 215
f 216 219 215
f 208 207 206
f 209 208 206
f 218 219 216
f 217 218 216
f 203 204 214
f 203 214 213
f 204 205 215
f 204 215 214
f 205 206 216
f 205 216 215
f 206 207 217
f 206 217 216
f 207 208 218
f 207 218 217
f 208 209 219
f 208 219 218
f 209 210 220
f 209 220 219
f 210 211 221
f 210 221 220
f 211 212 222
f 211 222 221
f 212 203 213
f 212 213 222
f 224 225 226
f 223 224 226
f 229 228 227
f 230 229 227
f 228 224 223
f 227 228 223
f 229 225 224
f 228 229 224
f 230 226 225
f 229 230 225
f 227 223 226
f 230 227 226
f 239 232 231
f 240 239 231
f 249 250 241
f 242 249 241
f 238 233 232
f 239 238 232
f 248 249 242
f 243 248 242
f 237 234 233
f 238 237 233
f 247 248 243
f 244 247 243
f 236 235 234
f 237 236 234
f 246 247 244
f 245 246 244
f 231 232 242
f 231 242 241
f 232 233 243
f 232 243 242
f 233 234 244
f 233 244 243
f 234 235 245
f 234 245 244
f 235 236 246
f 235 246 245
f 236 237 247
f 236 247 246
f 237 238 248
f 237 248 247
f 238 239 249
f 238 249 248
f 239 240 250
f 239 250 249
f 240 231 241
f 240 241 250
f 259 252 251
f 260 259 251
f 269 270 261
f 262 269 261
f 258 253 252
f 259 258 252
f 268 269 262
f 263 268 262
f 257 254 253
f 258 257 253
f 267 268 263
f 264 267 263
f 256 255 254
f 257 256 254
f 266 267 264
f 265 266 264
f 251 252 262
f 251 262 261
f 252 253 263
f 252 263 262
f 253 254 264
f 253 264 263
f 254 255 265
f 254 265 264
f 255 256 266
f 255 266 265
f 256 257 267
f 256 267 266
f 257 258 268
f 257 268 267
f 258 259 269
f 258 269 268
f 259 260 270
f 259 270 269
f 260 251 261
f 260 261 270
f 279 272 271
f 280 279 271
f 289 290 281
f 282 289 281
f 278 273 272
f 279 278 272
f 288 289 282
f 283 288 282
f 277 274 273
f 278 277 273
f 287 288 283
f 284 287 283
f 276 275 274
f 277 276 274
f 286 287 284
f 285 286 284
f 271 272 282
f 271 282 281
f 272 273 283
f 272 283 282
f 273 274 284
f 273 284 283
f 274 275 285
f 274 285 284
f 275 276 286
f 275 286 285
f 276 277 287
f 276 287 286
f 277 278 288
f 277 288 287
f 278 279 289
f 278 289 288
f 279 280 290
f 279 290 289
f 280 271 281
f 280 281 290
f 299 292 291
f 300 299 291
f 309 310 301
f 302 309 301
f 298 293 292
f 299 298 292
f 308 309 302
f 303 308 302
f 297 294 293
f 298 297 293
f 307 308 303
f 304 307 303
f 296 295 294
f 297 296 294
f 306 307 304
f 305 306 304
f 291 292 302
f 291 302 301
f 292 293 303
f 292 303 302
f 293 294 304
f 293 304 303
f 294 295 305
f 294 305 304
f 295 296 306
f 295 306 305
f 296 297 307
f 296 307 306
f 297 298 308
f 297 308 307
f 298 299 309
f 298 309 308
f 299 300 310
f 299 310 309
f 300 291 301
f 300 301 310
f 319 312 311
f 320 319 311
f 329 330 321
f 322 329 321
f 318 313 312
f 319 318 312
f 328 329 322
f 323 328 322
f 317 314 313
f 318 317 313
f 327 328 323
f 324 327 323
f 316 315 314
f 317 316 314
f 326 327 324
f 325 326 324
f 311 312 322
f 311 322 321
f 312 313 323
f 312 323 322
f 313 314 324
f 313 324 323
f 314 315 325
f 314 325 324
f 315 316 326
f 315 326 325
f 316 317 327
f 316 327 326
f 317 318 328
f 317 328 327
f 318 319 329
f 318 329 328
f 319 320 330
f 319 330 329
f 320 311 321
f 320 321 330
f 339 332 331
f 340 339 331
f 349 350 341
f 342 349 341
f 338 333 332
f 339 338 332
f 348 349 342
f 343 348 342
f 337 334 333
f 338 337 333
f 347 348 343
f 344 347 343
f 336 335 334
f 337 336 334
f 346 347 344
f 345 346 344
f 331 332 342
f 331 342 341
f 332 333 343
f 332 343 342
f 333 334 344
f 333 344 343
f 334 335 345
f 334 345 344
f 335 336 346
f 335 346 345
f 336 337 347
f 336 347 346
f 337 338 348
f 337 348 347
f 338 339 349
f 338 349 348
f 339 340 350
f 339 350 349
f 340 331 341
f 340 341 350
f 359 352 351
f 360 359 351
f 369 370 361
f 362 369 361
f 358 353 352
f 359 358 352
f 368 369 362
f 363 368 362
f 357 354 353
f 358 357 353
f 367 368 363
f 364 367 363
f 356 355 354
f 357 356 354
f 366 367 364
f 365 366 364
f 351 352 362
f 351 362 361
f 352 353 363
f 352 363 362
f 353 354 364
f 353 364 363
f 354 355 365
f 354 365 364
f 355 356 366
f 355 366 365
f 356 357 367
f 356 367 366
f 357 358 368
f 357 368 367
f 358 359 369
f 358 369 368
f 359 360 370
f 359 370 369
f 360 351 361
f 360 361 370
f 379 372 371
f 380 379 371
f 389 390 381
f 382 389 381
f 378 373 372
f 379 378 372
f 388 389 382
f 383 388 382
f 377 374 373
f 378 377 373
f 387 388 383
f 384 387 383
f 376 375 374
f 377 376 374
f 386 387 384
f 385 386 384
f 371 372 382
f 371 382 381
f 372 373 383
f 372 383 382
f 373 374 384
f 373 384 383
f 374 375 385
f 374 385 384
f 375 376 386
f 375 386 385
f 376 377 387
f 376 387 386
f 377 378 388
f 377 388 387
f 378 379 389
f 378 389 388
f 379 380 390
f 379 390 389
f 380 371 381
f 380 381 390
f 399 392 391
f 400 399 391
f 409 410 401
f 402 409 401
f 398 393 392
f 399 398 392
f 408 409 402
f 403 408 402
f 397 394 393
f 398 397 393
f 407 408 403
f 404 407 403
f 396 395 394
f 397 396 394
f 406 407 404
f 405 406 404
f 391 392 402
f 391 402 401
f 392 393 403
f 392 403 402
f 393 394 404
f 393 404 403
f 394 395 405
f 394 405 404
f 395 396 406
f 395 406 405
f 396 397 407
f 396 407 406
f 397 398 408
f 397 408 407
f 398 399 409
f 398 409 408
f 399 400 410
f 399 410 409
f 400 391 401
f 400 401 410
f 419 412 411
f 420 419 411
f 429 430 421
f 422 429 421
f 418 413 412
f 419 418 412
f 428 429 422
f 423 428 422
f 417 414 413
f 418 417 413
f 427 428 423
f 424 427 423
f 416 415 414
f 417 416 414
f 426 427 424
f 425 426 424
f 411 412 422
f 411 422 421
f 412 413 423
f 412 423 422
f 413 414 424
f 413 424 423
f 414 415 425
f 414 425 424
f 415 416 426
f 415 426 425
f 416 417 427
f 416 427 426
f 417 418 428
f 417 428 427
f 418 419 429
f 418 429 428
f 419 420 430
f 419 430 429
f 420 411 421
f 420 421 430
f 439 432 431
f 440 439 431
f 449 450 441
f 442 449 441
f 438 433 432
f 439 438 432
f 448 449 442
f 443 448 442
f 437 434 433
f 438 437 433
f 447 448 443
f 444 447 443
f 436 435 434
f 437 436 434
f 446 447 444
f 445 446 444
f 431 432 442
f 431 442 441
f 432 433 443
f 432 443 442
f 433 434 444
f 433 444 443
f 434 435 445
f 434 445 444
f 435 436 446
f 435 446 445
f 436 437 447
f 436 447 446
f 437 438 448
f 437 448 447
f 438 439 449
f 438 449 448
f 439 440 450
f 439 450 449
f 440 431 441
f 440 441 450
f 459 452 451
f 460 459 451
f 469 470 461
f 462 469 461
f 458 453 452
f 459 458 452
f 468 469 462
f 463 468 462
f 457 454 453
f 458 457 453
f 467 468 463
f 464 467 463
f 456 455 454
f 457 456 454
f 466 467 464
f 465 466 464
f 451 452 462
f 451 462 461
f 452 453 463
f 452 463 462
f 453 454 464
f 453 464 463
f 454 455 465
f 454 465 464
f 455 456 466
f 455 466 465
f 456 457 467
f 456 467 466
f 457 458 468
f 457 468 467
f 458 459 469
f 458 469 468
f 459 460 470
f 459 470 469
f 460 451 461
f 460 461 470
f 479 472 471
f 480 479 471
f 489 490 481
f 482 489 481
f 478 473 472
f 479 478 472
f 488 489 482
f 483 488 482
f 477 474 473
f 478 477 473
f 487 488 483
f 484 487 483
f 476 475 474
f 477 476 474
f 486 487 484
f 485 486 484
f 471 472 482
f 471 482 481
f 472 473 483
f 472 483 482
f 473 474 484
f 473 484 483
f 474 475 485
f 474 485 484
f 475 476 486
f 475 486 485
f 476 477 487
f 476 487 486
f 477 478 488
f 477 488 487
f 478 479 489
f 478 489 488
f 479 480 490
f 479 490 489
f 480 471 481
f 480 481 490
f 499 492 491
f 500 499 491
f 509 510 501
f 502 509 501
f 498 493 492
f 499 498 492
f 508 509 502
f 503 508 502
f 497 494 493
f 498 497 493
f 507 508 503
f 504 507 503
f 496 495 494
f 497 496 494
f 506 507 504
f 505 506 504
f 491 492 502
f 491 502 501
f 492 493 503
f 492 503 502
f 493 494 504
f 493 504 503
f 494 495 505
f 494 505 504
f 495 496 506
f 495 506 505
f 496 497 507
f 496 507 506
f 497 498 508
f 497 508 507
f 498 499 509
f 498 509 508
f 499 500 510
f 499 510 509
f 500 491 501
f 500 501 510
f 519 512 511
f 520 519 511
f 529 530 521
f 522 529 521
f 518 513 512
f 519 518 512
f 528 529 522
f 523 528 522
f 517 514 513
f 518 517 513
f 527 528 523
f 524 527 523
f 516 515 514
f 517 516 514
f 526 527 524
f 525 526 524
f 511 512 522
f 511 522 521
f 512 513 523
f 512 523 522
f 513 514 524
f 513 524 523
f 514 515 525
f 514 525 524
f 515 516 526
f 515 526 525
f 516 517 527
f 516 527 526
f 517 518 528
f 517 528 527
f 518 519 529
f 518 529 528
f 519 520 530
f 519 530 529
f 520 511 521
f 520 521 530
f 539 532 531
f 540 539 531
f 549 550 541
f 542 549 541
f 538 533 532
f 539 538 532
f 548 549 542
f 543 548 542
f 537 534 533
f 538 537 533
f 547 548 543
f 544 547 543
f 536 535 534
f 537 536 534
f 546 547 544
f 545 546 544
f 531 532 542
f 531 542 541
f 532 533 543
f 532 543 542
f 533 534 544
f 533 544 543
f 534 535 545
f 534 545 544
f 535 536 546
f 535 546 545
f 536 537 547
f 536 547 546
f 537 538 548
f 537 548 547
f 538 539 549
f 538 549 548
f 539 540 550
f 539 550 549
f 540 531 541
f 540 541 550
f 565 566 567
f 564 565 567
f 563 564 567
f 562 563 567
f 561 562 567
f 560 561 567
f 559 560 567
f 558 559 567
f 557 558 567
f 556 557 567
f 555 556 567
f 554 555 567
f 553 554 567
f 552 553 567
f 551 552 567
f 570 569 568
f 571 570 568
f 572 571 568
f 573 572 568
f 574 573 568
f 575 574 568
f 576 575 568
f 577 576 568
f 578 577 568
f 579 578 568
f 580 579 568
f 581 580 568
f 582 581 568
f 583 582 568
f 584 583 568
f 569 552 551
f 568 569 551
f 570 553 552
f 569 570 552
f 571 554 553
f 570 571 553
f 572 555 554
f 571 572 554
f 573 556 555
f 572 573 555
f 574 557 556
f 573 574 556
f 575 558 557
f 574 575 557
f 576 559 558
f 575 576 558
f 577 560 559
f 576 577 559
f 578 561 560
f 577 578 560
f 579 562 561
f 578 579 561
f 580 563 562
f 579 580 562
f 581 564 563
f 580 581 563
f 582 565 564
f 581 582 564
f 583 566 565
f 582 583 565
f 584 567 566
f 583 584 566
f 568 551 567
f 584 568 567
f 586 587 588
f 585 586 588
f 591 590 589
f 592 591 589
f 590 586 585
f 589 590 585
f 591 587 586
f 590 591 586
f 592 588 587
f 591 592 587
f 589 585 588
f 592 589 588
f 594 595 596
f 593 594 596
f 599 598 597
f 600 599 597
f 598 594 593
f 597 598 593
f 599 595 594
f 598 599 594
f 600 596 595
f 599 600 595
f 597 593 596
f 600 597 596
f 602 603 604
f 601 602 604
f 607 606 605
f 608 607 605
f 606 602 601
f 605 606 601
f 607 603 602
f 606 607 602
f 608 604 603
f 607 608 603
f 605 601 604
f 608 605 604
f 610 611 612
f 609 610 612
f 615 614 613
f 616 615 613
f 614 610 609
f 613 614 609
f 615 611 610
f 614 615 610
f 616 612 611
f 615 616 611
f 613 609 612
f 616 613 612
f 618 619 620
f 617 618 620
f 623 622 621
f 624 623 621
f 622 618 617
f 621 622 617
f 623 619 618
f 622 623 618
f 624 620 619
f 623 624 619
f 621 617 620
f 624 621 620
f 626 627 628
f 625 626 628
f 631 630 629
f 632 631 629
f 630 626 625
f 629 630 625
f 631 627 626
f 630 631 626
f 632 628 627
f 631 632 627
f 629 625 628
f 632 629 628
f 634 635 636
f 633 634 636
f 639 638 637
f 640 639 637
f 638 634 633
f 637 638 633
f 639 635 634
f 638 639 634
f 640 636 635
f 639 640 635
f 637 633 636
f 640 637 636
f 642 643 644
f 641 642 644
f 647 646 645
f 648 647 645
f 646 642 641
f 645 646 641
f 647 643 642
f 646 647 642
f 648 644 643
f 647 648 643
f 645 641 644
f 648 645 644
f 650 651 652
f 649 650 652
f 655 654 653
f 656 655 653
f 654 650 649
f 653 654 649
f 655 651 650
f 654 655 650
f 656 652 651
f 655 656 651
f 653 649 652
f 656 653 652
f 658 659 660
f 657 658 660
f 663 662 661
f 664 663 661
f 662 658 657
f 661 662 657
f 663 659 658
f 662 663 658
f 664 660 659
f 663 664 659
f 661 657 660
f 664 661 660
f 666 667 668
f 665 666 668
f 671 670 669
f 672 671 669
f 670 666 665
f 669 670 665
f 671 667 666
f 670 671 666
f 672 668 667
f 671 672 667
f 669 665 668
f 672 669 668
f 674 675 676
f 673 674 676
f 679 678 677
f 680 679 677
f 678 674 673
f 677 678 673
f 679 675 674
f 678 679 674
f 680 676 675
f 679 680 675
f 677 673 676
f 680 677 676
f 682 683 684
f 681 682 684
f 687 686 685
f 688 687 685
f 686 682 681
f 685 686 681
f 687 683 682
f 686 687 682
f 688 684 683
f 687 688 683
f 685 681 684
f 688 685 684
f 690 691 692
f 689 690 692
f 695 694 693
f 696 695 693
f 694 690 689
f 693 694 689
f 695 691 690
f 694 695 690
f 696 692 691
f 695 696 691
f 693 689 692
f 696 693 692
f 698 699 700
f 697 698 700
f 703 702 701
f 704 703 701
f 702 698 697
f 701 702 697
f 703 699 698
f 702 703 698
f 704 700 699
f 703 704 699
f 701 697 700
f 704 701 700
f 706 707 708
f 705 706 708
f 711 710 709
f 712 711 709
f 710 706 705
f 709 710 705
f 711 707 706
f 710 711 706
f 712 708 707
f 711 712 707
f 709 705 708
f 712 709 708
f 714 715 716
f 713 714 716
f 719 718 717
f 720 719 717
f 718 714 713
f 717 718 713
f 719 715 714
f 718 719 714
f 720 716 715
f 719 720 715
f 717 713 716
f 720 717 716
f 722 723 724
f 721 722 724
f 727 726 725
f 728 727 725
f 726 722 721
f 725 726 721
f 727 723 722
f 726 727 722
f 728 724 723
f 727 728 723
f 725 721 724
f 728 725 724
f 730 731 732
f 729 730 732
f 735 734 733
f 736 735 733
f 734 730 729
f 733 734 729
f 735 731 730
f 734 735 730
f 736 732 731
f 735 736 731
f 733 729 732
f 736 733 732
f 738 739 740
f 737 738 740
f 743 742 741
f 744 743 741
f 742 738 737
f 741 742 737
f 743 739 738
f 742 743 738
f 744 740 739
f 743 744 739
f 741 737 740
f 744 741 740
f 746 747 748
f 745 746 748
f 751 750 749
f 752 751 749
f 750 746 745
f 749 750 745
f 751 747 746
f 750 751 746
f 752 748 747
f 751 752 747
f 749 745 748
f 752 749 748
f 754 755 756
f 753 754 756
f 759 758 757
f 760 759 757
f 758 754 753
f 757 758 753
f 759 755 754
f 758 759 754
f 760 756 755
f 759 760 755
f 757 753 756
f 760 757 756
f 762 763 764
f 761 762 764
f 767 766 765
f 768 767 765
f 766 762 761
f 765 766 761
f 767 763 762
f 766 767 762
f 768 764 763
f 767 768 763
f 765 761 764
f 768 765 764
f 770 771 772
f 769 770 772
f 775 774 773
f 776 775 773
f 774 770 769
f 773 774 769
f 775 771 770
f 774 775 770
f 776 772 771
f 775 776 771
f 773 769 772
f 776 773 772
f 778 779 780
f 777 778 780
f 783 782 781
f 784 783 781
f 782 778 777
f 781 782 777
f 783 779 778
f 782 783 778
f 784 780 779
f 783 784 779
f 781 777 780
f 784 781 780
f 786 787 788
f 785 786 788
f 791 790 789
f 792 791 789
f 790 786 785
f 789 790 785
f 791 787 786
f 790 791 786
f 792 788 787
f 791 792 787
f 789 785 788
f 792 789 788
usemtl deck
f 797 798 799
f 796 797 799
f 795 796 799
f 794 795 799
f 793 794 799
f 802 801 800
f 803 802 800
f 804 803 800
f 805 804 800
f 806 805 800
f 801 794 793
f 800 801 793
f 802 795 794
f 801 802 794
f 803 796 795
f 802 803 795
f 804 797 796
f 803 804 796
f 805 798 797
f 804 805 797
f 806 799 798
f 805 806 798
f 800 793 799
f 806 800 799
f 808 809 810
f 807 808 810
f 813 812 811
f 814 813 811
f 812 808 807
f 811 812 807
f 813 809 808
f 812 813 808
f 814 810 809
f 813 814 809
f 811 807 810
f 814 811 810
f 816 817 818
f 815 816 818
f 821 820 819
f 822 821 819
f 820 816 815
f 819 820 815
f 821 817 816
f 820 821 816
f 822 818 817
f 821 822 817
f 819 815 818
f 822 819 818
f 837 838 839
f 836 837 839
f 835 836 839
f 834 835 839
f 833 834 839
f 832 833 839
f 831 832 839
f 830 831 839
f 829 830 839
f 828 829 839
f 827 828 839
f 826 827 839
f 825 826 839
f 824 825 839
f 823 824 839
f 842 841 840
f 843 842 840
f 844 843 840
f 845 844 840
f 846 845 840
f 847 846 840
f 848 847 840
f 849 848 840
f 850 849 840
f 851 850 840
f 852 851 840
f 853 852 840
f 854 853 840
f 855 854 840
f 856 855 840
f 841 824 823
f 840 841 823
f 842 825 824
f 841 842 824
f 843 826 825
f 842 843 825
f 844 827 826
f 843 844 826
f 845 828 827
f 844 845 827
f 846 829 828
f 845 846 828
f 847 830 829
f 846 847 829
f 848 831 830
f 847 848 830
f 849 832 831
f 848 849 831
f 850 833 832
f 849 850 832
f 851 834 833
f 850 851 833
f 852 835 834
f 851 852 834
f 853 836 835
f 852 853 835
f 854 837 836
f 853 854 836
f 855 838 837
f 854 855 837
f 856 839 838
f 855 856 838
f 840 823 839
f 856 840 839
