# Contract axes: X starboard Y up Z aft; metres
v -2.800000 -0.180000 0.000000
v -2.050000 -0.180000 0.000000
v -2.050000 -0.180000 2.000000
v -2.800000 -0.180000 2.000000
v -2.800000 0.000000 0.000000
v -2.050000 0.000000 0.000000
v -2.050000 0.000000 2.000000
v -2.800000 0.000000 2.000000
v -0.950000 -0.180000 0.000000
v 2.800000 -0.180000 0.000000
v 2.800000 -0.180000 2.000000
v -0.950000 -0.180000 2.000000
v -0.950000 0.000000 0.000000
v 2.800000 0.000000 0.000000
v 2.800000 0.000000 2.000000
v -0.950000 0.000000 2.000000
v -2.050000 -0.180000 1.250000
v -0.950000 -0.180000 1.250000
v -0.950000 -0.180000 2.000000
v -2.050000 -0.180000 2.000000
v -2.050000 0.000000 1.250000
v -0.950000 0.000000 1.250000
v -0.950000 0.000000 2.000000
v -2.050000 0.000000 2.000000
f 1 2 3 4
f 8 7 6 5
f 1 5 6 2
f 2 6 7 3
f 3 7 8 4
f 4 8 5 1
f 9 10 11 12
f 16 15 14 13
f 9 13 14 10
f 10 14 15 11
f 11 15 16 12
f 12 16 13 9
f 17 18 19 20
f 24 23 22 21
f 17 21 22 18
f 18 22 23 19
f 19 23 24 20
f 20 24 21 17
