# Contract axes: X starboard Y up Z aft; metres
v -0.150000 2.600000 0.000000
v -0.150000 2.000000 0.000000
v -0.140000 1.000000 0.000000
v -0.100000 0.300000 0.000000
v 0.000000 0.000000 0.000000
v 0.100000 0.300000 0.000000
v 0.140000 1.000000 0.000000
v 0.150000 2.000000 0.000000
v 0.150000 2.600000 0.000000
v 0.140000 2.600000 0.000000
v 0.140000 2.000000 0.000000
v 0.130000 1.120000 0.000000
v 0.096000 0.500000 0.000000
v 0.000000 0.200000 0.000000
v -0.096000 0.500000 0.000000
v -0.130000 1.120000 0.000000
v -0.140000 2.000000 0.000000
v -0.140000 2.600000 0.000000
v -1.050000 2.600000 1.000000
v -1.050000 2.000000 1.000000
v -0.980000 1.000000 1.000000
v -0.700000 0.300000 1.000000
v 0.000000 0.000000 1.000000
v 0.700000 0.300000 1.000000
v 0.980000 1.000000 1.000000
v 1.050000 2.000000 1.000000
v 1.050000 2.600000 1.000000
v 0.980000 2.600000 1.000000
v 0.980000 2.000000 1.000000
v 0.910000 1.120000 1.000000
v 0.672000 0.500000 1.000000
v 0.000000 0.200000 1.000000
v -0.672000 0.500000 1.000000
v -0.910000 1.120000 1.000000
v -0.980000 2.000000 1.000000
v -0.980000 2.600000 1.000000
v -2.100000 2.600000 2.000000
v -2.100000 2.000000 2.000000
v -1.960000 1.000000 2.000000
v -1.400000 0.300000 2.000000
v 0.000000 0.000000 2.000000
v 1.400000 0.300000 2.000000
v 1.960000 1.000000 2.000000
v 2.100000 2.000000 2.000000
v 2.100000 2.600000 2.000000
v 1.960000 2.600000 2.000000
v 1.960000 2.000000 2.000000
v 1.820000 1.120000 2.000000
v 1.344000 0.500000 2.000000
v 0.000000 0.200000 2.000000
v -1.344000 0.500000 2.000000
v -1.820000 1.120000 2.000000
v -1.960000 2.000000 2.000000
v -1.960000 2.600000 2.000000
v -3.000000 2.600000 4.000000
v -3.000000 2.000000 4.000000
v -2.800000 1.000000 4.000000
v -2.000000 0.300000 4.000000
v 0.000000 0.000000 4.000000
v 2.000000 0.300000 4.000000
v 2.800000 1.000000 4.000000
v 3.000000 2.000000 4.000000
v 3.000000 2.600000 4.000000
v 2.800000 2.600000 4.000000
v 2.800000 2.000000 4.000000
v 2.600000 1.120000 4.000000
v 1.920000 0.500000 4.000000
v 0.000000 0.200000 4.000000
v -1.920000 0.500000 4.000000
v -2.600000 1.120000 4.000000
v -2.800000 2.000000 4.000000
v -2.800000 2.600000 4.000000
v -0.140000 2.600000 0.000000
v -0.140000 2.000000 0.000000
v -0.130000 1.120000 0.000000
v -0.096000 0.500000 0.000000
v 0.000000 0.200000 0.000000
v 0.096000 0.500000 0.000000
v 0.130000 1.120000 0.000000
v 0.140000 2.000000 0.000000
v 0.140000 2.600000 0.000000
v -0.140000 2.600000 0.080000
v -0.140000 2.000000 0.080000
v -0.130000 1.120000 0.080000
v -0.096000 0.500000 0.080000
v 0.000000 0.200000 0.080000
v 0.096000 0.500000 0.080000
v 0.130000 1.120000 0.080000
v 0.140000 2.000000 0.080000
v 0.140000 2.600000 0.080000
v -3.000000 2.600000 4.000000
v -3.000000 2.000000 4.000000
v -2.800000 1.000000 4.000000
v -2.000000 0.300000 4.000000
v 0.000000 0.000000 4.000000
v 2.000000 0.300000 4.000000
v 2.800000 1.000000 4.000000
v 3.000000 2.000000 4.000000
v 3.000000 2.600000 4.000000
v 2.800000 2.600000 4.000000
v 2.800000 2.000000 4.000000
v 2.600000 1.120000 4.000000
v 1.920000 0.500000 4.000000
v 0.000000 0.200000 4.000000
v -1.920000 0.500000 4.000000
v -2.600000 1.120000 4.000000
v -2.800000 2.000000 4.000000
v -2.800000 2.600000 4.000000
v -3.000000 2.600000 6.000000
v -3.000000 2.000000 6.000000
v -2.800000 1.000000 6.000000
v -2.000000 0.300000 6.000000
v 0.000000 0.000000 6.000000
v 2.000000 0.300000 6.000000
v 2.800000 1.000000 6.000000
v 3.000000 2.000000 6.000000
v 3.000000 2.600000 6.000000
v 2.800000 2.600000 6.000000
v 2.800000 2.000000 6.000000
v 2.600000 1.120000 6.000000
v 1.920000 0.500000 6.000000
v 0.000000 0.200000 6.000000
v -1.920000 0.500000 6.000000
v -2.600000 1.120000 6.000000
v -2.800000 2.000000 6.000000
v -2.800000 2.600000 6.000000
v -3.000000 2.600000 6.000000
v -3.000000 2.000000 6.000000
v -2.800000 1.000000 6.000000
v -2.000000 0.300000 6.000000
v 0.000000 0.000000 6.000000
v 2.000000 0.300000 6.000000
v 2.800000 1.000000 6.000000
v 3.000000 2.000000 6.000000
v 3.000000 2.600000 6.000000
v 2.800000 2.600000 6.000000
v 2.800000 2.000000 6.000000
v 2.600000 1.120000 6.000000
v 1.920000 0.500000 6.000000
v 0.000000 0.200000 6.000000
v -1.920000 0.500000 6.000000
v -2.600000 1.120000 6.000000
v -2.800000 2.000000 6.000000
v -2.800000 2.600000 6.000000
v -3.000000 2.600000 8.000000
v -3.000000 2.000000 8.000000
v -2.800000 1.000000 8.000000
v -2.000000 0.300000 8.000000
v 0.000000 0.000000 8.000000
v 2.000000 0.300000 8.000000
v 2.800000 1.000000 8.000000
v 3.000000 2.000000 8.000000
v 3.000000 2.600000 8.000000
v 2.800000 2.600000 8.000000
v 2.800000 2.000000 8.000000
v 2.600000 1.120000 8.000000
v 1.920000 0.500000 8.000000
v 0.000000 0.200000 8.000000
v -1.920000 0.500000 8.000000
v -2.600000 1.120000 8.000000
v -2.800000 2.000000 8.000000
v -2.800000 2.600000 8.000000
v -3.000000 2.600000 8.000000
v -3.000000 2.000000 8.000000
v -2.800000 1.000000 8.000000
v -2.000000 0.300000 8.000000
v 0.000000 0.000000 8.000000
v 2.000000 0.300000 8.000000
v 2.800000 1.000000 8.000000
v 3.000000 2.000000 8.000000
v 3.000000 2.600000 8.000000
v 2.800000 2.600000 8.000000
v 2.800000 2.000000 8.000000
v 2.600000 1.120000 8.000000
v 1.920000 0.500000 8.000000
v 0.000000 0.200000 8.000000
v -1.920000 0.500000 8.000000
v -2.600000 1.120000 8.000000
v -2.800000 2.000000 8.000000
v -2.800000 2.600000 8.000000
v -3.000000 2.600000 10.000000
v -3.000000 2.000000 10.000000
v -2.800000 1.000000 10.000000
v -2.000000 0.300000 10.000000
v 0.000000 0.000000 10.000000
v 2.000000 0.300000 10.000000
v 2.800000 1.000000 10.000000
v 3.000000 2.000000 10.000000
v 3.000000 2.600000 10.000000
v 2.800000 2.600000 10.000000
v 2.800000 2.000000 10.000000
v 2.600000 1.120000 10.000000
v 1.920000 0.500000 10.000000
v 0.000000 0.200000 10.000000
v -1.920000 0.500000 10.000000
v -2.600000 1.120000 10.000000
v -2.800000 2.000000 10.000000
v -2.800000 2.600000 10.000000
v -3.000000 2.600000 10.000000
v -3.000000 2.000000 10.000000
v -2.800000 1.000000 10.000000
v -2.000000 0.300000 10.000000
v 0.000000 0.000000 10.000000
v 2.000000 0.300000 10.000000
v 2.800000 1.000000 10.000000
v 3.000000 2.000000 10.000000
v 3.000000 2.600000 10.000000
v 2.800000 2.600000 10.000000
v 2.800000 2.000000 10.000000
v 2.600000 1.120000 10.000000
v 1.920000 0.500000 10.000000
v 0.000000 0.200000 10.000000
v -1.920000 0.500000 10.000000
v -2.600000 1.120000 10.000000
v -2.800000 2.000000 10.000000
v -2.800000 2.600000 10.000000
v -3.000000 2.600000 12.000000
v -3.000000 2.000000 12.000000
v -2.800000 1.000000 12.000000
v -2.000000 0.300000 12.000000
v 0.000000 0.000000 12.000000
v 2.000000 0.300000 12.000000
v 2.800000 1.000000 12.000000
v 3.000000 2.000000 12.000000
v 3.000000 2.600000 12.000000
v 2.800000 2.600000 12.000000
v 2.800000 2.000000 12.000000
v 2.600000 1.120000 12.000000
v 1.920000 0.500000 12.000000
v 0.000000 0.200000 12.000000
v -1.920000 0.500000 12.000000
v -2.600000 1.120000 12.000000
v -2.800000 2.000000 12.000000
v -2.800000 2.600000 12.000000
v -3.000000 2.600000 12.000000
v -3.000000 2.000000 12.000000
v -2.800000 1.000000 12.000000
v -2.000000 0.300000 12.000000
v 0.000000 0.000000 12.000000
v 2.000000 0.300000 12.000000
v 2.800000 1.000000 12.000000
v 3.000000 2.000000 12.000000
v 3.000000 2.600000 12.000000
v 2.800000 2.600000 12.000000
v 2.800000 2.000000 12.000000
v 2.600000 1.120000 12.000000
v 1.920000 0.500000 12.000000
v 0.000000 0.200000 12.000000
v -1.920000 0.500000 12.000000
v -2.600000 1.120000 12.000000
v -2.800000 2.000000 12.000000
v -2.800000 2.600000 12.000000
v -2.880000 2.600000 13.000000
v -2.880000 2.000000 13.000000
v -2.688000 1.000000 13.000000
v -1.920000 0.300000 13.000000
v 0.000000 0.000000 13.000000
v 1.920000 0.300000 13.000000
v 2.688000 1.000000 13.000000
v 2.880000 2.000000 13.000000
v 2.880000 2.600000 13.000000
v 2.688000 2.600000 13.000000
v 2.688000 2.000000 13.000000
v 2.496000 1.120000 13.000000
v 1.843200 0.500000 13.000000
v 0.000000 0.200000 13.000000
v -1.843200 0.500000 13.000000
v -2.496000 1.120000 13.000000
v -2.688000 2.000000 13.000000
v -2.688000 2.600000 13.000000
v -2.400000 2.600000 14.000000
v -2.400000 2.000000 14.000000
v -2.240000 1.000000 14.000000
v -1.600000 0.300000 14.000000
v 0.000000 0.000000 14.000000
v 1.600000 0.300000 14.000000
v 2.240000 1.000000 14.000000
v 2.400000 2.000000 14.000000
v 2.400000 2.600000 14.000000
v 2.240000 2.600000 14.000000
v 2.240000 2.000000 14.000000
v 2.080000 1.120000 14.000000
v 1.536000 0.500000 14.000000
v 0.000000 0.200000 14.000000
v -1.536000 0.500000 14.000000
v -2.080000 1.120000 14.000000
v -2.240000 2.000000 14.000000
v -2.240000 2.600000 14.000000
v -2.240000 2.600000 14.000000
v -2.240000 2.000000 14.000000
v -2.080000 1.120000 14.000000
v -1.536000 0.500000 14.000000
v 0.000000 0.200000 14.000000
v 1.536000 0.500000 14.000000
v 2.080000 1.120000 14.000000
v 2.240000 2.000000 14.000000
v 2.240000 2.600000 14.000000
v -2.240000 2.600000 13.920000
v -2.240000 2.000000 13.920000
v -2.080000 1.120000 13.920000
v -1.536000 0.500000 13.920000
v 0.000000 0.200000 13.920000
v 1.536000 0.500000 13.920000
v 2.080000 1.120000 13.920000
v 2.240000 2.000000 13.920000
v 2.240000 2.600000 13.920000
v -0.207200 2.420000 0.080000
v 0.207200 2.420000 0.080000
v 0.980000 2.420000 1.000000
v -0.980000 2.420000 1.000000
v -0.207200 2.600000 0.080000
v 0.207200 2.600000 0.080000
v 0.980000 2.600000 1.000000
v -0.980000 2.600000 1.000000
v -0.980000 2.420000 1.000000
v 0.980000 2.420000 1.000000
v 1.960000 2.420000 2.000000
v -1.960000 2.420000 2.000000
v -0.980000 2.600000 1.000000
v 0.980000 2.600000 1.000000
v 1.960000 2.600000 2.000000
v -1.960000 2.600000 2.000000
v -1.960000 2.420000 2.000000
v 1.960000 2.420000 2.000000
v 2.800000 2.420000 4.000000
v -2.800000 2.420000 4.000000
v -1.960000 2.600000 2.000000
v 1.960000 2.600000 2.000000
v 2.800000 2.600000 4.000000
v -2.800000 2.600000 4.000000
v -0.980000 2.600000 1.000000
v -1.050000 2.600000 1.000000
v -0.150000 2.600000 0.000000
v -0.140000 2.600000 0.000000
v -0.980000 5.200000 1.000000
v -1.050000 5.200000 1.000000
v -0.150000 5.200000 0.000000
v -0.140000 5.200000 0.000000
v -1.960000 2.600000 2.000000
v -2.100000 2.600000 2.000000
v -1.050000 2.600000 1.000000
v -0.980000 2.600000 1.000000
v -1.960000 5.200000 2.000000
v -2.100000 5.200000 2.000000
v -1.050000 5.200000 1.000000
v -0.980000 5.200000 1.000000
v -2.800000 2.600000 4.000000
v -3.000000 2.600000 4.000000
v -2.100000 2.600000 2.000000
v -1.960000 2.600000 2.000000
v -2.800000 5.200000 4.000000
v -3.000000 5.200000 4.000000
v -2.100000 5.200000 2.000000
v -1.960000 5.200000 2.000000
v 0.140000 2.600000 0.000000
v 0.150000 2.600000 0.000000
v 1.050000 2.600000 1.000000
v 0.980000 2.600000 1.000000
v 0.140000 5.200000 0.000000
v 0.150000 5.200000 0.000000
v 1.050000 5.200000 1.000000
v 0.980000 5.200000 1.000000
v 0.980000 2.600000 1.000000
v 1.050000 2.600000 1.000000
v 2.100000 2.600000 2.000000
v 1.960000 2.600000 2.000000
v 0.980000 5.200000 1.000000
v 1.050000 5.200000 1.000000
v 2.100000 5.200000 2.000000
v 1.960000 5.200000 2.000000
v 1.960000 2.600000 2.000000
v 2.100000 2.600000 2.000000
v 3.000000 2.600000 4.000000
v 2.800000 2.600000 4.000000
v 1.960000 5.200000 2.000000
v 2.100000 5.200000 2.000000
v 3.000000 5.200000 4.000000
v 2.800000 5.200000 4.000000
v -0.140000 2.600000 0.000000
v 0.140000 2.600000 0.000000
v 0.140000 2.600000 0.080000
v -0.140000 2.600000 0.080000
v -0.140000 5.200000 0.000000
v 0.140000 5.200000 0.000000
v 0.140000 5.200000 0.080000
v -0.140000 5.200000 0.080000
v -2.800000 2.420000 4.000000
v 2.800000 2.420000 4.000000
v 2.800000 2.420000 6.000000
v -2.800000 2.420000 6.000000
v -2.800000 2.600000 4.000000
v 2.800000 2.600000 4.000000
v 2.800000 2.600000 6.000000
v -2.800000 2.600000 6.000000
v -3.000000 2.600000 4.000000
v -2.800000 2.600000 4.000000
v -2.800000 2.600000 6.000000
v -3.000000 2.600000 6.000000
v -3.000000 3.400000 4.000000
v -2.800000 3.400000 4.000000
v -2.800000 3.400000 6.000000
v -3.000000 3.400000 6.000000
v -3.000000 4.200000 4.000000
v -2.800000 4.200000 4.000000
v -2.800000 4.200000 6.000000
v -3.000000 4.200000 6.000000
v -3.000000 5.200000 4.000000
v -2.800000 5.200000 4.000000
v -2.800000 5.200000 6.000000
v -3.000000 5.200000 6.000000
v -3.000000 3.400000 4.000000
v -2.800000 3.400000 4.000000
v -2.800000 3.400000 4.500000
v -3.000000 3.400000 4.500000
v -3.000000 4.200000 4.000000
v -2.800000 4.200000 4.000000
v -2.800000 4.200000 4.500000
v -3.000000 4.200000 4.500000
v -3.000000 3.400000 5.500000
v -2.800000 3.400000 5.500000
v -2.800000 3.400000 6.000000
v -3.000000 3.400000 6.000000
v -3.000000 4.200000 5.500000
v -2.800000 4.200000 5.500000
v -2.800000 4.200000 6.000000
v -3.000000 4.200000 6.000000
v 2.800000 2.600000 4.000000
v 3.000000 2.600000 4.000000
v 3.000000 2.600000 6.000000
v 2.800000 2.600000 6.000000
v 2.800000 3.400000 4.000000
v 3.000000 3.400000 4.000000
v 3.000000 3.400000 6.000000
v 2.800000 3.400000 6.000000
v 2.800000 4.200000 4.000000
v 3.000000 4.200000 4.000000
v 3.000000 4.200000 6.000000
v 2.800000 4.200000 6.000000
v 2.800000 5.200000 4.000000
v 3.000000 5.200000 4.000000
v 3.000000 5.200000 6.000000
v 2.800000 5.200000 6.000000
v 2.800000 3.400000 4.000000
v 3.000000 3.400000 4.000000
v 3.000000 3.400000 4.500000
v 2.800000 3.400000 4.500000
v 2.800000 4.200000 4.000000
v 3.000000 4.200000 4.000000
v 3.000000 4.200000 4.500000
v 2.800000 4.200000 4.500000
v 2.800000 3.400000 5.500000
v 3.000000 3.400000 5.500000
v 3.000000 3.400000 6.000000
v 2.800000 3.400000 6.000000
v 2.800000 4.200000 5.500000
v 3.000000 4.200000 5.500000
v 3.000000 4.200000 6.000000
v 2.800000 4.200000 6.000000
v -2.800000 2.420000 6.000000
v 2.800000 2.420000 6.000000
v 2.800000 2.420000 8.000000
v -2.800000 2.420000 8.000000
v -2.800000 2.600000 6.000000
v 2.800000 2.600000 6.000000
v 2.800000 2.600000 8.000000
v -2.800000 2.600000 8.000000
v -3.000000 2.600000 6.000000
v -2.800000 2.600000 6.000000
v -2.800000 2.600000 8.000000
v -3.000000 2.600000 8.000000
v -3.000000 3.400000 6.000000
v -2.800000 3.400000 6.000000
v -2.800000 3.400000 8.000000
v -3.000000 3.400000 8.000000
v -3.000000 4.200000 6.000000
v -2.800000 4.200000 6.000000
v -2.800000 4.200000 8.000000
v -3.000000 4.200000 8.000000
v -3.000000 5.200000 6.000000
v -2.800000 5.200000 6.000000
v -2.800000 5.200000 8.000000
v -3.000000 5.200000 8.000000
v -3.000000 3.400000 6.000000
v -2.800000 3.400000 6.000000
v -2.800000 3.400000 6.500000
v -3.000000 3.400000 6.500000
v -3.000000 4.200000 6.000000
v -2.800000 4.200000 6.000000
v -2.800000 4.200000 6.500000
v -3.000000 4.200000 6.500000
v -3.000000 3.400000 7.500000
v -2.800000 3.400000 7.500000
v -2.800000 3.400000 8.000000
v -3.000000 3.400000 8.000000
v -3.000000 4.200000 7.500000
v -2.800000 4.200000 7.500000
v -2.800000 4.200000 8.000000
v -3.000000 4.200000 8.000000
v 2.800000 2.600000 6.000000
v 3.000000 2.600000 6.000000
v 3.000000 2.600000 8.000000
v 2.800000 2.600000 8.000000
v 2.800000 3.400000 6.000000
v 3.000000 3.400000 6.000000
v 3.000000 3.400000 8.000000
v 2.800000 3.400000 8.000000
v 2.800000 4.200000 6.000000
v 3.000000 4.200000 6.000000
v 3.000000 4.200000 8.000000
v 2.800000 4.200000 8.000000
v 2.800000 5.200000 6.000000
v 3.000000 5.200000 6.000000
v 3.000000 5.200000 8.000000
v 2.800000 5.200000 8.000000
v 2.800000 3.400000 6.000000
v 3.000000 3.400000 6.000000
v 3.000000 3.400000 6.500000
v 2.800000 3.400000 6.500000
v 2.800000 4.200000 6.000000
v 3.000000 4.200000 6.000000
v 3.000000 4.200000 6.500000
v 2.800000 4.200000 6.500000
v 2.800000 3.400000 7.500000
v 3.000000 3.400000 7.500000
v 3.000000 3.400000 8.000000
v 2.800000 3.400000 8.000000
v 2.800000 4.200000 7.500000
v 3.000000 4.200000 7.500000
v 3.000000 4.200000 8.000000
v 2.800000 4.200000 8.000000
v -2.800000 2.420000 8.000000
v 2.800000 2.420000 8.000000
v 2.800000 2.420000 10.000000
v -2.800000 2.420000 10.000000
v -2.800000 2.600000 8.000000
v 2.800000 2.600000 8.000000
v 2.800000 2.600000 10.000000
v -2.800000 2.600000 10.000000
v -3.000000 2.600000 8.000000
v -2.800000 2.600000 8.000000
v -2.800000 2.600000 10.000000
v -3.000000 2.600000 10.000000
v -3.000000 3.400000 8.000000
v -2.800000 3.400000 8.000000
v -2.800000 3.400000 10.000000
v -3.000000 3.400000 10.000000
v -3.000000 4.200000 8.000000
v -2.800000 4.200000 8.000000
v -2.800000 4.200000 10.000000
v -3.000000 4.200000 10.000000
v -3.000000 5.200000 8.000000
v -2.800000 5.200000 8.000000
v -2.800000 5.200000 10.000000
v -3.000000 5.200000 10.000000
v -3.000000 3.400000 8.000000
v -2.800000 3.400000 8.000000
v -2.800000 3.400000 8.500000
v -3.000000 3.400000 8.500000
v -3.000000 4.200000 8.000000
v -2.800000 4.200000 8.000000
v -2.800000 4.200000 8.500000
v -3.000000 4.200000 8.500000
v -3.000000 3.400000 9.500000
v -2.800000 3.400000 9.500000
v -2.800000 3.400000 10.000000
v -3.000000 3.400000 10.000000
v -3.000000 4.200000 9.500000
v -2.800000 4.200000 9.500000
v -2.800000 4.200000 10.000000
v -3.000000 4.200000 10.000000
v 2.800000 2.600000 8.000000
v 3.000000 2.600000 8.000000
v 3.000000 2.600000 10.000000
v 2.800000 2.600000 10.000000
v 2.800000 3.400000 8.000000
v 3.000000 3.400000 8.000000
v 3.000000 3.400000 10.000000
v 2.800000 3.400000 10.000000
v 2.800000 4.200000 8.000000
v 3.000000 4.200000 8.000000
v 3.000000 4.200000 10.000000
v 2.800000 4.200000 10.000000
v 2.800000 5.200000 8.000000
v 3.000000 5.200000 8.000000
v 3.000000 5.200000 10.000000
v 2.800000 5.200000 10.000000
v 2.800000 3.400000 8.000000
v 3.000000 3.400000 8.000000
v 3.000000 3.400000 8.500000
v 2.800000 3.400000 8.500000
v 2.800000 4.200000 8.000000
v 3.000000 4.200000 8.000000
v 3.000000 4.200000 8.500000
v 2.800000 4.200000 8.500000
v 2.800000 3.400000 9.500000
v 3.000000 3.400000 9.500000
v 3.000000 3.400000 10.000000
v 2.800000 3.400000 10.000000
v 2.800000 4.200000 9.500000
v 3.000000 4.200000 9.500000
v 3.000000 4.200000 10.000000
v 2.800000 4.200000 10.000000
v -2.800000 2.420000 10.000000
v 2.800000 2.420000 10.000000
v 2.800000 2.420000 12.000000
v -2.800000 2.420000 12.000000
v -2.800000 2.600000 10.000000
v 2.800000 2.600000 10.000000
v 2.800000 2.600000 12.000000
v -2.800000 2.600000 12.000000
v -3.000000 2.600000 10.000000
v -2.800000 2.600000 10.000000
v -2.800000 2.600000 12.000000
v -3.000000 2.600000 12.000000
v -3.000000 3.400000 10.000000
v -2.800000 3.400000 10.000000
v -2.800000 3.400000 12.000000
v -3.000000 3.400000 12.000000
v -3.000000 4.200000 10.000000
v -2.800000 4.200000 10.000000
v -2.800000 4.200000 12.000000
v -3.000000 4.200000 12.000000
v -3.000000 5.200000 10.000000
v -2.800000 5.200000 10.000000
v -2.800000 5.200000 12.000000
v -3.000000 5.200000 12.000000
v -3.000000 3.400000 10.000000
v -2.800000 3.400000 10.000000
v -2.800000 3.400000 10.500000
v -3.000000 3.400000 10.500000
v -3.000000 4.200000 10.000000
v -2.800000 4.200000 10.000000
v -2.800000 4.200000 10.500000
v -3.000000 4.200000 10.500000
v -3.000000 3.400000 11.500000
v -2.800000 3.400000 11.500000
v -2.800000 3.400000 12.000000
v -3.000000 3.400000 12.000000
v -3.000000 4.200000 11.500000
v -2.800000 4.200000 11.500000
v -2.800000 4.200000 12.000000
v -3.000000 4.200000 12.000000
v 2.800000 2.600000 10.000000
v 3.000000 2.600000 10.000000
v 3.000000 2.600000 12.000000
v 2.800000 2.600000 12.000000
v 2.800000 3.400000 10.000000
v 3.000000 3.400000 10.000000
v 3.000000 3.400000 12.000000
v 2.800000 3.400000 12.000000
v 2.800000 4.200000 10.000000
v 3.000000 4.200000 10.000000
v 3.000000 4.200000 12.000000
v 2.800000 4.200000 12.000000
v 2.800000 5.200000 10.000000
v 3.000000 5.200000 10.000000
v 3.000000 5.200000 12.000000
v 2.800000 5.200000 12.000000
v 2.800000 3.400000 10.000000
v 3.000000 3.400000 10.000000
v 3.000000 3.400000 10.500000
v 2.800000 3.400000 10.500000
v 2.800000 4.200000 10.000000
v 3.000000 4.200000 10.000000
v 3.000000 4.200000 10.500000
v 2.800000 4.200000 10.500000
v 2.800000 3.400000 11.500000
v 3.000000 3.400000 11.500000
v 3.000000 3.400000 12.000000
v 2.800000 3.400000 12.000000
v 2.800000 4.200000 11.500000
v 3.000000 4.200000 11.500000
v 3.000000 4.200000 12.000000
v 2.800000 4.200000 12.000000
v -2.800000 2.420000 12.000000
v 2.800000 2.420000 12.000000
v 2.688000 2.420000 13.000000
v -2.688000 2.420000 13.000000
v -2.800000 2.600000 12.000000
v 2.800000 2.600000 12.000000
v 2.688000 2.600000 13.000000
v -2.688000 2.600000 13.000000
v -2.688000 2.420000 13.000000
v 2.688000 2.420000 13.000000
v 2.275840 2.420000 13.920000
v -2.275840 2.420000 13.920000
v -2.688000 2.600000 13.000000
v 2.688000 2.600000 13.000000
v 2.275840 2.600000 13.920000
v -2.275840 2.600000 13.920000
v -2.688000 2.600000 13.000000
v -2.880000 2.600000 13.000000
v -3.000000 2.600000 12.000000
v -2.800000 2.600000 12.000000
v -2.688000 5.200000 13.000000
v -2.880000 5.200000 13.000000
v -3.000000 5.200000 12.000000
v -2.800000 5.200000 12.000000
v -2.240000 2.600000 14.000000
v -2.400000 2.600000 14.000000
v -2.880000 2.600000 13.000000
v -2.688000 2.600000 13.000000
v -2.240000 5.200000 14.000000
v -2.400000 5.200000 14.000000
v -2.880000 5.200000 13.000000
v -2.688000 5.200000 13.000000
v 2.800000 2.600000 12.000000
v 3.000000 2.600000 12.000000
v 2.880000 2.600000 13.000000
v 2.688000 2.600000 13.000000
v 2.800000 5.200000 12.000000
v 3.000000 5.200000 12.000000
v 2.880000 5.200000 13.000000
v 2.688000 5.200000 13.000000
v 2.688000 2.600000 13.000000
v 2.880000 2.600000 13.000000
v 2.400000 2.600000 14.000000
v 2.240000 2.600000 14.000000
v 2.688000 5.200000 13.000000
v 2.880000 5.200000 13.000000
v 2.400000 5.200000 14.000000
v 2.240000 5.200000 14.000000
v -2.240000 2.600000 13.920000
v 2.240000 2.600000 13.920000
v 2.240000 2.600000 14.000000
v -2.240000 2.600000 14.000000
v -2.240000 5.200000 13.920000
v 2.240000 5.200000 13.920000
v 2.240000 5.200000 14.000000
v -2.240000 5.200000 14.000000
v -0.207200 5.020000 0.080000
v 0.207200 5.020000 0.080000
v 0.980000 5.020000 1.000000
v -0.980000 5.020000 1.000000
v -0.207200 5.200000 0.080000
v 0.207200 5.200000 0.080000
v 0.980000 5.200000 1.000000
v -0.980000 5.200000 1.000000
v -0.980000 5.020000 1.000000
v 0.980000 5.020000 1.000000
v 1.960000 5.020000 2.000000
v -1.960000 5.020000 2.000000
v -0.980000 5.200000 1.000000
v 0.980000 5.200000 1.000000
v 1.960000 5.200000 2.000000
v -1.960000 5.200000 2.000000
v -1.960000 5.020000 2.000000
v 1.960000 5.020000 2.000000
v 2.800000 5.020000 4.000000
v -2.800000 5.020000 4.000000
v -1.960000 5.200000 2.000000
v 1.960000 5.200000 2.000000
v 2.800000 5.200000 4.000000
v -2.800000 5.200000 4.000000
v -0.980000 5.200000 1.000000
v -1.050000 5.200000 1.000000
v -0.150000 5.200000 0.000000
v -0.140000 5.200000 0.000000
v -0.980000 5.800000 1.000000
v -1.050000 5.800000 1.000000
v -0.150000 5.800000 0.000000
v -0.140000 5.800000 0.000000
v -1.960000 5.200000 2.000000
v -2.100000 5.200000 2.000000
v -1.050000 5.200000 1.000000
v -0.980000 5.200000 1.000000
v -1.960000 5.800000 2.000000
v -2.100000 5.800000 2.000000
v -1.050000 5.800000 1.000000
v -0.980000 5.800000 1.000000
v -2.800000 5.200000 4.000000
v -3.000000 5.200000 4.000000
v -2.100000 5.200000 2.000000
v -1.960000 5.200000 2.000000
v -2.800000 5.800000 4.000000
v -3.000000 5.800000 4.000000
v -2.100000 5.800000 2.000000
v -1.960000 5.800000 2.000000
v 0.140000 5.200000 0.000000
v 0.150000 5.200000 0.000000
v 1.050000 5.200000 1.000000
v 0.980000 5.200000 1.000000
v 0.140000 5.800000 0.000000
v 0.150000 5.800000 0.000000
v 1.050000 5.800000 1.000000
v 0.980000 5.800000 1.000000
v 0.980000 5.200000 1.000000
v 1.050000 5.200000 1.000000
v 2.100000 5.200000 2.000000
v 1.960000 5.200000 2.000000
v 0.980000 5.800000 1.000000
v 1.050000 5.800000 1.000000
v 2.100000 5.800000 2.000000
v 1.960000 5.800000 2.000000
v 1.960000 5.200000 2.000000
v 2.100000 5.200000 2.000000
v 3.000000 5.200000 4.000000
v 2.800000 5.200000 4.000000
v 1.960000 5.800000 2.000000
v 2.100000 5.800000 2.000000
v 3.000000 5.800000 4.000000
v 2.800000 5.800000 4.000000
v -0.140000 5.200000 0.000000
v 0.140000 5.200000 0.000000
v 0.140000 5.200000 0.080000
v -0.140000 5.200000 0.080000
v -0.140000 5.800000 0.000000
v 0.140000 5.800000 0.000000
v 0.140000 5.800000 0.080000
v -0.140000 5.800000 0.080000
v -2.800000 5.020000 4.000000
v -2.050000 5.020000 4.000000
v -2.050000 5.020000 6.000000
v -2.800000 5.020000 6.000000
v -2.800000 5.200000 4.000000
v -2.050000 5.200000 4.000000
v -2.050000 5.200000 6.000000
v -2.800000 5.200000 6.000000
v -0.950000 5.020000 4.000000
v 2.800000 5.020000 4.000000
v 2.800000 5.020000 6.000000
v -0.950000 5.020000 6.000000
v -0.950000 5.200000 4.000000
v 2.800000 5.200000 4.000000
v 2.800000 5.200000 6.000000
v -0.950000 5.200000 6.000000
v -2.800000 5.200000 6.000000
v -3.000000 5.200000 6.000000
v -3.000000 5.200000 4.000000
v -2.800000 5.200000 4.000000
v -2.800000 5.800000 6.000000
v -3.000000 5.800000 6.000000
v -3.000000 5.800000 4.000000
v -2.800000 5.800000 4.000000
v 2.800000 5.200000 4.000000
v 3.000000 5.200000 4.000000
v 3.000000 5.200000 6.000000
v 2.800000 5.200000 6.000000
v 2.800000 5.800000 4.000000
v 3.000000 5.800000 4.000000
v 3.000000 5.800000 6.000000
v 2.800000 5.800000 6.000000
v -2.800000 5.020000 6.000000
v -2.050000 5.020000 6.000000
v -2.050000 5.020000 8.000000
v -2.800000 5.020000 8.000000
v -2.800000 5.200000 6.000000
v -2.050000 5.200000 6.000000
v -2.050000 5.200000 8.000000
v -2.800000 5.200000 8.000000
v -0.950000 5.020000 6.000000
v 2.800000 5.020000 6.000000
v 2.800000 5.020000 8.000000
v -0.950000 5.020000 8.000000
v -0.950000 5.200000 6.000000
v 2.800000 5.200000 6.000000
v 2.800000 5.200000 8.000000
v -0.950000 5.200000 8.000000
v -2.050000 5.020000 7.250000
v -0.950000 5.020000 7.250000
v -0.950000 5.020000 8.000000
v -2.050000 5.020000 8.000000
v -2.050000 5.200000 7.250000
v -0.950000 5.200000 7.250000
v -0.950000 5.200000 8.000000
v -2.050000 5.200000 8.000000
v -2.800000 5.200000 8.000000
v -3.000000 5.200000 8.000000
v -3.000000 5.200000 6.000000
v -2.800000 5.200000 6.000000
v -2.800000 5.800000 8.000000
v -3.000000 5.800000 8.000000
v -3.000000 5.800000 6.000000
v -2.800000 5.800000 6.000000
v 2.800000 5.200000 6.000000
v 3.000000 5.200000 6.000000
v 3.000000 5.200000 8.000000
v 2.800000 5.200000 8.000000
v 2.800000 5.800000 6.000000
v 3.000000 5.800000 6.000000
v 3.000000 5.800000 8.000000
v 2.800000 5.800000 8.000000
v -2.800000 5.020000 8.000000
v 2.800000 5.020000 8.000000
v 2.800000 5.020000 10.000000
v -2.800000 5.020000 10.000000
v -2.800000 5.200000 8.000000
v 2.800000 5.200000 8.000000
v 2.800000 5.200000 10.000000
v -2.800000 5.200000 10.000000
v -2.800000 5.200000 10.000000
v -3.000000 5.200000 10.000000
v -3.000000 5.200000 8.000000
v -2.800000 5.200000 8.000000
v -2.800000 5.800000 10.000000
v -3.000000 5.800000 10.000000
v -3.000000 5.800000 8.000000
v -2.800000 5.800000 8.000000
v 2.800000 5.200000 8.000000
v 3.000000 5.200000 8.000000
v 3.000000 5.200000 10.000000
v 2.800000 5.200000 10.000000
v 2.800000 5.800000 8.000000
v 3.000000 5.800000 8.000000
v 3.000000 5.800000 10.000000
v 2.800000 5.800000 10.000000
v -2.800000 5.020000 10.000000
v 2.800000 5.020000 10.000000
v 2.800000 5.020000 12.000000
v -2.800000 5.020000 12.000000
v -2.800000 5.200000 10.000000
v 2.800000 5.200000 10.000000
v 2.800000 5.200000 12.000000
v -2.800000 5.200000 12.000000
v -2.800000 5.200000 12.000000
v -3.000000 5.200000 12.000000
v -3.000000 5.200000 10.000000
v -2.800000 5.200000 10.000000
v -2.800000 5.800000 12.000000
v -3.000000 5.800000 12.000000
v -3.000000 5.800000 10.000000
v -2.800000 5.800000 10.000000
v 2.800000 5.200000 10.000000
v 3.000000 5.200000 10.000000
v 3.000000 5.200000 12.000000
v 2.800000 5.200000 12.000000
v 2.800000 5.800000 10.000000
v 3.000000 5.800000 10.000000
v 3.000000 5.800000 12.000000
v 2.800000 5.800000 12.000000
v -2.800000 5.020000 12.000000
v 2.800000 5.020000 12.000000
v 2.688000 5.020000 13.000000
v -2.688000 5.020000 13.000000
v -2.800000 5.200000 12.000000
v 2.800000 5.200000 12.000000
v 2.688000 5.200000 13.000000
v -2.688000 5.200000 13.000000
v -2.688000 5.020000 13.000000
v 2.688000 5.020000 13.000000
v 2.275840 5.020000 13.920000
v -2.275840 5.020000 13.920000
v -2.688000 5.200000 13.000000
v 2.688000 5.200000 13.000000
v 2.275840 5.200000 13.920000
v -2.275840 5.200000 13.920000
v -2.688000 5.200000 13.000000
v -2.880000 5.200000 13.000000
v -3.000000 5.200000 12.000000
v -2.800000 5.200000 12.000000
v -2.688000 5.800000 13.000000
v -2.880000 5.800000 13.000000
v -3.000000 5.800000 12.000000
v -2.800000 5.800000 12.000000
v -2.240000 5.200000 14.000000
v -2.400000 5.200000 14.000000
v -2.880000 5.200000 13.000000
v -2.688000 5.200000 13.000000
v -2.240000 5.800000 14.000000
v -2.400000 5.800000 14.000000
v -2.880000 5.800000 13.000000
v -2.688000 5.800000 13.000000
v 2.800000 5.200000 12.000000
v 3.000000 5.200000 12.000000
v 2.880000 5.200000 13.000000
v 2.688000 5.200000 13.000000
v 2.800000 5.800000 12.000000
v 3.000000 5.800000 12.000000
v 2.880000 5.800000 13.000000
v 2.688000 5.800000 13.000000
v 2.688000 5.200000 13.000000
v 2.880000 5.200000 13.000000
v 2.400000 5.200000 14.000000
v 2.240000 5.200000 14.000000
v 2.688000 5.800000 13.000000
v 2.880000 5.800000 13.000000
v 2.400000 5.800000 14.000000
v 2.240000 5.800000 14.000000
v -2.240000 5.200000 13.920000
v 2.240000 5.200000 13.920000
v 2.240000 5.200000 14.000000
v -2.240000 5.200000 14.000000
v -2.240000 5.800000 13.920000
v 2.240000 5.800000 13.920000
v 2.240000 5.800000 14.000000
v -2.240000 5.800000 14.000000
v -2.000000 2.720000 4.000000
v -1.000000 2.720000 4.000000
v -1.000000 2.720000 4.250000
v -2.000000 2.720000 4.250000
v -2.000000 2.800000 4.000000
v -1.000000 2.800000 4.000000
v -1.000000 2.800000 4.250000
v -2.000000 2.800000 4.250000
v -2.000000 2.920000 4.250000
v -1.000000 2.920000 4.250000
v -1.000000 2.920000 4.500000
v -2.000000 2.920000 4.500000
v -2.000000 3.000000 4.250000
v -1.000000 3.000000 4.250000
v -1.000000 3.000000 4.500000
v -2.000000 3.000000 4.500000
v -2.000000 3.120000 4.500000
v -1.000000 3.120000 4.500000
v -1.000000 3.120000 4.750000
v -2.000000 3.120000 4.750000
v -2.000000 3.200000 4.500000
v -1.000000 3.200000 4.500000
v -1.000000 3.200000 4.750000
v -2.000000 3.200000 4.750000
v -2.000000 3.320000 4.750000
v -1.000000 3.320000 4.750000
v -1.000000 3.320000 5.000000
v -2.000000 3.320000 5.000000
v -2.000000 3.400000 4.750000
v -1.000000 3.400000 4.750000
v -1.000000 3.400000 5.000000
v -2.000000 3.400000 5.000000
v -2.000000 3.520000 5.000000
v -1.000000 3.520000 5.000000
v -1.000000 3.520000 5.250000
v -2.000000 3.520000 5.250000
v -2.000000 3.600000 5.000000
v -1.000000 3.600000 5.000000
v -1.000000 3.600000 5.250000
v -2.000000 3.600000 5.250000
v -2.000000 3.720000 5.250000
v -1.000000 3.720000 5.250000
v -1.000000 3.720000 5.500000
v -2.000000 3.720000 5.500000
v -2.000000 3.800000 5.250000
v -1.000000 3.800000 5.250000
v -1.000000 3.800000 5.500000
v -2.000000 3.800000 5.500000
v -2.000000 3.920000 5.500000
v -1.000000 3.920000 5.500000
v -1.000000 3.920000 5.750000
v -2.000000 3.920000 5.750000
v -2.000000 4.000000 5.500000
v -1.000000 4.000000 5.500000
v -1.000000 4.000000 5.750000
v -2.000000 4.000000 5.750000
v -2.000000 4.120000 5.750000
v -1.000000 4.120000 5.750000
v -1.000000 4.120000 6.000000
v -2.000000 4.120000 6.000000
v -2.000000 4.200000 5.750000
v -1.000000 4.200000 5.750000
v -1.000000 4.200000 6.000000
v -2.000000 4.200000 6.000000
v -2.000000 4.320000 6.000000
v -1.000000 4.320000 6.000000
v -1.000000 4.320000 6.250000
v -2.000000 4.320000 6.250000
v -2.000000 4.400000 6.000000
v -1.000000 4.400000 6.000000
v -1.000000 4.400000 6.250000
v -2.000000 4.400000 6.250000
v -2.000000 4.520000 6.250000
v -1.000000 4.520000 6.250000
v -1.000000 4.520000 6.500000
v -2.000000 4.520000 6.500000
v -2.000000 4.600000 6.250000
v -1.000000 4.600000 6.250000
v -1.000000 4.600000 6.500000
v -2.000000 4.600000 6.500000
v -2.000000 4.720000 6.500000
v -1.000000 4.720000 6.500000
v -1.000000 4.720000 6.750000
v -2.000000 4.720000 6.750000
v -2.000000 4.800000 6.500000
v -1.000000 4.800000 6.500000
v -1.000000 4.800000 6.750000
v -2.000000 4.800000 6.750000
v -2.000000 4.920000 6.750000
v -1.000000 4.920000 6.750000
v -1.000000 4.920000 7.000000
v -2.000000 4.920000 7.000000
v -2.000000 5.000000 6.750000
v -1.000000 5.000000 6.750000
v -1.000000 5.000000 7.000000
v -2.000000 5.000000 7.000000
v -2.000000 5.120000 7.000000
v -1.000000 5.120000 7.000000
v -1.000000 5.120000 7.250000
v -2.000000 5.120000 7.250000
v -2.000000 5.200000 7.000000
v -1.000000 5.200000 7.000000
v -1.000000 5.200000 7.250000
v -2.000000 5.200000 7.250000
f 1 2 20 19
f 2 3 21 20
f 3 4 22 21
f 4 5 23 22
f 5 6 24 23
f 6 7 25 24
f 7 8 26 25
f 8 9 27 26
f 9 10 28 27
f 10 11 29 28
f 11 12 30 29
f 12 13 31 30
f 13 14 32 31
f 14 15 33 32
f 15 16 34 33
f 16 17 35 34
f 17 18 36 35
f 18 1 19 36
f 19 20 38 37
f 20 21 39 38
f 21 22 40 39
f 22 23 41 40
f 23 24 42 41
f 24 25 43 42
f 25 26 44 43
f 26 27 45 44
f 27 28 46 45
f 28 29 47 46
f 29 30 48 47
f 30 31 49 48
f 31 32 50 49
f 32 33 51 50
f 33 34 52 51
f 34 35 53 52
f 35 36 54 53
f 36 19 37 54
f 37 38 56 55
f 38 39 57 56
f 39 40 58 57
f 40 41 59 58
f 41 42 60 59
f 42 43 61 60
f 43 44 62 61
f 44 45 63 62
f 45 46 64 63
f 46 47 65 64
f 47 48 66 65
f 48 49 67 66
f 49 50 68 67
f 50 51 69 68
f 51 52 70 69
f 52 53 71 70
f 53 54 72 71
f 54 37 55 72
f 1 18 2
f 2 18 17
f 2 17 3
f 3 17 16
f 3 16 4
f 4 16 15
f 4 15 5
f 5 15 14
f 5 14 6
f 6 14 13
f 6 13 7
f 7 13 12
f 7 12 8
f 8 12 11
f 8 11 9
f 9 11 10
f 56 72 55
f 71 72 56
f 57 71 56
f 70 71 57
f 58 70 57
f 69 70 58
f 59 69 58
f 68 69 59
f 60 68 59
f 67 68 60
f 61 67 60
f 66 67 61
f 62 66 61
f 65 66 62
f 63 65 62
f 64 65 63
f 73 74 75 76 77 78 79 80 81
f 90 89 88 87 86 85 84 83 82
f 73 74 83 82
f 74 75 84 83
f 75 76 85 84
f 76 77 86 85
f 77 78 87 86
f 78 79 88 87
f 79 80 89 88
f 80 81 90 89
f 81 73 82 90
f 91 92 110 109
f 92 93 111 110
f 93 94 112 111
f 94 95 113 112
f 95 96 114 113
f 96 97 115 114
f 97 98 116 115
f 98 99 117 116
f 99 100 118 117
f 100 101 119 118
f 101 102 120 119
f 102 103 121 120
f 103 104 122 121
f 104 105 123 122
f 105 106 124 123
f 106 107 125 124
f 107 108 126 125
f 108 91 109 126
f 91 108 92
f 92 108 107
f 92 107 93
f 93 107 106
f 93 106 94
f 94 106 105
f 94 105 95
f 95 105 104
f 95 104 96
f 96 104 103
f 96 103 97
f 97 103 102
f 97 102 98
f 98 102 101
f 98 101 99
f 99 101 100
f 110 126 109
f 125 126 110
f 111 125 110
f 124 125 111
f 112 124 111
f 123 124 112
f 113 123 112
f 122 123 113
f 114 122 113
f 121 122 114
f 115 121 114
f 120 121 115
f 116 120 115
f 119 120 116
f 117 119 116
f 118 119 117
f 127 128 146 145
f 128 129 147 146
f 129 130 148 147
f 130 131 149 148
f 131 132 150 149
f 132 133 151 150
f 133 134 152 151
f 134 135 153 152
f 135 136 154 153
f 136 137 155 154
f 137 138 156 155
f 138 139 157 156
f 139 140 158 157
f 140 141 159 158
f 141 142 160 159
f 142 143 161 160
f 143 144 162 161
f 144 127 145 162
f 127 144 128
f 128 144 143
f 128 143 129
f 129 143 142
f 129 142 130
f 130 142 141
f 130 141 131
f 131 141 140
f 131 140 132
f 132 140 139
f 132 139 133
f 133 139 138
f 133 138 134
f 134 138 137
f 134 137 135
f 135 137 136
f 146 162 145
f 161 162 146
f 147 161 146
f 160 161 147
f 148 160 147
f 159 160 148
f 149 159 148
f 158 159 149
f 150 158 149
f 157 158 150
f 151 157 150
f 156 157 151
f 152 156 151
f 155 156 152
f 153 155 152
f 154 155 153
f 163 164 182 181
f 164 165 183 182
f 165 166 184 183
f 166 167 185 184
f 167 168 186 185
f 168 169 187 186
f 169 170 188 187
f 170 171 189 188
f 171 172 190 189
f 172 173 191 190
f 173 174 192 191
f 174 175 193 192
f 175 176 194 193
f 176 177 195 194
f 177 178 196 195
f 178 179 197 196
f 179 180 198 197
f 180 163 181 198
f 163 180 164
f 164 180 179
f 164 179 165
f 165 179 178
f 165 178 166
f 166 178 177
f 166 177 167
f 167 177 176
f 167 176 168
f 168 176 175
f 168 175 169
f 169 175 174
f 169 174 170
f 170 174 173
f 170 173 171
f 171 173 172
f 182 198 181
f 197 198 182
f 183 197 182
f 196 197 183
f 184 196 183
f 195 196 184
f 185 195 184
f 194 195 185
f 186 194 185
f 193 194 186
f 187 193 186
f 192 193 187
f 188 192 187
f 191 192 188
f 189 191 188
f 190 191 189
f 199 200 218 217
f 200 201 219 218
f 201 202 220 219
f 202 203 221 220
f 203 204 222 221
f 204 205 223 222
f 205 206 224 223
f 206 207 225 224
f 207 208 226 225
f 208 209 227 226
f 209 210 228 227
f 210 211 229 228
f 211 212 230 229
f 212 213 231 230
f 213 214 232 231
f 214 215 233 232
f 215 216 234 233
f 216 199 217 234
f 199 216 200
f 200 216 215
f 200 215 201
f 201 215 214
f 201 214 202
f 202 214 213
f 202 213 203
f 203 213 212
f 203 212 204
f 204 212 211
f 204 211 205
f 205 211 210
f 205 210 206
f 206 210 209
f 206 209 207
f 207 209 208
f 218 234 217
f 233 234 218
f 219 233 218
f 232 233 219
f 220 232 219
f 231 232 220
f 221 231 220
f 230 231 221
f 222 230 221
f 229 230 222
f 223 229 222
f 228 229 223
f 224 228 223
f 227 228 224
f 225 227 224
f 226 227 225
f 235 236 254 253
f 236 237 255 254
f 237 238 256 255
f 238 239 257 256
f 239 240 258 257
f 240 241 259 258
f 241 242 260 259
f 242 243 261 260
f 243 244 262 261
f 244 245 263 262
f 245 246 264 263
f 246 247 265 264
f 247 248 266 265
f 248 249 267 266
f 249 250 268 267
f 250 251 269 268
f 251 252 270 269
f 252 235 253 270
f 253 254 272 271
f 254 255 273 272
f 255 256 274 273
f 256 257 275 274
f 257 258 276 275
f 258 259 277 276
f 259 260 278 277
f 260 261 279 278
f 261 262 280 279
f 262 263 281 280
f 263 264 282 281
f 264 265 283 282
f 265 266 284 283
f 266 267 285 284
f 267 268 286 285
f 268 269 287 286
f 269 270 288 287
f 270 253 271 288
f 235 252 236
f 236 252 251
f 236 251 237
f 237 251 250
f 237 250 238
f 238 250 249
f 238 249 239
f 239 249 248
f 239 248 240
f 240 248 247
f 240 247 241
f 241 247 246
f 241 246 242
f 242 246 245
f 242 245 243
f 243 245 244
f 272 288 271
f 287 288 272
f 273 287 272
f 286 287 273
f 274 286 273
f 285 286 274
f 275 285 274
f 284 285 275
f 276 284 275
f 283 284 276
f 277 283 276
f 282 283 277
f 278 282 277
f 281 282 278
f 279 281 278
f 280 281 279
f 289 290 291 292 293 294 295 296 297
f 306 305 304 303 302 301 300 299 298
f 289 290 299 298
f 290 291 300 299
f 291 292 301 300
f 292 293 302 301
f 293 294 303 302
f 294 295 304 303
f 295 296 305 304
f 296 297 306 305
f 297 289 298 306
f 307 308 309 310
f 314 313 312 311
f 307 311 312 308
f 308 312 313 309
f 309 313 314 310
f 310 314 311 307
f 315 316 317 318
f 322 321 320 319
f 315 319 320 316
f 316 320 321 317
f 317 321 322 318
f 318 322 319 315
f 323 324 325 326
f 330 329 328 327
f 323 327 328 324
f 324 328 329 325
f 325 329 330 326
f 326 330 327 323
f 331 332 333 334
f 338 337 336 335
f 331 335 336 332
f 332 336 337 333
f 333 337 338 334
f 334 338 335 331
f 339 340 341 342
f 346 345 344 343
f 339 343 344 340
f 340 344 345 341
f 341 345 346 342
f 342 346 343 339
f 347 348 349 350
f 354 353 352 351
f 347 351 352 348
f 348 352 353 349
f 349 353 354 350
f 350 354 351 347
f 355 356 357 358
f 362 361 360 359
f 355 359 360 356
f 356 360 361 357
f 357 361 362 358
f 358 362 359 355
f 363 364 365 366
f 370 369 368 367
f 363 367 368 364
f 364 368 369 365
f 365 369 370 366
f 366 370 367 363
f 371 372 373 374
f 378 377 376 375
f 371 375 376 372
f 372 376 377 373
f 373 377 378 374
f 374 378 375 371
f 379 380 381 382
f 386 385 384 383
f 379 383 384 380
f 380 384 385 381
f 381 385 386 382
f 382 386 383 379
f 387 388 389 390
f 394 393 392 391
f 387 391 392 388
f 388 392 393 389
f 389 393 394 390
f 390 394 391 387
f 395 396 397 398
f 402 401 400 399
f 395 399 400 396
f 396 400 401 397
f 397 401 402 398
f 398 402 399 395
f 403 404 405 406
f 410 409 408 407
f 403 407 408 404
f 404 408 409 405
f 405 409 410 406
f 406 410 407 403
f 411 412 413 414
f 418 417 416 415
f 411 415 416 412
f 412 416 417 413
f 413 417 418 414
f 414 418 415 411
f 419 420 421 422
f 426 425 424 423
f 419 423 424 420
f 420 424 425 421
f 421 425 426 422
f 422 426 423 419
f 427 428 429 430
f 434 433 432 431
f 427 431 432 428
f 428 432 433 429
f 429 433 434 430
f 430 434 431 427
f 435 436 437 438
f 442 441 440 439
f 435 439 440 436
f 436 440 441 437
f 437 441 442 438
f 438 442 439 435
f 443 444 445 446
f 450 449 448 447
f 443 447 448 444
f 444 448 449 445
f 445 449 450 446
f 446 450 447 443
f 451 452 453 454
f 458 457 456 455
f 451 455 456 452
f 452 456 457 453
f 453 457 458 454
f 454 458 455 451
f 459 460 461 462
f 466 465 464 463
f 459 463 464 460
f 460 464 465 461
f 461 465 466 462
f 462 466 463 459
f 467 468 469 470
f 474 473 472 471
f 467 471 472 468
f 468 472 473 469
f 469 473 474 470
f 470 474 471 467
f 475 476 477 478
f 482 481 480 479
f 475 479 480 476
f 476 480 481 477
f 477 481 482 478
f 478 482 479 475
f 483 484 485 486
f 490 489 488 487
f 483 487 488 484
f 484 488 489 485
f 485 489 490 486
f 486 490 487 483
f 491 492 493 494
f 498 497 496 495
f 491 495 496 492
f 492 496 497 493
f 493 497 498 494
f 494 498 495 491
f 499 500 501 502
f 506 505 504 503
f 499 503 504 500
f 500 504 505 501
f 501 505 506 502
f 502 506 503 499
f 507 508 509 510
f 514 513 512 511
f 507 511 512 508
f 508 512 513 509
f 509 513 514 510
f 510 514 511 507
f 515 516 517 518
f 522 521 520 519
f 515 519 520 516
f 516 520 521 517
f 517 521 522 518
f 518 522 519 515
f 523 524 525 526
f 530 529 528 527
f 523 527 528 524
f 524 528 529 525
f 525 529 530 526
f 526 530 527 523
f 531 532 533 534
f 538 537 536 535
f 531 535 536 532
f 532 536 537 533
f 533 537 538 534
f 534 538 535 531
f 539 540 541 542
f 546 545 544 543
f 539 543 544 540
f 540 544 545 541
f 541 545 546 542
f 542 546 543 539
f 547 548 549 550
f 554 553 552 551
f 547 551 552 548
f 548 552 553 549
f 549 553 554 550
f 550 554 551 547
f 555 556 557 558
f 562 561 560 559
f 555 559 560 556
f 556 560 561 557
f 557 561 562 558
f 558 562 559 555
f 563 564 565 566
f 570 569 568 567
f 563 567 568 564
f 564 568 569 565
f 565 569 570 566
f 566 570 567 563
f 571 572 573 574
f 578 577 576 575
f 571 575 576 572
f 572 576 577 573
f 573 577 578 574
f 574 578 575 571
f 579 580 581 582
f 586 585 584 583
f 579 583 584 580
f 580 584 585 581
f 581 585 586 582
f 582 586 583 579
f 587 588 589 590
f 594 593 592 591
f 587 591 592 588
f 588 592 593 589
f 589 593 594 590
f 590 594 591 587
f 595 596 597 598
f 602 601 600 599
f 595 599 600 596
f 596 600 601 597
f 597 601 602 598
f 598 602 599 595
f 603 604 605 606
f 610 609 608 607
f 603 607 608 604
f 604 608 609 605
f 605 609 610 606
f 606 610 607 603
f 611 612 613 614
f 618 617 616 615
f 611 615 616 612
f 612 616 617 613
f 613 617 618 614
f 614 618 615 611
f 619 620 621 622
f 626 625 624 623
f 619 623 624 620
f 620 624 625 621
f 621 625 626 622
f 622 626 623 619
f 627 628 629 630
f 634 633 632 631
f 627 631 632 628
f 628 632 633 629
f 629 633 634 630
f 630 634 631 627
f 635 636 637 638
f 642 641 640 639
f 635 639 640 636
f 636 640 641 637
f 637 641 642 638
f 638 642 639 635
f 643 644 645 646
f 650 649 648 647
f 643 647 648 644
f 644 648 649 645
f 645 649 650 646
f 646 650 647 643
f 651 652 653 654
f 658 657 656 655
f 651 655 656 652
f 652 656 657 653
f 653 657 658 654
f 654 658 655 651
f 659 660 661 662
f 666 665 664 663
f 659 663 664 660
f 660 664 665 661
f 661 665 666 662
f 662 666 663 659
f 667 668 669 670
f 674 673 672 671
f 667 671 672 668
f 668 672 673 669
f 669 673 674 670
f 670 674 671 667
f 675 676 677 678
f 682 681 680 679
f 675 679 680 676
f 676 680 681 677
f 677 681 682 678
f 678 682 679 675
f 683 684 685 686
f 690 689 688 687
f 683 687 688 684
f 684 688 689 685
f 685 689 690 686
f 686 690 687 683
f 691 692 693 694
f 698 697 696 695
f 691 695 696 692
f 692 696 697 693
f 693 697 698 694
f 694 698 695 691
f 699 700 701 702
f 706 705 704 703
f 699 703 704 700
f 700 704 705 701
f 701 705 706 702
f 702 706 703 699
f 707 708 709 710
f 714 713 712 711
f 707 711 712 708
f 708 712 713 709
f 709 713 714 710
f 710 714 711 707
f 715 716 717 718
f 722 721 720 719
f 715 719 720 716
f 716 720 721 717
f 717 721 722 718
f 718 722 719 715
f 723 724 725 726
f 730 729 728 727
f 723 727 728 724
f 724 728 729 725
f 725 729 730 726
f 726 730 727 723
f 731 732 733 734
f 738 737 736 735
f 731 735 736 732
f 732 736 737 733
f 733 737 738 734
f 734 738 735 731
f 739 740 741 742
f 746 745 744 743
f 739 743 744 740
f 740 744 745 741
f 741 745 746 742
f 742 746 743 739
f 747 748 749 750
f 754 753 752 751
f 747 751 752 748
f 748 752 753 749
f 749 753 754 750
f 750 754 751 747
f 755 756 757 758
f 762 761 760 759
f 755 759 760 756
f 756 760 761 757
f 757 761 762 758
f 758 762 759 755
f 763 764 765 766
f 770 769 768 767
f 763 767 768 764
f 764 768 769 765
f 765 769 770 766
f 766 770 767 763
f 771 772 773 774
f 778 777 776 775
f 771 775 776 772
f 772 776 777 773
f 773 777 778 774
f 774 778 775 771
f 779 780 781 782
f 786 785 784 783
f 779 783 784 780
f 780 784 785 781
f 781 785 786 782
f 782 786 783 779
f 787 788 789 790
f 794 793 792 791
f 787 791 792 788
f 788 792 793 789
f 789 793 794 790
f 790 794 791 787
f 795 796 797 798
f 802 801 800 799
f 795 799 800 796
f 796 800 801 797
f 797 801 802 798
f 798 802 799 795
f 803 804 805 806
f 810 809 808 807
f 803 807 808 804
f 804 808 809 805
f 805 809 810 806
f 806 810 807 803
f 811 812 813 814
f 818 817 816 815
f 811 815 816 812
f 812 816 817 813
f 813 817 818 814
f 814 818 815 811
f 819 820 821 822
f 826 825 824 823
f 819 823 824 820
f 820 824 825 821
f 821 825 826 822
f 822 826 823 819
f 827 828 829 830
f 834 833 832 831
f 827 831 832 828
f 828 832 833 829
f 829 833 834 830
f 830 834 831 827
f 835 836 837 838
f 842 841 840 839
f 835 839 840 836
f 836 840 841 837
f 837 841 842 838
f 838 842 839 835
f 843 844 845 846
f 850 849 848 847
f 843 847 848 844
f 844 848 849 845
f 845 849 850 846
f 846 850 847 843
f 851 852 853 854
f 858 857 856 855
f 851 855 856 852
f 852 856 857 853
f 853 857 858 854
f 854 858 855 851
f 859 860 861 862
f 866 865 864 863
f 859 863 864 860
f 860 864 865 861
f 861 865 866 862
f 862 866 863 859
f 867 868 869 870
f 874 873 872 871
f 867 871 872 868
f 868 872 873 869
f 869 873 874 870
f 870 874 871 867
f 875 876 877 878
f 882 881 880 879
f 875 879 880 876
f 876 880 881 877
f 877 881 882 878
f 878 882 879 875
f 883 884 885 886
f 890 889 888 887
f 883 887 888 884
f 884 888 889 885
f 885 889 890 886
f 886 890 887 883
f 891 892 893 894
f 898 897 896 895
f 891 895 896 892
f 892 896 897 893
f 893 897 898 894
f 894 898 895 891
f 899 900 901 902
f 906 905 904 903
f 899 903 904 900
f 900 904 905 901
f 901 905 906 902
f 902 906 903 899
f 907 908 909 910
f 914 913 912 911
f 907 911 912 908
f 908 912 913 909
f 909 913 914 910
f 910 914 911 907
f 915 916 917 918
f 922 921 920 919
f 915 919 920 916
f 916 920 921 917
f 917 921 922 918
f 918 922 919 915
f 923 924 925 926
f 930 929 928 927
f 923 927 928 924
f 924 928 929 925
f 925 929 930 926
f 926 930 927 923
f 931 932 933 934
f 938 937 936 935
f 931 935 936 932
f 932 936 937 933
f 933 937 938 934
f 934 938 935 931
f 939 940 941 942
f 946 945 944 943
f 939 943 944 940
f 940 944 945 941
f 941 945 946 942
f 942 946 943 939
f 947 948 949 950
f 954 953 952 951
f 947 951 952 948
f 948 952 953 949
f 949 953 954 950
f 950 954 951 947
f 955 956 957 958
f 962 961 960 959
f 955 959 960 956
f 956 960 961 957
f 957 961 962 958
f 958 962 959 955
f 963 964 965 966
f 970 969 968 967
f 963 967 968 964
f 964 968 969 965
f 965 969 970 966
f 966 970 967 963
f 971 972 973 974
f 978 977 976 975
f 971 975 976 972
f 972 976 977 973
f 973 977 978 974
f 974 978 975 971
f 979 980 981 982
f 986 985 984 983
f 979 983 984 980
f 980 984 985 981
f 981 985 986 982
f 982 986 983 979
f 987 988 989 990
f 994 993 992 991
f 987 991 992 988
f 988 992 993 989
f 989 993 994 990
f 990 994 991 987
f 995 996 997 998
f 1002 1001 1000 999
f 995 999 1000 996
f 996 1000 1001 997
f 997 1001 1002 998
f 998 1002 999 995
f 1003 1004 1005 1006
f 1010 1009 1008 1007
f 1003 1007 1008 1004
f 1004 1008 1009 1005
f 1005 1009 1010 1006
f 1006 1010 1007 1003
f 1011 1012 1013 1014
f 1018 1017 1016 1015
f 1011 1015 1016 1012
f 1012 1016 1017 1013
f 1013 1017 1018 1014
f 1014 1018 1015 1011
f 1019 1020 1021 1022
f 1026 1025 1024 1023
f 1019 1023 1024 1020
f 1020 1024 1025 1021
f 1021 1025 1026 1022
f 1022 1026 1023 1019
f 1027 1028 1029 1030
f 1034 1033 1032 1031
f 1027 1031 1032 1028
f 1028 1032 1033 1029
f 1029 1033 1034 1030
f 1030 1034 1031 1027
f 1035 1036 1037 1038
f 1042 1041 1040 1039
f 1035 1039 1040 1036
f 1036 1040 1041 1037
f 1037 1041 1042 1038
f 1038 1042 1039 1035
f 1043 1044 1045 1046
f 1050 1049 1048 1047
f 1043 1047 1048 1044
f 1044 1048 1049 1045
f 1045 1049 1050 1046
f 1046 1050 1047 1043
f 1051 1052 1053 1054
f 1058 1057 1056 1055
f 1051 1055 1056 1052
f 1052 1056 1057 1053
f 1053 1057 1058 1054
f 1054 1058 1055 1051
f 1059 1060 1061 1062
f 1066 1065 1064 1063
f 1059 1063 1064 1060
f 1060 1064 1065 1061
f 1061 1065 1066 1062
f 1062 1066 1063 1059
f 1067 1068 1069 1070
f 1074 1073 1072 1071
f 1067 1071 1072 1068
f 1068 1072 1073 1069
f 1069 1073 1074 1070
f 1070 1074 1071 1067
f 1075 1076 1077 1078
f 1082 1081 1080 1079
f 1075 1079 1080 1076
f 1076 1080 1081 1077
f 1077 1081 1082 1078
f 1078 1082 1079 1075
f 1083 1084 1085 1086
f 1090 1089 1088 1087
f 1083 1087 1088 1084
f 1084 1088 1089 1085
f 1085 1089 1090 1086
f 1086 1090 1087 1083
