# Contract axes: X starboard Y up Z aft; metres
v -0.500000 0.120000 0.000000
v 0.500000 0.120000 0.000000
v 0.500000 0.120000 0.250000
v -0.500000 0.120000 0.250000
v -0.500000 0.200000 0.000000
v 0.500000 0.200000 0.000000
v 0.500000 0.200000 0.250000
v -0.500000 0.200000 0.250000
v -0.500000 0.320000 0.250000
v 0.500000 0.320000 0.250000
v 0.500000 0.320000 0.500000
v -0.500000 0.320000 0.500000
v -0.500000 0.400000 0.250000
v 0.500000 0.400000 0.250000
v 0.500000 0.400000 0.500000
v -0.500000 0.400000 0.500000
v -0.500000 0.520000 0.500000
v 0.500000 0.520000 0.500000
v 0.500000 0.520000 0.750000
v -0.500000 0.520000 0.750000
v -0.500000 0.600000 0.500000
v 0.500000 0.600000 0.500000
v 0.500000 0.600000 0.750000
v -0.500000 0.600000 0.750000
v -0.500000 0.720000 0.750000
v 0.500000 0.720000 0.750000
v 0.500000 0.720000 1.000000
v -0.500000 0.720000 1.000000
v -0.500000 0.800000 0.750000
v 0.500000 0.800000 0.750000
v 0.500000 0.800000 1.000000
v -0.500000 0.800000 1.000000
v -0.500000 0.920000 1.000000
v 0.500000 0.920000 1.000000
v 0.500000 0.920000 1.250000
v -0.500000 0.920000 1.250000
v -0.500000 1.000000 1.000000
v 0.500000 1.000000 1.000000
v 0.500000 1.000000 1.250000
v -0.500000 1.000000 1.250000
v -0.500000 1.120000 1.250000
v 0.500000 1.120000 1.250000
v 0.500000 1.120000 1.500000
v -0.500000 1.120000 1.500000
v -0.500000 1.200000 1.250000
v 0.500000 1.200000 1.250000
v 0.500000 1.200000 1.500000
v -0.500000 1.200000 1.500000
v -0.500000 1.320000 1.500000
v 0.500000 1.320000 1.500000
v 0.500000 1.320000 1.750000
v -0.500000 1.320000 1.750000
v -0.500000 1.400000 1.500000
v 0.500000 1.400000 1.500000
v 0.500000 1.400000 1.750000
v -0.500000 1.400000 1.750000
v -0.500000 1.520000 1.750000
v 0.500000 1.520000 1.750000
v 0.500000 1.520000 2.000000
v -0.500000 1.520000 2.000000
v -0.500000 1.600000 1.750000
v 0.500000 1.600000 1.750000
v 0.500000 1.600000 2.000000
v -0.500000 1.600000 2.000000
v -0.500000 1.720000 2.000000
v 0.500000 1.720000 2.000000
v 0.500000 1.720000 2.250000
v -0.500000 1.720000 2.250000
v -0.500000 1.800000 2.000000
v 0.500000 1.800000 2.000000
v 0.500000 1.800000 2.250000
v -0.500000 1.800000 2.250000
v -0.500000 1.920000 2.250000
v 0.500000 1.920000 2.250000
v 0.500000 1.920000 2.500000
v -0.500000 1.920000 2.500000
v -0.500000 2.000000 2.250000
v 0.500000 2.000000 2.250000
v 0.500000 2.000000 2.500000
v -0.500000 2.000000 2.500000
v -0.500000 2.120000 2.500000
v 0.500000 2.120000 2.500000
v 0.500000 2.120000 2.750000
v -0.500000 2.120000 2.750000
v -0.500000 2.200000 2.500000
v 0.500000 2.200000 2.500000
v 0.500000 2.200000 2.750000
v -0.500000 2.200000 2.750000
v -0.500000 2.320000 2.750000
v 0.500000 2.320000 2.750000
v 0.500000 2.320000 3.000000
v -0.500000 2.320000 3.000000
v -0.500000 2.400000 2.750000
v 0.500000 2.400000 2.750000
v 0.500000 2.400000 3.000000
v -0.500000 2.400000 3.000000
v -0.500000 2.520000 3.000000
v 0.500000 2.520000 3.000000
v 0.500000 2.520000 3.250000
v -0.500000 2.520000 3.250000
v -0.500000 2.600000 3.000000
v 0.500000 2.600000 3.000000
v 0.500000 2.600000 3.250000
v -0.500000 2.600000 3.250000
f 1 2 3 4
f 8 7 6 5
f 1 5 6 2
f 2 6 7 3
f 3 7 8 4
f 4 8 5 1
f 9 10 11 12
f 16 15 14 13
f 9 13 14 10
f 10 14 15 11
f 11 15 16 12
f 12 16 13 9
f 17 18 19 20
f 24 23 22 21
f 17 21 22 18
f 18 22 23 19
f 19 23 24 20
f 20 24 21 17
f 25 26 27 28
f 32 31 30 29
f 25 29 30 26
f 26 30 31 27
f 27 31 32 28
f 28 32 29 25
f 33 34 35 36
f 40 39 38 37
f 33 37 38 34
f 34 38 39 35
f 35 39 40 36
f 36 40 37 33
f 41 42 43 44
f 48 47 46 45
f 41 45 46 42
f 42 46 47 43
f 43 47 48 44
f 44 48 45 41
f 49 50 51 52
f 56 55 54 53
f 49 53 54 50
f 50 54 55 51
f 51 55 56 52
f 52 56 53 49
f 57 58 59 60
f 64 63 62 61
f 57 61 62 58
f 58 62 63 59
f 59 63 64 60
f 60 64 61 57
f 65 66 67 68
f 72 71 70 69
f 65 69 70 66
f 66 70 71 67
f 67 71 72 68
f 68 72 69 65
f 73 74 75 76
f 80 79 78 77
f 73 77 78 74
f 74 78 79 75
f 75 79 80 76
f 76 80 77 73
f 81 82 83 84
f 88 87 86 85
f 81 85 86 82
f 82 86 87 83
f 83 87 88 84
f 84 88 85 81
f 89 90 91 92
f 96 95 94 93
f 89 93 94 90
f 90 94 95 91
f 91 95 96 92
f 92 96 93 89
f 97 98 99 100
f 104 103 102 101
f 97 101 102 98
f 98 102 103 99
f 99 103 104 100
f 100 104 101 97
