# Contract axes: X starboard Y up Z aft; metres
v 2.800000 -0.180000 0.000000
v 2.746199 -0.180000 0.351163
v 2.586863 -0.180000 0.688830
v 2.328115 -0.180000 1.000026
v 1.979899 -0.180000 1.272792
v 1.555597 -0.180000 1.496645
v 1.071514 -0.180000 1.662983
v 0.546253 -0.180000 1.765414
v 0.000000 -0.180000 1.800000
v -0.546253 -0.180000 1.765414
v -1.071514 -0.180000 1.662983
v -1.555597 -0.180000 1.496645
v -1.979899 -0.180000 1.272792
v -2.328115 -0.180000 1.000026
v -2.586863 -0.180000 0.688830
v -2.746199 -0.180000 0.351163
v -2.800000 -0.180000 0.000000
v 2.800000 0.000000 0.000000
v 2.746199 0.000000 0.351163
v 2.586863 0.000000 0.688830
v 2.328115 0.000000 1.000026
v 1.979899 0.000000 1.272792
v 1.555597 0.000000 1.496645
v 1.071514 0.000000 1.662983
v 0.546253 0.000000 1.765414
v 0.000000 0.000000 1.800000
v -0.546253 0.000000 1.765414
v -1.071514 0.000000 1.662983
v -1.555597 0.000000 1.496645
v -1.979899 0.000000 1.272792
v -2.328115 0.000000 1.000026
v -2.586863 0.000000 0.688830
v -2.746199 0.000000 0.351163
v -2.800000 0.000000 0.000000
f 1 2 3 4 5 6 7 8 9 10 11 12 13 14 15 16 17
f 34 33 32 31 30 29 28 27 26 25 24 23 22 21 20 19 18
f 1 18 19 2
f 2 19 20 3
f 3 20 21 4
f 4 21 22 5
f 5 22 23 6
f 6 23 24 7
f 7 24 25 8
f 8 25 26 9
f 9 26 27 10
f 10 27 28 11
f 11 28 29 12
f 12 29 30 13
f 13 30 31 14
f 14 31 32 15
f 15 32 33 16
f 16 33 34 17
f 17 34 18 1
