# Contract axes: X starboard Y up Z aft; metres
v 3.000000 2.600000 0.000000
v 3.000000 2.000000 0.000000
v 2.800000 1.000000 0.000000
v 2.000000 0.300000 0.000000
v 0.000000 0.000000 0.000000
v 0.000000 0.200000 0.000000
v 1.920000 0.500000 0.000000
v 2.600000 1.120000 0.000000
v 2.800000 2.000000 0.000000
v 2.800000 2.600000 0.000000
v 2.942356 2.600000 0.390181
v 2.942356 2.000000 0.390181
v 2.746199 1.000000 0.364169
v 1.961571 0.300000 0.260120
v 1.883108 0.500000 0.240797
v 2.550042 1.120000 0.326080
v 2.746199 2.000000 0.351163
v 2.746199 2.600000 0.351163
v 2.771639 2.600000 0.765367
v 2.771639 2.000000 0.765367
v 2.586863 1.000000 0.714342
v 1.847759 0.300000 0.510245
v 1.773849 0.500000 0.472341
v 2.402087 1.120000 0.639628
v 2.586863 2.000000 0.688830
v 2.586863 2.600000 0.688830
v 2.494409 2.600000 1.111140
v 2.494409 2.000000 1.111140
v 2.328115 1.000000 1.037064
v 1.662939 0.300000 0.740760
v 1.596422 0.500000 0.685732
v 2.161821 1.120000 0.928596
v 2.328115 2.000000 1.000026
v 2.328115 2.600000 1.000026
v 2.121320 2.600000 1.414214
v 2.121320 2.000000 1.414214
v 1.979899 1.000000 1.319933
v 1.414214 0.300000 0.942809
v 1.357645 0.500000 0.872772
v 1.838478 1.120000 1.181878
v 1.979899 2.000000 1.272792
v 1.979899 2.600000 1.272792
v 1.666711 2.600000 1.662939
v 1.666711 2.000000 1.662939
v 1.555597 1.000000 1.552077
v 1.111140 0.300000 1.108626
v 1.066695 0.500000 1.026271
v 1.444483 1.120000 1.389742
v 1.555597 2.000000 1.496645
v 1.555597 2.600000 1.496645
v 1.148050 2.600000 1.847759
v 1.148050 2.000000 1.847759
v 1.071514 1.000000 1.724575
v 0.765367 0.300000 1.231839
v 0.734752 0.500000 1.140331
v 0.994977 1.120000 1.544199
v 1.071514 2.000000 1.662983
v 1.071514 2.600000 1.662983
v 0.585271 2.600000 1.961571
v 0.585271 2.000000 1.961571
v 0.546253 1.000000 1.830799
v 0.390181 0.300000 1.307714
v 0.374573 0.500000 1.210569
v 0.507235 1.120000 1.639313
v 0.546253 2.000000 1.765414
v 0.546253 2.600000 1.765414
v 0.000000 2.600000 2.000000
v 0.000000 2.000000 2.000000
v 0.000000 1.000000 1.866667
v 0.000000 0.300000 1.333333
v 0.000000 0.500000 1.234286
v 0.000000 1.120000 1.671429
v 0.000000 2.000000 1.800000
v 0.000000 2.600000 1.800000
v -0.585271 2.600000 1.961571
v -0.585271 2.000000 1.961571
v -0.546253 1.000000 1.830799
v -0.390181 0.300000 1.307714
v -0.374573 0.500000 1.210569
v -0.507235 1.120000 1.639313
v -0.546253 2.000000 1.765414
v -0.546253 2.600000 1.765414
v -1.148050 2.600000 1.847759
v -1.148050 2.000000 1.847759
v -1.071514 1.000000 1.724575
v -0.765367 0.300000 1.231839
v -0.734752 0.500000 1.140331
v -0.994977 1.120000 1.544199
v -1.071514 2.000000 1.662983
v -1.071514 2.600000 1.662983
v -1.666711 2.600000 1.662939
v -1.666711 2.000000 1.662939
v -1.555597 1.000000 1.552077
v -1.111140 0.300000 1.108626
v -1.066695 0.500000 1.026271
v -1.444483 1.120000 1.389742
v -1.555597 2.000000 1.496645
v -1.555597 2.600000 1.496645
v -2.121320 2.600000 1.414214
v -2.121320 2.000000 1.414214
v -1.979899 1.000000 1.319933
v -1.414214 0.300000 0.942809
v -1.357645 0.500000 0.872772
v -1.838478 1.120000 1.181878
v -1.979899 2.000000 1.272792
v -1.979899 2.600000 1.272792
v -2.494409 2.600000 1.111140
v -2.494409 2.000000 1.111140
v -2.328115 1.000000 1.037064
v -1.662939 0.300000 0.740760
v -1.596422 0.500000 0.685732
v -2.161821 1.120000 0.928596
v -2.328115 2.000000 1.000026
v -2.328115 2.600000 1.000026
v -2.771639 2.600000 0.765367
v -2.771639 2.000000 0.765367
v -2.586863 1.000000 0.714342
v -1.847759 0.300000 0.510245
v -1.773849 0.500000 0.472341
v -2.402087 1.120000 0.639628
v -2.586863 2.000000 0.688830
v -2.586863 2.600000 0.688830
v -2.942356 2.600000 0.390181
v -2.942356 2.000000 0.390181
v -2.746199 1.000000 0.364169
v -1.961571 0.300000 0.260120
v -1.883108 0.500000 0.240797
v -2.550042 1.120000 0.326080
v -2.746199 2.000000 0.351163
v -2.746199 2.600000 0.351163
v -3.000000 2.600000 0.000000
v -3.000000 2.000000 0.000000
v -2.800000 1.000000 0.000000
v -2.000000 0.300000 0.000000
v -1.920000 0.500000 0.000000
v -2.600000 1.120000 0.000000
v -2.800000 2.000000 0.000000
v -2.800000 2.600000 0.000000
f 1 11 12 2
f 2 12 13 3
f 3 13 14 4
f 4 14 5
f 6 15 7
f 7 15 16 8
f 8 16 17 9
f 9 17 18 10
f 10 18 11 1
f 11 19 20 12
f 12 20 21 13
f 13 21 22 14
f 14 22 5
f 6 23 15
f 15 23 24 16
f 16 24 25 17
f 17 25 26 18
f 18 26 19 11
f 19 27 28 20
f 20 28 29 21
f 21 29 30 22
f 22 30 5
f 6 31 23
f 23 31 32 24
f 24 32 33 25
f 25 33 34 26
f 26 34 27 19
f 27 35 36 28
f 28 36 37 29
f 29 37 38 30
f 30 38 5
f 6 39 31
f 31 39 40 32
f 32 40 41 33
f 33 41 42 34
f 34 42 35 27
f 35 43 44 36
f 36 44 45 37
f 37 45 46 38
f 38 46 5
f 6 47 39
f 39 47 48 40
f 40 48 49 41
f 41 49 50 42
f 42 50 43 35
f 43 51 52 44
f 44 52 53 45
f 45 53 54 46
f 46 54 5
f 6 55 47
f 47 55 56 48
f 48 56 57 49
f 49 57 58 50
f 50 58 51 43
f 51 59 60 52
f 52 60 61 53
f 53 61 62 54
f 54 62 5
f 6 63 55
f 55 63 64 56
f 56 64 65 57
f 57 65 66 58
f 58 66 59 51
f 59 67 68 60
f 60 68 69 61
f 61 69 70 62
f 62 70 5
f 6 71 63
f 63 71 72 64
f 64 72 73 65
f 65 73 74 66
f 66 74 67 59
f 67 75 76 68
f 68 76 77 69
f 69 77 78 70
f 70 78 5
f 6 79 71
f 71 79 80 72
f 72 80 81 73
f 73 81 82 74
f 74 82 75 67
f 75 83 84 76
f 76 84 85 77
f 77 85 86 78
f 78 86 5
f 6 87 79
f 79 87 88 80
f 80 88 89 81
f 81 89 90 82
f 82 90 83 75
f 83 91 92 84
f 84 92 93 85
f 85 93 94 86
f 86 94 5
f 6 95 87
f 87 95 96 88
f 88 96 97 89
f 89 97 98 90
f 90 98 91 83
f 91 99 100 92
f 92 100 101 93
f 93 101 102 94
f 94 102 5
f 6 103 95
f 95 103 104 96
f 96 104 105 97
f 97 105 106 98
f 98 106 99 91
f 99 107 108 100
f 100 108 109 101
f 101 109 110 102
f 102 110 5
f 6 111 103
f 103 111 112 104
f 104 112 113 105
f 105 113 114 106
f 106 114 107 99
f 107 115 116 108
f 108 116 117 109
f 109 117 118 110
f 110 118 5
f 6 119 111
f 111 119 120 112
f 112 120 121 113
f 113 121 122 114
f 114 122 115 107
f 115 123 124 116
f 116 124 125 117
f 117 125 126 118
f 118 126 5
f 6 127 119
f 119 127 128 120
f 120 128 129 121
f 121 129 130 122
f 122 130 123 115
f 123 131 132 124
f 124 132 133 125
f 125 133 134 126
f 126 134 5
f 6 135 127
f 127 135 136 128
f 128 136 137 129
f 129 137 138 130
f 130 138 131 123
f 10 9 8 7 6 5 4 3 2 1
f 131 132 133 134 5 6 135 136 137 138
