# Contract axes: X starboard Y up Z aft; metres
v -0.150000 2.600000 0.000000
v -0.150000 2.000000 0.000000
v -0.140000 1.000000 0.000000
v -0.100000 0.300000 0.000000
v 0.000000 0.000000 0.000000
v 0.100000 0.300000 0.000000
v 0.140000 1.000000 0.000000
v 0.150000 2.000000 0.000000
v 0.150000 2.600000 0.000000
v 0.140000 2.600000 0.000000
v 0.140000 2.000000 0.000000
v 0.130000 1.120000 0.000000
v 0.096000 0.500000 0.000000
v 0.000000 0.200000 0.000000
v -0.096000 0.500000 0.000000
v -0.130000 1.120000 0.000000
v -0.140000 2.000000 0.000000
v -0.140000 2.600000 0.000000
v -1.050000 2.600000 1.000000
v -1.050000 2.000000 1.000000
v -0.980000 1.000000 1.000000
v -0.700000 0.300000 1.000000
v 0.000000 0.000000 1.000000
v 0.700000 0.300000 1.000000
v 0.980000 1.000000 1.000000
v 1.050000 2.000000 1.000000
v 1.050000 2.600000 1.000000
v 0.980000 2.600000 1.000000
v 0.980000 2.000000 1.000000
v 0.910000 1.120000 1.000000
v 0.672000 0.500000 1.000000
v 0.000000 0.200000 1.000000
v -0.672000 0.500000 1.000000
v -0.910000 1.120000 1.000000
v -0.980000 2.000000 1.000000
v -0.980000 2.600000 1.000000
v -2.100000 2.600000 2.000000
v -2.100000 2.000000 2.000000
v -1.960000 1.000000 2.000000
v -1.400000 0.300000 2.000000
v 0.000000 0.000000 2.000000
v 1.400000 0.300000 2.000000
v 1.960000 1.000000 2.000000
v 2.100000 2.000000 2.000000
v 2.100000 2.600000 2.000000
v 1.960000 2.600000 2.000000
v 1.960000 2.000000 2.000000
v 1.820000 1.120000 2.000000
v 1.344000 0.500000 2.000000
v 0.000000 0.200000 2.000000
v -1.344000 0.500000 2.000000
v -1.820000 1.120000 2.000000
v -1.960000 2.000000 2.000000
v -1.960000 2.600000 2.000000
v -3.000000 2.600000 4.000000
v -3.000000 2.000000 4.000000
v -2.800000 1.000000 4.000000
v -2.000000 0.300000 4.000000
v 0.000000 0.000000 4.000000
v 2.000000 0.300000 4.000000
v 2.800000 1.000000 4.000000
v 3.000000 2.000000 4.000000
v 3.000000 2.600000 4.000000
v 2.800000 2.600000 4.000000
v 2.800000 2.000000 4.000000
v 2.600000 1.120000 4.000000
v 1.920000 0.500000 4.000000
v 0.000000 0.200000 4.000000
v -1.920000 0.500000 4.000000
v -2.600000 1.120000 4.000000
v -2.800000 2.000000 4.000000
v -2.800000 2.600000 4.000000
v -0.140000 2.600000 0.000000
v -0.140000 2.000000 0.000000
v -0.130000 1.120000 0.000000
v -0.096000 0.500000 0.000000
v 0.000000 0.200000 0.000000
v 0.096000 0.500000 0.000000
v 0.130000 1.120000 0.000000
v 0.140000 2.000000 0.000000
v 0.140000 2.600000 0.000000
v -0.140000 2.600000 0.080000
v -0.140000 2.000000 0.080000
v -0.130000 1.120000 0.080000
v -0.096000 0.500000 0.080000
v 0.000000 0.200000 0.080000
v 0.096000 0.500000 0.080000
v 0.130000 1.120000 0.080000
v 0.140000 2.000000 0.080000
v 0.140000 2.600000 0.080000
v -3.000000 2.600000 4.000000
v -3.000000 2.000000 4.000000
v -2.800000 1.000000 4.000000
v -2.000000 0.300000 4.000000
v 0.000000 0.000000 4.000000
v 2.000000 0.300000 4.000000
v 2.800000 1.000000 4.000000
v 3.000000 2.000000 4.000000
v 3.000000 2.600000 4.000000
v 2.800000 2.600000 4.000000
v 2.800000 2.000000 4.000000
v 2.600000 1.120000 4.000000
v 1.920000 0.500000 4.000000
v 0.000000 0.200000 4.000000
v -1.920000 0.500000 4.000000
v -2.600000 1.120000 4.000000
v -2.800000 2.000000 4.000000
v -2.800000 2.600000 4.000000
v -3.000000 2.600000 6.000000
v -3.000000 2.000000 6.000000
v -2.800000 1.000000 6.000000
v -2.000000 0.300000 6.000000
v 0.000000 0.000000 6.000000
v 2.000000 0.300000 6.000000
v 2.800000 1.000000 6.000000
v 3.000000 2.000000 6.000000
v 3.000000 2.600000 6.000000
v 2.800000 2.600000 6.000000
v 2.800000 2.000000 6.000000
v 2.600000 1.120000 6.000000
v 1.920000 0.500000 6.000000
v 0.000000 0.200000 6.000000
v -1.920000 0.500000 6.000000
v -2.600000 1.120000 6.000000
v -2.800000 2.000000 6.000000
v -2.800000 2.600000 6.000000
v -3.000000 2.600000 6.000000
v -3.000000 2.000000 6.000000
v -2.800000 1.000000 6.000000
v -2.000000 0.300000 6.000000
v 0.000000 0.000000 6.000000
v 2.000000 0.300000 6.000000
v 2.800000 1.000000 6.000000
v 3.000000 2.000000 6.000000
v 3.000000 2.600000 6.000000
v 2.800000 2.600000 6.000000
v 2.800000 2.000000 6.000000
v 2.600000 1.120000 6.000000
v 1.920000 0.500000 6.000000
v 0.000000 0.200000 6.000000
v -1.920000 0.500000 6.000000
v -2.600000 1.120000 6.000000
v -2.800000 2.000000 6.000000
v -2.800000 2.600000 6.000000
v -3.000000 2.600000 8.000000
v -3.000000 2.000000 8.000000
v -2.800000 1.000000 8.000000
v -2.000000 0.300000 8.000000
v 0.000000 0.000000 8.000000
v 2.000000 0.300000 8.000000
v 2.800000 1.000000 8.000000
v 3.000000 2.000000 8.000000
v 3.000000 2.600000 8.000000
v 2.800000 2.600000 8.000000
v 2.800000 2.000000 8.000000
v 2.600000 1.120000 8.000000
v 1.920000 0.500000 8.000000
v 0.000000 0.200000 8.000000
v -1.920000 0.500000 8.000000
v -2.600000 1.120000 8.000000
v -2.800000 2.000000 8.000000
v -2.800000 2.600000 8.000000
v -3.000000 2.600000 8.000000
v -3.000000 2.000000 8.000000
v -2.800000 1.000000 8.000000
v -2.000000 0.300000 8.000000
v 0.000000 0.000000 8.000000
v 2.000000 0.300000 8.000000
v 2.800000 1.000000 8.000000
v 3.000000 2.000000 8.000000
v 3.000000 2.600000 8.000000
v 2.800000 2.600000 8.000000
v 2.800000 2.000000 8.000000
v 2.600000 1.120000 8.000000
v 1.920000 0.500000 8.000000
v 0.000000 0.200000 8.000000
v -1.920000 0.500000 8.000000
v -2.600000 1.120000 8.000000
v -2.800000 2.000000 8.000000
v -2.800000 2.600000 8.000000
v -3.000000 2.600000 10.000000
v -3.000000 2.000000 10.000000
v -2.800000 1.000000 10.000000
v -2.000000 0.300000 10.000000
v 0.000000 0.000000 10.000000
v 2.000000 0.300000 10.000000
v 2.800000 1.000000 10.000000
v 3.000000 2.000000 10.000000
v 3.000000 2.600000 10.000000
v 2.800000 2.600000 10.000000
v 2.800000 2.000000 10.000000
v 2.600000 1.120000 10.000000
v 1.920000 0.500000 10.000000
v 0.000000 0.200000 10.000000
v -1.920000 0.500000 10.000000
v -2.600000 1.120000 10.000000
v -2.800000 2.000000 10.000000
v -2.800000 2.600000 10.000000
v -3.000000 2.600000 10.000000
v -3.000000 2.000000 10.000000
v -2.800000 1.000000 10.000000
v -2.000000 0.300000 10.000000
v 0.000000 0.000000 10.000000
v 2.000000 0.300000 10.000000
v 2.800000 1.000000 10.000000
v 3.000000 2.000000 10.000000
v 3.000000 2.600000 10.000000
v 2.800000 2.600000 10.000000
v 2.800000 2.000000 10.000000
v 2.600000 1.120000 10.000000
v 1.920000 0.500000 10.000000
v 0.000000 0.200000 10.000000
v -1.920000 0.500000 10.000000
v -2.600000 1.120000 10.000000
v -2.800000 2.000000 10.000000
v -2.800000 2.600000 10.000000
v -3.000000 2.600000 12.000000
v -3.000000 2.000000 12.000000
v -2.800000 1.000000 12.000000
v -2.000000 0.300000 12.000000
v 0.000000 0.000000 12.000000
v 2.000000 0.300000 12.000000
v 2.800000 1.000000 12.000000
v 3.000000 2.000000 12.000000
v 3.000000 2.600000 12.000000
v 2.800000 2.600000 12.000000
v 2.800000 2.000000 12.000000
v 2.600000 1.120000 12.000000
v 1.920000 0.500000 12.000000
v 0.000000 0.200000 12.000000
v -1.920000 0.500000 12.000000
v -2.600000 1.120000 12.000000
v -2.800000 2.000000 12.000000
v -2.800000 2.600000 12.000000
v 3.000000 2.600000 12.000000
v 3.000000 2.000000 12.000000
v 2.800000 1.000000 12.000000
v 2.000000 0.300000 12.000000
v 0.000000 0.000000 12.000000
v 0.000000 0.200000 12.000000
v 1.920000 0.500000 12.000000
v 2.600000 1.120000 12.000000
v 2.800000 2.000000 12.000000
v 2.800000 2.600000 12.000000
v 2.942356 2.600000 12.390181
v 2.942356 2.000000 12.390181
v 2.746199 1.000000 12.364169
v 1.961571 0.300000 12.260120
v 1.883108 0.500000 12.240797
v 2.550042 1.120000 12.326080
v 2.746199 2.000000 12.351163
v 2.746199 2.600000 12.351163
v 2.771639 2.600000 12.765367
v 2.771639 2.000000 12.765367
v 2.586863 1.000000 12.714342
v 1.847759 0.300000 12.510245
v 1.773849 0.500000 12.472341
v 2.402087 1.120000 12.639628
v 2.586863 2.000000 12.688830
v 2.586863 2.600000 12.688830
v 2.494409 2.600000 13.111140
v 2.494409 2.000000 13.111140
v 2.328115 1.000000 13.037064
v 1.662939 0.300000 12.740760
v 1.596422 0.500000 12.685732
v 2.161821 1.120000 12.928596
v 2.328115 2.000000 13.000026
v 2.328115 2.600000 13.000026
v 2.121320 2.600000 13.414214
v 2.121320 2.000000 13.414214
v 1.979899 1.000000 13.319933
v 1.414214 0.300000 12.942809
v 1.357645 0.500000 12.872772
v 1.838478 1.120000 13.181878
v 1.979899 2.000000 13.272792
v 1.979899 2.600000 13.272792
v 1.666711 2.600000 13.662939
v 1.666711 2.000000 13.662939
v 1.555597 1.000000 13.552077
v 1.111140 0.300000 13.108626
v 1.066695 0.500000 13.026271
v 1.444483 1.120000 13.389742
v 1.555597 2.000000 13.496645
v 1.555597 2.600000 13.496645
v 1.148050 2.600000 13.847759
v 1.148050 2.000000 13.847759
v 1.071514 1.000000 13.724575
v 0.765367 0.300000 13.231839
v 0.734752 0.500000 13.140331
v 0.994977 1.120000 13.544199
v 1.071514 2.000000 13.662983
v 1.071514 2.600000 13.662983
v 0.585271 2.600000 13.961571
v 0.585271 2.000000 13.961571
v 0.546253 1.000000 13.830799
v 0.390181 0.300000 13.307714
v 0.374573 0.500000 13.210569
v 0.507235 1.120000 13.639313
v 0.546253 2.000000 13.765414
v 0.546253 2.600000 13.765414
v 0.000000 2.600000 14.000000
v 0.000000 2.000000 14.000000
v 0.000000 1.000000 13.866667
v 0.000000 0.300000 13.333333
v 0.000000 0.500000 13.234286
v 0.000000 1.120000 13.671429
v 0.000000 2.000000 13.800000
v 0.000000 2.600000 13.800000
v -0.585271 2.600000 13.961571
v -0.585271 2.000000 13.961571
v -0.546253 1.000000 13.830799
v -0.390181 0.300000 13.307714
v -0.374573 0.500000 13.210569
v -0.507235 1.120000 13.639313
v -0.546253 2.000000 13.765414
v -0.546253 2.600000 13.765414
v -1.148050 2.600000 13.847759
v -1.148050 2.000000 13.847759
v -1.071514 1.000000 13.724575
v -0.765367 0.300000 13.231839
v -0.734752 0.500000 13.140331
v -0.994977 1.120000 13.544199
v -1.071514 2.000000 13.662983
v -1.071514 2.600000 13.662983
v -1.666711 2.600000 13.662939
v -1.666711 2.000000 13.662939
v -1.555597 1.000000 13.552077
v -1.111140 0.300000 13.108626
v -1.066695 0.500000 13.026271
v -1.444483 1.120000 13.389742
v -1.555597 2.000000 13.496645
v -1.555597 2.600000 13.496645
v -2.121320 2.600000 13.414214
v -2.121320 2.000000 13.414214
v -1.979899 1.000000 13.319933
v -1.414214 0.300000 12.942809
v -1.357645 0.500000 12.872772
v -1.838478 1.120000 13.181878
v -1.979899 2.000000 13.272792
v -1.979899 2.600000 13.272792
v -2.494409 2.600000 13.111140
v -2.494409 2.000000 13.111140
v -2.328115 1.000000 13.037064
v -1.662939 0.300000 12.740760
v -1.596422 0.500000 12.685732
v -2.161821 1.120000 12.928596
v -2.328115 2.000000 13.000026
v -2.328115 2.600000 13.000026
v -2.771639 2.600000 12.765367
v -2.771639 2.000000 12.765367
v -2.586863 1.000000 12.714342
v -1.847759 0.300000 12.510245
v -1.773849 0.500000 12.472341
v -2.402087 1.120000 12.639628
v -2.586863 2.000000 12.688830
v -2.586863 2.600000 12.688830
v -2.942356 2.600000 12.390181
v -2.942356 2.000000 12.390181
v -2.746199 1.000000 12.364169
v -1.961571 0.300000 12.260120
v -1.883108 0.500000 12.240797
v -2.550042 1.120000 12.326080
v -2.746199 2.000000 12.351163
v -2.746199 2.600000 12.351163
v -3.000000 2.600000 12.000000
v -3.000000 2.000000 12.000000
v -2.800000 1.000000 12.000000
v -2.000000 0.300000 12.000000
v -1.920000 0.500000 12.000000
v -2.600000 1.120000 12.000000
v -2.800000 2.000000 12.000000
v -2.800000 2.600000 12.000000
v -0.207200 2.420000 0.080000
v 0.207200 2.420000 0.080000
v 0.980000 2.420000 1.000000
v -0.980000 2.420000 1.000000
v -0.207200 2.600000 0.080000
v 0.207200 2.600000 0.080000
v 0.980000 2.600000 1.000000
v -0.980000 2.600000 1.000000
v -0.980000 2.420000 1.000000
v 0.980000 2.420000 1.000000
v 1.960000 2.420000 2.000000
v -1.960000 2.420000 2.000000
v -0.980000 2.600000 1.000000
v 0.980000 2.600000 1.000000
v 1.960000 2.600000 2.000000
v -1.960000 2.600000 2.000000
v -1.960000 2.420000 2.000000
v 1.960000 2.420000 2.000000
v 2.800000 2.420000 4.000000
v -2.800000 2.420000 4.000000
v -1.960000 2.600000 2.000000
v 1.960000 2.600000 2.000000
v 2.800000 2.600000 4.000000
v -2.800000 2.600000 4.000000
v -0.980000 2.600000 1.000000
v -1.050000 2.600000 1.000000
v -0.150000 2.600000 0.000000
v -0.140000 2.600000 0.000000
v -0.980000 5.200000 1.000000
v -1.050000 5.200000 1.000000
v -0.150000 5.200000 0.000000
v -0.140000 5.200000 0.000000
v -1.960000 2.600000 2.000000
v -2.100000 2.600000 2.000000
v -1.050000 2.600000 1.000000
v -0.980000 2.600000 1.000000
v -1.960000 5.200000 2.000000
v -2.100000 5.200000 2.000000
v -1.050000 5.200000 1.000000
v -0.980000 5.200000 1.000000
v -2.800000 2.600000 4.000000
v -3.000000 2.600000 4.000000
v -2.100000 2.600000 2.000000
v -1.960000 2.600000 2.000000
v -2.800000 5.200000 4.000000
v -3.000000 5.200000 4.000000
v -2.100000 5.200000 2.000000
v -1.960000 5.200000 2.000000
v 0.140000 2.600000 0.000000
v 0.150000 2.600000 0.000000
v 1.050000 2.600000 1.000000
v 0.980000 2.600000 1.000000
v 0.140000 5.200000 0.000000
v 0.150000 5.200000 0.000000
v 1.050000 5.200000 1.000000
v 0.980000 5.200000 1.000000
v 0.980000 2.600000 1.000000
v 1.050000 2.600000 1.000000
v 2.100000 2.600000 2.000000
v 1.960000 2.600000 2.000000
v 0.980000 5.200000 1.000000
v 1.050000 5.200000 1.000000
v 2.100000 5.200000 2.000000
v 1.960000 5.200000 2.000000
v 1.960000 2.600000 2.000000
v 2.100000 2.600000 2.000000
v 3.000000 2.600000 4.000000
v 2.800000 2.600000 4.000000
v 1.960000 5.200000 2.000000
v 2.100000 5.200000 2.000000
v 3.000000 5.200000 4.000000
v 2.800000 5.200000 4.000000
v -0.140000 2.600000 0.000000
v 0.140000 2.600000 0.000000
v 0.140000 2.600000 0.080000
v -0.140000 2.600000 0.080000
v -0.140000 5.200000 0.000000
v 0.140000 5.200000 0.000000
v 0.140000 5.200000 0.080000
v -0.140000 5.200000 0.080000
v -2.800000 2.420000 4.000000
v 2.800000 2.420000 4.000000
v 2.800000 2.420000 6.000000
v -2.800000 2.420000 6.000000
v -2.800000 2.600000 4.000000
v 2.800000 2.600000 4.000000
v 2.800000 2.600000 6.000000
v -2.800000 2.600000 6.000000
v -3.000000 2.600000 4.000000
v -2.800000 2.600000 4.000000
v -2.800000 2.600000 6.000000
v -3.000000 2.600000 6.000000
v -3.000000 3.400000 4.000000
v -2.800000 3.400000 4.000000
v -2.800000 3.400000 6.000000
v -3.000000 3.400000 6.000000
v -3.000000 4.200000 4.000000
v -2.800000 4.200000 4.000000
v -2.800000 4.200000 6.000000
v -3.000000 4.200000 6.000000
v -3.000000 5.200000 4.000000
v -2.800000 5.200000 4.000000
v -2.800000 5.200000 6.000000
v -3.000000 5.200000 6.000000
v -3.000000 3.400000 4.000000
v -2.800000 3.400000 4.000000
v -2.800000 3.400000 4.500000
v -3.000000 3.400000 4.500000
v -3.000000 4.200000 4.000000
v -2.800000 4.200000 4.000000
v -2.800000 4.200000 4.500000
v -3.000000 4.200000 4.500000
v -3.000000 3.400000 5.500000
v -2.800000 3.400000 5.500000
v -2.800000 3.400000 6.000000
v -3.000000 3.400000 6.000000
v -3.000000 4.200000 5.500000
v -2.800000 4.200000 5.500000
v -2.800000 4.200000 6.000000
v -3.000000 4.200000 6.000000
v 2.800000 2.600000 4.000000
v 3.000000 2.600000 4.000000
v 3.000000 2.600000 6.000000
v 2.800000 2.600000 6.000000
v 2.800000 3.400000 4.000000
v 3.000000 3.400000 4.000000
v 3.000000 3.400000 6.000000
v 2.800000 3.400000 6.000000
v 2.800000 4.200000 4.000000
v 3.000000 4.200000 4.000000
v 3.000000 4.200000 6.000000
v 2.800000 4.200000 6.000000
v 2.800000 5.200000 4.000000
v 3.000000 5.200000 4.000000
v 3.000000 5.200000 6.000000
v 2.800000 5.200000 6.000000
v 2.800000 3.400000 4.000000
v 3.000000 3.400000 4.000000
v 3.000000 3.400000 4.500000
v 2.800000 3.400000 4.500000
v 2.800000 4.200000 4.000000
v 3.000000 4.200000 4.000000
v 3.000000 4.200000 4.500000
v 2.800000 4.200000 4.500000
v 2.800000 3.400000 5.500000
v 3.000000 3.400000 5.500000
v 3.000000 3.400000 6.000000
v 2.800000 3.400000 6.000000
v 2.800000 4.200000 5.500000
v 3.000000 4.200000 5.500000
v 3.000000 4.200000 6.000000
v 2.800000 4.200000 6.000000
v -2.800000 2.420000 6.000000
v 2.800000 2.420000 6.000000
v 2.800000 2.420000 8.000000
v -2.800000 2.420000 8.000000
v -2.800000 2.600000 6.000000
v 2.800000 2.600000 6.000000
v 2.800000 2.600000 8.000000
v -2.800000 2.600000 8.000000
v -3.000000 2.600000 6.000000
v -2.800000 2.600000 6.000000
v -2.800000 2.600000 8.000000
v -3.000000 2.600000 8.000000
v -3.000000 3.400000 6.000000
v -2.800000 3.400000 6.000000
v -2.800000 3.400000 8.000000
v -3.000000 3.400000 8.000000
v -3.000000 4.200000 6.000000
v -2.800000 4.200000 6.000000
v -2.800000 4.200000 8.000000
v -3.000000 4.200000 8.000000
v -3.000000 5.200000 6.000000
v -2.800000 5.200000 6.000000
v -2.800000 5.200000 8.000000
v -3.000000 5.200000 8.000000
v -3.000000 3.400000 6.000000
v -2.800000 3.400000 6.000000
v -2.800000 3.400000 6.500000
v -3.000000 3.400000 6.500000
v -3.000000 4.200000 6.000000
v -2.800000 4.200000 6.000000
v -2.800000 4.200000 6.500000
v -3.000000 4.200000 6.500000
v -3.000000 3.400000 7.500000
v -2.800000 3.400000 7.500000
v -2.800000 3.400000 8.000000
v -3.000000 3.400000 8.000000
v -3.000000 4.200000 7.500000
v -2.800000 4.200000 7.500000
v -2.800000 4.200000 8.000000
v -3.000000 4.200000 8.000000
v 2.800000 2.600000 6.000000
v 3.000000 2.600000 6.000000
v 3.000000 2.600000 8.000000
v 2.800000 2.600000 8.000000
v 2.800000 3.400000 6.000000
v 3.000000 3.400000 6.000000
v 3.000000 3.400000 8.000000
v 2.800000 3.400000 8.000000
v 2.800000 4.200000 6.000000
v 3.000000 4.200000 6.000000
v 3.000000 4.200000 8.000000
v 2.800000 4.200000 8.000000
v 2.800000 5.200000 6.000000
v 3.000000 5.200000 6.000000
v 3.000000 5.200000 8.000000
v 2.800000 5.200000 8.000000
v 2.800000 3.400000 6.000000
v 3.000000 3.400000 6.000000
v 3.000000 3.400000 6.500000
v 2.800000 3.400000 6.500000
v 2.800000 4.200000 6.000000
v 3.000000 4.200000 6.000000
v 3.000000 4.200000 6.500000
v 2.800000 4.200000 6.500000
v 2.800000 3.400000 7.500000
v 3.000000 3.400000 7.500000
v 3.000000 3.400000 8.000000
v 2.800000 3.400000 8.000000
v 2.800000 4.200000 7.500000
v 3.000000 4.200000 7.500000
v 3.000000 4.200000 8.000000
v 2.800000 4.200000 8.000000
v -2.800000 2.420000 8.000000
v 2.800000 2.420000 8.000000
v 2.800000 2.420000 10.000000
v -2.800000 2.420000 10.000000
v -2.800000 2.600000 8.000000
v 2.800000 2.600000 8.000000
v 2.800000 2.600000 10.000000
v -2.800000 2.600000 10.000000
v -3.000000 2.600000 8.000000
v -2.800000 2.600000 8.000000
v -2.800000 2.600000 10.000000
v -3.000000 2.600000 10.000000
v -3.000000 3.400000 8.000000
v -2.800000 3.400000 8.000000
v -2.800000 3.400000 10.000000
v -3.000000 3.400000 10.000000
v -3.000000 4.200000 8.000000
v -2.800000 4.200000 8.000000
v -2.800000 4.200000 10.000000
v -3.000000 4.200000 10.000000
v -3.000000 5.200000 8.000000
v -2.800000 5.200000 8.000000
v -2.800000 5.200000 10.000000
v -3.000000 5.200000 10.000000
v -3.000000 3.400000 8.000000
v -2.800000 3.400000 8.000000
v -2.800000 3.400000 8.500000
v -3.000000 3.400000 8.500000
v -3.000000 4.200000 8.000000
v -2.800000 4.200000 8.000000
v -2.800000 4.200000 8.500000
v -3.000000 4.200000 8.500000
v -3.000000 3.400000 9.500000
v -2.800000 3.400000 9.500000
v -2.800000 3.400000 10.000000
v -3.000000 3.400000 10.000000
v -3.000000 4.200000 9.500000
v -2.800000 4.200000 9.500000
v -2.800000 4.200000 10.000000
v -3.000000 4.200000 10.000000
v 2.800000 2.600000 8.000000
v 3.000000 2.600000 8.000000
v 3.000000 2.600000 10.000000
v 2.800000 2.600000 10.000000
v 2.800000 3.400000 8.000000
v 3.000000 3.400000 8.000000
v 3.000000 3.400000 10.000000
v 2.800000 3.400000 10.000000
v 2.800000 4.200000 8.000000
v 3.000000 4.200000 8.000000
v 3.000000 4.200000 10.000000
v 2.800000 4.200000 10.000000
v 2.800000 5.200000 8.000000
v 3.000000 5.200000 8.000000
v 3.000000 5.200000 10.000000
v 2.800000 5.200000 10.000000
v 2.800000 3.400000 8.000000
v 3.000000 3.400000 8.000000
v 3.000000 3.400000 8.500000
v 2.800000 3.400000 8.500000
v 2.800000 4.200000 8.000000
v 3.000000 4.200000 8.000000
v 3.000000 4.200000 8.500000
v 2.800000 4.200000 8.500000
v 2.800000 3.400000 9.500000
v 3.000000 3.400000 9.500000
v 3.000000 3.400000 10.000000
v 2.800000 3.400000 10.000000
v 2.800000 4.200000 9.500000
v 3.000000 4.200000 9.500000
v 3.000000 4.200000 10.000000
v 2.800000 4.200000 10.000000
v -2.800000 2.420000 10.000000
v 2.800000 2.420000 10.000000
v 2.800000 2.420000 12.000000
v -2.800000 2.420000 12.000000
v -2.800000 2.600000 10.000000
v 2.800000 2.600000 10.000000
v 2.800000 2.600000 12.000000
v -2.800000 2.600000 12.000000
v -3.000000 2.600000 10.000000
v -2.800000 2.600000 10.000000
v -2.800000 2.600000 12.000000
v -3.000000 2.600000 12.000000
v -3.000000 3.400000 10.000000
v -2.800000 3.400000 10.000000
v -2.800000 3.400000 12.000000
v -3.000000 3.400000 12.000000
v -3.000000 4.200000 10.000000
v -2.800000 4.200000 10.000000
v -2.800000 4.200000 12.000000
v -3.000000 4.200000 12.000000
v -3.000000 5.200000 10.000000
v -2.800000 5.200000 10.000000
v -2.800000 5.200000 12.000000
v -3.000000 5.200000 12.000000
v -3.000000 3.400000 10.000000
v -2.800000 3.400000 10.000000
v -2.800000 3.400000 10.500000
v -3.000000 3.400000 10.500000
v -3.000000 4.200000 10.000000
v -2.800000 4.200000 10.000000
v -2.800000 4.200000 10.500000
v -3.000000 4.200000 10.500000
v -3.000000 3.400000 11.500000
v -2.800000 3.400000 11.500000
v -2.800000 3.400000 12.000000
v -3.000000 3.400000 12.000000
v -3.000000 4.200000 11.500000
v -2.800000 4.200000 11.500000
v -2.800000 4.200000 12.000000
v -3.000000 4.200000 12.000000
v 2.800000 2.600000 10.000000
v 3.000000 2.600000 10.000000
v 3.000000 2.600000 12.000000
v 2.800000 2.600000 12.000000
v 2.800000 3.400000 10.000000
v 3.000000 3.400000 10.000000
v 3.000000 3.400000 12.000000
v 2.800000 3.400000 12.000000
v 2.800000 4.200000 10.000000
v 3.000000 4.200000 10.000000
v 3.000000 4.200000 12.000000
v 2.800000 4.200000 12.000000
v 2.800000 5.200000 10.000000
v 3.000000 5.200000 10.000000
v 3.000000 5.200000 12.000000
v 2.800000 5.200000 12.000000
v 2.800000 3.400000 10.000000
v 3.000000 3.400000 10.000000
v 3.000000 3.400000 10.500000
v 2.800000 3.400000 10.500000
v 2.800000 4.200000 10.000000
v 3.000000 4.200000 10.000000
v 3.000000 4.200000 10.500000
v 2.800000 4.200000 10.500000
v 2.800000 3.400000 11.500000
v 3.000000 3.400000 11.500000
v 3.000000 3.400000 12.000000
v 2.800000 3.400000 12.000000
v 2.800000 4.200000 11.500000
v 3.000000 4.200000 11.500000
v 3.000000 4.200000 12.000000
v 2.800000 4.200000 12.000000
v 2.800000 2.420000 12.000000
v 2.746199 2.420000 12.351163
v 2.586863 2.420000 12.688830
v 2.328115 2.420000 13.000026
v 1.979899 2.420000 13.272792
v 1.555597 2.420000 13.496645
v 1.071514 2.420000 13.662983
v 0.546253 2.420000 13.765414
v 0.000000 2.420000 13.800000
v -0.546253 2.420000 13.765414
v -1.071514 2.420000 13.662983
v -1.555597 2.420000 13.496645
v -1.979899 2.420000 13.272792
v -2.328115 2.420000 13.000026
v -2.586863 2.420000 12.688830
v -2.746199 2.420000 12.351163
v -2.800000 2.420000 12.000000
v 2.800000 2.600000 12.000000
v 2.746199 2.600000 12.351163
v 2.586863 2.600000 12.688830
v 2.328115 2.600000 13.000026
v 1.979899 2.600000 13.272792
v 1.555597 2.600000 13.496645
v 1.071514 2.600000 13.662983
v 0.546253 2.600000 13.765414
v 0.000000 2.600000 13.800000
v -0.546253 2.600000 13.765414
v -1.071514 2.600000 13.662983
v -1.555597 2.600000 13.496645
v -1.979899 2.600000 13.272792
v -2.328115 2.600000 13.000026
v -2.586863 2.600000 12.688830
v -2.746199 2.600000 12.351163
v -2.800000 2.600000 12.000000
v 3.000000 2.600000 12.000000
v 2.942356 2.600000 12.390181
v 2.746199 2.600000 12.351163
v 2.800000 2.600000 12.000000
v 3.000000 5.200000 12.000000
v 2.942356 5.200000 12.390181
v 2.746199 5.200000 12.351163
v 2.800000 5.200000 12.000000
v 2.942356 2.600000 12.390181
v 2.771639 2.600000 12.765367
v 2.586863 2.600000 12.688830
v 2.746199 2.600000 12.351163
v 2.942356 5.200000 12.390181
v 2.771639 5.200000 12.765367
v 2.586863 5.200000 12.688830
v 2.746199 5.200000 12.351163
v 2.771639 2.600000 12.765367
v 2.494409 2.600000 13.111140
v 2.328115 2.600000 13.000026
v 2.586863 2.600000 12.688830
v 2.771639 5.200000 12.765367
v 2.494409 5.200000 13.111140
v 2.328115 5.200000 13.000026
v 2.586863 5.200000 12.688830
v 2.494409 2.600000 13.111140
v 2.121320 2.600000 13.414214
v 1.979899 2.600000 13.272792
v 2.328115 2.600000 13.000026
v 2.494409 5.200000 13.111140
v 2.121320 5.200000 13.414214
v 1.979899 5.200000 13.272792
v 2.328115 5.200000 13.000026
v 2.121320 2.600000 13.414214
v 1.666711 2.600000 13.662939
v 1.555597 2.600000 13.496645
v 1.979899 2.600000 13.272792
v 2.121320 5.200000 13.414214
v 1.666711 5.200000 13.662939
v 1.555597 5.200000 13.496645
v 1.979899 5.200000 13.272792
v 1.666711 2.600000 13.662939
v 1.148050 2.600000 13.847759
v 1.071514 2.600000 13.662983
v 1.555597 2.600000 13.496645
v 1.666711 5.200000 13.662939
v 1.148050 5.200000 13.847759
v 1.071514 5.200000 13.662983
v 1.555597 5.200000 13.496645
v 1.148050 2.600000 13.847759
v 0.585271 2.600000 13.961571
v 0.546253 2.600000 13.765414
v 1.071514 2.600000 13.662983
v 1.148050 5.200000 13.847759
v 0.585271 5.200000 13.961571
v 0.546253 5.200000 13.765414
v 1.071514 5.200000 13.662983
v 0.585271 2.600000 13.961571
v 0.000000 2.600000 14.000000
v 0.000000 2.600000 13.800000
v 0.546253 2.600000 13.765414
v 0.585271 5.200000 13.961571
v 0.000000 5.200000 14.000000
v 0.000000 5.200000 13.800000
v 0.546253 5.200000 13.765414
v 0.000000 2.600000 14.000000
v -0.585271 2.600000 13.961571
v -0.546253 2.600000 13.765414
v 0.000000 2.600000 13.800000
v 0.000000 5.200000 14.000000
v -0.585271 5.200000 13.961571
v -0.546253 5.200000 13.765414
v 0.000000 5.200000 13.800000
v -0.585271 2.600000 13.961571
v -1.148050 2.600000 13.847759
v -1.071514 2.600000 13.662983
v -0.546253 2.600000 13.765414
v -0.585271 5.200000 13.961571
v -1.148050 5.200000 13.847759
v -1.071514 5.200000 13.662983
v -0.546253 5.200000 13.765414
v -1.148050 2.600000 13.847759
v -1.666711 2.600000 13.662939
v -1.555597 2.600000 13.496645
v -1.071514 2.600000 13.662983
v -1.148050 5.200000 13.847759
v -1.666711 5.200000 13.662939
v -1.555597 5.200000 13.496645
v -1.071514 5.200000 13.662983
v -1.666711 2.600000 13.662939
v -2.121320 2.600000 13.414214
v -1.979899 2.600000 13.272792
v -1.555597 2.600000 13.496645
v -1.666711 5.200000 13.662939
v -2.121320 5.200000 13.414214
v -1.979899 5.200000 13.272792
v -1.555597 5.200000 13.496645
v -2.121320 2.600000 13.414214
v -2.494409 2.600000 13.111140
v -2.328115 2.600000 13.000026
v -1.979899 2.600000 13.272792
v -2.121320 5.200000 13.414214
v -2.494409 5.200000 13.111140
v -2.328115 5.200000 13.000026
v -1.979899 5.200000 13.272792
v -2.494409 2.600000 13.111140
v -2.771639 2.600000 12.765367
v -2.586863 2.600000 12.688830
v -2.328115 2.600000 13.000026
v -2.494409 5.200000 13.111140
v -2.771639 5.200000 12.765367
v -2.586863 5.200000 12.688830
v -2.328115 5.200000 13.000026
v -2.771639 2.600000 12.765367
v -2.942356 2.600000 12.390181
v -2.746199 2.600000 12.351163
v -2.586863 2.600000 12.688830
v -2.771639 5.200000 12.765367
v -2.942356 5.200000 12.390181
v -2.746199 5.200000 12.351163
v -2.586863 5.200000 12.688830
v -2.942356 2.600000 12.390181
v -3.000000 2.600000 12.000000
v -2.800000 2.600000 12.000000
v -2.746199 2.600000 12.351163
v -2.942356 5.200000 12.390181
v -3.000000 5.200000 12.000000
v -2.800000 5.200000 12.000000
v -2.746199 5.200000 12.351163
v -0.207200 5.020000 0.080000
v 0.207200 5.020000 0.080000
v 0.980000 5.020000 1.000000
v -0.980000 5.020000 1.000000
v -0.207200 5.200000 0.080000
v 0.207200 5.200000 0.080000
v 0.980000 5.200000 1.000000
v -0.980000 5.200000 1.000000
v -0.980000 5.020000 1.000000
v 0.980000 5.020000 1.000000
v 1.960000 5.020000 2.000000
v -1.960000 5.020000 2.000000
v -0.980000 5.200000 1.000000
v 0.980000 5.200000 1.000000
v 1.960000 5.200000 2.000000
v -1.960000 5.200000 2.000000
v -1.960000 5.020000 2.000000
v 1.960000 5.020000 2.000000
v 2.800000 5.020000 4.000000
v -2.800000 5.020000 4.000000
v -1.960000 5.200000 2.000000
v 1.960000 5.200000 2.000000
v 2.800000 5.200000 4.000000
v -2.800000 5.200000 4.000000
v -0.980000 5.200000 1.000000
v -1.050000 5.200000 1.000000
v -0.150000 5.200000 0.000000
v -0.140000 5.200000 0.000000
v -0.980000 7.800000 1.000000
v -1.050000 7.800000 1.000000
v -0.150000 7.800000 0.000000
v -0.140000 7.800000 0.000000
v -1.960000 5.200000 2.000000
v -2.100000 5.200000 2.000000
v -1.050000 5.200000 1.000000
v -0.980000 5.200000 1.000000
v -1.960000 7.800000 2.000000
v -2.100000 7.800000 2.000000
v -1.050000 7.800000 1.000000
v -0.980000 7.800000 1.000000
v -2.800000 5.200000 4.000000
v -3.000000 5.200000 4.000000
v -2.100000 5.200000 2.000000
v -1.960000 5.200000 2.000000
v -2.800000 7.800000 4.000000
v -3.000000 7.800000 4.000000
v -2.100000 7.800000 2.000000
v -1.960000 7.800000 2.000000
v 0.140000 5.200000 0.000000
v 0.150000 5.200000 0.000000
v 1.050000 5.200000 1.000000
v 0.980000 5.200000 1.000000
v 0.140000 7.800000 0.000000
v 0.150000 7.800000 0.000000
v 1.050000 7.800000 1.000000
v 0.980000 7.800000 1.000000
v 0.980000 5.200000 1.000000
v 1.050000 5.200000 1.000000
v 2.100000 5.200000 2.000000
v 1.960000 5.200000 2.000000
v 0.980000 7.800000 1.000000
v 1.050000 7.800000 1.000000
v 2.100000 7.800000 2.000000
v 1.960000 7.800000 2.000000
v 1.960000 5.200000 2.000000
v 2.100000 5.200000 2.000000
v 3.000000 5.200000 4.000000
v 2.800000 5.200000 4.000000
v 1.960000 7.800000 2.000000
v 2.100000 7.800000 2.000000
v 3.000000 7.800000 4.000000
v 2.800000 7.800000 4.000000
v -0.140000 5.200000 0.000000
v 0.140000 5.200000 0.000000
v 0.140000 5.200000 0.080000
v -0.140000 5.200000 0.080000
v -0.140000 7.800000 0.000000
v 0.140000 7.800000 0.000000
v 0.140000 7.800000 0.080000
v -0.140000 7.800000 0.080000
v -2.800000 5.020000 4.000000
v -2.050000 5.020000 4.000000
v -2.050000 5.020000 6.000000
v -2.800000 5.020000 6.000000
v -2.800000 5.200000 4.000000
v -2.050000 5.200000 4.000000
v -2.050000 5.200000 6.000000
v -2.800000 5.200000 6.000000
v -0.950000 5.020000 4.000000
v 2.800000 5.020000 4.000000
v 2.800000 5.020000 6.000000
v -0.950000 5.020000 6.000000
v -0.950000 5.200000 4.000000
v 2.800000 5.200000 4.000000
v 2.800000 5.200000 6.000000
v -0.950000 5.200000 6.000000
v -2.800000 5.200000 6.000000
v -3.000000 5.200000 6.000000
v -3.000000 5.200000 4.000000
v -2.800000 5.200000 4.000000
v -2.800000 7.800000 6.000000
v -3.000000 7.800000 6.000000
v -3.000000 7.800000 4.000000
v -2.800000 7.800000 4.000000
v 2.800000 5.200000 4.000000
v 3.000000 5.200000 4.000000
v 3.000000 5.200000 6.000000
v 2.800000 5.200000 6.000000
v 2.800000 7.800000 4.000000
v 3.000000 7.800000 4.000000
v 3.000000 7.800000 6.000000
v 2.800000 7.800000 6.000000
v -2.800000 5.020000 6.000000
v -2.050000 5.020000 6.000000
v -2.050000 5.020000 8.000000
v -2.800000 5.020000 8.000000
v -2.800000 5.200000 6.000000
v -2.050000 5.200000 6.000000
v -2.050000 5.200000 8.000000
v -2.800000 5.200000 8.000000
v -0.950000 5.020000 6.000000
v 2.800000 5.020000 6.000000
v 2.800000 5.020000 8.000000
v -0.950000 5.020000 8.000000
v -0.950000 5.200000 6.000000
v 2.800000 5.200000 6.000000
v 2.800000 5.200000 8.000000
v -0.950000 5.200000 8.000000
v -2.050000 5.020000 7.250000
v -0.950000 5.020000 7.250000
v -0.950000 5.020000 8.000000
v -2.050000 5.020000 8.000000
v -2.050000 5.200000 7.250000
v -0.950000 5.200000 7.250000
v -0.950000 5.200000 8.000000
v -2.050000 5.200000 8.000000
v -2.800000 5.200000 8.000000
v -3.000000 5.200000 8.000000
v -3.000000 5.200000 6.000000
v -2.800000 5.200000 6.000000
v -2.800000 7.800000 8.000000
v -3.000000 7.800000 8.000000
v -3.000000 7.800000 6.000000
v -2.800000 7.800000 6.000000
v 2.800000 5.200000 6.000000
v 3.000000 5.200000 6.000000
v 3.000000 5.200000 8.000000
v 2.800000 5.200000 8.000000
v 2.800000 7.800000 6.000000
v 3.000000 7.800000 6.000000
v 3.000000 7.800000 8.000000
v 2.800000 7.800000 8.000000
v -2.800000 5.020000 8.000000
v 2.800000 5.020000 8.000000
v 2.800000 5.020000 10.000000
v -2.800000 5.020000 10.000000
v -2.800000 5.200000 8.000000
v 2.800000 5.200000 8.000000
v 2.800000 5.200000 10.000000
v -2.800000 5.200000 10.000000
v -2.800000 5.200000 10.000000
v -3.000000 5.200000 10.000000
v -3.000000 5.200000 8.000000
v -2.800000 5.200000 8.000000
v -2.800000 7.800000 10.000000
v -3.000000 7.800000 10.000000
v -3.000000 7.800000 8.000000
v -2.800000 7.800000 8.000000
v 2.800000 5.200000 8.000000
v 3.000000 5.200000 8.000000
v 3.000000 5.200000 10.000000
v 2.800000 5.200000 10.000000
v 2.800000 7.800000 8.000000
v 3.000000 7.800000 8.000000
v 3.000000 7.800000 10.000000
v 2.800000 7.800000 10.000000
v -2.800000 5.020000 10.000000
v 2.800000 5.020000 10.000000
v 2.800000 5.020000 12.000000
v -2.800000 5.020000 12.000000
v -2.800000 5.200000 10.000000
v 2.800000 5.200000 10.000000
v 2.800000 5.200000 12.000000
v -2.800000 5.200000 12.000000
v -2.800000 5.200000 12.000000
v -3.000000 5.200000 12.000000
v -3.000000 5.200000 10.000000
v -2.800000 5.200000 10.000000
v -2.800000 7.800000 12.000000
v -3.000000 7.800000 12.000000
v -3.000000 7.800000 10.000000
v -2.800000 7.800000 10.000000
v 2.800000 5.200000 10.000000
v 3.000000 5.200000 10.000000
v 3.000000 5.200000 12.000000
v 2.800000 5.200000 12.000000
v 2.800000 7.800000 10.000000
v 3.000000 7.800000 10.000000
v 3.000000 7.800000 12.000000
v 2.800000 7.800000 12.000000
v 2.800000 5.020000 12.000000
v 2.746199 5.020000 12.351163
v 2.586863 5.020000 12.688830
v 2.328115 5.020000 13.000026
v 1.979899 5.020000 13.272792
v 1.555597 5.020000 13.496645
v 1.071514 5.020000 13.662983
v 0.546253 5.020000 13.765414
v 0.000000 5.020000 13.800000
v -0.546253 5.020000 13.765414
v -1.071514 5.020000 13.662983
v -1.555597 5.020000 13.496645
v -1.979899 5.020000 13.272792
v -2.328115 5.020000 13.000026
v -2.586863 5.020000 12.688830
v -2.746199 5.020000 12.351163
v -2.800000 5.020000 12.000000
v 2.800000 5.200000 12.000000
v 2.746199 5.200000 12.351163
v 2.586863 5.200000 12.688830
v 2.328115 5.200000 13.000026
v 1.979899 5.200000 13.272792
v 1.555597 5.200000 13.496645
v 1.071514 5.200000 13.662983
v 0.546253 5.200000 13.765414
v 0.000000 5.200000 13.800000
v -0.546253 5.200000 13.765414
v -1.071514 5.200000 13.662983
v -1.555597 5.200000 13.496645
v -1.979899 5.200000 13.272792
v -2.328115 5.200000 13.000026
v -2.586863 5.200000 12.688830
v -2.746199 5.200000 12.351163
v -2.800000 5.200000 12.000000
v 3.000000 5.200000 12.000000
v 2.942356 5.200000 12.390181
v 2.746199 5.200000 12.351163
v 2.800000 5.200000 12.000000
v 3.000000 7.800000 12.000000
v 2.942356 7.800000 12.390181
v 2.746199 7.800000 12.351163
v 2.800000 7.800000 12.000000
v 2.942356 5.200000 12.390181
v 2.771639 5.200000 12.765367
v 2.586863 5.200000 12.688830
v 2.746199 5.200000 12.351163
v 2.942356 7.800000 12.390181
v 2.771639 7.800000 12.765367
v 2.586863 7.800000 12.688830
v 2.746199 7.800000 12.351163
v 2.771639 5.200000 12.765367
v 2.494409 5.200000 13.111140
v 2.328115 5.200000 13.000026
v 2.586863 5.200000 12.688830
v 2.771639 7.800000 12.765367
v 2.494409 7.800000 13.111140
v 2.328115 7.800000 13.000026
v 2.586863 7.800000 12.688830
v 2.494409 5.200000 13.111140
v 2.121320 5.200000 13.414214
v 1.979899 5.200000 13.272792
v 2.328115 5.200000 13.000026
v 2.494409 7.800000 13.111140
v 2.121320 7.800000 13.414214
v 1.979899 7.800000 13.272792
v 2.328115 7.800000 13.000026
v 2.121320 5.200000 13.414214
v 1.666711 5.200000 13.662939
v 1.555597 5.200000 13.496645
v 1.979899 5.200000 13.272792
v 2.121320 7.800000 13.414214
v 1.666711 7.800000 13.662939
v 1.555597 7.800000 13.496645
v 1.979899 7.800000 13.272792
v 1.666711 5.200000 13.662939
v 1.148050 5.200000 13.847759
v 1.071514 5.200000 13.662983
v 1.555597 5.200000 13.496645
v 1.666711 7.800000 13.662939
v 1.148050 7.800000 13.847759
v 1.071514 7.800000 13.662983
v 1.555597 7.800000 13.496645
v 1.148050 5.200000 13.847759
v 0.585271 5.200000 13.961571
v 0.546253 5.200000 13.765414
v 1.071514 5.200000 13.662983
v 1.148050 7.800000 13.847759
v 0.585271 7.800000 13.961571
v 0.546253 7.800000 13.765414
v 1.071514 7.800000 13.662983
v 0.585271 5.200000 13.961571
v 0.000000 5.200000 14.000000
v 0.000000 5.200000 13.800000
v 0.546253 5.200000 13.765414
v 0.585271 7.800000 13.961571
v 0.000000 7.800000 14.000000
v 0.000000 7.800000 13.800000
v 0.546253 7.800000 13.765414
v 0.000000 5.200000 14.000000
v -0.585271 5.200000 13.961571
v -0.546253 5.200000 13.765414
v 0.000000 5.200000 13.800000
v 0.000000 7.800000 14.000000
v -0.585271 7.800000 13.961571
v -0.546253 7.800000 13.765414
v 0.000000 7.800000 13.800000
v -0.585271 5.200000 13.961571
v -1.148050 5.200000 13.847759
v -1.071514 5.200000 13.662983
v -0.546253 5.200000 13.765414
v -0.585271 7.800000 13.961571
v -1.148050 7.800000 13.847759
v -1.071514 7.800000 13.662983
v -0.546253 7.800000 13.765414
v -1.148050 5.200000 13.847759
v -1.666711 5.200000 13.662939
v -1.555597 5.200000 13.496645
v -1.071514 5.200000 13.662983
v -1.148050 7.800000 13.847759
v -1.666711 7.800000 13.662939
v -1.555597 7.800000 13.496645
v -1.071514 7.800000 13.662983
v -1.666711 5.200000 13.662939
v -2.121320 5.200000 13.414214
v -1.979899 5.200000 13.272792
v -1.555597 5.200000 13.496645
v -1.666711 7.800000 13.662939
v -2.121320 7.800000 13.414214
v -1.979899 7.800000 13.272792
v -1.555597 7.800000 13.496645
v -2.121320 5.200000 13.414214
v -2.494409 5.200000 13.111140
v -2.328115 5.200000 13.000026
v -1.979899 5.200000 13.272792
v -2.121320 7.800000 13.414214
v -2.494409 7.800000 13.111140
v -2.328115 7.800000 13.000026
v -1.979899 7.800000 13.272792
v -2.494409 5.200000 13.111140
v -2.771639 5.200000 12.765367
v -2.586863 5.200000 12.688830
v -2.328115 5.200000 13.000026
v -2.494409 7.800000 13.111140
v -2.771639 7.800000 12.765367
v -2.586863 7.800000 12.688830
v -2.328115 7.800000 13.000026
v -2.771639 5.200000 12.765367
v -2.942356 5.200000 12.390181
v -2.746199 5.200000 12.351163
v -2.586863 5.200000 12.688830
v -2.771639 7.800000 12.765367
v -2.942356 7.800000 12.390181
v -2.746199 7.800000 12.351163
v -2.586863 7.800000 12.688830
v -2.942356 5.200000 12.390181
v -3.000000 5.200000 12.000000
v -2.800000 5.200000 12.000000
v -2.746199 5.200000 12.351163
v -2.942356 7.800000 12.390181
v -3.000000 7.800000 12.000000
v -2.800000 7.800000 12.000000
v -2.746199 7.800000 12.351163
v -2.000000 2.720000 4.000000
v -1.000000 2.720000 4.000000
v -1.000000 2.720000 4.250000
v -2.000000 2.720000 4.250000
v -2.000000 2.800000 4.000000
v -1.000000 2.800000 4.000000
v -1.000000 2.800000 4.250000
v -2.000000 2.800000 4.250000
v -2.000000 2.920000 4.250000
v -1.000000 2.920000 4.250000
v -1.000000 2.920000 4.500000
v -2.000000 2.920000 4.500000
v -2.000000 3.000000 4.250000
v -1.000000 3.000000 4.250000
v -1.000000 3.000000 4.500000
v -2.000000 3.000000 4.500000
v -2.000000 3.120000 4.500000
v -1.000000 3.120000 4.500000
v -1.000000 3.120000 4.750000
v -2.000000 3.120000 4.750000
v -2.000000 3.200000 4.500000
v -1.000000 3.200000 4.500000
v -1.000000 3.200000 4.750000
v -2.000000 3.200000 4.750000
v -2.000000 3.320000 4.750000
v -1.000000 3.320000 4.750000
v -1.000000 3.320000 5.000000
v -2.000000 3.320000 5.000000
v -2.000000 3.400000 4.750000
v -1.000000 3.400000 4.750000
v -1.000000 3.400000 5.000000
v -2.000000 3.400000 5.000000
v -2.000000 3.520000 5.000000
v -1.000000 3.520000 5.000000
v -1.000000 3.520000 5.250000
v -2.000000 3.520000 5.250000
v -2.000000 3.600000 5.000000
v -1.000000 3.600000 5.000000
v -1.000000 3.600000 5.250000
v -2.000000 3.600000 5.250000
v -2.000000 3.720000 5.250000
v -1.000000 3.720000 5.250000
v -1.000000 3.720000 5.500000
v -2.000000 3.720000 5.500000
v -2.000000 3.800000 5.250000
v -1.000000 3.800000 5.250000
v -1.000000 3.800000 5.500000
v -2.000000 3.800000 5.500000
v -2.000000 3.920000 5.500000
v -1.000000 3.920000 5.500000
v -1.000000 3.920000 5.750000
v -2.000000 3.920000 5.750000
v -2.000000 4.000000 5.500000
v -1.000000 4.000000 5.500000
v -1.000000 4.000000 5.750000
v -2.000000 4.000000 5.750000
v -2.000000 4.120000 5.750000
v -1.000000 4.120000 5.750000
v -1.000000 4.120000 6.000000
v -2.000000 4.120000 6.000000
v -2.000000 4.200000 5.750000
v -1.000000 4.200000 5.750000
v -1.000000 4.200000 6.000000
v -2.000000 4.200000 6.000000
v -2.000000 4.320000 6.000000
v -1.000000 4.320000 6.000000
v -1.000000 4.320000 6.250000
v -2.000000 4.320000 6.250000
v -2.000000 4.400000 6.000000
v -1.000000 4.400000 6.000000
v -1.000000 4.400000 6.250000
v -2.000000 4.400000 6.250000
v -2.000000 4.520000 6.250000
v -1.000000 4.520000 6.250000
v -1.000000 4.520000 6.500000
v -2.000000 4.520000 6.500000
v -2.000000 4.600000 6.250000
v -1.000000 4.600000 6.250000
v -1.000000 4.600000 6.500000
v -2.000000 4.600000 6.500000
v -2.000000 4.720000 6.500000
v -1.000000 4.720000 6.500000
v -1.000000 4.720000 6.750000
v -2.000000 4.720000 6.750000
v -2.000000 4.800000 6.500000
v -1.000000 4.800000 6.500000
v -1.000000 4.800000 6.750000
v -2.000000 4.800000 6.750000
v -2.000000 4.920000 6.750000
v -1.000000 4.920000 6.750000
v -1.000000 4.920000 7.000000
v -2.000000 4.920000 7.000000
v -2.000000 5.000000 6.750000
v -1.000000 5.000000 6.750000
v -1.000000 5.000000 7.000000
v -2.000000 5.000000 7.000000
v -2.000000 5.120000 7.000000
v -1.000000 5.120000 7.000000
v -1.000000 5.120000 7.250000
v -2.000000 5.120000 7.250000
v -2.000000 5.200000 7.000000
v -1.000000 5.200000 7.000000
v -1.000000 5.200000 7.250000
v -2.000000 5.200000 7.250000
v -0.207200 7.620000 0.080000
v 0.207200 7.620000 0.080000
v 0.980000 7.620000 1.000000
v -0.980000 7.620000 1.000000
v -0.207200 7.800000 0.080000
v 0.207200 7.800000 0.080000
v 0.980000 7.800000 1.000000
v -0.980000 7.800000 1.000000
v -0.980000 7.620000 1.000000
v 0.980000 7.620000 1.000000
v 1.960000 7.620000 2.000000
v -1.960000 7.620000 2.000000
v -0.980000 7.800000 1.000000
v 0.980000 7.800000 1.000000
v 1.960000 7.800000 2.000000
v -1.960000 7.800000 2.000000
v -1.960000 7.620000 2.000000
v 1.960000 7.620000 2.000000
v 2.800000 7.620000 4.000000
v -2.800000 7.620000 4.000000
v -1.960000 7.800000 2.000000
v 1.960000 7.800000 2.000000
v 2.800000 7.800000 4.000000
v -2.800000 7.800000 4.000000
v -0.980000 7.800000 1.000000
v -1.050000 7.800000 1.000000
v -0.150000 7.800000 0.000000
v -0.140000 7.800000 0.000000
v -0.980000 8.400000 1.000000
v -1.050000 8.400000 1.000000
v -0.150000 8.400000 0.000000
v -0.140000 8.400000 0.000000
v -1.960000 7.800000 2.000000
v -2.100000 7.800000 2.000000
v -1.050000 7.800000 1.000000
v -0.980000 7.800000 1.000000
v -1.960000 8.400000 2.000000
v -2.100000 8.400000 2.000000
v -1.050000 8.400000 1.000000
v -0.980000 8.400000 1.000000
v -2.800000 7.800000 4.000000
v -3.000000 7.800000 4.000000
v -2.100000 7.800000 2.000000
v -1.960000 7.800000 2.000000
v -2.800000 8.400000 4.000000
v -3.000000 8.400000 4.000000
v -2.100000 8.400000 2.000000
v -1.960000 8.400000 2.000000
v 0.140000 7.800000 0.000000
v 0.150000 7.800000 0.000000
v 1.050000 7.800000 1.000000
v 0.980000 7.800000 1.000000
v 0.140000 8.400000 0.000000
v 0.150000 8.400000 0.000000
v 1.050000 8.400000 1.000000
v 0.980000 8.400000 1.000000
v 0.980000 7.800000 1.000000
v 1.050000 7.800000 1.000000
v 2.100000 7.800000 2.000000
v 1.960000 7.800000 2.000000
v 0.980000 8.400000 1.000000
v 1.050000 8.400000 1.000000
v 2.100000 8.400000 2.000000
v 1.960000 8.400000 2.000000
v 1.960000 7.800000 2.000000
v 2.100000 7.800000 2.000000
v 3.000000 7.800000 4.000000
v 2.800000 7.800000 4.000000
v 1.960000 8.400000 2.000000
v 2.100000 8.400000 2.000000
v 3.000000 8.400000 4.000000
v 2.800000 8.400000 4.000000
v -0.140000 7.800000 0.000000
v 0.140000 7.800000 0.000000
v 0.140000 7.800000 0.080000
v -0.140000 7.800000 0.080000
v -0.140000 8.400000 0.000000
v 0.140000 8.400000 0.000000
v 0.140000 8.400000 0.080000
v -0.140000 8.400000 0.080000
v -2.800000 7.620000 4.000000
v 2.800000 7.620000 4.000000
v 2.800000 7.620000 6.000000
v -2.800000 7.620000 6.000000
v -2.800000 7.800000 4.000000
v 2.800000 7.800000 4.000000
v 2.800000 7.800000 6.000000
v -2.800000 7.800000 6.000000
v -2.800000 7.800000 6.000000
v -3.000000 7.800000 6.000000
v -3.000000 7.800000 4.000000
v -2.800000 7.800000 4.000000
v -2.800000 8.400000 6.000000
v -3.000000 8.400000 6.000000
v -3.000000 8.400000 4.000000
v -2.800000 8.400000 4.000000
v 2.800000 7.800000 4.000000
v 3.000000 7.800000 4.000000
v 3.000000 7.800000 6.000000
v 2.800000 7.800000 6.000000
v 2.800000 8.400000 4.000000
v 3.000000 8.400000 4.000000
v 3.000000 8.400000 6.000000
v 2.800000 8.400000 6.000000
v -2.800000 7.620000 6.000000
v 2.800000 7.620000 6.000000
v 2.800000 7.620000 8.000000
v -2.800000 7.620000 8.000000
v -2.800000 7.800000 6.000000
v 2.800000 7.800000 6.000000
v 2.800000 7.800000 8.000000
v -2.800000 7.800000 8.000000
v -2.800000 7.800000 8.000000
v -3.000000 7.800000 8.000000
v -3.000000 7.800000 6.000000
v -2.800000 7.800000 6.000000
v -2.800000 8.400000 8.000000
v -3.000000 8.400000 8.000000
v -3.000000 8.400000 6.000000
v -2.800000 8.400000 6.000000
v 2.800000 7.800000 6.000000
v 3.000000 7.800000 6.000000
v 3.000000 7.800000 8.000000
v 2.800000 7.800000 8.000000
v 2.800000 8.400000 6.000000
v 3.000000 8.400000 6.000000
v 3.000000 8.400000 8.000000
v 2.800000 8.400000 8.000000
v -2.800000 7.620000 8.000000
v 0.950000 7.620000 8.000000
v 0.950000 7.620000 10.000000
v -2.800000 7.620000 10.000000
v -2.800000 7.800000 8.000000
v 0.950000 7.800000 8.000000
v 0.950000 7.800000 10.000000
v -2.800000 7.800000 10.000000
v 2.050000 7.620000 8.000000
v 2.800000 7.620000 8.000000
v 2.800000 7.620000 10.000000
v 2.050000 7.620000 10.000000
v 2.050000 7.800000 8.000000
v 2.800000 7.800000 8.000000
v 2.800000 7.800000 10.000000
v 2.050000 7.800000 10.000000
v -2.800000 7.800000 10.000000
v -3.000000 7.800000 10.000000
v -3.000000 7.800000 8.000000
v -2.800000 7.800000 8.000000
v -2.800000 8.400000 10.000000
v -3.000000 8.400000 10.000000
v -3.000000 8.400000 8.000000
v -2.800000 8.400000 8.000000
v 2.800000 7.800000 8.000000
v 3.000000 7.800000 8.000000
v 3.000000 7.800000 10.000000
v 2.800000 7.800000 10.000000
v 2.800000 8.400000 8.000000
v 3.000000 8.400000 8.000000
v 3.000000 8.400000 10.000000
v 2.800000 8.400000 10.000000
v -2.800000 7.620000 10.000000
v 0.950000 7.620000 10.000000
v 0.950000 7.620000 12.000000
v -2.800000 7.620000 12.000000
v -2.800000 7.800000 10.000000
v 0.950000 7.800000 10.000000
v 0.950000 7.800000 12.000000
v -2.800000 7.800000 12.000000
v 2.050000 7.620000 10.000000
v 2.800000 7.620000 10.000000
v 2.800000 7.620000 12.000000
v 2.050000 7.620000 12.000000
v 2.050000 7.800000 10.000000
v 2.800000 7.800000 10.000000
v 2.800000 7.800000 12.000000
v 2.050000 7.800000 12.000000
v 0.950000 7.620000 11.250000
v 2.050000 7.620000 11.250000
v 2.050000 7.620000 12.000000
v 0.950000 7.620000 12.000000
v 0.950000 7.800000 11.250000
v 2.050000 7.800000 11.250000
v 2.050000 7.800000 12.000000
v 0.950000 7.800000 12.000000
v -2.800000 7.800000 12.000000
v -3.000000 7.800000 12.000000
v -3.000000 7.800000 10.000000
v -2.800000 7.800000 10.000000
v -2.800000 8.400000 12.000000
v -3.000000 8.400000 12.000000
v -3.000000 8.400000 10.000000
v -2.800000 8.400000 10.000000
v 2.800000 7.800000 10.000000
v 3.000000 7.800000 10.000000
v 3.000000 7.800000 12.000000
v 2.800000 7.800000 12.000000
v 2.800000 8.400000 10.000000
v 3.000000 8.400000 10.000000
v 3.000000 8.400000 12.000000
v 2.800000 8.400000 12.000000
v 2.800000 7.620000 12.000000
v 2.746199 7.620000 12.351163
v 2.586863 7.620000 12.688830
v 2.328115 7.620000 13.000026
v 1.979899 7.620000 13.272792
v 1.555597 7.620000 13.496645
v 1.071514 7.620000 13.662983
v 0.546253 7.620000 13.765414
v 0.000000 7.620000 13.800000
v -0.546253 7.620000 13.765414
v -1.071514 7.620000 13.662983
v -1.555597 7.620000 13.496645
v -1.979899 7.620000 13.272792
v -2.328115 7.620000 13.000026
v -2.586863 7.620000 12.688830
v -2.746199 7.620000 12.351163
v -2.800000 7.620000 12.000000
v 2.800000 7.800000 12.000000
v 2.746199 7.800000 12.351163
v 2.586863 7.800000 12.688830
v 2.328115 7.800000 13.000026
v 1.979899 7.800000 13.272792
v 1.555597 7.800000 13.496645
v 1.071514 7.800000 13.662983
v 0.546253 7.800000 13.765414
v 0.000000 7.800000 13.800000
v -0.546253 7.800000 13.765414
v -1.071514 7.800000 13.662983
v -1.555597 7.800000 13.496645
v -1.979899 7.800000 13.272792
v -2.328115 7.800000 13.000026
v -2.586863 7.800000 12.688830
v -2.746199 7.800000 12.351163
v -2.800000 7.800000 12.000000
v 3.000000 7.800000 12.000000
v 2.942356 7.800000 12.390181
v 2.746199 7.800000 12.351163
v 2.800000 7.800000 12.000000
v 3.000000 8.400000 12.000000
v 2.942356 8.400000 12.390181
v 2.746199 8.400000 12.351163
v 2.800000 8.400000 12.000000
v 2.942356 7.800000 12.390181
v 2.771639 7.800000 12.765367
v 2.586863 7.800000 12.688830
v 2.746199 7.800000 12.351163
v 2.942356 8.400000 12.390181
v 2.771639 8.400000 12.765367
v 2.586863 8.400000 12.688830
v 2.746199 8.400000 12.351163
v 2.771639 7.800000 12.765367
v 2.494409 7.800000 13.111140
v 2.328115 7.800000 13.000026
v 2.586863 7.800000 12.688830
v 2.771639 8.400000 12.765367
v 2.494409 8.400000 13.111140
v 2.328115 8.400000 13.000026
v 2.586863 8.400000 12.688830
v 2.494409 7.800000 13.111140
v 2.121320 7.800000 13.414214
v 1.979899 7.800000 13.272792
v 2.328115 7.800000 13.000026
v 2.494409 8.400000 13.111140
v 2.121320 8.400000 13.414214
v 1.979899 8.400000 13.272792
v 2.328115 8.400000 13.000026
v 2.121320 7.800000 13.414214
v 1.666711 7.800000 13.662939
v 1.555597 7.800000 13.496645
v 1.979899 7.800000 13.272792
v 2.121320 8.400000 13.414214
v 1.666711 8.400000 13.662939
v 1.555597 8.400000 13.496645
v 1.979899 8.400000 13.272792
v 1.666711 7.800000 13.662939
v 1.148050 7.800000 13.847759
v 1.071514 7.800000 13.662983
v 1.555597 7.800000 13.496645
v 1.666711 8.400000 13.662939
v 1.148050 8.400000 13.847759
v 1.071514 8.400000 13.662983
v 1.555597 8.400000 13.496645
v 1.148050 7.800000 13.847759
v 0.585271 7.800000 13.961571
v 0.546253 7.800000 13.765414
v 1.071514 7.800000 13.662983
v 1.148050 8.400000 13.847759
v 0.585271 8.400000 13.961571
v 0.546253 8.400000 13.765414
v 1.071514 8.400000 13.662983
v 0.585271 7.800000 13.961571
v 0.000000 7.800000 14.000000
v 0.000000 7.800000 13.800000
v 0.546253 7.800000 13.765414
v 0.585271 8.400000 13.961571
v 0.000000 8.400000 14.000000
v 0.000000 8.400000 13.800000
v 0.546253 8.400000 13.765414
v 0.000000 7.800000 14.000000
v -0.585271 7.800000 13.961571
v -0.546253 7.800000 13.765414
v 0.000000 7.800000 13.800000
v 0.000000 8.400000 14.000000
v -0.585271 8.400000 13.961571
v -0.546253 8.400000 13.765414
v 0.000000 8.400000 13.800000
v -0.585271 7.800000 13.961571
v -1.148050 7.800000 13.847759
v -1.071514 7.800000 13.662983
v -0.546253 7.800000 13.765414
v -0.585271 8.400000 13.961571
v -1.148050 8.400000 13.847759
v -1.071514 8.400000 13.662983
v -0.546253 8.400000 13.765414
v -1.148050 7.800000 13.847759
v -1.666711 7.800000 13.662939
v -1.555597 7.800000 13.496645
v -1.071514 7.800000 13.662983
v -1.148050 8.400000 13.847759
v -1.666711 8.400000 13.662939
v -1.555597 8.400000 13.496645
v -1.071514 8.400000 13.662983
v -1.666711 7.800000 13.662939
v -2.121320 7.800000 13.414214
v -1.979899 7.800000 13.272792
v -1.555597 7.800000 13.496645
v -1.666711 8.400000 13.662939
v -2.121320 8.400000 13.414214
v -1.979899 8.400000 13.272792
v -1.555597 8.400000 13.496645
v -2.121320 7.800000 13.414214
v -2.494409 7.800000 13.111140
v -2.328115 7.800000 13.000026
v -1.979899 7.800000 13.272792
v -2.121320 8.400000 13.414214
v -2.494409 8.400000 13.111140
v -2.328115 8.400000 13.000026
v -1.979899 8.400000 13.272792
v -2.494409 7.800000 13.111140
v -2.771639 7.800000 12.765367
v -2.586863 7.800000 12.688830
v -2.328115 7.800000 13.000026
v -2.494409 8.400000 13.111140
v -2.771639 8.400000 12.765367
v -2.586863 8.400000 12.688830
v -2.328115 8.400000 13.000026
v -2.771639 7.800000 12.765367
v -2.942356 7.800000 12.390181
v -2.746199 7.800000 12.351163
v -2.586863 7.800000 12.688830
v -2.771639 8.400000 12.765367
v -2.942356 8.400000 12.390181
v -2.746199 8.400000 12.351163
v -2.586863 8.400000 12.688830
v -2.942356 7.800000 12.390181
v -3.000000 7.800000 12.000000
v -2.800000 7.800000 12.000000
v -2.746199 7.800000 12.351163
v -2.942356 8.400000 12.390181
v -3.000000 8.400000 12.000000
v -2.800000 8.400000 12.000000
v -2.746199 8.400000 12.351163
v 1.000000 5.320000 8.000000
v 2.000000 5.320000 8.000000
v 2.000000 5.320000 8.250000
v 1.000000 5.320000 8.250000
v 1.000000 5.400000 8.000000
v 2.000000 5.400000 8.000000
v 2.000000 5.400000 8.250000
v 1.000000 5.400000 8.250000
v 1.000000 5.520000 8.250000
v 2.000000 5.520000 8.250000
v 2.000000 5.520000 8.500000
v 1.000000 5.520000 8.500000
v 1.000000 5.600000 8.250000
v 2.000000 5.600000 8.250000
v 2.000000 5.600000 8.500000
v 1.000000 5.600000 8.500000
v 1.000000 5.720000 8.500000
v 2.000000 5.720000 8.500000
v 2.000000 5.720000 8.750000
v 1.000000 5.720000 8.750000
v 1.000000 5.800000 8.500000
v 2.000000 5.800000 8.500000
v 2.000000 5.800000 8.750000
v 1.000000 5.800000 8.750000
v 1.000000 5.920000 8.750000
v 2.000000 5.920000 8.750000
v 2.000000 5.920000 9.000000
v 1.000000 5.920000 9.000000
v 1.000000 6.000000 8.750000
v 2.000000 6.000000 8.750000
v 2.000000 6.000000 9.000000
v 1.000000 6.000000 9.000000
v 1.000000 6.120000 9.000000
v 2.000000 6.120000 9.000000
v 2.000000 6.120000 9.250000
v 1.000000 6.120000 9.250000
v 1.000000 6.200000 9.000000
v 2.000000 6.200000 9.000000
v 2.000000 6.200000 9.250000
v 1.000000 6.200000 9.250000
v 1.000000 6.320000 9.250000
v 2.000000 6.320000 9.250000
v 2.000000 6.320000 9.500000
v 1.000000 6.320000 9.500000
v 1.000000 6.400000 9.250000
v 2.000000 6.400000 9.250000
v 2.000000 6.400000 9.500000
v 1.000000 6.400000 9.500000
v 1.000000 6.520000 9.500000
v 2.000000 6.520000 9.500000
v 2.000000 6.520000 9.750000
v 1.000000 6.520000 9.750000
v 1.000000 6.600000 9.500000
v 2.000000 6.600000 9.500000
v 2.000000 6.600000 9.750000
v 1.000000 6.600000 9.750000
v 1.000000 6.720000 9.750000
v 2.000000 6.720000 9.750000
v 2.000000 6.720000 10.000000
v 1.000000 6.720000 10.000000
v 1.000000 6.800000 9.750000
v 2.000000 6.800000 9.750000
v 2.000000 6.800000 10.000000
v 1.000000 6.800000 10.000000
v 1.000000 6.920000 10.000000
v 2.000000 6.920000 10.000000
v 2.000000 6.920000 10.250000
v 1.000000 6.920000 10.250000
v 1.000000 7.000000 10.000000
v 2.000000 7.000000 10.000000
v 2.000000 7.000000 10.250000
v 1.000000 7.000000 10.250000
v 1.000000 7.120000 10.250000
v 2.000000 7.120000 10.250000
v 2.000000 7.120000 10.500000
v 1.000000 7.120000 10.500000
v 1.000000 7.200000 10.250000
v 2.000000 7.200000 10.250000
v 2.000000 7.200000 10.500000
v 1.000000 7.200000 10.500000
v 1.000000 7.320000 10.500000
v 2.000000 7.320000 10.500000
v 2.000000 7.320000 10.750000
v 1.000000 7.320000 10.750000
v 1.000000 7.400000 10.500000
v 2.000000 7.400000 10.500000
v 2.000000 7.400000 10.750000
v 1.000000 7.400000 10.750000
v 1.000000 7.520000 10.750000
v 2.000000 7.520000 10.750000
v 2.000000 7.520000 11.000000
v 1.000000 7.520000 11.000000
v 1.000000 7.600000 10.750000
v 2.000000 7.600000 10.750000
v 2.000000 7.600000 11.000000
v 1.000000 7.600000 11.000000
v 1.000000 7.720000 11.000000
v 2.000000 7.720000 11.000000
v 2.000000 7.720000 11.250000
v 1.000000 7.720000 11.250000
v 1.000000 7.800000 11.000000
v 2.000000 7.800000 11.000000
v 2.000000 7.800000 11.250000
v 1.000000 7.800000 11.250000
f 1 2 20 19
f 2 3 21 20
f 3 4 22 21
f 4 5 23 22
f 5 6 24 23
f 6 7 25 24
f 7 8 26 25
f 8 9 27 26
f 9 10 28 27
f 10 11 29 28
f 11 12 30 29
f 12 13 31 30
f 13 14 32 31
f 14 15 33 32
f 15 16 34 33
f 16 17 35 34
f 17 18 36 35
f 18 1 19 36
f 19 20 38 37
f 20 21 39 38
f 21 22 40 39
f 22 23 41 40
f 23 24 42 41
f 24 25 43 42
f 25 26 44 43
f 26 27 45 44
f 27 28 46 45
f 28 29 47 46
f 29 30 48 47
f 30 31 49 48
f 31 32 50 49
f 32 33 51 50
f 33 34 52 51
f 34 35 53 52
f 35 36 54 53
f 36 19 37 54
f 37 38 56 55
f 38 39 57 56
f 39 40 58 57
f 40 41 59 58
f 41 42 60 59
f 42 43 61 60
f 43 44 62 61
f 44 45 63 62
f 45 46 64 63
f 46 47 65 64
f 47 48 66 65
f 48 49 67 66
f 49 50 68 67
f 50 51 69 68
f 51 52 70 69
f 52 53 71 70
f 53 54 72 71
f 54 37 55 72
f 1 18 2
f 2 18 17
f 2 17 3
f 3 17 16
f 3 16 4
f 4 16 15
f 4 15 5
f 5 15 14
f 5 14 6
f 6 14 13
f 6 13 7
f 7 13 12
f 7 12 8
f 8 12 11
f 8 11 9
f 9 11 10
f 56 72 55
f 71 72 56
f 57 71 56
f 70 71 57
f 58 70 57
f 69 70 58
f 59 69 58
f 68 69 59
f 60 68 59
f 67 68 60
f 61 67 60
f 66 67 61
f 62 66 61
f 65 66 62
f 63 65 62
f 64 65 63
f 73 74 75 76 77 78 79 80 81
f 90 89 88 87 86 85 84 83 82
f 73 74 83 82
f 74 75 84 83
f 75 76 85 84
f 76 77 86 85
f 77 78 87 86
f 78 79 88 87
f 79 80 89 88
f 80 81 90 89
f 81 73 82 90
f 91 92 110 109
f 92 93 111 110
f 93 94 112 111
f 94 95 113 112
f 95 96 114 113
f 96 97 115 114
f 97 98 116 115
f 98 99 117 116
f 99 100 118 117
f 100 101 119 118
f 101 102 120 119
f 102 103 121 120
f 103 104 122 121
f 104 105 123 122
f 105 106 124 123
f 106 107 125 124
f 107 108 126 125
f 108 91 109 126
f 91 108 92
f 92 108 107
f 92 107 93
f 93 107 106
f 93 106 94
f 94 106 105
f 94 105 95
f 95 105 104
f 95 104 96
f 96 104 103
f 96 103 97
f 97 103 102
f 97 102 98
f 98 102 101
f 98 101 99
f 99 101 100
f 110 126 109
f 125 126 110
f 111 125 110
f 124 125 111
f 112 124 111
f 123 124 112
f 113 123 112
f 122 123 113
f 114 122 113
f 121 122 114
f 115 121 114
f 120 121 115
f 116 120 115
f 119 120 116
f 117 119 116
f 118 119 117
f 127 128 146 145
f 128 129 147 146
f 129 130 148 147
f 130 131 149 148
f 131 132 150 149
f 132 133 151 150
f 133 134 152 151
f 134 135 153 152
f 135 136 154 153
f 136 137 155 154
f 137 138 156 155
f 138 139 157 156
f 139 140 158 157
f 140 141 159 158
f 141 142 160 159
f 142 143 161 160
f 143 144 162 161
f 144 127 145 162
f 127 144 128
f 128 144 143
f 128 143 129
f 129 143 142
f 129 142 130
f 130 142 141
f 130 141 131
f 131 141 140
f 131 140 132
f 132 140 139
f 132 139 133
f 133 139 138
f 133 138 134
f 134 138 137
f 134 137 135
f 135 137 136
f 146 162 145
f 161 162 146
f 147 161 146
f 160 161 147
f 148 160 147
f 159 160 148
f 149 159 148
f 158 159 149
f 150 158 149
f 157 158 150
f 151 157 150
f 156 157 151
f 152 156 151
f 155 156 152
f 153 155 152
f 154 155 153
f 163 164 182 181
f 164 165 183 182
f 165 166 184 183
f 166 167 185 184
f 167 168 186 185
f 168 169 187 186
f 169 170 188 187
f 170 171 189 188
f 171 172 190 189
f 172 173 191 190
f 173 174 192 191
f 174 175 193 192
f 175 176 194 193
f 176 177 195 194
f 177 178 196 195
f 178 179 197 196
f 179 180 198 197
f 180 163 181 198
f 163 180 164
f 164 180 179
f 164 179 165
f 165 179 178
f 165 178 166
f 166 178 177
f 166 177 167
f 167 177 176
f 167 176 168
f 168 176 175
f 168 175 169
f 169 175 174
f 169 174 170
f 170 174 173
f 170 173 171
f 171 173 172
f 182 198 181
f 197 198 182
f 183 197 182
f 196 197 183
f 184 196 183
f 195 196 184
f 185 195 184
f 194 195 185
f 186 194 185
f 193 194 186
f 187 193 186
f 192 193 187
f 188 192 187
f 191 192 188
f 189 191 188
f 190 191 189
f 199 200 218 217
f 200 201 219 218
f 201 202 220 219
f 202 203 221 220
f 203 204 222 221
f 204 205 223 222
f 205 206 224 223
f 206 207 225 224
f 207 208 226 225
f 208 209 227 226
f 209 210 228 227
f 210 211 229 228
f 211 212 230 229
f 212 213 231 230
f 213 214 232 231
f 214 215 233 232
f 215 216 234 233
f 216 199 217 234
f 199 216 200
f 200 216 215
f 200 215 201
f 201 215 214
f 201 214 202
f 202 214 213
f 202 213 203
f 203 213 212
f 203 212 204
f 204 212 211
f 204 211 205
f 205 211 210
f 205 210 206
f 206 210 209
f 206 209 207
f 207 209 208
f 218 234 217
f 233 234 218
f 219 233 218
f 232 233 219
f 220 232 219
f 231 232 220
f 221 231 220
f 230 231 221
f 222 230 221
f 229 230 222
f 223 229 222
f 228 229 223
f 224 228 223
f 227 228 224
f 225 227 224
f 226 227 225
f 235 245 246 236
f 236 246 247 237
f 237 247 248 238
f 238 248 239
f 240 249 241
f 241 249 250 242
f 242 250 251 243
f 243 251 252 244
f 244 252 245 235
f 245 253 254 246
f 246 254 255 247
f 247 255 256 248
f 248 256 239
f 240 257 249
f 249 257 258 250
f 250 258 259 251
f 251 259 260 252
f 252 260 253 245
f 253 261 262 254
f 254 262 263 255
f 255 263 264 256
f 256 264 239
f 240 265 257
f 257 265 266 258
f 258 266 267 259
f 259 267 268 260
f 260 268 261 253
f 261 269 270 262
f 262 270 271 263
f 263 271 272 264
f 264 272 239
f 240 273 265
f 265 273 274 266
f 266 274 275 267
f 267 275 276 268
f 268 276 269 261
f 269 277 278 270
f 270 278 279 271
f 271 279 280 272
f 272 280 239
f 240 281 273
f 273 281 282 274
f 274 282 283 275
f 275 283 284 276
f 276 284 277 269
f 277 285 286 278
f 278 286 287 279
f 279 287 288 280
f 280 288 239
f 240 289 281
f 281 289 290 282
f 282 290 291 283
f 283 291 292 284
f 284 292 285 277
f 285 293 294 286
f 286 294 295 287
f 287 295 296 288
f 288 296 239
f 240 297 289
f 289 297 298 290
f 290 298 299 291
f 291 299 300 292
f 292 300 293 285
f 293 301 302 294
f 294 302 303 295
f 295 303 304 296
f 296 304 239
f 240 305 297
f 297 305 306 298
f 298 306 307 299
f 299 307 308 300
f 300 308 301 293
f 301 309 310 302
f 302 310 311 303
f 303 311 312 304
f 304 312 239
f 240 313 305
f 305 313 314 306
f 306 314 315 307
f 307 315 316 308
f 308 316 309 301
f 309 317 318 310
f 310 318 319 311
f 311 319 320 312
f 312 320 239
f 240 321 313
f 313 321 322 314
f 314 322 323 315
f 315 323 324 316
f 316 324 317 309
f 317 325 326 318
f 318 326 327 319
f 319 327 328 320
f 320 328 239
f 240 329 321
f 321 329 330 322
f 322 330 331 323
f 323 331 332 324
f 324 332 325 317
f 325 333 334 326
f 326 334 335 327
f 327 335 336 328
f 328 336 239
f 240 337 329
f 329 337 338 330
f 330 338 339 331
f 331 339 340 332
f 332 340 333 325
f 333 341 342 334
f 334 342 343 335
f 335 343 344 336
f 336 344 239
f 240 345 337
f 337 345 346 338
f 338 346 347 339
f 339 347 348 340
f 340 348 341 333
f 341 349 350 342
f 342 350 351 343
f 343 351 352 344
f 344 352 239
f 240 353 345
f 345 353 354 346
f 346 354 355 347
f 347 355 356 348
f 348 356 349 341
f 349 357 358 350
f 350 358 359 351
f 351 359 360 352
f 352 360 239
f 240 361 353
f 353 361 362 354
f 354 362 363 355
f 355 363 364 356
f 356 364 357 349
f 357 365 366 358
f 358 366 367 359
f 359 367 368 360
f 360 368 239
f 240 369 361
f 361 369 370 362
f 362 370 371 363
f 363 371 372 364
f 364 372 365 357
f 244 243 242 241 240 239 238 237 236 235
f 365 366 367 368 239 240 369 370 371 372
f 373 374 375 376
f 380 379 378 377
f 373 377 378 374
f 374 378 379 375
f 375 379 380 376
f 376 380 377 373
f 381 382 383 384
f 388 387 386 385
f 381 385 386 382
f 382 386 387 383
f 383 387 388 384
f 384 388 385 381
f 389 390 391 392
f 396 395 394 393
f 389 393 394 390
f 390 394 395 391
f 391 395 396 392
f 392 396 393 389
f 397 398 399 400
f 404 403 402 401
f 397 401 402 398
f 398 402 403 399
f 399 403 404 400
f 400 404 401 397
f 405 406 407 408
f 412 411 410 409
f 405 409 410 406
f 406 410 411 407
f 407 411 412 408
f 408 412 409 405
f 413 414 415 416
f 420 419 418 417
f 413 417 418 414
f 414 418 419 415
f 415 419 420 416
f 416 420 417 413
f 421 422 423 424
f 428 427 426 425
f 421 425 426 422
f 422 426 427 423
f 423 427 428 424
f 424 428 425 421
f 429 430 431 432
f 436 435 434 433
f 429 433 434 430
f 430 434 435 431
f 431 435 436 432
f 432 436 433 429
f 437 438 439 440
f 444 443 442 441
f 437 441 442 438
f 438 442 443 439
f 439 443 444 440
f 440 444 441 437
f 445 446 447 448
f 452 451 450 449
f 445 449 450 446
f 446 450 451 447
f 447 451 452 448
f 448 452 449 445
f 453 454 455 456
f 460 459 458 457
f 453 457 458 454
f 454 458 459 455
f 455 459 460 456
f 456 460 457 453
f 461 462 463 464
f 468 467 466 465
f 461 465 466 462
f 462 466 467 463
f 463 467 468 464
f 464 468 465 461
f 469 470 471 472
f 476 475 474 473
f 469 473 474 470
f 470 474 475 471
f 471 475 476 472
f 472 476 473 469
f 477 478 479 480
f 484 483 482 481
f 477 481 482 478
f 478 482 483 479
f 479 483 484 480
f 480 484 481 477
f 485 486 487 488
f 492 491 490 489
f 485 489 490 486
f 486 490 491 487
f 487 491 492 488
f 488 492 489 485
f 493 494 495 496
f 500 499 498 497
f 493 497 498 494
f 494 498 499 495
f 495 499 500 496
f 496 500 497 493
f 501 502 503 504
f 508 507 506 505
f 501 505 506 502
f 502 506 507 503
f 503 507 508 504
f 504 508 505 501
f 509 510 511 512
f 516 515 514 513
f 509 513 514 510
f 510 514 515 511
f 511 515 516 512
f 512 516 513 509
f 517 518 519 520
f 524 523 522 521
f 517 521 522 518
f 518 522 523 519
f 519 523 524 520
f 520 524 521 517
f 525 526 527 528
f 532 531 530 529
f 525 529 530 526
f 526 530 531 527
f 527 531 532 528
f 528 532 529 525
f 533 534 535 536
f 540 539 538 537
f 533 537 538 534
f 534 538 539 535
f 535 539 540 536
f 536 540 537 533
f 541 542 543 544
f 548 547 546 545
f 541 545 546 542
f 542 546 547 543
f 543 547 548 544
f 544 548 545 541
f 549 550 551 552
f 556 555 554 553
f 549 553 554 550
f 550 554 555 551
f 551 555 556 552
f 552 556 553 549
f 557 558 559 560
f 564 563 562 561
f 557 561 562 558
f 558 562 563 559
f 559 563 564 560
f 560 564 561 557
f 565 566 567 568
f 572 571 570 569
f 565 569 570 566
f 566 570 571 567
f 567 571 572 568
f 568 572 569 565
f 573 574 575 576
f 580 579 578 577
f 573 577 578 574
f 574 578 579 575
f 575 579 580 576
f 576 580 577 573
f 581 582 583 584
f 588 587 586 585
f 581 585 586 582
f 582 586 587 583
f 583 587 588 584
f 584 588 585 581
f 589 590 591 592
f 596 595 594 593
f 589 593 594 590
f 590 594 595 591
f 591 595 596 592
f 592 596 593 589
f 597 598 599 600
f 604 603 602 601
f 597 601 602 598
f 598 602 603 599
f 599 603 604 600
f 600 604 601 597
f 605 606 607 608
f 612 611 610 609
f 605 609 610 606
f 606 610 611 607
f 607 611 612 608
f 608 612 609 605
f 613 614 615 616
f 620 619 618 617
f 613 617 618 614
f 614 618 619 615
f 615 619 620 616
f 616 620 617 613
f 621 622 623 624
f 628 627 626 625
f 621 625 626 622
f 622 626 627 623
f 623 627 628 624
f 624 628 625 621
f 629 630 631 632
f 636 635 634 633
f 629 633 634 630
f 630 634 635 631
f 631 635 636 632
f 632 636 633 629
f 637 638 639 640
f 644 643 642 641
f 637 641 642 638
f 638 642 643 639
f 639 643 644 640
f 640 644 641 637
f 645 646 647 648
f 652 651 650 649
f 645 649 650 646
f 646 650 651 647
f 647 651 652 648
f 648 652 649 645
f 653 654 655 656
f 660 659 658 657
f 653 657 658 654
f 654 658 659 655
f 655 659 660 656
f 656 660 657 653
f 661 662 663 664
f 668 667 666 665
f 661 665 666 662
f 662 666 667 663
f 663 667 668 664
f 664 668 665 661
f 669 670 671 672
f 676 675 674 673
f 669 673 674 670
f 670 674 675 671
f 671 675 676 672
f 672 676 673 669
f 677 678 679 680
f 684 683 682 681
f 677 681 682 678
f 678 682 683 679
f 679 683 684 680
f 680 684 681 677
f 685 686 687 688
f 692 691 690 689
f 685 689 690 686
f 686 690 691 687
f 687 691 692 688
f 688 692 689 685
f 693 694 695 696
f 700 699 698 697
f 693 697 698 694
f 694 698 699 695
f 695 699 700 696
f 696 700 697 693
f 701 702 703 704
f 708 707 706 705
f 701 705 706 702
f 702 706 707 703
f 703 707 708 704
f 704 708 705 701
f 709 710 711 712
f 716 715 714 713
f 709 713 714 710
f 710 714 715 711
f 711 715 716 712
f 712 716 713 709
f 717 718 719 720
f 724 723 722 721
f 717 721 722 718
f 718 722 723 719
f 719 723 724 720
f 720 724 721 717
f 725 726 727 728
f 732 731 730 729
f 725 729 730 726
f 726 730 731 727
f 727 731 732 728
f 728 732 729 725
f 733 734 735 736
f 740 739 738 737
f 733 737 738 734
f 734 738 739 735
f 735 739 740 736
f 736 740 737 733
f 741 742 743 744 745 746 747 748 749 750 751 752 753 754 755 756 757
f 774 773 772 771 770 769 768 767 766 765 764 763 762 761 760 759 758
f 741 758 759 742
f 742 759 760 743
f 743 760 761 744
f 744 761 762 745
f 745 762 763 746
f 746 763 764 747
f 747 764 765 748
f 748 765 766 749
f 749 766 767 750
f 750 767 768 751
f 751 768 769 752
f 752 769 770 753
f 753 770 771 754
f 754 771 772 755
f 755 772 773 756
f 756 773 774 757
f 757 774 758 741
f 775 776 777 778
f 782 781 780 779
f 775 779 780 776
f 776 780 781 777
f 777 781 782 778
f 778 782 779 775
f 783 784 785 786
f 790 789 788 787
f 783 787 788 784
f 784 788 789 785
f 785 789 790 786
f 786 790 787 783
f 791 792 793 794
f 798 797 796 795
f 791 795 796 792
f 792 796 797 793
f 793 797 798 794
f 794 798 795 791
f 799 800 801 802
f 806 805 804 803
f 799 803 804 800
f 800 804 805 801
f 801 805 806 802
f 802 806 803 799
f 807 808 809 810
f 814 813 812 811
f 807 811 812 808
f 808 812 813 809
f 809 813 814 810
f 810 814 811 807
f 815 816 817 818
f 822 821 820 819
f 815 819 820 816
f 816 820 821 817
f 817 821 822 818
f 818 822 819 815
f 823 824 825 826
f 830 829 828 827
f 823 827 828 824
f 824 828 829 825
f 825 829 830 826
f 826 830 827 823
f 831 832 833 834
f 838 837 836 835
f 831 835 836 832
f 832 836 837 833
f 833 837 838 834
f 834 838 835 831
f 839 840 841 842
f 846 845 844 843
f 839 843 844 840
f 840 844 845 841
f 841 845 846 842
f 842 846 843 839
f 847 848 849 850
f 854 853 852 851
f 847 851 852 848
f 848 852 853 849
f 849 853 854 850
f 850 854 851 847
f 855 856 857 858
f 862 861 860 859
f 855 859 860 856
f 856 860 861 857
f 857 861 862 858
f 858 862 859 855
f 863 864 865 866
f 870 869 868 867
f 863 867 868 864
f 864 868 869 865
f 865 869 870 866
f 866 870 867 863
f 871 872 873 874
f 878 877 876 875
f 871 875 876 872
f 872 876 877 873
f 873 877 878 874
f 874 878 875 871
f 879 880 881 882
f 886 885 884 883
f 879 883 884 880
f 880 884 885 881
f 881 885 886 882
f 882 886 883 879
f 887 888 889 890
f 894 893 892 891
f 887 891 892 888
f 888 892 893 889
f 889 893 894 890
f 890 894 891 887
f 895 896 897 898
f 902 901 900 899
f 895 899 900 896
f 896 900 901 897
f 897 901 902 898
f 898 902 899 895
f 903 904 905 906
f 910 909 908 907
f 903 907 908 904
f 904 908 909 905
f 905 909 910 906
f 906 910 907 903
f 911 912 913 914
f 918 917 916 915
f 911 915 916 912
f 912 916 917 913
f 913 917 918 914
f 914 918 915 911
f 919 920 921 922
f 926 925 924 923
f 919 923 924 920
f 920 924 925 921
f 921 925 926 922
f 922 926 923 919
f 927 928 929 930
f 934 933 932 931
f 927 931 932 928
f 928 932 933 929
f 929 933 934 930
f 930 934 931 927
f 935 936 937 938
f 942 941 940 939
f 935 939 940 936
f 936 940 941 937
f 937 941 942 938
f 938 942 939 935
f 943 944 945 946
f 950 949 948 947
f 943 947 948 944
f 944 948 949 945
f 945 949 950 946
f 946 950 947 943
f 951 952 953 954
f 958 957 956 955
f 951 955 956 952
f 952 956 957 953
f 953 957 958 954
f 954 958 955 951
f 959 960 961 962
f 966 965 964 963
f 959 963 964 960
f 960 964 965 961
f 961 965 966 962
f 962 966 963 959
f 967 968 969 970
f 974 973 972 971
f 967 971 972 968
f 968 972 973 969
f 969 973 974 970
f 970 974 971 967
f 975 976 977 978
f 982 981 980 979
f 975 979 980 976
f 976 980 981 977
f 977 981 982 978
f 978 982 979 975
f 983 984 985 986
f 990 989 988 987
f 983 987 988 984
f 984 988 989 985
f 985 989 990 986
f 986 990 987 983
f 991 992 993 994
f 998 997 996 995
f 991 995 996 992
f 992 996 997 993
f 993 997 998 994
f 994 998 995 991
f 999 1000 1001 1002
f 1006 1005 1004 1003
f 999 1003 1004 1000
f 1000 1004 1005 1001
f 1001 1005 1006 1002
f 1002 1006 1003 999
f 1007 1008 1009 1010
f 1014 1013 1012 1011
f 1007 1011 1012 1008
f 1008 1012 1013 1009
f 1009 1013 1014 1010
f 1010 1014 1011 1007
f 1015 1016 1017 1018
f 1022 1021 1020 1019
f 1015 1019 1020 1016
f 1016 1020 1021 1017
f 1017 1021 1022 1018
f 1018 1022 1019 1015
f 1023 1024 1025 1026
f 1030 1029 1028 1027
f 1023 1027 1028 1024
f 1024 1028 1029 1025
f 1025 1029 1030 1026
f 1026 1030 1027 1023
f 1031 1032 1033 1034
f 1038 1037 1036 1035
f 1031 1035 1036 1032
f 1032 1036 1037 1033
f 1033 1037 1038 1034
f 1034 1038 1035 1031
f 1039 1040 1041 1042
f 1046 1045 1044 1043
f 1039 1043 1044 1040
f 1040 1044 1045 1041
f 1041 1045 1046 1042
f 1042 1046 1043 1039
f 1047 1048 1049 1050
f 1054 1053 1052 1051
f 1047 1051 1052 1048
f 1048 1052 1053 1049
f 1049 1053 1054 1050
f 1050 1054 1051 1047
f 1055 1056 1057 1058
f 1062 1061 1060 1059
f 1055 1059 1060 1056
f 1056 1060 1061 1057
f 1057 1061 1062 1058
f 1058 1062 1059 1055
f 1063 1064 1065 1066
f 1070 1069 1068 1067
f 1063 1067 1068 1064
f 1064 1068 1069 1065
f 1065 1069 1070 1066
f 1066 1070 1067 1063
f 1071 1072 1073 1074
f 1078 1077 1076 1075
f 1071 1075 1076 1072
f 1072 1076 1077 1073
f 1073 1077 1078 1074
f 1074 1078 1075 1071
f 1079 1080 1081 1082
f 1086 1085 1084 1083
f 1079 1083 1084 1080
f 1080 1084 1085 1081
f 1081 1085 1086 1082
f 1082 1086 1083 1079
f 1087 1088 1089 1090
f 1094 1093 1092 1091
f 1087 1091 1092 1088
f 1088 1092 1093 1089
f 1089 1093 1094 1090
f 1090 1094 1091 1087
f 1095 1096 1097 1098
f 1102 1101 1100 1099
f 1095 1099 1100 1096
f 1096 1100 1101 1097
f 1097 1101 1102 1098
f 1098 1102 1099 1095
f 1103 1104 1105 1106 1107 1108 1109 1110 1111 1112 1113 1114 1115 1116 1117 1118 1119
f 1136 1135 1134 1133 1132 1131 1130 1129 1128 1127 1126 1125 1124 1123 1122 1121 1120
f 1103 1120 1121 1104
f 1104 1121 1122 1105
f 1105 1122 1123 1106
f 1106 1123 1124 1107
f 1107 1124 1125 1108
f 1108 1125 1126 1109
f 1109 1126 1127 1110
f 1110 1127 1128 1111
f 1111 1128 1129 1112
f 1112 1129 1130 1113
f 1113 1130 1131 1114
f 1114 1131 1132 1115
f 1115 1132 1133 1116
f 1116 1133 1134 1117
f 1117 1134 1135 1118
f 1118 1135 1136 1119
f 1119 1136 1120 1103
f 1137 1138 1139 1140
f 1144 1143 1142 1141
f 1137 1141 1142 1138
f 1138 1142 1143 1139
f 1139 1143 1144 1140
f 1140 1144 1141 1137
f 1145 1146 1147 1148
f 1152 1151 1150 1149
f 1145 1149 1150 1146
f 1146 1150 1151 1147
f 1147 1151 1152 1148
f 1148 1152 1149 1145
f 1153 1154 1155 1156
f 1160 1159 1158 1157
f 1153 1157 1158 1154
f 1154 1158 1159 1155
f 1155 1159 1160 1156
f 1156 1160 1157 1153
f 1161 1162 1163 1164
f 1168 1167 1166 1165
f 1161 1165 1166 1162
f 1162 1166 1167 1163
f 1163 1167 1168 1164
f 1164 1168 1165 1161
f 1169 1170 1171 1172
f 1176 1175 1174 1173
f 1169 1173 1174 1170
f 1170 1174 1175 1171
f 1171 1175 1176 1172
f 1172 1176 1173 1169
f 1177 1178 1179 1180
f 1184 1183 1182 1181
f 1177 1181 1182 1178
f 1178 1182 1183 1179
f 1179 1183 1184 1180
f 1180 1184 1181 1177
f 1185 1186 1187 1188
f 1192 1191 1190 1189
f 1185 1189 1190 1186
f 1186 1190 1191 1187
f 1187 1191 1192 1188
f 1188 1192 1189 1185
f 1193 1194 1195 1196
f 1200 1199 1198 1197
f 1193 1197 1198 1194
f 1194 1198 1199 1195
f 1195 1199 1200 1196
f 1196 1200 1197 1193
f 1201 1202 1203 1204
f 1208 1207 1206 1205
f 1201 1205 1206 1202
f 1202 1206 1207 1203
f 1203 1207 1208 1204
f 1204 1208 1205 1201
f 1209 1210 1211 1212
f 1216 1215 1214 1213
f 1209 1213 1214 1210
f 1210 1214 1215 1211
f 1211 1215 1216 1212
f 1212 1216 1213 1209
f 1217 1218 1219 1220
f 1224 1223 1222 1221
f 1217 1221 1222 1218
f 1218 1222 1223 1219
f 1219 1223 1224 1220
f 1220 1224 1221 1217
f 1225 1226 1227 1228
f 1232 1231 1230 1229
f 1225 1229 1230 1226
f 1226 1230 1231 1227
f 1227 1231 1232 1228
f 1228 1232 1229 1225
f 1233 1234 1235 1236
f 1240 1239 1238 1237
f 1233 1237 1238 1234
f 1234 1238 1239 1235
f 1235 1239 1240 1236
f 1236 1240 1237 1233
f 1241 1242 1243 1244
f 1248 1247 1246 1245
f 1241 1245 1246 1242
f 1242 1246 1247 1243
f 1243 1247 1248 1244
f 1244 1248 1245 1241
f 1249 1250 1251 1252
f 1256 1255 1254 1253
f 1249 1253 1254 1250
f 1250 1254 1255 1251
f 1251 1255 1256 1252
f 1252 1256 1253 1249
f 1257 1258 1259 1260
f 1264 1263 1262 1261
f 1257 1261 1262 1258
f 1258 1262 1263 1259
f 1259 1263 1264 1260
f 1260 1264 1261 1257
f 1265 1266 1267 1268
f 1272 1271 1270 1269
f 1265 1269 1270 1266
f 1266 1270 1271 1267
f 1267 1271 1272 1268
f 1268 1272 1269 1265
f 1273 1274 1275 1276
f 1280 1279 1278 1277
f 1273 1277 1278 1274
f 1274 1278 1279 1275
f 1275 1279 1280 1276
f 1276 1280 1277 1273
f 1281 1282 1283 1284
f 1288 1287 1286 1285
f 1281 1285 1286 1282
f 1282 1286 1287 1283
f 1283 1287 1288 1284
f 1284 1288 1285 1281
f 1289 1290 1291 1292
f 1296 1295 1294 1293
f 1289 1293 1294 1290
f 1290 1294 1295 1291
f 1291 1295 1296 1292
f 1292 1296 1293 1289
f 1297 1298 1299 1300
f 1304 1303 1302 1301
f 1297 1301 1302 1298
f 1298 1302 1303 1299
f 1299 1303 1304 1300
f 1300 1304 1301 1297
f 1305 1306 1307 1308
f 1312 1311 1310 1309
f 1305 1309 1310 1306
f 1306 1310 1311 1307
f 1307 1311 1312 1308
f 1308 1312 1309 1305
f 1313 1314 1315 1316
f 1320 1319 1318 1317
f 1313 1317 1318 1314
f 1314 1318 1319 1315
f 1315 1319 1320 1316
f 1316 1320 1317 1313
f 1321 1322 1323 1324
f 1328 1327 1326 1325
f 1321 1325 1326 1322
f 1322 1326 1327 1323
f 1323 1327 1328 1324
f 1324 1328 1325 1321
f 1329 1330 1331 1332
f 1336 1335 1334 1333
f 1329 1333 1334 1330
f 1330 1334 1335 1331
f 1331 1335 1336 1332
f 1332 1336 1333 1329
f 1337 1338 1339 1340
f 1344 1343 1342 1341
f 1337 1341 1342 1338
f 1338 1342 1343 1339
f 1339 1343 1344 1340
f 1340 1344 1341 1337
f 1345 1346 1347 1348
f 1352 1351 1350 1349
f 1345 1349 1350 1346
f 1346 1350 1351 1347
f 1347 1351 1352 1348
f 1348 1352 1349 1345
f 1353 1354 1355 1356
f 1360 1359 1358 1357
f 1353 1357 1358 1354
f 1354 1358 1359 1355
f 1355 1359 1360 1356
f 1356 1360 1357 1353
f 1361 1362 1363 1364
f 1368 1367 1366 1365
f 1361 1365 1366 1362
f 1362 1366 1367 1363
f 1363 1367 1368 1364
f 1364 1368 1365 1361
f 1369 1370 1371 1372
f 1376 1375 1374 1373
f 1369 1373 1374 1370
f 1370 1374 1375 1371
f 1371 1375 1376 1372
f 1372 1376 1373 1369
f 1377 1378 1379 1380
f 1384 1383 1382 1381
f 1377 1381 1382 1378
f 1378 1382 1383 1379
f 1379 1383 1384 1380
f 1380 1384 1381 1377
f 1385 1386 1387 1388
f 1392 1391 1390 1389
f 1385 1389 1390 1386
f 1386 1390 1391 1387
f 1387 1391 1392 1388
f 1388 1392 1389 1385
f 1393 1394 1395 1396
f 1400 1399 1398 1397
f 1393 1397 1398 1394
f 1394 1398 1399 1395
f 1395 1399 1400 1396
f 1396 1400 1397 1393
f 1401 1402 1403 1404
f 1408 1407 1406 1405
f 1401 1405 1406 1402
f 1402 1406 1407 1403
f 1403 1407 1408 1404
f 1404 1408 1405 1401
f 1409 1410 1411 1412
f 1416 1415 1414 1413
f 1409 1413 1414 1410
f 1410 1414 1415 1411
f 1411 1415 1416 1412
f 1412 1416 1413 1409
f 1417 1418 1419 1420
f 1424 1423 1422 1421
f 1417 1421 1422 1418
f 1418 1422 1423 1419
f 1419 1423 1424 1420
f 1420 1424 1421 1417
f 1425 1426 1427 1428
f 1432 1431 1430 1429
f 1425 1429 1430 1426
f 1426 1430 1431 1427
f 1427 1431 1432 1428
f 1428 1432 1429 1425
f 1433 1434 1435 1436
f 1440 1439 1438 1437
f 1433 1437 1438 1434
f 1434 1438 1439 1435
f 1435 1439 1440 1436
f 1436 1440 1437 1433
f 1441 1442 1443 1444
f 1448 1447 1446 1445
f 1441 1445 1446 1442
f 1442 1446 1447 1443
f 1443 1447 1448 1444
f 1444 1448 1445 1441
f 1449 1450 1451 1452
f 1456 1455 1454 1453
f 1449 1453 1454 1450
f 1450 1454 1455 1451
f 1451 1455 1456 1452
f 1452 1456 1453 1449
f 1457 1458 1459 1460
f 1464 1463 1462 1461
f 1457 1461 1462 1458
f 1458 1462 1463 1459
f 1459 1463 1464 1460
f 1460 1464 1461 1457
f 1465 1466 1467 1468
f 1472 1471 1470 1469
f 1465 1469 1470 1466
f 1466 1470 1471 1467
f 1467 1471 1472 1468
f 1468 1472 1469 1465
f 1473 1474 1475 1476
f 1480 1479 1478 1477
f 1473 1477 1478 1474
f 1474 1478 1479 1475
f 1475 1479 1480 1476
f 1476 1480 1477 1473
f 1481 1482 1483 1484
f 1488 1487 1486 1485
f 1481 1485 1486 1482
f 1482 1486 1487 1483
f 1483 1487 1488 1484
f 1484 1488 1485 1481
f 1489 1490 1491 1492
f 1496 1495 1494 1493
f 1489 1493 1494 1490
f 1490 1494 1495 1491
f 1491 1495 1496 1492
f 1492 1496 1493 1489
f 1497 1498 1499 1500
f 1504 1503 1502 1501
f 1497 1501 1502 1498
f 1498 1502 1503 1499
f 1499 1503 1504 1500
f 1500 1504 1501 1497
f 1505 1506 1507 1508
f 1512 1511 1510 1509
f 1505 1509 1510 1506
f 1506 1510 1511 1507
f 1507 1511 1512 1508
f 1508 1512 1509 1505
f 1513 1514 1515 1516
f 1520 1519 1518 1517
f 1513 1517 1518 1514
f 1514 1518 1519 1515
f 1515 1519 1520 1516
f 1516 1520 1517 1513
f 1521 1522 1523 1524
f 1528 1527 1526 1525
f 1521 1525 1526 1522
f 1522 1526 1527 1523
f 1523 1527 1528 1524
f 1524 1528 1525 1521
f 1529 1530 1531 1532
f 1536 1535 1534 1533
f 1529 1533 1534 1530
f 1530 1534 1535 1531
f 1531 1535 1536 1532
f 1532 1536 1533 1529
f 1537 1538 1539 1540
f 1544 1543 1542 1541
f 1537 1541 1542 1538
f 1538 1542 1543 1539
f 1539 1543 1544 1540
f 1540 1544 1541 1537
f 1545 1546 1547 1548
f 1552 1551 1550 1549
f 1545 1549 1550 1546
f 1546 1550 1551 1547
f 1547 1551 1552 1548
f 1548 1552 1549 1545
f 1553 1554 1555 1556
f 1560 1559 1558 1557
f 1553 1557 1558 1554
f 1554 1558 1559 1555
f 1555 1559 1560 1556
f 1556 1560 1557 1553
f 1561 1562 1563 1564
f 1568 1567 1566 1565
f 1561 1565 1566 1562
f 1562 1566 1567 1563
f 1563 1567 1568 1564
f 1564 1568 1565 1561
f 1569 1570 1571 1572 1573 1574 1575 1576 1577 1578 1579 1580 1581 1582 1583 1584 1585
f 1602 1601 1600 1599 1598 1597 1596 1595 1594 1593 1592 1591 1590 1589 1588 1587 1586
f 1569 1586 1587 1570
f 1570 1587 1588 1571
f 1571 1588 1589 1572
f 1572 1589 1590 1573
f 1573 1590 1591 1574
f 1574 1591 1592 1575
f 1575 1592 1593 1576
f 1576 1593 1594 1577
f 1577 1594 1595 1578
f 1578 1595 1596 1579
f 1579 1596 1597 1580
f 1580 1597 1598 1581
f 1581 1598 1599 1582
f 1582 1599 1600 1583
f 1583 1600 1601 1584
f 1584 1601 1602 1585
f 1585 1602 1586 1569
f 1603 1604 1605 1606
f 1610 1609 1608 1607
f 1603 1607 1608 1604
f 1604 1608 1609 1605
f 1605 1609 1610 1606
f 1606 1610 1607 1603
f 1611 1612 1613 1614
f 1618 1617 1616 1615
f 1611 1615 1616 1612
f 1612 1616 1617 1613
f 1613 1617 1618 1614
f 1614 1618 1615 1611
f 1619 1620 1621 1622
f 1626 1625 1624 1623
f 1619 1623 1624 1620
f 1620 1624 1625 1621
f 1621 1625 1626 1622
f 1622 1626 1623 1619
f 1627 1628 1629 1630
f 1634 1633 1632 1631
f 1627 1631 1632 1628
f 1628 1632 1633 1629
f 1629 1633 1634 1630
f 1630 1634 1631 1627
f 1635 1636 1637 1638
f 1642 1641 1640 1639
f 1635 1639 1640 1636
f 1636 1640 1641 1637
f 1637 1641 1642 1638
f 1638 1642 1639 1635
f 1643 1644 1645 1646
f 1650 1649 1648 1647
f 1643 1647 1648 1644
f 1644 1648 1649 1645
f 1645 1649 1650 1646
f 1646 1650 1647 1643
f 1651 1652 1653 1654
f 1658 1657 1656 1655
f 1651 1655 1656 1652
f 1652 1656 1657 1653
f 1653 1657 1658 1654
f 1654 1658 1655 1651
f 1659 1660 1661 1662
f 1666 1665 1664 1663
f 1659 1663 1664 1660
f 1660 1664 1665 1661
f 1661 1665 1666 1662
f 1662 1666 1663 1659
f 1667 1668 1669 1670
f 1674 1673 1672 1671
f 1667 1671 1672 1668
f 1668 1672 1673 1669
f 1669 1673 1674 1670
f 1670 1674 1671 1667
f 1675 1676 1677 1678
f 1682 1681 1680 1679
f 1675 1679 1680 1676
f 1676 1680 1681 1677
f 1677 1681 1682 1678
f 1678 1682 1679 1675
f 1683 1684 1685 1686
f 1690 1689 1688 1687
f 1683 1687 1688 1684
f 1684 1688 1689 1685
f 1685 1689 1690 1686
f 1686 1690 1687 1683
f 1691 1692 1693 1694
f 1698 1697 1696 1695
f 1691 1695 1696 1692
f 1692 1696 1697 1693
f 1693 1697 1698 1694
f 1694 1698 1695 1691
f 1699 1700 1701 1702
f 1706 1705 1704 1703
f 1699 1703 1704 1700
f 1700 1704 1705 1701
f 1701 1705 1706 1702
f 1702 1706 1703 1699
f 1707 1708 1709 1710
f 1714 1713 1712 1711
f 1707 1711 1712 1708
f 1708 1712 1713 1709
f 1709 1713 1714 1710
f 1710 1714 1711 1707
f 1715 1716 1717 1718
f 1722 1721 1720 1719
f 1715 1719 1720 1716
f 1716 1720 1721 1717
f 1717 1721 1722 1718
f 1718 1722 1719 1715
f 1723 1724 1725 1726
f 1730 1729 1728 1727
f 1723 1727 1728 1724
f 1724 1728 1729 1725
f 1725 1729 1730 1726
f 1726 1730 1727 1723
f 1731 1732 1733 1734
f 1738 1737 1736 1735
f 1731 1735 1736 1732
f 1732 1736 1737 1733
f 1733 1737 1738 1734
f 1734 1738 1735 1731
f 1739 1740 1741 1742
f 1746 1745 1744 1743
f 1739 1743 1744 1740
f 1740 1744 1745 1741
f 1741 1745 1746 1742
f 1742 1746 1743 1739
f 1747 1748 1749 1750
f 1754 1753 1752 1751
f 1747 1751 1752 1748
f 1748 1752 1753 1749
f 1749 1753 1754 1750
f 1750 1754 1751 1747
f 1755 1756 1757 1758
f 1762 1761 1760 1759
f 1755 1759 1760 1756
f 1756 1760 1761 1757
f 1757 1761 1762 1758
f 1758 1762 1759 1755
f 1763 1764 1765 1766
f 1770 1769 1768 1767
f 1763 1767 1768 1764
f 1764 1768 1769 1765
f 1765 1769 1770 1766
f 1766 1770 1767 1763
f 1771 1772 1773 1774
f 1778 1777 1776 1775
f 1771 1775 1776 1772
f 1772 1776 1777 1773
f 1773 1777 1778 1774
f 1774 1778 1775 1771
f 1779 1780 1781 1782
f 1786 1785 1784 1783
f 1779 1783 1784 1780
f 1780 1784 1785 1781
f 1781 1785 1786 1782
f 1782 1786 1783 1779
f 1787 1788 1789 1790
f 1794 1793 1792 1791
f 1787 1791 1792 1788
f 1788 1792 1793 1789
f 1789 1793 1794 1790
f 1790 1794 1791 1787
f 1795 1796 1797 1798
f 1802 1801 1800 1799
f 1795 1799 1800 1796
f 1796 1800 1801 1797
f 1797 1801 1802 1798
f 1798 1802 1799 1795
f 1803 1804 1805 1806
f 1810 1809 1808 1807
f 1803 1807 1808 1804
f 1804 1808 1809 1805
f 1805 1809 1810 1806
f 1806 1810 1807 1803
f 1811 1812 1813 1814
f 1818 1817 1816 1815
f 1811 1815 1816 1812
f 1812 1816 1817 1813
f 1813 1817 1818 1814
f 1814 1818 1815 1811
f 1819 1820 1821 1822
f 1826 1825 1824 1823
f 1819 1823 1824 1820
f 1820 1824 1825 1821
f 1821 1825 1826 1822
f 1822 1826 1823 1819
f 1827 1828 1829 1830
f 1834 1833 1832 1831
f 1827 1831 1832 1828
f 1828 1832 1833 1829
f 1829 1833 1834 1830
f 1830 1834 1831 1827
